<svg height="600" viewBox="0 0 160 600" width="160" xmlns="http://www.w3.org/2000/svg"><g fill="#fefefe"><path d="m55.59 37.48c.39 0 .7.31.7.7v.03c0 .18-.05.34-.18.47l-1.79 1.87-6.76 15.68c-.16.36-.52.6-.91.6s-.75-.23-.91-.6l-4.76-11.08-4.76 11.08c-.16.36-.52.6-.91.6s-.75-.23-.91-.6l-6.73-15.68-1.79-1.85c-.13-.16-.21-.31-.21-.49 0-.39.31-.73.7-.73h7.15c.39 0 .7.31.7.7 0 .21-.08.39-.21.52l-1.4 1.35 3.87 9.49 3.17-7.51-.65-1.48-1.79-1.85c-.13-.16-.21-.31-.21-.49 0-.39.31-.73.7-.73h7.18c.39 0 .7.31.7.7 0 .21-.08.39-.23.52l-1.4 1.35 3.87 9.49 4-9.52-1.38-1.33c-.13-.13-.21-.31-.21-.52 0-.39.31-.7.7-.7h4.65z"/><path d="m59.34 51.21c.75 1.38 2 2.44 3.9 2.44 1.66 0 2.81-1.14 3.35-1.79.13-.16.31-.23.52-.23.1 0 .21.03.31.08.34.16.49.57.31.91-.65 1.27-2.44 3.95-6.21 3.95-4.16 0-6.79-2.86-6.79-6.92s2.89-6.94 7.05-6.94c2.44 0 4.68 1.43 5.75 4.68.13.39-.08.83-.47.96zm-.52-1.33 4.94-1.85c-.99-2.55-2.21-3.64-3.33-3.64-.18 0-.36.03-.55.08-1.27.44-1.74 3.07-1.07 5.41z"/><path d="m89.29 53.94 1.01 1.17c.1.13.16.29.16.47 0 .39-.31.73-.73.73h-5.28c-.42 0-.73-.34-.73-.73 0-.18.05-.34.16-.47l.99-1.17v-5.33c0-3.09-.31-4.19-1.48-4.19-.7 0-1.38.6-1.92 1.3v8.22l.99 1.17c.1.13.18.29.18.47 0 .39-.34.73-.73.73h-5.3c-.39 0-.73-.34-.73-.73 0-.18.08-.34.18-.47l.99-1.17v-12.97l-.88-.78c-.18-.16-.29-.39-.29-.62 0-.36.26-.7.6-.81l3.72-1.12c.1-.03.21-.05.31-.05.18 0 .36.05.52.18.29.18.44.47.44.81v5.62c.81-.78 1.9-1.46 3.25-1.46 1.92 0 4.58 1.12 4.58 5.36v5.85z"/><path d="m104.53 53.94.99 1.17c.13.13.18.29.18.47 0 .39-.34.73-.73.73h-2.96c-.91 0-1.69-.65-1.85-1.51-1.01.88-2.44 1.77-4.16 1.77-2.37 0-4.24-1.17-4.24-3.46 0-3.59 5.9-4.76 8.35-5.07v-.83c0-2.42-1.07-3.33-2.18-3.33-1.2 0-1.66 1.09-1.85 2.34-.1.81-.81 1.43-1.64 1.43-1.38 0-2.18-1.56-1.35-2.65 1.12-1.53 3.22-2.29 5.28-2.29 3.56 0 6.16 1.22 6.16 5.2zm-6.6.6c.75 0 1.56-.55 2.18-1.14v-4.24c-1.64.26-3.67 1.2-3.67 3.51 0 1.25.47 1.87 1.48 1.87z"/><path d="m120.67 43.44c0 .18-.08.36-.21.49l-1.17 1.17-3.07 9.54c-.42 1.3-1.64 2.18-2.99 2.18h-.1c-1.38 0-2.57-.88-2.99-2.18l-3.07-9.54-1.17-1.17c-.16-.13-.21-.31-.21-.49 0-.39.31-.7.7-.7h5.54c.42 0 .75.34.75.75 0 .16-.05.31-.13.44l-.86 1.17 2.44 8.14c.03.1.13.18.23.18s.23-.08.26-.18l2.65-8.37-.83-.94c-.16-.16-.21-.36-.18-.57.05-.36.36-.62.73-.62h2.96c.39 0 .7.31.7.7z"/><path d="m125.27 51.21c.75 1.38 2 2.44 3.9 2.44 1.66 0 2.81-1.14 3.35-1.79.13-.16.31-.23.52-.23.1 0 .21.03.31.08.34.16.49.57.31.91-.65 1.27-2.44 3.95-6.21 3.95-4.16 0-6.79-2.86-6.79-6.92s2.89-6.94 7.05-6.94c2.44 0 4.68 1.43 5.75 4.68.13.39-.08.83-.47.96zm-.52-1.33 4.94-1.85c-.99-2.55-2.21-3.64-3.33-3.64-.18 0-.36.03-.55.08-1.27.44-1.74 3.07-1.07 5.41z"/><path d="m36.04 73.91c4.19 0 7.07 2.89 7.07 6.94s-2.89 6.92-7.07 6.92-7.05-2.86-7.05-6.92 2.89-6.94 7.05-6.94zm-2.34 7.36c.65 3.59 1.56 5.02 2.91 5.02.13 0 .26 0 .39-.03 1.59-.29 2.08-1.9 1.4-5.82-.65-3.59-1.56-5.02-2.94-5.02-.13 0-.26 0-.39.03-1.56.26-2.08 1.9-1.38 5.82z"/><path d="m58.27 87.51h-5.28c-.42 0-.73-.34-.73-.73 0-.18.05-.34.16-.47l.99-1.17v-5.33c0-3.09-.34-4.19-1.48-4.19-.7 0-1.38.6-1.92 1.3v8.22l.99 1.17c.1.13.18.29.18.47 0 .39-.34.73-.73.73h-5.3c-.39 0-.73-.34-.73-.73 0-.18.08-.34.18-.47l.99-1.17v-7.88l-.88-.78c-.18-.16-.29-.39-.29-.62 0-.36.23-.68.6-.81l3.72-1.12c.1-.03.21-.05.31-.05.18 0 .36.05.52.18.29.18.44.49.44.81v.52c.81-.78 1.9-1.46 3.25-1.46 1.92 0 4.58 1.12 4.58 5.36v5.85l.99 1.17c.13.13.18.29.18.47 0 .39-.34.73-.73.73z"/><path d="m64.9 82.41c.75 1.38 2 2.44 3.9 2.44 1.66 0 2.81-1.14 3.35-1.79.13-.16.31-.23.52-.23.1 0 .21.03.31.08.34.16.49.57.31.91-.65 1.27-2.44 3.95-6.21 3.95-4.16 0-6.79-2.86-6.79-6.92s2.89-6.94 7.05-6.94c2.44 0 4.68 1.43 5.75 4.68.13.39-.08.83-.47.96zm-.52-1.33 4.94-1.85c-.99-2.55-2.21-3.64-3.33-3.64-.18 0-.36.03-.55.08-1.27.44-1.74 3.07-1.07 5.41z"/><path d="m90.69 78.17c-1.07 0-1.74-1.64-2.57-1.64-.31 0-.68.26-1.09.99v7.62l.99 1.17c.1.13.18.29.18.47 0 .39-.34.73-.73.73h-5.3c-.39 0-.73-.34-.73-.73 0-.18.08-.34.18-.47l.99-1.17v-7.88l-.88-.78c-.18-.16-.29-.39-.29-.62 0-.36.23-.68.6-.81l3.72-1.12c.1-.03.21-.05.31-.05.18 0 .36.05.52.18.29.18.44.49.44.81v1.22c.83-1.22 1.95-2.26 3.51-2.26 1.07 0 2 .68 2.26 1.66.26 1.2-.52 2.68-2.11 2.68z"/><path d="m106.27 73.94c.44 0 .78.34.78.78v9.72l.88.75c.16.16.26.34.29.57.03.39-.21.75-.6.88l-3.72 1.12c-.1.03-.21.05-.29.05-.52 0-.99-.47-.99-.99v-.73c-.78.88-1.87 1.66-3.25 1.66-1.9 0-4.58-1.12-4.58-5.36v-6.11l-.99-1.17c-.1-.13-.18-.29-.18-.47 0-.39.34-.73.73-.73h4.08c.44 0 .78.34.78.78v7.18c0 3.09.34 4.03 1.48 4.03.73 0 1.4-.68 1.92-1.43v-8.19l-.99-1.17c-.1-.13-.16-.29-.16-.47 0-.39.31-.73.73-.73h4.06z"/><path d="m110.09 71.39c-.18-.16-.29-.39-.29-.62 0-.36.26-.7.6-.81l3.72-1.12c.1-.03.21-.05.31-.05.18 0 .36.05.52.18.29.18.44.47.44.81v15.37l.99 1.17c.1.13.18.29.18.47 0 .39-.34.73-.73.73h-5.3c-.39 0-.73-.34-.73-.73 0-.18.08-.34.18-.47l.99-1.17v-12.97l-.88-.78z"/><path d="m122.47 82.41c.75 1.38 2 2.44 3.9 2.44 1.66 0 2.81-1.14 3.35-1.79.13-.16.31-.23.52-.23.1 0 .21.03.31.08.34.16.49.57.31.91-.65 1.27-2.44 3.95-6.21 3.95-4.16 0-6.79-2.86-6.79-6.92s2.89-6.94 7.05-6.94c2.44 0 4.68 1.43 5.75 4.68.13.39-.08.83-.47.96zm-.52-1.33 4.94-1.85c-.99-2.55-2.21-3.64-3.33-3.64-.18 0-.36.03-.55.08-1.27.44-1.74 3.07-1.07 5.41z"/><path d="m51.68 117.98c0 .39-.31.73-.73.73h-5.28c-.39 0-.73-.34-.73-.73 0-.18.05-.34.18-.47l.99-1.17v-7.88l-.88-.78c-.18-.16-.29-.39-.29-.62 0-.36.23-.68.6-.81l3.72-1.12c.1-.03.21-.05.31-.05.18 0 .36.05.52.18.29.18.44.49.44.81v10.27l.99 1.17c.1.13.16.29.16.47zm-4.16-18.44c.21-.05.42-.08.62-.08 1.17 0 2.24.75 2.5 1.87.29 1.3-.6 2.63-2.03 2.96-.21.05-.44.08-.65.08-1.17 0-2.21-.75-2.44-1.85-.31-1.33.57-2.65 2-2.99z"/><path d="m67.1 118.71h-5.28c-.42 0-.73-.34-.73-.73 0-.18.05-.34.16-.47l.99-1.17v-5.33c0-3.09-.34-4.19-1.48-4.19-.7 0-1.38.6-1.92 1.3v8.22l.99 1.17c.1.13.18.29.18.47 0 .39-.34.73-.73.73h-5.3c-.39 0-.73-.34-.73-.73 0-.18.08-.34.18-.47l.99-1.17v-7.88l-.88-.78c-.18-.16-.29-.39-.29-.62 0-.36.23-.68.6-.81l3.72-1.12c.1-.03.21-.05.31-.05.18 0 .36.05.52.18.29.18.44.49.44.81v.52c.81-.78 1.9-1.46 3.25-1.46 1.92 0 4.58 1.12 4.58 5.36v5.85l.99 1.17c.13.13.18.29.18.47 0 .39-.34.73-.73.73z"/><path d="m84.81 116.24c.23.26.23.68-.03.91-.7.68-2.18 1.82-4.34 1.82-1.48 0-3.09-1.09-3.09-3.25v-9.18h-.62c-.44-.03-.83-.39-.83-.86 0-.34.23-.65.55-.78 2.37-.86 3.56-2.18 4.16-3.02.13-.16.34-.26.55-.26.36 0 .62.29.62.65v2.83l1.98.03c.39 0 .7.31.7.7 0 .42-.31.73-.7.73l-1.98-.03v8.29c0 .94.42 1.59 1.27 1.59.34 0 .65-.13.88-.29.13-.08.26-.13.39-.13.18 0 .36.08.47.21l.03.03z"/><path d="m99.44 116.34 1.01 1.17c.1.13.16.29.16.47 0 .39-.31.73-.73.73h-5.28c-.42 0-.73-.34-.73-.73 0-.18.05-.34.16-.47l.99-1.17v-5.33c0-3.09-.31-4.19-1.48-4.19-.7 0-1.38.6-1.92 1.3v8.22l.99 1.17c.1.13.18.29.18.47 0 .39-.34.73-.73.73h-5.3c-.39 0-.73-.34-.73-.73 0-.18.08-.34.18-.47l.99-1.17v-12.97l-.88-.78c-.18-.16-.29-.39-.29-.62 0-.36.26-.7.6-.81l3.72-1.12c.1-.03.21-.05.31-.05.18 0 .36.05.52.18.29.18.44.47.44.81v5.62c.81-.78 1.9-1.46 3.25-1.46 1.92 0 4.58 1.12 4.58 5.36v5.85z"/><path d="m106.51 113.61c.75 1.38 2 2.44 3.9 2.44 1.66 0 2.81-1.14 3.35-1.79.13-.16.31-.23.52-.23.1 0 .21.03.31.08.34.16.49.57.31.91-.65 1.27-2.44 3.95-6.21 3.95-4.16 0-6.79-2.86-6.79-6.92s2.89-6.94 7.05-6.94c2.44 0 4.68 1.43 5.75 4.68.13.39-.08.83-.47.96zm-.52-1.33 4.94-1.85c-.99-2.55-2.21-3.64-3.33-3.64-.18 0-.36.03-.55.08-1.27.44-1.74 3.07-1.07 5.41z"/><path d="m36.19 133.6c-2.6 0-2.86 3.59-2.86 5.49 0 3.85 2.26 7.98 5.98 7.98 2.31 0 3.77-1.74 4.39-2.7.16-.23.42-.39.7-.39.1 0 .23.03.34.08.42.21.57.7.36 1.12-.81 1.59-3.07 4.99-7.67 4.99-3.3 0-8.89-2.24-8.89-9.54s5.59-9.54 8.89-9.54c2.91 0 5.82 1.07 7.41 4.42.65 1.35.03 2.96-1.35 3.51l-.03.03c-.31.13-.65.21-.99.21-1.12 0-2.18-.78-2.5-1.95-.65-2.42-2.13-3.69-3.8-3.69z"/><path d="m53.55 136.31c4.19 0 7.07 2.89 7.07 6.94s-2.89 6.92-7.07 6.92-7.05-2.86-7.05-6.92 2.89-6.94 7.05-6.94zm-2.34 7.36c.65 3.59 1.56 5.02 2.91 5.02.13 0 .26 0 .39-.03 1.59-.29 2.08-1.9 1.4-5.82-.65-3.59-1.56-5.02-2.94-5.02-.13 0-.26 0-.39.03-1.56.26-2.08 1.9-1.38 5.82z"/><path d="m66.24 136.33c.1-.03.21-.05.31-.05.18 0 .36.05.52.18.29.18.44.49.44.81v.52c.78-.78 1.87-1.46 3.25-1.46 1.3 0 2.99.52 3.9 2.24.81-1.04 2.13-2.24 3.93-2.24 1.92 0 4.6 1.12 4.6 5.36v5.85l.99 1.17c.1.13.16.29.16.47 0 .39-.31.73-.73.73h-5.28c-.42 0-.73-.34-.73-.73 0-.18.05-.34.16-.47l1.01-1.17v-5.33c0-3.09-.34-4.19-1.51-4.19-.83 0-1.59.81-2.16 1.64.16.57.23 1.25.23 2.03v5.85l.99 1.17c.13.13.18.29.18.47 0 .39-.34.73-.73.73h-5.28c-.42 0-.75-.34-.75-.73 0-.18.08-.34.18-.47l.99-1.17v-5.33c0-3.09-.34-4.19-1.48-4.19-.73 0-1.4.6-1.92 1.3v8.22l.99 1.17c.1.13.16.29.16.47 0 .39-.31.73-.73.73h-5.28c-.39 0-.73-.34-.73-.73 0-.18.05-.34.18-.47l.99-1.17v-7.88l-.88-.78c-.18-.16-.29-.39-.29-.62 0-.36.23-.68.6-.81z"/><path d="m91.49 147.54.99 1.17c.1.13.16.29.16.47 0 .39-.31.73-.73.73h-5.28c-.42 0-.73-.34-.73-.73 0-.18.05-.34.16-.47l1.01-1.17v-9.8h-.47c-.39-.03-.7-.34-.7-.73s.31-.73.73-.7h.44c0-3.3 1.87-5.23 4.32-5.23 1.04 0 1.82.55 2.39 1.12.57.6.47 1.59-.21 2.05-.23.16-.49.23-.75.23-.57 0-1.09-.34-1.3-.94-.21-.65-.57-1.25-1.25-1.25-.81 0-1.14.57-1.14 1.14 0 1.87 2.05 2.76 2.31 2.86l1.72.03c.39 0 .7.31.7.7 0 .42-.31.73-.7.73l-1.66-.03v9.8z"/><path d="m101.73 136.31c4.19 0 7.07 2.89 7.07 6.94s-2.89 6.92-7.07 6.92-7.05-2.86-7.05-6.92 2.89-6.94 7.05-6.94zm-2.34 7.36c.65 3.59 1.56 5.02 2.91 5.02.13 0 .26 0 .39-.03 1.59-.29 2.08-1.9 1.4-5.82-.65-3.59-1.56-5.02-2.94-5.02-.13 0-.26 0-.39.03-1.56.26-2.08 1.9-1.38 5.82z"/><path d="m119.36 140.57c-1.07 0-1.74-1.64-2.57-1.64-.31 0-.68.26-1.09.99v7.62l.99 1.17c.1.13.18.29.18.47 0 .39-.34.73-.73.73h-5.3c-.39 0-.73-.34-.73-.73 0-.18.08-.34.18-.47l.99-1.17v-7.88l-.88-.78c-.18-.16-.29-.39-.29-.62 0-.36.23-.68.6-.81l3.72-1.12c.1-.03.21-.05.31-.05.18 0 .36.05.52.18.29.18.44.49.44.81v1.22c.83-1.22 1.95-2.26 3.51-2.26 1.07 0 2 .68 2.26 1.66.26 1.2-.52 2.68-2.11 2.68z"/><path d="m131.21 147.44c.23.26.23.68-.03.91-.7.68-2.18 1.82-4.34 1.82-1.48 0-3.09-1.09-3.09-3.25v-9.18h-.62c-.44-.03-.83-.39-.83-.86 0-.34.23-.65.55-.78 2.37-.86 3.56-2.18 4.16-3.02.13-.16.34-.26.55-.26.36 0 .62.29.62.65v2.83l1.98.03c.39 0 .7.31.7.7 0 .42-.31.73-.7.73l-1.98-.03v8.29c0 .94.42 1.59 1.27 1.59.34 0 .65-.13.88-.29.13-.08.26-.13.39-.13.18 0 .36.08.47.21l.03.03z"/><path d="m53.66 164.36c-1.92 0-3.72.99-4.78 2.6l-.6.88c-.1.18-.31.29-.52.29-.36 0-.65-.29-.65-.65v-4.42c0-.42.34-.78.78-.78h11.47c.88 0 1.61.73 1.61 1.61 0 .31-.1.62-.26.88l-8.81 13.86c-.1.16.03.39.21.39h2.29c1.95 0 3.74-.96 4.81-2.6l.57-.86c.13-.18.34-.31.55-.31.36 0 .65.31.65.65v4.42c0 .44-.36.78-.78.78h-12.14c-.88 0-1.61-.73-1.61-1.61 0-.31.1-.6.26-.86l8.81-13.86c.1-.18-.03-.42-.21-.42h-1.64z"/><path d="m69.31 167.51c4.19 0 7.07 2.89 7.07 6.94s-2.89 6.92-7.07 6.92-7.05-2.86-7.05-6.92 2.89-6.94 7.05-6.94zm-2.34 7.36c.65 3.59 1.56 5.02 2.91 5.02.13 0 .26 0 .39-.03 1.59-.29 2.08-1.9 1.4-5.82-.65-3.59-1.56-5.02-2.94-5.02-.13 0-.26 0-.39.03-1.56.26-2.08 1.9-1.38 5.82z"/><path d="m91.54 181.11h-5.28c-.42 0-.73-.34-.73-.73 0-.18.05-.34.16-.47l.99-1.17v-5.33c0-3.09-.34-4.19-1.48-4.19-.7 0-1.38.6-1.92 1.3v8.22l.99 1.17c.1.13.18.29.18.47 0 .39-.34.73-.73.73h-5.3c-.39 0-.73-.34-.73-.73 0-.18.08-.34.18-.47l.99-1.17v-7.88l-.88-.78c-.18-.16-.29-.39-.29-.62 0-.36.23-.68.6-.81l3.72-1.12c.1-.03.21-.05.31-.05.18 0 .36.05.52.18.29.18.44.49.44.81v.52c.81-.78 1.9-1.46 3.25-1.46 1.92 0 4.58 1.12 4.58 5.36v5.85l.99 1.17c.13.13.18.29.18.47 0 .39-.34.73-.73.73z"/><path d="m98.17 176.01c.75 1.38 2 2.44 3.9 2.44 1.66 0 2.81-1.14 3.35-1.79.13-.16.31-.23.52-.23.1 0 .21.03.31.08.34.16.49.57.31.91-.65 1.27-2.44 3.95-6.21 3.95-4.16 0-6.79-2.86-6.79-6.92s2.89-6.94 7.05-6.94c2.44 0 4.68 1.43 5.75 4.68.13.39-.08.83-.47.96zm-.52-1.33 4.94-1.85c-.99-2.55-2.21-3.64-3.33-3.64-.18 0-.36.03-.55.08-1.27.44-1.74 3.07-1.07 5.41z"/><path d="m110.86 176.56c1.33 0 2.39 1.09 2.39 2.42s-1.07 2.39-2.39 2.39-2.39-1.07-2.39-2.39 1.07-2.42 2.39-2.42z"/><path d="m39.7 195.88v14.2c0 1.38-1.12 2.5-2.5 2.5-.88 0-1.69-.47-2.13-1.22l-7.36-12.35v10.95l.99 1.17c.1.13.18.29.18.47 0 .39-.34.73-.73.73h-3.22c-.39 0-.73-.34-.73-.73 0-.18.08-.34.18-.47l.99-1.17v-14.07l-.99-1.2c-.1-.13-.18-.29-.18-.47 0-.39.34-.73.73-.73h4.89c.57 0 1.07.31 1.35.78l6.19 10.53v-8.92l-1.01-1.2c-.1-.13-.16-.29-.16-.47 0-.39.31-.73.73-.73h3.2c.42 0 .73.34.73.73 0 .18-.05.34-.16.47z"/><path d="m48.93 198.71c4.19 0 7.07 2.89 7.07 6.94s-2.89 6.92-7.07 6.92-7.05-2.86-7.05-6.92 2.89-6.94 7.05-6.94zm-2.34 7.36c.65 3.59 1.56 5.02 2.91 5.02.13 0 .26 0 .39-.03 1.59-.29 2.08-1.9 1.4-5.82-.65-3.59-1.56-5.02-2.94-5.02-.13 0-.26 0-.39.03-1.56.26-2.08 1.9-1.38 5.82z"/><path d="m76.82 203.52c0 2.73-2.7 4.81-6.37 4.81-.91 0-1.77-.13-2.52-.36-.16.23-.29.55-.29.86-.03.65.1.91 2.42.91h2.18c2.11 0 4.32 1.46 4.32 3.9s-2.37 4.24-6.24 4.24c-2.63 0-5.43-.91-5.43-2.76 0-1.07.81-1.69 1.59-2.05-1.53-.52-1.98-1.66-1.98-2.5 0-1.66 1.46-2.73 2.13-3.12-1.59-.88-2.57-2.29-2.57-3.93 0-2.7 2.73-4.81 6.4-4.81 1.01 0 1.98.18 2.81.47.49-.75 1.85-2.11 2.83-2.11.6 0 1.14.47 1.14 1.14 0 .6-.47 1.09-1.07 1.14-.49.03-1.09.13-1.64.42 1.43.86 2.29 2.21 2.29 3.74zm-3.64 11.23c0-.83-.68-1.43-1.79-1.43h-2.73c-1.43.73-1.01 3.09 1.87 3.09 1.66 0 2.65-.57 2.65-1.66zm-2.73-14.61c-.91 0-1.98.7-1.98 3.38s1.07 3.38 1.98 3.38 1.95-.7 1.95-3.38-1.04-3.38-1.95-3.38z"/><path d="m87.79 202.97c-1.07 0-1.74-1.64-2.57-1.64-.31 0-.68.26-1.09.99v7.62l.99 1.17c.1.13.18.29.18.47 0 .39-.34.73-.73.73h-5.3c-.39 0-.73-.34-.73-.73 0-.18.08-.34.18-.47l.99-1.17v-7.88l-.88-.78c-.18-.16-.29-.39-.29-.62 0-.36.23-.68.6-.81l3.72-1.12c.1-.03.21-.05.31-.05.18 0 .36.05.52.18.29.18.44.49.44.81v1.22c.83-1.22 1.95-2.26 3.51-2.26 1.07 0 2 .68 2.26 1.66.26 1.2-.52 2.68-2.11 2.68z"/><path d="m97.52 198.71c4.19 0 7.07 2.89 7.07 6.94s-2.89 6.92-7.07 6.92-7.05-2.86-7.05-6.92 2.89-6.94 7.05-6.94zm-2.34 7.36c.65 3.59 1.56 5.02 2.91 5.02.13 0 .26 0 .39-.03 1.59-.29 2.08-1.9 1.4-5.82-.65-3.59-1.56-5.02-2.94-5.02-.13 0-.26 0-.39.03-1.56.26-2.08 1.9-1.38 5.82z"/><path d="m118.4 198.73c.44 0 .78.34.78.78v9.72l.88.75c.16.16.26.34.29.57.03.39-.21.75-.6.88l-3.72 1.12c-.1.03-.21.05-.29.05-.52 0-.99-.47-.99-.99v-.73c-.78.88-1.87 1.66-3.25 1.66-1.9 0-4.58-1.12-4.58-5.36v-6.11l-.99-1.17c-.1-.13-.18-.29-.18-.47 0-.39.34-.73.73-.73h4.08c.44 0 .78.34.78.78v7.18c0 3.09.34 4.03 1.48 4.03.73 0 1.4-.68 1.92-1.43v-8.19l-.99-1.17c-.1-.13-.16-.29-.16-.47 0-.39.31-.73.73-.73h4.06z"/><path d="m127.5 216.05 1.01 1.17c.1.13.16.29.16.47 0 .39-.31.73-.73.73h-5.28c-.42 0-.73-.34-.73-.73 0-.18.05-.34.16-.47l.99-1.17v-13.99l-.86-.78c-.18-.16-.29-.39-.29-.62 0-.36.23-.68.6-.81l3.69-1.12c.1-.03.21-.05.31-.05.52 0 .96.44.96.99v.05c.81-.52 1.9-.99 3.35-.99 2.86 0 4.89 2.03 4.89 5.9 0 5.1-3.04 7.67-7.46 7.67h-.78v3.74zm0-14.53v9.31c.08.03.16.03.23.03 2.63 0 3.59-1.64 3.59-5.64 0-2.76-.83-4.26-2.29-4.26-.62 0-1.12.23-1.53.57z"/><path d="m56.41 239.82c-.62 1.27-2.44 3.95-6.19 3.95-4.19 0-6.81-2.86-6.81-6.92s2.89-6.94 7.07-6.94c2.24 0 4.16.68 5.43 2.47.86 1.2.31 2.91-1.09 3.41-.26.1-.52.16-.81.16-.88 0-1.74-.55-2.08-1.46-.91-2.31-1.74-2.94-2.68-2.94-2.96 0-2.65 9.31 2.65 9.31 1.66 0 2.81-1.14 3.35-1.79.13-.16.31-.23.52-.23.1 0 .23.03.34.08.34.16.47.57.29.91z"/><path d="m71.23 241.14 1.01 1.17c.1.13.16.29.16.47 0 .39-.31.73-.73.73h-5.28c-.42 0-.73-.34-.73-.73 0-.18.05-.34.16-.47l.99-1.17v-5.33c0-3.09-.31-4.19-1.48-4.19-.7 0-1.38.6-1.92 1.3v8.22l.99 1.17c.1.13.18.29.18.47 0 .39-.34.73-.73.73h-5.3c-.39 0-.73-.34-.73-.73 0-.18.08-.34.18-.47l.99-1.17v-12.97l-.88-.78c-.18-.16-.29-.39-.29-.62 0-.36.26-.7.6-.81l3.72-1.12c.1-.03.21-.05.31-.05.18 0 .36.05.52.18.29.18.44.47.44.81v5.62c.81-.78 1.9-1.46 3.25-1.46 1.92 0 4.58 1.12 4.58 5.36v5.85z"/><path d="m86.47 241.14.99 1.17c.13.13.18.29.18.47 0 .39-.34.73-.73.73h-2.96c-.91 0-1.69-.65-1.85-1.51-1.01.88-2.44 1.77-4.16 1.77-2.37 0-4.24-1.17-4.24-3.46 0-3.59 5.9-4.76 8.35-5.07v-.83c0-2.42-1.07-3.33-2.18-3.33-1.2 0-1.66 1.09-1.85 2.34-.1.81-.81 1.43-1.64 1.43-1.38 0-2.18-1.56-1.35-2.65 1.12-1.53 3.22-2.29 5.28-2.29 3.56 0 6.16 1.22 6.16 5.2zm-6.6.6c.75 0 1.56-.55 2.18-1.14v-4.24c-1.64.26-3.67 1.2-3.67 3.51 0 1.25.47 1.87 1.48 1.87z"/><path d="m97.6 241.04c.23.26.23.68-.03.91-.7.68-2.18 1.82-4.34 1.82-1.48 0-3.09-1.09-3.09-3.25v-9.18h-.62c-.44-.03-.83-.39-.83-.86 0-.34.23-.65.55-.78 2.37-.86 3.56-2.18 4.16-3.02.13-.16.34-.26.55-.26.36 0 .62.29.62.65v2.83l1.98.03c.39 0 .7.31.7.7 0 .42-.31.73-.7.73l-1.98-.03v8.29c0 .94.42 1.59 1.27 1.59.34 0 .65-.13.88-.29.13-.08.26-.13.39-.13.18 0 .36.08.47.21l.03.03z"/><path d="m108.83 234.04c-.23 0-.44-.13-.55-.31-.44-.78-1.72-2.7-3.3-2.7-.7 0-1.38.34-1.38 1.43 0 3.15 6.32 2.11 6.32 7.05 0 2.7-2.96 4.21-6.16 4.21-2.11 0-3.54-.47-4.21-.78-.29-.1-.47-.39-.47-.7v-2.52c0-.39.34-.73.73-.73.31 0 .57.21.68.49.36.96 1.33 3.07 3.2 3.07 1.12 0 1.74-.88 1.74-1.87 0-3.09-6.34-1.9-6.34-6.92 0-2.65 2.55-3.87 5.43-3.87 1.98 0 3.61.49 4.42.78.31.1.52.42.52.73v2.03c0 .34-.29.62-.62.62z"/><path d="m113.87 238.96c1.33 0 2.39 1.09 2.39 2.42s-1.07 2.39-2.39 2.39-2.39-1.07-2.39-2.39 1.07-2.42 2.39-2.42z"/></g><path d="m0 0h160v600h-160z" fill="none"/></svg>