<svg height="600" viewBox="0 0 160 600" width="160" xmlns="http://www.w3.org/2000/svg"><g fill="#fff"><path d="m25.33 574.25c-.18.35-.44.77-.79 1.28s-.79.98-1.33 1.44c-.55.46-1.2.85-1.96 1.17-.76.33-1.64.49-2.64.49-.73 0-1.54-.14-2.44-.41s-1.74-.73-2.54-1.38-1.47-1.5-2.01-2.58c-.54-1.07-.81-2.4-.81-4s.27-2.93.81-4 1.21-1.93 2.01-2.58 1.64-1.11 2.54-1.38 1.71-.41 2.44-.41c.64 0 1.27.06 1.89.19s1.22.34 1.79.64 1.09.7 1.57 1.2.89 1.12 1.24 1.85c.14.29.21.59.22.91 0 .32-.04.62-.15.9s-.27.53-.48.75-.47.39-.77.51l-.02.02c-.29.12-.58.18-.87.18-.49 0-.94-.16-1.36-.47s-.7-.73-.83-1.24c-.29-1.06-.73-1.87-1.33-2.42s-1.26-.82-1.99-.82c-.56 0-1.01.17-1.34.51s-.59.76-.76 1.26-.28 1.03-.33 1.58-.07 1.04-.07 1.45c0 .84.12 1.67.36 2.51s.59 1.59 1.04 2.26.99 1.21 1.64 1.62 1.38.62 2.2.62c.5 0 .96-.08 1.38-.25s.79-.37 1.11-.62c.32-.24.59-.5.82-.77s.41-.52.55-.73c.15-.23.36-.34.62-.34.11 0 .21.02.3.07.18.09.3.23.36.42s.05.38-.05.56z"/><path d="m31.83 566.48c.91 0 1.75.15 2.51.46.76.3 1.41.72 1.96 1.25s.97 1.17 1.28 1.91c.3.74.46 1.56.46 2.46s-.15 1.69-.46 2.44c-.3.74-.73 1.39-1.28 1.93s-1.2.96-1.96 1.25c-.76.3-1.6.44-2.51.44s-1.75-.15-2.51-.44c-.76-.3-1.41-.71-1.95-1.25s-.96-1.18-1.26-1.93c-.3-.74-.46-1.56-.46-2.44s.15-1.72.46-2.46c.3-.74.73-1.38 1.26-1.91.54-.53 1.19-.95 1.95-1.25s1.6-.46 2.51-.46zm-.84 1.34c-.68.11-1.13.55-1.34 1.34s-.17 2.04.14 3.76c.29 1.58.64 2.71 1.05 3.38.41.68.91 1.01 1.5 1.01.15 0 .27 0 .34-.02.7-.12 1.15-.57 1.37-1.36.21-.78.17-2.03-.14-3.75-.29-1.58-.64-2.71-1.05-3.38-.41-.68-.92-1.01-1.53-1.01-.15 0-.27 0-.34.02z"/><path d="m38.25 577.76c0-.17.05-.3.16-.41l.87-1.03v-6.9l-.77-.68c-.17-.14-.25-.32-.25-.55 0-.35.17-.58.52-.71l3.26-.98c.12-.03.21-.05.27-.05.18 0 .33.05.46.16.26.17.39.4.39.71v.46c.35-.35.76-.65 1.23-.9s1.01-.38 1.62-.38c.29 0 .59.03.9.09s.62.17.93.32.6.35.88.6.51.57.71.95c.18-.23.39-.46.62-.7s.49-.44.77-.63c.29-.18.6-.33.95-.46.34-.12.71-.18 1.11-.18.43 0 .87.07 1.34.22.47.14.91.39 1.31.74s.73.83.99 1.44.39 1.38.39 2.3v5.13l.87 1.03c.09.11.14.24.14.41s-.06.32-.18.44c-.12.13-.27.19-.46.19h-4.63c-.18 0-.33-.06-.46-.19-.12-.13-.18-.28-.18-.44s.05-.3.14-.41l.89-1.03v-4.67c0-1.35-.09-2.3-.27-2.85s-.53-.82-1.05-.82c-.36 0-.71.15-1.03.44-.32.3-.61.63-.87.99.14.5.21 1.09.21 1.78v5.13l.87 1.03c.11.11.16.24.16.41s-.06.32-.19.44c-.13.13-.28.19-.44.19h-4.63c-.18 0-.34-.06-.47-.19s-.19-.28-.19-.44c0-.14.05-.27.16-.41l.87-1.03v-4.67c0-1.35-.09-2.3-.27-2.85s-.52-.82-1.03-.82c-.32 0-.62.11-.91.34s-.55.49-.77.8v7.2l.87 1.03c.09.11.14.24.14.41s-.06.32-.18.44c-.12.13-.27.19-.46.19h-4.63c-.17 0-.32-.06-.44-.19-.13-.13-.19-.28-.19-.44z"/><path d="m63.25 567.73v8.59l.87 1.03c.09.11.14.24.14.41s-.06.32-.18.44c-.12.13-.27.19-.46.19h-4.63c-.18 0-.33-.06-.46-.19-.12-.13-.18-.28-.18-.44s.05-.3.14-.41l.89-1.03v-8.59h-.41c-.17-.02-.31-.08-.43-.21-.12-.12-.18-.27-.18-.43s.06-.32.18-.44c.12-.13.27-.19.46-.17h.39c0-.73.09-1.37.28-1.94.19-.56.46-1.04.8-1.44.34-.39.74-.69 1.21-.9.46-.21.96-.31 1.49-.31.46 0 .85.1 1.2.3.34.2.64.43.9.68.12.14.21.28.26.44s.07.32.06.49c-.02.17-.06.33-.15.48-.08.15-.2.28-.35.39-.2.14-.42.21-.66.21-.26 0-.49-.07-.7-.22-.21-.14-.35-.35-.44-.6-.09-.29-.22-.54-.39-.76s-.4-.33-.71-.33c-.35 0-.6.1-.76.31s-.24.44-.24.7c0 .41.09.77.28 1.07s.41.56.65.76c.24.21.47.36.68.47s.35.17.41.21l1.5.02c.17 0 .31.06.43.18s.18.27.18.43c0 .18-.06.33-.18.46-.12.12-.27.18-.43.18l-1.46-.02z"/><path d="m71.32 566.48c.91 0 1.75.15 2.51.46.76.3 1.41.72 1.96 1.25s.97 1.17 1.28 1.91c.3.74.46 1.56.46 2.46s-.15 1.69-.46 2.44c-.3.74-.73 1.39-1.28 1.93s-1.2.96-1.96 1.25c-.76.3-1.6.44-2.51.44s-1.75-.15-2.51-.44c-.76-.3-1.41-.71-1.95-1.25s-.96-1.18-1.26-1.93c-.3-.74-.46-1.56-.46-2.44s.15-1.72.46-2.46c.3-.74.73-1.38 1.26-1.91.54-.53 1.19-.95 1.95-1.25s1.6-.46 2.51-.46zm-.84 1.34c-.68.11-1.13.55-1.34 1.34s-.17 2.04.14 3.76c.29 1.58.64 2.71 1.05 3.38.41.68.91 1.01 1.5 1.01.15 0 .27 0 .34-.02.7-.12 1.15-.57 1.37-1.36.21-.78.17-2.03-.14-3.75-.29-1.58-.64-2.71-1.05-3.38-.41-.68-.92-1.01-1.53-1.01-.15 0-.27 0-.34.02z"/><path d="m83.51 577.35c.11.14.16.27.16.41 0 .17-.06.32-.19.44-.13.13-.28.19-.44.19h-4.65c-.17 0-.32-.06-.44-.19-.13-.13-.19-.28-.19-.44 0-.14.05-.27.16-.41l.87-1.03v-6.9l-.77-.68c-.17-.14-.25-.32-.25-.55 0-.35.17-.58.52-.71l3.26-.98c.12-.03.21-.05.27-.05.18 0 .33.05.46.16.26.17.39.4.39.71v1.07c.36-.53.8-.99 1.3-1.39.5-.39 1.09-.59 1.78-.59.47 0 .89.13 1.25.4s.61.62.73 1.06c.06.26.06.53.01.81s-.16.54-.32.76c-.16.23-.37.41-.63.56-.26.14-.56.22-.91.22-.23 0-.44-.08-.64-.23s-.39-.32-.57-.49-.36-.34-.52-.49c-.17-.15-.34-.23-.52-.23-.14 0-.28.06-.44.19s-.33.35-.51.67v6.68l.87 1.03z"/><path d="m95.02 567.12c0 .18-.06.33-.18.46-.12.12-.27.18-.43.18l-1.73-.02v7.27c0 .41.09.74.27 1s.46.39.84.39c.15 0 .29-.02.42-.07s.25-.11.35-.18c.12-.08.24-.11.34-.11.18 0 .32.06.41.18l.02.02c.11.12.16.26.16.41s-.06.28-.18.39c-.15.15-.35.32-.58.5-.24.18-.51.35-.83.51s-.68.3-1.08.41-.84.17-1.31.17c-.32 0-.64-.06-.97-.18s-.62-.3-.88-.54-.47-.53-.63-.89-.24-.77-.24-1.24v-8.04h-.55c-.2-.02-.37-.09-.51-.23s-.22-.31-.22-.52c0-.15.05-.29.14-.41s.21-.21.34-.27c1.03-.38 1.83-.82 2.4-1.33s.98-.95 1.24-1.31c.12-.15.28-.23.48-.23.17 0 .3.05.4.16s.15.24.15.41v2.48l1.73.02c.17 0 .31.06.43.18s.18.27.18.43z"/><path d="m107.1 564.09c.05-.08.05-.16 0-.24s-.11-.13-.18-.13h-1.44c-.85 0-1.64.2-2.38.6s-1.34.96-1.81 1.67l-.52.77c-.09.17-.24.25-.46.25-.17 0-.3-.05-.41-.16s-.16-.24-.16-.41v-3.87c0-.18.06-.34.19-.48s.29-.21.49-.21h10.05c.39 0 .73.14 1 .41s.41.61.41 1c0 .26-.08.52-.23.77l-7.73 12.15c-.05.08-.05.15 0 .23s.11.11.18.11h2.01c.87 0 1.67-.2 2.4-.59.74-.39 1.34-.96 1.81-1.69l.5-.75c.14-.18.3-.27.48-.27.17 0 .3.06.41.17s.16.25.16.4v3.87c0 .2-.07.36-.21.49s-.3.19-.48.19h-10.64c-.4 0-.73-.14-1-.41s-.41-.61-.41-1c0-.24.08-.49.23-.75l7.73-12.15z"/><path d="m118.28 566.48c.91 0 1.75.15 2.51.46.76.3 1.41.72 1.96 1.25s.97 1.17 1.28 1.91c.3.74.46 1.56.46 2.46s-.15 1.69-.46 2.44c-.3.74-.73 1.39-1.28 1.93s-1.2.96-1.96 1.25c-.76.3-1.6.44-2.51.44s-1.75-.15-2.51-.44c-.76-.3-1.41-.71-1.95-1.25s-.96-1.18-1.26-1.93c-.3-.74-.46-1.56-.46-2.44s.15-1.72.46-2.46c.3-.74.73-1.38 1.26-1.91.54-.53 1.19-.95 1.95-1.25s1.6-.46 2.51-.46zm-.84 1.34c-.68.11-1.13.55-1.34 1.34s-.17 2.04.14 3.76c.29 1.58.64 2.71 1.05 3.38.41.68.91 1.01 1.5 1.01.15 0 .27 0 .34-.02.7-.12 1.15-.57 1.37-1.36.21-.78.17-2.03-.14-3.75-.29-1.58-.64-2.71-1.05-3.38-.41-.68-.92-1.01-1.53-1.01-.15 0-.27 0-.34.02z"/><path d="m132.23 578.4c-.18 0-.33-.06-.46-.19-.12-.13-.18-.28-.18-.44s.05-.3.14-.41l.87-1.03v-4.67c0-1.35-.09-2.3-.27-2.85s-.52-.82-1.03-.82c-.3 0-.6.11-.89.34s-.55.49-.8.8v7.2l.87 1.03c.11.14.16.27.16.41 0 .17-.06.32-.19.44-.13.13-.28.19-.44.19h-4.65c-.17 0-.32-.06-.44-.19-.13-.13-.19-.28-.19-.44 0-.14.05-.27.16-.41l.87-1.03v-6.9l-.77-.68c-.17-.14-.25-.32-.25-.55 0-.35.17-.58.52-.71l3.26-.98c.12-.03.21-.05.27-.05.18 0 .33.05.46.16.26.17.39.4.39.71v.46c.35-.35.76-.65 1.24-.9s1.01-.38 1.61-.38c.43 0 .87.07 1.34.22.47.14.9.39 1.3.74.39.35.72.83.98 1.44s.39 1.38.39 2.3v5.13l.87 1.03c.11.11.16.24.16.41s-.06.32-.19.44c-.13.13-.28.19-.44.19h-4.63z"/><path d="m149.12 575.16c-.14.27-.35.61-.63 1-.28.4-.64.77-1.07 1.14-.43.36-.96.68-1.58.93-.62.26-1.34.39-2.16.39-.91 0-1.74-.15-2.47-.44-.74-.3-1.36-.71-1.87-1.25s-.9-1.18-1.19-1.93c-.28-.74-.42-1.56-.42-2.44s.15-1.72.46-2.46c.3-.74.73-1.38 1.26-1.91.54-.53 1.19-.95 1.95-1.25s1.6-.46 2.51-.46c1.08 0 2.07.33 2.97.98s1.59 1.69 2.06 3.12c.06.17.05.33-.03.5s-.21.28-.38.34l-6.77 2.51c.33.61.78 1.12 1.33 1.53s1.25.62 2.09.62c.36 0 .7-.06 1-.17s.58-.25.83-.41.47-.33.65-.51.33-.34.46-.48c.12-.14.27-.21.46-.21.09 0 .18.02.27.07.15.08.25.19.31.34.05.15.04.3-.03.46zm-6.4-7.2c-.15 0-.31.02-.48.07-.27.09-.51.3-.7.62s-.33.7-.41 1.14-.11.92-.09 1.44.11 1.03.26 1.55l4.33-1.62c-.44-1.12-.92-1.94-1.42-2.44-.51-.5-1.01-.75-1.49-.75z"/><path d="m21.9 555.21c-.09 0-.17-.04-.22-.13s-.13-.22-.23-.39c-.1-.16-.24-.32-.41-.48s-.37-.29-.59-.41-.48-.17-.77-.17c-.31 0-.56.07-.75.21s-.29.33-.29.58.09.45.28.62c.18.17.42.33.69.47.28.14.58.29.9.44s.62.33.9.53c.28.21.51.45.69.74s.28.64.28 1.07-.09.82-.26 1.13-.4.56-.67.75-.59.33-.93.42-.69.13-1.04.13c-.56 0-1.04-.06-1.43-.18s-.69-.24-.89-.36c-.23-.13-.35-.32-.35-.58v-1.51c0-.07.03-.12.08-.17s.11-.08.18-.08c.1 0 .18.05.23.15.05.12.13.28.25.49s.26.42.43.62.37.38.6.53.48.22.75.22c.35 0 .63-.08.82-.24s.29-.41.29-.75c0-.29-.09-.53-.28-.72-.18-.19-.41-.36-.69-.5-.28-.15-.58-.29-.9-.44-.33-.14-.63-.32-.9-.52s-.5-.45-.69-.74c-.18-.29-.28-.65-.28-1.1s.1-.78.31-1.05.46-.48.75-.63.6-.26.93-.31c.33-.06.61-.09.85-.09.54 0 .99.05 1.37.15s.67.2.88.3c.12.05.21.13.28.24s.1.22.1.35v1.15c0 .07-.02.13-.07.18s-.11.07-.18.07h-.01z"/><path d="m24.53 554.93c.09 0 .16.03.22.08.12.08.18.19.18.34v4.29l.41.49c.04.05.07.12.07.2s-.03.15-.09.21-.13.09-.22.09h-2.2c-.08 0-.15-.03-.21-.09s-.09-.13-.09-.21.03-.14.08-.2l.41-.49v-3.29l-.37-.33c-.08-.07-.12-.15-.12-.26 0-.17.08-.28.25-.34l1.55-.47c.06-.01.1-.02.13-.02zm-1.69-1.06c-.03-.14-.03-.27 0-.41.03-.13.08-.26.15-.37.08-.11.17-.21.29-.29s.25-.14.4-.18c.09-.02.17-.03.26-.03.25 0 .47.07.66.22.2.14.32.33.38.56.06.27 0 .53-.15.77-.16.24-.39.39-.69.47-.09.02-.18.03-.27.03-.25 0-.46-.07-.66-.21-.19-.14-.31-.33-.36-.56z"/><path d="m27.84 555.37c.17-.11.37-.2.6-.29.23-.08.5-.12.8-.12s.57.05.82.16c.25.1.46.26.65.47.18.21.32.46.42.77s.15.66.15 1.07c0 .53-.08.99-.23 1.39s-.37.74-.64 1c-.28.27-.6.47-.98.6s-.8.2-1.26.2h-.33v1.56l.42.49c.04.06.07.12.07.2s-.03.15-.09.21-.13.09-.22.09h-2.2c-.09 0-.16-.03-.22-.09s-.09-.13-.09-.21c0-.07.02-.14.07-.2l.41-.49v-5.84l-.36-.33c-.08-.07-.12-.15-.12-.26 0-.17.08-.28.25-.34l1.54-.47c.06-.01.1-.02.13-.02.11 0 .2.04.28.12s.12.18.12.29v.02zm0 4.63s.05.01.1.01c.27 0 .51-.05.69-.14.19-.09.34-.23.46-.42s.21-.43.26-.73.08-.65.08-1.07c0-.58-.08-1.02-.25-1.32s-.4-.46-.71-.46c-.13 0-.25.02-.35.07-.1.04-.2.1-.29.17v3.88z"/><path d="m34.94 554.93c.09 0 .16.03.22.08.12.08.18.19.18.34v4.29l.41.49c.04.05.07.12.07.2s-.03.15-.09.21-.13.09-.22.09h-2.2c-.08 0-.15-.03-.21-.09s-.09-.13-.09-.21.03-.14.08-.2l.41-.49v-3.29l-.37-.33c-.08-.07-.12-.15-.12-.26 0-.17.08-.28.25-.34l1.55-.47c.06-.01.1-.02.13-.02zm-1.69-1.06c-.03-.14-.03-.27 0-.41.03-.13.08-.26.15-.37.08-.11.17-.21.29-.29s.25-.14.4-.18c.09-.02.17-.03.26-.03.25 0 .47.07.66.22.2.14.32.33.38.56.06.27 0 .53-.15.77-.16.24-.39.39-.69.47-.09.02-.18.03-.27.03-.25 0-.46-.07-.66-.21-.19-.14-.31-.33-.36-.56z"/><path d="m39.62 560.62c-.09 0-.16-.03-.22-.09s-.09-.13-.09-.21.02-.14.07-.2l.41-.49v-2.22c0-.64-.04-1.1-.13-1.36s-.25-.39-.49-.39c-.14 0-.29.05-.42.16-.14.11-.26.24-.38.38v3.43l.41.49c.05.07.08.13.08.2 0 .08-.03.15-.09.21s-.13.09-.21.09h-2.21c-.08 0-.15-.03-.21-.09s-.09-.13-.09-.21c0-.07.03-.13.08-.2l.41-.49v-3.29l-.37-.33c-.08-.07-.12-.15-.12-.26 0-.17.08-.28.25-.34l1.55-.47c.06-.01.1-.02.13-.02.09 0 .16.03.22.08.12.08.18.19.18.34v.22c.17-.17.36-.31.59-.43s.48-.18.77-.18c.2 0 .42.03.64.1s.43.19.62.35c.19.17.34.39.47.68.12.29.18.65.18 1.1v2.44l.41.49c.05.05.08.12.08.2s-.03.15-.09.21-.13.09-.21.09h-2.2z"/><path d="m45.64 559.49c.07 0 .14.03.2.09.06.07.08.13.08.21 0 .07-.03.13-.09.18-.07.07-.16.15-.28.24-.11.09-.24.17-.4.24-.15.08-.32.14-.51.2-.19.05-.39.08-.62.08-.16 0-.31-.03-.47-.09-.15-.06-.29-.14-.41-.26-.12-.11-.22-.25-.3-.42s-.11-.37-.11-.59v-3.83h-.26c-.1 0-.18-.04-.25-.11s-.1-.15-.1-.25c0-.16.08-.27.23-.33.49-.18.87-.39 1.14-.63s.47-.45.59-.62c.06-.07.13-.11.23-.11.02 0 .05 0 .1.02.11.04.16.13.16.25v.94c.31-.08.62-.19.93-.34s.62-.31.93-.48.61-.35.92-.53.61-.34.91-.48.6-.26.89-.36c.29-.09.58-.14.87-.14.23 0 .44.02.62.06s.35.09.49.15c.15.07.27.16.35.28s.13.26.14.4-.01.28-.07.42-.15.25-.28.34c-.14.1-.3.15-.48.15-.2 0-.38-.07-.54-.21-.13-.12-.29-.22-.47-.28-.18-.07-.39-.1-.63-.1-.27 0-.58.07-.93.2-.34.13-.71.29-1.11.47s-.81.37-1.24.57-.87.36-1.32.49v3.7c0 .2.04.35.13.48.09.12.22.18.4.18.07 0 .14-.01.2-.03s.12-.05.17-.09c.06-.04.11-.05.16-.05z"/><path d="m48.76 554.94c.43 0 .83.07 1.19.22.36.14.67.34.93.6.26.25.46.56.61.91.14.35.22.75.22 1.17s-.07.81-.22 1.16c-.14.35-.35.66-.61.92s-.57.46-.93.6-.76.21-1.19.21-.83-.07-1.19-.21-.67-.34-.93-.6-.46-.56-.6-.92c-.14-.35-.22-.74-.22-1.16s.07-.82.22-1.17c.14-.35.35-.66.6-.91.26-.25.57-.45.93-.6.36-.14.76-.22 1.19-.22zm-.4.64c-.33.05-.54.26-.64.64s-.08.97.07 1.79c.14.75.3 1.29.5 1.61s.43.48.72.48c.07 0 .13 0 .16-.01.33-.06.55-.27.65-.65.1-.37.08-.97-.07-1.79-.14-.75-.3-1.29-.5-1.61s-.44-.48-.73-.48c-.07 0-.13 0-.16.01z"/><path d="m59.42 554.96c.08 0 .15.03.21.09s.09.13.09.21-.03.15-.09.21l-.49.49-2.39 5.26c-.12.27-.26.52-.42.77s-.35.46-.56.65c-.21.18-.44.33-.7.44s-.54.16-.86.16c-.25 0-.47-.07-.66-.21-.2-.14-.32-.33-.38-.56-.03-.14-.03-.27 0-.41.03-.13.08-.26.15-.37.08-.11.17-.21.29-.29s.25-.14.4-.18c.04-.01.07-.02.09-.02h.31c.22 0 .41.03.57.08s.31.08.43.08c.1 0 .19-.03.27-.08s.15-.16.22-.32l.15-.33-2.12-4.68-.49-.49c-.06-.05-.09-.12-.09-.21 0-.08.03-.15.09-.21s.13-.09.21-.09h2.53c.09 0 .16.03.22.09s.09.14.09.22c0 .07-.02.13-.05.18l-.36.49.92 2.12s.05.07.1.07.08-.02.1-.07l1-2.21-.35-.39c-.07-.07-.09-.14-.08-.24.01-.08.05-.14.1-.19s.12-.07.2-.07h1.35z"/><path d="m62.22 554.94c.43 0 .83.07 1.19.22.36.14.67.34.93.6.26.25.46.56.61.91.14.35.22.75.22 1.17s-.07.81-.22 1.16c-.14.35-.35.66-.61.92s-.57.46-.93.6-.76.21-1.19.21-.83-.07-1.19-.21-.67-.34-.93-.6-.46-.56-.6-.92c-.14-.35-.22-.74-.22-1.16s.07-.82.22-1.17c.14-.35.35-.66.6-.91.26-.25.57-.45.93-.6.36-.14.76-.22 1.19-.22zm-.4.64c-.33.05-.54.26-.64.64s-.08.97.07 1.79c.14.75.3 1.29.5 1.61s.43.48.72.48c.07 0 .13 0 .16-.01.33-.06.55-.27.65-.65.1-.37.08-.97-.07-1.79-.14-.75-.3-1.29-.5-1.61s-.44-.48-.73-.48c-.07 0-.13 0-.16.01z"/><path d="m68.98 560.03c-.17.19-.36.35-.59.49-.22.14-.48.21-.77.21-.2 0-.41-.03-.63-.1s-.43-.19-.62-.35c-.19-.17-.35-.39-.47-.68s-.18-.65-.18-1.1v-2.55l-.41-.49c-.05-.07-.08-.13-.08-.2 0-.08.03-.15.09-.21s.13-.09.21-.09h1.7c.09 0 .17.03.23.09s.09.14.09.23v2.99c0 .33 0 .6.03.81.02.21.05.39.1.52s.12.22.2.28c.08.05.18.08.29.08.15 0 .3-.06.43-.18.14-.12.26-.26.37-.42v-3.42l-.41-.49c-.04-.06-.07-.12-.07-.2s.03-.15.09-.21.13-.09.22-.09h1.69c.09 0 .17.03.23.09s.09.14.09.23v4.06l.37.31c.07.07.11.15.12.24 0 .08-.01.15-.06.22s-.11.12-.19.15l-1.55.47c-.06.01-.1.02-.12.02-.11 0-.2-.04-.29-.12-.08-.08-.12-.18-.12-.29v-.3z"/><path d="m74.29 560.12c.05.07.08.13.08.2 0 .08-.03.15-.09.21s-.13.09-.21.09h-2.21c-.08 0-.15-.03-.21-.09s-.09-.13-.09-.21c0-.07.03-.13.08-.2l.41-.49v-3.29l-.37-.33c-.08-.07-.12-.15-.12-.26 0-.17.08-.28.25-.34l1.55-.47c.06-.01.1-.02.13-.02.09 0 .16.03.22.08.12.08.18.19.18.34v.51c.17-.25.38-.47.62-.66s.52-.28.85-.28c.22 0 .42.06.6.19.17.13.29.29.35.5.03.12.03.25 0 .39-.03.13-.08.26-.15.36-.08.11-.18.2-.3.27s-.27.1-.43.1c-.11 0-.21-.04-.3-.11s-.18-.15-.27-.23-.17-.16-.25-.23-.16-.11-.25-.11c-.07 0-.14.03-.21.09-.08.06-.16.17-.24.32v3.18l.41.49z"/></g><path d="m0 0h160v600h-160z" fill="none"/></svg>