<svg height="600" viewBox="0 0 300 600" width="300" xmlns="http://www.w3.org/2000/svg"><rect fill="#f1ffd7" height="38" rx="10" width="110" x="33.78" y="218"/><g fill="#00452b"><path d="m47 231.17h2.41v9.45h5.7v2.07h-8.11z"/><path d="m63.88 240.18c-.06.51-.32 1.02-.79 1.54-.73.83-1.75 1.24-3.06 1.24-1.08 0-2.04-.35-2.87-1.05s-1.24-1.83-1.24-3.41c0-1.47.37-2.6 1.12-3.39s1.72-1.18 2.91-1.18c.71 0 1.35.13 1.91.4s1.04.69 1.41 1.26c.33.51.55 1.09.65 1.76.06.39.08.95.07 1.69h-5.83c.03.85.3 1.45.8 1.8.31.21.68.32 1.11.32.46 0 .83-.13 1.12-.39.16-.14.29-.34.41-.59h2.27zm-2.2-2.61c-.04-.59-.21-1.04-.54-1.34s-.72-.46-1.19-.46c-.52 0-.92.16-1.2.48s-.46.76-.54 1.31h3.46z"/><path d="m65.81 235.09c.59-.75 1.6-1.12 3.03-1.12.93 0 1.76.19 2.48.55s1.09 1.07 1.09 2.09v3.91c0 .27 0 .6.02.98.02.29.06.49.13.59s.18.19.33.26v.33h-2.42c-.07-.17-.11-.33-.14-.48s-.05-.32-.06-.52c-.31.33-.66.62-1.06.85-.48.28-1.02.41-1.62.41-.77 0-1.41-.22-1.91-.66s-.75-1.06-.75-1.87c0-1.05.4-1.8 1.21-2.27.44-.26 1.09-.44 1.95-.55l.76-.09c.41-.05.71-.12.88-.2.32-.14.48-.35.48-.63 0-.35-.12-.59-.36-.72s-.6-.2-1.07-.2c-.53 0-.9.13-1.12.39-.16.19-.26.45-.31.78h-2.15c.05-.74.26-1.36.62-1.84zm1.66 5.98c.21.17.46.26.77.26.48 0 .92-.14 1.32-.42s.61-.79.63-1.54v-.83c-.14.09-.28.16-.43.21s-.34.11-.59.15l-.5.09c-.47.08-.8.19-1.01.3-.34.2-.52.52-.52.95 0 .38.11.65.32.82z"/><path d="m78.67 236.22c-.9 0-1.5.29-1.8.88-.17.33-.26.83-.26 1.52v4.07h-2.24v-8.52h2.12v1.48c.34-.57.64-.96.9-1.16.42-.35.96-.52 1.62-.52h.11s.09 0 .19.01v2.28c-.14-.02-.27-.03-.38-.03s-.2 0-.27 0z"/><path d="m84.62 235.81c-.76 0-1.27.32-1.55.96-.15.34-.22.77-.22 1.3v4.61h-2.22v-8.5h2.15v1.24c.29-.44.56-.75.81-.95.46-.34 1.04-.52 1.74-.52.88 0 1.6.23 2.16.69s.84 1.23.84 2.29v5.73h-2.28v-5.18c0-.45-.06-.79-.18-1.03-.22-.44-.64-.66-1.25-.66z"/><path d="m97.22 242.68h-2.24v-11.52h3.5l2.09 9.05 2.08-9.05h3.46v11.52h-2.24v-7.79c0-.22 0-.54 0-.94s0-.71 0-.93l-2.18 9.66h-2.34l-2.16-9.66v.93s0 .72 0 .94v7.79z"/><path d="m115.27 235.24c.72.9 1.08 1.97 1.08 3.2s-.36 2.32-1.08 3.21-1.81 1.33-3.27 1.33-2.55-.44-3.27-1.33-1.08-1.96-1.08-3.21.36-2.29 1.08-3.2 1.81-1.35 3.27-1.35 2.55.45 3.27 1.35zm-3.28.53c-.65 0-1.15.23-1.5.69s-.53 1.12-.53 1.97.18 1.51.53 1.98.85.7 1.5.7 1.15-.23 1.5-.7.52-1.12.52-1.98-.17-1.51-.52-1.97-.85-.69-1.5-.69z"/><path d="m122.22 236.22c-.9 0-1.5.29-1.8.88-.17.33-.26.83-.26 1.52v4.07h-2.24v-8.52h2.12v1.48c.34-.57.64-.96.9-1.16.42-.35.96-.52 1.62-.52h.11s.09 0 .19.01v2.28c-.14-.02-.27-.03-.38-.03s-.2 0-.27 0z"/><path d="m131.45 240.18c-.06.51-.32 1.02-.79 1.54-.73.83-1.75 1.24-3.06 1.24-1.08 0-2.04-.35-2.87-1.05s-1.24-1.83-1.24-3.41c0-1.47.37-2.6 1.12-3.39s1.72-1.18 2.91-1.18c.71 0 1.35.13 1.91.4s1.04.69 1.41 1.26c.33.51.55 1.09.65 1.76.06.39.08.95.07 1.69h-5.83c.03.85.3 1.45.8 1.8.31.21.68.32 1.11.32.46 0 .83-.13 1.12-.39.16-.14.29-.34.41-.59h2.27zm-2.2-2.61c-.04-.59-.21-1.04-.54-1.34s-.72-.46-1.19-.46c-.52 0-.92.16-1.2.48s-.46.76-.54 1.31h3.46z"/></g><path d="m0 0h300v600h-300z" fill="none"/></svg>