<svg height="600" viewBox="0 0 300 600" width="300" xmlns="http://www.w3.org/2000/svg"><g fill="#fefefe"><path d="m51.48 56.78h-7.45c-.55 0-1.02-.47-1.02-1.02 0-.26.11-.47.26-.66l1.39-1.64v-20.19h-.88c-1.28 0-2.45.66-3.14 1.72l-2.08 3.18c-.18.26-.47.4-.77.4-.51 0-.91-.4-.91-.91v-6.21c0-.58.51-1.1 1.1-1.1h19.57c.62 0 1.1.51 1.1 1.1v6.21c0 .51-.4.91-.91.91-.29 0-.58-.15-.77-.4l-2.08-3.18c-.69-1.06-1.86-1.72-3.14-1.72h-.88v20.19l1.39 1.64c.15.18.26.4.26.66 0 .55-.47 1.02-1.02 1.02z"/><path d="m79.67 53.45 1.42 1.64c.15.18.22.4.22.66 0 .55-.44 1.02-1.02 1.02h-7.41c-.58 0-1.02-.47-1.02-1.02 0-.26.07-.47.22-.66l1.39-1.64v-7.49c0-4.35-.44-5.88-2.08-5.88-.99 0-1.94.84-2.7 1.83v11.54l1.39 1.64c.15.18.26.4.26.66 0 .55-.48 1.02-1.02 1.02h-7.45c-.55 0-1.02-.47-1.02-1.02 0-.26.11-.47.26-.66l1.39-1.64v-18.22l-1.24-1.1c-.26-.22-.4-.55-.4-.88 0-.51.37-.99.84-1.13l5.22-1.57c.15-.04.29-.07.44-.07.26 0 .51.07.73.26.4.26.62.66.62 1.13v7.89c1.13-1.1 2.67-2.04 4.56-2.04 2.7 0 6.43 1.57 6.43 7.52v8.22z"/><path d="m89.6 49.62c1.06 1.94 2.81 3.43 5.48 3.43 2.34 0 3.94-1.61 4.71-2.52.18-.22.44-.33.73-.33.15 0 .29.04.44.11.47.22.69.8.44 1.28-.91 1.79-3.43 5.55-8.73 5.55-5.84 0-9.53-4.02-9.53-9.71s4.05-9.75 9.9-9.75c3.43 0 6.57 2.01 8.07 6.57.18.55-.11 1.17-.66 1.35l-10.84 4.02zm-.73-1.86 6.94-2.59c-1.39-3.58-3.1-5.11-4.67-5.11-.26 0-.51.04-.77.11-1.79.62-2.45 4.31-1.5 7.59z"/><path d="m131.07 51.59c-.88 1.79-3.43 5.55-8.69 5.55-5.88 0-9.57-4.02-9.57-9.71s4.05-9.75 9.93-9.75c3.14 0 5.84.95 7.63 3.47 1.21 1.68.44 4.09-1.53 4.78-.36.15-.73.22-1.13.22-1.24 0-2.45-.77-2.92-2.04-1.28-3.25-2.45-4.13-3.76-4.13-4.16 0-3.72 13.07 3.72 13.07 2.34 0 3.94-1.61 4.71-2.52.18-.22.44-.33.73-.33.15 0 .33.04.47.11.48.22.66.8.4 1.28z"/><path d="m150.97 53.45 1.39 1.64c.18.18.26.4.26.66 0 .55-.47 1.02-1.02 1.02h-4.16c-1.28 0-2.37-.91-2.59-2.12-1.42 1.24-3.43 2.48-5.84 2.48-3.32 0-5.95-1.64-5.95-4.86 0-5.04 8.29-6.68 11.72-7.12v-1.17c0-3.4-1.5-4.67-3.07-4.67-1.68 0-2.34 1.53-2.59 3.29-.15 1.13-1.13 2.01-2.3 2.01-1.94 0-3.07-2.19-1.9-3.72 1.57-2.15 4.53-3.21 7.41-3.21 5 0 8.65 1.72 8.65 7.3v8.47zm-9.27.84c1.06 0 2.19-.77 3.07-1.61v-5.95c-2.3.37-5.15 1.68-5.15 4.93 0 1.75.66 2.63 2.08 2.63z"/><path d="m154.84 34.14c-.26-.22-.4-.55-.4-.88 0-.51.37-.99.84-1.13l5.22-1.57c.15-.04.29-.07.44-.07.26 0 .51.07.73.26.4.26.62.66.62 1.13v21.58l1.39 1.64c.15.18.25.4.25.66 0 .55-.47 1.02-1.02 1.02h-7.45c-.55 0-1.02-.47-1.02-1.02 0-.26.11-.47.25-.66l1.39-1.64v-18.22z"/><path d="m172.22 49.62c1.06 1.94 2.81 3.43 5.48 3.43 2.34 0 3.94-1.61 4.71-2.52.18-.22.44-.33.73-.33.15 0 .29.04.44.11.47.22.69.8.44 1.28-.91 1.79-3.43 5.55-8.73 5.55-5.84 0-9.53-4.02-9.53-9.71s4.05-9.75 9.9-9.75c3.43 0 6.57 2.01 8.07 6.57.18.55-.11 1.17-.66 1.35l-10.84 4.02zm-.73-1.86 6.94-2.59c-1.39-3.58-3.1-5.11-4.67-5.11-.25 0-.51.04-.77.11-1.79.62-2.45 4.31-1.5 7.59z"/><path d="m205.41 56.78h-7.41c-.58 0-1.02-.47-1.02-1.02 0-.26.07-.47.22-.66l1.39-1.64v-7.49c0-4.35-.47-5.88-2.08-5.88-.99 0-1.94.84-2.7 1.83v11.54l1.39 1.64c.15.18.25.4.25.66 0 .55-.47 1.02-1.02 1.02h-7.45c-.55 0-1.02-.47-1.02-1.02 0-.26.11-.47.25-.66l1.39-1.64v-11.06l-1.24-1.1c-.26-.22-.4-.55-.4-.88 0-.51.33-.95.84-1.13l5.22-1.57c.15-.04.29-.07.44-.07.26 0 .51.07.73.26.4.26.62.69.62 1.13v.73c1.13-1.1 2.67-2.04 4.56-2.04 2.7 0 6.43 1.57 6.43 7.52v8.22l1.39 1.64c.18.18.26.4.26.66 0 .55-.47 1.02-1.02 1.02z"/><path d="m223.7 56.78c-.91 0-1.68-.44-2.15-1.13-.77.55-2.41 1.5-4.67 1.5-4.24 0-8.25-2.85-8.25-9.71s4.45-9.71 7.85-9.71c2.37 0 3.87.73 4.6 1.21v-3.69l-1.24-1.1c-.26-.22-.4-.55-.4-.88 0-.51.37-.99.84-1.13l5.22-1.57c.15-.04.29-.07.44-.07.26 0 .51.07.73.26.4.26.62.66.62 1.13v21.58l1.39 1.64c.15.18.26.4.26.66 0 .55-.47 1.02-1.02 1.02h-4.2zm-5.37-2.01c1.75 0 2.74-1.24 2.74-1.24v-12.23s-.8-1.21-2.52-1.21-3.72 2.23-3.72 7.34 1.28 7.34 3.51 7.34z"/><path d="m248.67 53.45 1.39 1.64c.18.18.26.4.26.66 0 .55-.47 1.02-1.02 1.02h-4.16c-1.28 0-2.37-.91-2.59-2.12-1.42 1.24-3.43 2.48-5.84 2.48-3.32 0-5.95-1.64-5.95-4.86 0-5.04 8.29-6.68 11.72-7.12v-1.17c0-3.4-1.5-4.67-3.07-4.67-1.68 0-2.34 1.53-2.59 3.29-.15 1.13-1.13 2.01-2.3 2.01-1.94 0-3.07-2.19-1.9-3.72 1.57-2.15 4.53-3.21 7.41-3.21 5 0 8.65 1.72 8.65 7.3v8.47zm-9.28.84c1.06 0 2.19-.77 3.07-1.61v-5.95c-2.3.37-5.15 1.68-5.15 4.93 0 1.75.66 2.63 2.08 2.63z"/><path d="m265.14 43.67c-1.5 0-2.45-2.3-3.62-2.3-.44 0-.95.36-1.53 1.39v10.7l1.39 1.64c.15.18.25.4.25.66 0 .55-.47 1.02-1.02 1.02h-7.45c-.55 0-1.02-.47-1.02-1.02 0-.26.11-.47.25-.66l1.39-1.64v-11.06l-1.24-1.1c-.26-.22-.4-.55-.4-.88 0-.51.33-.95.84-1.13l5.22-1.57c.15-.04.29-.07.44-.07.26 0 .51.07.73.26.4.26.62.69.62 1.13v1.72c1.17-1.72 2.74-3.18 4.93-3.18 1.5 0 2.81.95 3.18 2.34.37 1.68-.73 3.76-2.96 3.76z"/><path d="m54.8 97.27 1.39 1.64c.18.18.26.4.26.66 0 .55-.47 1.02-1.02 1.02h-4.16c-1.28 0-2.37-.91-2.59-2.12-1.42 1.24-3.43 2.48-5.84 2.48-3.32 0-5.95-1.64-5.95-4.86 0-5.04 8.29-6.68 11.72-7.12v-1.17c0-3.4-1.5-4.67-3.07-4.67-1.68 0-2.34 1.53-2.59 3.29-.15 1.13-1.13 2.01-2.3 2.01-1.94 0-3.07-2.19-1.9-3.72 1.57-2.15 4.53-3.21 7.41-3.21 5 0 8.65 1.72 8.65 7.3v8.47zm-9.27.84c1.06 0 2.19-.77 3.07-1.61v-5.95c-2.3.37-5.15 1.68-5.15 4.93 0 1.75.66 2.63 2.08 2.63z"/><path d="m58.67 77.95c-.26-.22-.4-.55-.4-.88 0-.51.37-.99.84-1.13l5.22-1.57c.15-.04.29-.07.44-.07.26 0 .51.07.73.26.4.26.62.66.62 1.13v21.58l1.39 1.64c.15.18.26.4.26.66 0 .55-.48 1.02-1.02 1.02h-7.45c-.55 0-1.02-.47-1.02-1.02 0-.26.11-.47.26-.66l1.39-1.64v-18.22l-1.24-1.1z"/><path d="m76.05 93.43c1.06 1.94 2.81 3.43 5.48 3.43 2.34 0 3.94-1.61 4.71-2.52.18-.22.44-.33.73-.33.15 0 .29.04.44.11.47.22.69.8.44 1.28-.91 1.79-3.43 5.55-8.73 5.55-5.84 0-9.53-4.02-9.53-9.71s4.05-9.75 9.9-9.75c3.43 0 6.57 2.01 8.07 6.57.18.55-.11 1.17-.66 1.35l-10.84 4.02zm-.73-1.86 6.94-2.59c-1.39-3.58-3.1-5.11-4.67-5.11-.26 0-.51.04-.77.11-1.79.62-2.45 4.31-1.5 7.59z"/><path d="m102.78 87.48c-1.5 0-2.45-2.3-3.62-2.3-.44 0-.95.36-1.53 1.39v10.7l1.39 1.64c.15.18.26.4.26.66 0 .55-.48 1.02-1.02 1.02h-7.45c-.55 0-1.02-.47-1.02-1.02 0-.26.11-.47.26-.66l1.39-1.64v-11.06l-1.24-1.1c-.26-.22-.4-.55-.4-.88 0-.51.33-.95.84-1.13l5.22-1.57c.15-.04.29-.07.44-.07.26 0 .51.07.73.26.4.26.62.69.62 1.13v1.72c1.17-1.72 2.74-3.18 4.93-3.18 1.5 0 2.81.95 3.18 2.34.37 1.68-.73 3.76-2.96 3.76z"/><path d="m119.43 97.12c.33.37.33.95-.04 1.28-.99.95-3.07 2.56-6.1 2.56-2.08 0-4.35-1.53-4.35-4.56v-12.89h-.88c-.62-.04-1.17-.55-1.17-1.21 0-.47.33-.91.77-1.1 3.32-1.2 5-3.07 5.84-4.24.18-.22.47-.37.77-.37.51 0 .88.4.88.91v3.98l2.77.04c.55 0 .99.44.99.99 0 .58-.44 1.02-.99 1.02l-2.77-.04v11.65c0 1.31.58 2.23 1.79 2.23.47 0 .91-.18 1.24-.4.18-.11.37-.18.55-.18.26 0 .51.11.66.29z"/><path d="m135.2 87.3c-.33 0-.62-.18-.77-.44-.62-1.1-2.41-3.8-4.64-3.8-.99 0-1.94.47-1.94 2.01 0 4.42 8.87 2.96 8.87 9.9 0 3.8-4.16 5.92-8.65 5.92-2.96 0-4.97-.66-5.92-1.1-.4-.15-.66-.55-.66-.99v-3.54c0-.55.48-1.02 1.02-1.02.44 0 .8.29.95.69.51 1.35 1.86 4.31 4.49 4.31 1.57 0 2.45-1.24 2.45-2.63 0-4.35-8.91-2.67-8.91-9.71 0-3.72 3.58-5.44 7.63-5.44 2.77 0 5.08.69 6.21 1.1.44.15.73.58.73 1.02v2.85c0 .47-.4.88-.88.88z"/><path d="m165.94 95.4c-.88 1.79-3.43 5.55-8.69 5.55-5.88 0-9.57-4.02-9.57-9.71s4.05-9.75 9.93-9.75c3.14 0 5.84.95 7.63 3.47 1.21 1.68.44 4.09-1.53 4.78-.37.15-.73.22-1.13.22-1.24 0-2.45-.77-2.92-2.04-1.28-3.25-2.45-4.13-3.76-4.13-4.16 0-3.72 13.07 3.72 13.07 2.34 0 3.94-1.61 4.71-2.52.18-.22.44-.33.73-.33.15 0 .33.04.47.11.47.22.66.8.4 1.28z"/><path d="m185.84 97.27 1.39 1.64c.18.18.26.4.26.66 0 .55-.47 1.02-1.02 1.02h-4.16c-1.28 0-2.37-.91-2.59-2.12-1.42 1.24-3.43 2.48-5.84 2.48-3.32 0-5.95-1.64-5.95-4.86 0-5.04 8.29-6.68 11.72-7.12v-1.17c0-3.4-1.5-4.67-3.07-4.67-1.68 0-2.34 1.53-2.59 3.29-.15 1.13-1.13 2.01-2.3 2.01-1.94 0-3.07-2.19-1.9-3.72 1.57-2.15 4.53-3.21 7.41-3.21 5 0 8.65 1.72 8.65 7.3v8.47zm-9.28.84c1.06 0 2.19-.77 3.07-1.61v-5.95c-2.3.37-5.15 1.68-5.15 4.93 0 1.75.66 2.63 2.08 2.63z"/><path d="m208.77 100.59h-7.41c-.58 0-1.02-.47-1.02-1.02 0-.26.07-.47.22-.66l1.39-1.64v-7.49c0-4.35-.47-5.88-2.08-5.88-.99 0-1.94.84-2.7 1.83v11.54l1.39 1.64c.15.18.25.4.25.66 0 .55-.47 1.02-1.02 1.02h-7.45c-.55 0-1.02-.47-1.02-1.02 0-.26.11-.47.25-.66l1.39-1.64v-11.06l-1.24-1.1c-.26-.22-.4-.55-.4-.88 0-.51.33-.95.84-1.13l5.22-1.57c.15-.04.29-.07.44-.07.26 0 .51.07.73.26.4.26.62.69.62 1.13v.73c1.13-1.1 2.67-2.04 4.56-2.04 2.7 0 6.43 1.57 6.43 7.52v8.22l1.39 1.64c.18.18.26.4.26.66 0 .55-.47 1.02-1.02 1.02z"/><path d="m212.34 76.01c.04-1.83 1.53-3.29 3.32-3.32 1.9 0 3.43 1.5 3.43 3.4v.07c-.04 3.87-2.56 6.68-3.98 7.96-.22.22-.51.29-.77.29-.33 0-.66-.11-.88-.4-.44-.48-.4-1.21.07-1.64.25-.26.55-.51.84-.84.73-.77.55-2.01-.37-2.56-1.02-.58-1.68-1.68-1.68-2.96z"/><path d="m234.18 97.12c.33.37.33.95-.04 1.28-.99.95-3.07 2.56-6.1 2.56-2.08 0-4.34-1.53-4.34-4.56v-12.89h-.88c-.62-.04-1.17-.55-1.17-1.21 0-.47.33-.91.77-1.1 3.32-1.2 5-3.07 5.84-4.24.18-.22.47-.37.77-.37.51 0 .88.4.88.91v3.98l2.78.04c.55 0 .99.44.99.99 0 .58-.44 1.02-.99 1.02l-2.78-.04v11.65c0 1.31.58 2.23 1.79 2.23.47 0 .91-.18 1.24-.4.18-.11.37-.18.55-.18.26 0 .51.11.66.29l.04.04z"/><path d="m49.88 131.29c-1.5 0-2.45-2.3-3.62-2.3-.44 0-.95.36-1.53 1.39v10.7l1.39 1.64c.15.18.26.4.26.66 0 .55-.48 1.02-1.02 1.02h-7.45c-.55 0-1.02-.47-1.02-1.02 0-.26.11-.47.26-.66l1.39-1.64v-11.06l-1.24-1.1c-.26-.22-.4-.55-.4-.88 0-.51.33-.95.84-1.13l5.22-1.57c.15-.04.29-.07.44-.07.26 0 .51.07.73.26.4.26.62.69.62 1.13v1.72c1.17-1.72 2.74-3.18 4.93-3.18 1.5 0 2.81.95 3.18 2.34.37 1.68-.73 3.76-2.96 3.76z"/><path d="m60.1 137.24c1.06 1.94 2.81 3.43 5.48 3.43 2.34 0 3.94-1.61 4.71-2.52.18-.22.44-.33.73-.33.15 0 .29.04.44.11.47.22.69.8.44 1.28-.91 1.79-3.43 5.55-8.73 5.55-5.84 0-9.53-4.02-9.53-9.71s4.05-9.75 9.9-9.75c3.43 0 6.57 2.01 8.07 6.57.18.55-.11 1.17-.66 1.35l-10.84 4.02zm-.73-1.86 6.94-2.59c-1.39-3.58-3.1-5.11-4.67-5.11-.26 0-.51.04-.77.11-1.79.62-2.45 4.31-1.5 7.59z"/><path d="m92.12 141.08 1.39 1.64c.18.18.26.4.26.66 0 .55-.47 1.02-1.02 1.02h-4.16c-1.28 0-2.37-.91-2.59-2.12-1.42 1.24-3.43 2.48-5.84 2.48-3.32 0-5.95-1.64-5.95-4.86 0-5.04 8.29-6.68 11.72-7.12v-1.17c0-3.4-1.5-4.67-3.07-4.67-1.68 0-2.34 1.53-2.59 3.29-.15 1.13-1.13 2.01-2.3 2.01-1.94 0-3.07-2.19-1.9-3.72 1.57-2.15 4.53-3.21 7.41-3.21 5 0 8.65 1.72 8.65 7.3v8.47zm-9.27.84c1.06 0 2.19-.77 3.07-1.61v-5.95c-2.3.37-5.15 1.68-5.15 4.93 0 1.75.66 2.63 2.08 2.63z"/><path d="m113.84 139.22c-.88 1.79-3.43 5.55-8.69 5.55-5.88 0-9.57-4.02-9.57-9.71s4.05-9.75 9.93-9.75c3.14 0 5.84.95 7.63 3.47 1.21 1.68.44 4.09-1.53 4.78-.36.15-.73.22-1.13.22-1.24 0-2.45-.77-2.92-2.04-1.28-3.25-2.45-4.13-3.76-4.13-4.16 0-3.72 13.07 3.72 13.07 2.34 0 3.94-1.61 4.71-2.52.18-.22.44-.33.73-.33.15 0 .33.04.47.11.48.22.66.8.4 1.28z"/><path d="m134.65 141.08 1.42 1.64c.15.18.22.4.22.66 0 .55-.44 1.02-1.02 1.02h-7.41c-.58 0-1.02-.47-1.02-1.02 0-.26.07-.47.22-.66l1.39-1.64v-7.49c0-4.35-.44-5.88-2.08-5.88-.99 0-1.94.84-2.7 1.83v11.54l1.39 1.64c.15.18.26.4.26.66 0 .55-.48 1.02-1.02 1.02h-7.45c-.55 0-1.02-.47-1.02-1.02 0-.26.11-.47.26-.66l1.39-1.64v-18.22l-1.24-1.1c-.26-.22-.4-.55-.4-.88 0-.51.37-.99.84-1.13l5.22-1.57c.15-.04.29-.07.44-.07.26 0 .51.07.73.26.4.26.62.66.62 1.13v7.89c1.13-1.1 2.67-2.04 4.56-2.04 2.7 0 6.43 1.57 6.43 7.52v8.22z"/><path d="m158.75 146.37c-1.61 3.62-4.31 6.79-8.54 6.79-1.64 0-3.14-1.06-3.5-2.59-.44-1.86.84-3.72 2.81-4.2.26-.07.4-.07.62-.07h.73c1.46 0 2.52.55 3.36.55.66 0 1.17-.29 1.64-1.35l.51-1.1-7.12-15.74-1.64-1.64c-.22-.18-.29-.44-.29-.69 0-.55.44-.99.99-.99h8.51c.58 0 1.06.48 1.06 1.06 0 .22-.07.44-.18.62l-1.21 1.64 3.1 7.12c.07.15.18.22.33.22.11 0 .26-.07.33-.22l3.36-7.45-1.17-1.31c-.22-.22-.29-.51-.25-.8.07-.51.51-.88 1.02-.88h4.53c.55 0 .99.44.99.99 0 .26-.11.51-.29.69l-1.64 1.64-8.03 17.71z"/><path d="m178.61 125.3c5.88 0 9.93 4.05 9.93 9.75s-4.05 9.71-9.93 9.71-9.9-4.02-9.9-9.71 4.05-9.75 9.9-9.75zm-3.29 10.33c.91 5.04 2.19 7.05 4.09 7.05.18 0 .37 0 .55-.04 2.23-.4 2.92-2.67 1.97-8.18-.91-5.04-2.19-7.05-4.13-7.05-.18 0-.37 0-.55.04-2.19.37-2.92 2.67-1.94 8.18z"/><path d="m207.93 125.34c.62 0 1.09.48 1.09 1.1v13.66l1.24 1.06c.22.22.36.47.4.8.04.55-.29 1.06-.84 1.24l-5.22 1.57c-.15.04-.29.07-.4.07-.73 0-1.39-.66-1.39-1.39v-1.02c-1.1 1.24-2.63 2.34-4.56 2.34-2.67 0-6.43-1.57-6.43-7.52v-8.58l-1.39-1.64c-.15-.18-.25-.4-.25-.66 0-.55.47-1.02 1.02-1.02h5.73c.62 0 1.1.48 1.1 1.1v10.08c0 4.35.47 5.66 2.08 5.66 1.02 0 1.97-.95 2.7-2.01v-11.5l-1.39-1.64c-.15-.18-.22-.4-.22-.66 0-.55.44-1.02 1.02-1.02h5.7z"/><path d="m55.72 184.89 1.42 1.64c.15.18.22.4.22.66 0 .55-.44 1.02-1.02 1.02h-7.41c-.58 0-1.02-.47-1.02-1.02 0-.26.07-.47.22-.66l1.39-1.64v-7.49c0-4.35-.44-5.88-2.08-5.88-.99 0-1.94.84-2.7 1.83v11.54l1.39 1.64c.15.18.26.4.26.66 0 .55-.48 1.02-1.02 1.02h-7.45c-.55 0-1.02-.47-1.02-1.02 0-.26.11-.47.26-.66l1.39-1.64v-18.22l-1.24-1.1c-.26-.22-.4-.55-.4-.88 0-.51.37-.99.84-1.13l5.22-1.57c.15-.04.29-.07.44-.07.26 0 .51.07.73.26.4.26.62.66.62 1.13v7.89c1.13-1.1 2.67-2.04 4.56-2.04 2.7 0 6.43 1.57 6.43 7.52v8.22z"/><path d="m65.65 181.06c1.06 1.94 2.81 3.43 5.48 3.43 2.34 0 3.94-1.61 4.71-2.52.18-.22.44-.33.73-.33.15 0 .29.04.44.11.47.22.69.8.44 1.28-.91 1.79-3.43 5.55-8.73 5.55-5.84 0-9.53-4.02-9.53-9.71s4.05-9.75 9.9-9.75c3.43 0 6.57 2.01 8.07 6.57.18.55-.11 1.17-.66 1.35l-10.84 4.02zm-.73-1.86 6.94-2.59c-1.39-3.58-3.1-5.11-4.67-5.11-.26 0-.51.04-.77.11-1.79.62-2.45 4.31-1.5 7.59z"/><path d="m92.37 175.1c-1.5 0-2.45-2.3-3.62-2.3-.44 0-.95.36-1.53 1.39v10.7l1.39 1.64c.15.18.26.4.26.66 0 .55-.48 1.02-1.02 1.02h-7.45c-.55 0-1.02-.47-1.02-1.02 0-.26.11-.47.26-.66l1.39-1.64v-11.06l-1.24-1.1c-.26-.22-.4-.55-.4-.88 0-.51.33-.95.84-1.13l5.22-1.57c.15-.04.29-.07.44-.07.26 0 .51.07.73.26.4.26.62.69.62 1.13v1.72c1.17-1.72 2.74-3.18 4.93-3.18 1.5 0 2.81.95 3.18 2.34.37 1.68-.73 3.76-2.96 3.76z"/><path d="m102.59 181.06c1.06 1.94 2.81 3.43 5.48 3.43 2.34 0 3.94-1.61 4.71-2.52.18-.22.44-.33.73-.33.15 0 .29.04.44.11.47.22.69.8.44 1.28-.91 1.79-3.43 5.55-8.73 5.55-5.84 0-9.53-4.02-9.53-9.71s4.05-9.75 9.9-9.75c3.43 0 6.57 2.01 8.07 6.57.18.55-.11 1.17-.66 1.35l-10.84 4.02zm-.73-1.86 6.94-2.59c-1.39-3.58-3.1-5.11-4.67-5.11-.26 0-.51.04-.77.11-1.79.62-2.45 4.31-1.5 7.59z"/><path d="m120.41 181.82c1.86 0 3.36 1.53 3.36 3.4s-1.5 3.36-3.36 3.36-3.36-1.5-3.36-3.36 1.5-3.4 3.36-3.4z"/></g><path d="m0 0h300v600h-300z" fill="none"/></svg>