<svg height="600" viewBox="0 0 300 600" width="300" xmlns="http://www.w3.org/2000/svg"><g fill="#fff"><path d="m58.7 576.62c-.3.58-.74 1.29-1.31 2.13s-1.31 1.64-2.23 2.4c-.91.76-2 1.41-3.27 1.96s-2.74.82-4.41.82c-1.22 0-2.58-.23-4.07-.69-1.5-.46-2.91-1.22-4.24-2.3s-2.45-2.51-3.35-4.3-1.35-4.01-1.35-6.68.45-4.89 1.35-6.68 2.02-3.22 3.35-4.3 2.75-1.85 4.24-2.3c1.5-.46 2.85-.69 4.07-.69 1.07 0 2.12.11 3.16.32 1.04.22 2.04.57 2.99 1.07.95.49 1.83 1.16 2.63 2s1.49 1.86 2.07 3.08c.23.48.35.99.36 1.52s-.07 1.03-.25 1.5-.44.89-.8 1.26-.79.65-1.29.86l-.04.04c-.48.2-.96.3-1.45.3-.81 0-1.57-.26-2.26-.78-.7-.52-1.16-1.21-1.39-2.07-.48-1.78-1.22-3.12-2.23-4.03-1-.91-2.11-1.37-3.33-1.37-.94 0-1.69.29-2.25.86s-.98 1.28-1.27 2.11c-.29.84-.48 1.72-.55 2.64-.08.93-.11 1.73-.11 2.42 0 1.4.2 2.79.61 4.19s.98 2.65 1.73 3.77 1.66 2.02 2.74 2.7c1.08.69 2.3 1.03 3.67 1.03.84 0 1.6-.14 2.3-.42s1.31-.62 1.85-1.03c.53-.41.99-.84 1.37-1.29.38-.46.68-.86.91-1.22.25-.38.6-.57 1.03-.57.18 0 .34.04.49.11.3.15.51.39.61.7.1.32.08.63-.08.93z"/><path d="m69.55 563.64c1.52 0 2.92.25 4.19.76s2.36 1.21 3.27 2.09c.91.89 1.62 1.95 2.13 3.2.51 1.24.76 2.61.76 4.11s-.25 2.83-.76 4.07-1.22 2.32-2.13 3.22-2 1.6-3.27 2.09-2.66.74-4.19.74-2.92-.25-4.19-.74-2.35-1.19-3.25-2.09-1.6-1.97-2.11-3.22c-.51-1.24-.76-2.6-.76-4.07s.25-2.87.76-4.11 1.21-2.31 2.11-3.2 1.98-1.59 3.25-2.09c1.27-.51 2.66-.76 4.19-.76zm-1.41 2.25c-1.14.18-1.89.93-2.25 2.25s-.28 3.41.23 6.28c.48 2.64 1.07 4.52 1.75 5.65s1.52 1.69 2.51 1.69c.25 0 .44-.01.57-.04 1.17-.2 1.93-.96 2.28-2.26.36-1.31.28-3.39-.23-6.26-.48-2.64-1.07-4.52-1.75-5.65s-1.54-1.69-2.55-1.69c-.25 0-.44.01-.57.04z"/><path d="m80.28 582.48c0-.28.09-.51.27-.69l1.45-1.71v-11.53l-1.29-1.14c-.28-.23-.42-.53-.42-.91 0-.58.29-.98.88-1.18l5.44-1.64c.2-.05.36-.08.46-.08.3 0 .56.09.76.27.43.28.65.67.65 1.18v.76c.58-.58 1.27-1.08 2.06-1.5s1.69-.63 2.7-.63c.48 0 .98.05 1.5.15s1.04.28 1.56.53 1.01.59 1.47 1.01.85.95 1.18 1.58c.3-.38.65-.77 1.03-1.16s.81-.74 1.29-1.05c.48-.3 1.01-.56 1.58-.76s1.19-.3 1.85-.3c.71 0 1.46.12 2.25.36s1.52.65 2.19 1.24c.67.58 1.22 1.38 1.66 2.4.43 1.02.65 2.3.65 3.84v8.56l1.45 1.71c.15.18.23.41.23.69s-.1.53-.3.74c-.2.22-.46.32-.76.32h-7.73c-.3 0-.56-.11-.76-.32-.2-.22-.3-.46-.3-.74s.08-.51.23-.69l1.48-1.71v-7.8c0-2.26-.15-3.84-.46-4.76-.3-.91-.89-1.37-1.75-1.37-.61 0-1.18.25-1.71.74s-1.02 1.05-1.45 1.66c.23.84.34 1.83.34 2.97v8.56l1.45 1.71c.18.18.27.41.27.69s-.11.53-.32.74c-.22.22-.46.32-.74.32h-7.73c-.3 0-.56-.11-.78-.32-.22-.22-.32-.46-.32-.74 0-.23.09-.46.27-.69l1.45-1.71v-7.8c0-2.26-.15-3.84-.46-4.76s-.88-1.37-1.71-1.37c-.53 0-1.04.19-1.52.57s-.91.82-1.29 1.33v12.03l1.45 1.71c.15.18.23.41.23.69s-.1.53-.3.74c-.2.22-.46.32-.76.32h-7.73c-.28 0-.53-.11-.74-.32-.22-.22-.32-.46-.32-.74z"/><path d="m122.03 565.73v14.35l1.45 1.71c.15.18.23.41.23.69s-.1.53-.3.74c-.2.22-.46.32-.76.32h-7.73c-.3 0-.56-.11-.76-.32-.2-.22-.3-.46-.3-.74s.08-.51.23-.69l1.48-1.71v-14.35h-.69c-.28-.03-.52-.14-.72-.34s-.3-.44-.3-.72.1-.53.3-.74c.2-.22.46-.31.76-.29h.65c0-1.22.16-2.3.48-3.23.32-.94.76-1.74 1.33-2.4s1.24-1.16 2.02-1.5c.77-.34 1.6-.51 2.49-.51.76 0 1.43.17 2 .49.57.33 1.07.71 1.5 1.14.2.23.35.48.44.74.09.27.12.54.1.82-.03.28-.11.55-.25.8s-.34.47-.59.65c-.33.23-.7.34-1.1.34-.43 0-.82-.12-1.16-.36s-.59-.58-.74-1.01c-.15-.48-.37-.91-.65-1.27-.28-.37-.67-.55-1.18-.55-.58 0-1.01.17-1.27.51s-.4.73-.4 1.16c0 .69.16 1.28.48 1.79s.68.93 1.08 1.28c.41.34.79.6 1.14.78l.68.34 2.51.04c.28 0 .52.1.72.3s.3.44.3.72c0 .3-.1.56-.3.76s-.44.3-.72.3l-2.44-.04z"/><path d="m135.5 563.64c1.52 0 2.92.25 4.19.76s2.36 1.21 3.27 2.09c.91.89 1.62 1.95 2.13 3.2.51 1.24.76 2.61.76 4.11s-.25 2.83-.76 4.07-1.22 2.32-2.13 3.22-2 1.6-3.27 2.09-2.66.74-4.19.74-2.92-.25-4.19-.74-2.35-1.19-3.25-2.09-1.6-1.97-2.11-3.22c-.51-1.24-.76-2.6-.76-4.07s.25-2.87.76-4.11 1.21-2.31 2.11-3.2 1.98-1.59 3.25-2.09c1.27-.51 2.66-.76 4.19-.76zm-1.41 2.25c-1.14.18-1.89.93-2.25 2.25s-.28 3.41.23 6.28c.48 2.64 1.07 4.52 1.75 5.65s1.52 1.69 2.51 1.69c.25 0 .44-.01.57-.04 1.17-.2 1.93-.96 2.28-2.26.36-1.31.28-3.39-.23-6.26-.48-2.64-1.07-4.52-1.75-5.65s-1.54-1.69-2.55-1.69c-.25 0-.44.01-.57.04z"/><path d="m155.86 581.79c.18.23.27.46.27.69 0 .28-.11.53-.32.74-.22.22-.46.32-.74.32h-7.76c-.28 0-.53-.11-.74-.32-.22-.22-.32-.46-.32-.74 0-.23.09-.46.27-.69l1.45-1.71v-11.53l-1.29-1.14c-.28-.23-.42-.53-.42-.91 0-.58.29-.98.88-1.18l5.44-1.64c.2-.05.36-.08.46-.08.3 0 .56.09.76.27.43.28.65.67.65 1.18v1.79c.61-.89 1.33-1.66 2.17-2.32s1.83-.99 2.97-.99c.79 0 1.48.22 2.09.67.61.44 1.01 1.03 1.22 1.77.1.43.11.88.02 1.35s-.27.89-.53 1.27c-.27.38-.62.69-1.05.93s-.94.36-1.52.36c-.38 0-.74-.13-1.07-.38s-.65-.53-.95-.82-.6-.56-.88-.82c-.28-.25-.57-.38-.88-.38-.23 0-.48.11-.74.32-.27.22-.55.59-.86 1.12v11.15l1.45 1.71z"/><path d="m175.08 564.7c0 .3-.1.56-.3.76s-.44.3-.72.3l-2.89-.04v12.14c0 .69.15 1.24.46 1.67.3.43.77.65 1.41.65.25 0 .49-.04.7-.11.22-.08.41-.18.59-.3.2-.13.39-.19.57-.19.3 0 .53.1.69.3l.04.04c.18.2.27.43.27.68s-.1.47-.3.65c-.25.25-.58.53-.97.84-.39.3-.86.59-1.39.86s-1.14.49-1.81.69c-.67.19-1.4.29-2.19.29-.53 0-1.07-.1-1.62-.3s-1.03-.5-1.47-.89c-.43-.39-.78-.89-1.05-1.48-.27-.6-.4-1.29-.4-2.07v-13.43h-.91c-.33-.03-.62-.15-.86-.38s-.36-.52-.36-.88c0-.25.08-.48.23-.69.15-.2.34-.36.57-.46 1.73-.63 3.06-1.38 4.02-2.23.95-.85 1.64-1.58 2.07-2.19.2-.25.47-.38.8-.38.28 0 .5.09.67.27.16.18.25.41.25.68v4.15l2.89.04c.28 0 .52.1.72.3s.3.44.3.72z"/><path d="m195.25 559.64c.08-.13.08-.26 0-.4s-.18-.21-.3-.21h-2.4c-1.42 0-2.75.34-3.98 1.01s-2.24 1.61-3.03 2.8l-.88 1.29c-.15.28-.41.42-.76.42-.28 0-.51-.09-.69-.27s-.27-.41-.27-.69v-6.47c0-.3.11-.57.32-.8.22-.23.49-.34.82-.34h16.78c.66 0 1.22.23 1.67.69.46.46.68 1.02.68 1.67 0 .43-.13.86-.38 1.29l-12.9 20.28c-.08.13-.08.25 0 .38s.18.19.3.19h3.35c1.45 0 2.78-.33 4.01-.99s2.24-1.6 3.03-2.82l.84-1.26c.23-.3.49-.46.8-.46.28 0 .51.1.69.29s.27.41.27.67v6.47c0 .33-.11.6-.34.82s-.49.32-.8.32h-17.77c-.66 0-1.22-.23-1.67-.69-.46-.46-.69-1.01-.69-1.67 0-.41.13-.82.38-1.26l12.9-20.28z"/><path d="m213.94 563.64c1.52 0 2.92.25 4.19.76s2.36 1.21 3.27 2.09c.91.89 1.62 1.95 2.13 3.2.51 1.24.76 2.61.76 4.11s-.25 2.83-.76 4.07-1.22 2.32-2.13 3.22-2 1.6-3.27 2.09-2.66.74-4.19.74-2.92-.25-4.19-.74-2.35-1.19-3.25-2.09-1.6-1.97-2.11-3.22c-.51-1.24-.76-2.6-.76-4.07s.25-2.87.76-4.11 1.21-2.31 2.11-3.2 1.99-1.59 3.25-2.09c1.27-.51 2.66-.76 4.19-.76zm-1.41 2.25c-1.14.18-1.89.93-2.25 2.25s-.28 3.41.23 6.28c.48 2.64 1.07 4.52 1.75 5.65.69 1.13 1.52 1.69 2.51 1.69.25 0 .44-.01.57-.04 1.17-.2 1.93-.96 2.28-2.26.35-1.31.28-3.39-.23-6.26-.48-2.64-1.07-4.52-1.75-5.65-.69-1.13-1.54-1.69-2.55-1.69-.25 0-.44.01-.57.04z"/><path d="m237.23 583.54c-.3 0-.56-.11-.76-.32-.2-.22-.3-.46-.3-.74s.08-.51.23-.69l1.45-1.71v-7.8c0-2.26-.15-3.84-.46-4.76s-.88-1.37-1.71-1.37c-.51 0-1 .19-1.48.57s-.93.82-1.33 1.33v12.03l1.45 1.71c.18.23.27.46.27.69 0 .28-.11.53-.32.74-.22.22-.46.32-.74.32h-7.76c-.28 0-.53-.11-.74-.32-.22-.22-.32-.46-.32-.74 0-.23.09-.46.27-.69l1.45-1.71v-11.53l-1.29-1.14c-.28-.23-.42-.53-.42-.91 0-.58.29-.98.88-1.18l5.44-1.64c.2-.05.35-.08.46-.08.3 0 .56.09.76.27.43.28.65.67.65 1.18v.76c.58-.58 1.28-1.08 2.07-1.5s1.69-.63 2.68-.63c.71 0 1.46.12 2.25.36s1.51.65 2.17 1.24c.66.58 1.2 1.38 1.64 2.4.43 1.02.65 2.3.65 3.84v8.56l1.45 1.71c.18.18.27.41.27.69s-.11.53-.32.74c-.22.22-.46.32-.74.32h-7.73z"/><path d="m265.43 578.14c-.23.46-.58 1.02-1.05 1.67-.47.66-1.07 1.29-1.79 1.9s-1.61 1.13-2.65 1.56-2.25.65-3.62.65c-1.52 0-2.9-.25-4.13-.74s-2.27-1.19-3.12-2.09-1.51-1.97-1.98-3.22c-.47-1.24-.7-2.6-.7-4.07s.25-2.87.76-4.11 1.21-2.31 2.11-3.2 1.99-1.59 3.25-2.09c1.27-.51 2.66-.76 4.19-.76 1.8 0 3.46.55 4.97 1.64s2.66 2.83 3.44 5.21c.1.28.08.56-.06.84s-.35.47-.63.57l-11.3 4.19c.56 1.02 1.3 1.86 2.23 2.55s2.09 1.03 3.48 1.03c.61 0 1.17-.1 1.67-.29.51-.19.97-.42 1.39-.69s.78-.55 1.08-.86c.3-.3.56-.57.76-.8s.46-.34.76-.34c.15 0 .3.04.46.11.25.13.42.32.51.57s.07.51-.06.76zm-10.69-12.03c-.25 0-.52.04-.8.11-.46.15-.84.49-1.16 1.03-.32.53-.55 1.17-.68 1.9-.14.74-.19 1.54-.15 2.4s.18 1.73.44 2.59l7.23-2.7c-.74-1.88-1.53-3.23-2.38-4.07s-1.68-1.26-2.49-1.26z"/><path d="m52.97 544.81c-.16 0-.28-.07-.36-.22-.08-.16-.21-.37-.39-.64s-.4-.54-.69-.8c-.28-.26-.61-.49-.99-.68-.37-.19-.8-.29-1.29-.29-.52 0-.94.12-1.26.35-.32.24-.48.56-.48.97s.15.76.46 1.04.69.55 1.16.79c.46.24.97.49 1.5.73.54.25 1.04.54 1.5.89.46.34.85.76 1.16 1.23.31.48.46 1.07.46 1.79s-.14 1.37-.43 1.88c-.29.52-.66.94-1.12 1.26s-.98.55-1.56.7-1.16.22-1.74.22c-.94 0-1.74-.1-2.39-.31s-1.15-.4-1.49-.6c-.39-.22-.58-.54-.58-.96v-2.52c0-.11.04-.21.13-.29.08-.08.19-.13.31-.13.17 0 .3.08.38.25.08.19.22.47.42.82.19.35.43.69.72 1.03.28.34.62.63 1 .88s.8.37 1.26.37c.59 0 1.05-.14 1.37-.41s.48-.69.48-1.26c0-.48-.15-.88-.46-1.2-.31-.31-.69-.59-1.15-.84s-.96-.49-1.5-.73-1.05-.53-1.5-.87c-.46-.34-.84-.75-1.15-1.23s-.46-1.09-.46-1.83.17-1.3.52-1.75.76-.81 1.25-1.06 1.01-.43 1.56-.53 1.02-.14 1.42-.14c.89 0 1.66.08 2.28.25.63.17 1.12.34 1.47.51.19.08.35.22.46.4s.17.37.17.58v1.92c0 .12-.04.22-.12.3s-.18.12-.3.12h-.02z"/><path d="m57.35 544.35c.14 0 .27.04.36.13.21.13.31.32.31.56v7.16l.69.82c.07.08.11.19.11.33s-.05.25-.14.35c-.1.1-.22.15-.36.15h-3.68c-.13 0-.25-.05-.35-.15s-.15-.22-.15-.35.04-.24.13-.33l.69-.82v-5.49l-.62-.54c-.13-.11-.2-.25-.2-.44 0-.28.14-.46.42-.56l2.59-.78c.1-.02.17-.04.22-.04zm-2.83-1.78c-.05-.23-.05-.46 0-.68.04-.22.13-.43.25-.62.13-.19.29-.35.48-.49s.42-.24.67-.3c.14-.04.29-.05.43-.05.41 0 .78.12 1.11.36s.54.56.63.94c.1.46.01.89-.25 1.29-.27.4-.65.66-1.16.78-.14.04-.3.05-.45.05-.41 0-.78-.12-1.1-.35-.32-.24-.52-.55-.61-.93z"/><path d="m62.88 545.08c.28-.18.61-.34 1-.48s.83-.21 1.34-.21.95.09 1.37.26c.42.18.78.43 1.08.78.3.34.54.77.71 1.29.17.51.25 1.11.25 1.79 0 .88-.13 1.66-.38 2.33s-.61 1.23-1.07 1.68-1.01.78-1.64 1.01c-.63.22-1.34.34-2.11.34h-.54v2.61l.71.82c.07.1.11.21.11.33 0 .13-.05.25-.14.35-.1.1-.22.15-.36.15h-3.68c-.14 0-.27-.05-.36-.15-.1-.1-.15-.22-.15-.35 0-.12.04-.23.11-.33l.69-.82v-9.75l-.6-.54c-.13-.11-.2-.25-.2-.44 0-.28.14-.46.42-.56l2.57-.78c.1-.02.17-.04.22-.04.18 0 .34.07.47.2s.2.3.2.49v.04zm0 7.74s.09.02.16.02c.46 0 .85-.08 1.16-.23s.57-.38.77-.7c.2-.31.34-.72.43-1.21.09-.5.14-1.09.14-1.79 0-.97-.14-1.7-.42-2.21s-.67-.76-1.18-.76c-.22 0-.41.04-.59.11s-.34.17-.48.29v6.49z"/><path d="m74.75 544.35c.14 0 .27.04.36.13.21.13.31.32.31.56v7.16l.69.82c.07.08.11.19.11.33s-.05.25-.14.35c-.1.1-.22.15-.36.15h-3.68c-.13 0-.25-.05-.35-.15s-.15-.22-.15-.35.04-.24.13-.33l.69-.82v-5.49l-.62-.54c-.13-.11-.2-.25-.2-.44 0-.28.14-.46.42-.56l2.59-.78c.1-.02.17-.04.22-.04zm-2.83-1.78c-.05-.23-.05-.46 0-.68.04-.22.13-.43.25-.62.13-.19.29-.35.48-.49s.42-.24.67-.3c.14-.04.29-.05.43-.05.41 0 .78.12 1.11.36s.54.56.63.94c.1.46.01.89-.25 1.29-.27.4-.65.66-1.16.78-.14.04-.3.05-.45.05-.41 0-.78-.12-1.1-.35-.32-.24-.52-.55-.61-.93z"/><path d="m82.56 553.85c-.14 0-.27-.05-.36-.15-.1-.1-.14-.22-.14-.35s.04-.24.11-.33l.69-.82v-3.72c0-1.08-.07-1.83-.22-2.27-.14-.44-.42-.65-.82-.65-.24 0-.48.09-.71.27s-.44.39-.63.63v5.73l.69.82c.08.11.13.22.13.33 0 .13-.05.25-.15.35s-.22.15-.35.15h-3.7c-.13 0-.25-.05-.35-.15s-.15-.22-.15-.35c0-.11.04-.22.13-.33l.69-.82v-5.49l-.62-.54c-.13-.11-.2-.25-.2-.44 0-.28.14-.46.42-.56l2.59-.78c.1-.02.17-.04.22-.04.14 0 .27.04.36.13.21.13.31.32.31.56v.36c.28-.28.61-.52.99-.72s.81-.3 1.28-.3c.34 0 .69.06 1.07.17.37.11.72.31 1.03.59s.57.66.78 1.14.31 1.09.31 1.83v4.08l.69.82c.08.08.13.19.13.33s-.05.25-.15.35-.22.15-.35.15h-3.68z"/><path d="m92.62 551.97c.12 0 .23.05.33.14v.02c.1.1.14.21.14.33s-.06.22-.15.31c-.12.12-.27.25-.46.4-.19.14-.41.28-.66.41s-.54.24-.85.33-.66.14-1.03.14c-.27 0-.53-.05-.78-.15s-.48-.24-.69-.43-.37-.42-.5-.71c-.13-.28-.19-.61-.19-.99v-6.4h-.43c-.17-.01-.31-.07-.42-.18s-.16-.25-.16-.42c0-.27.13-.45.38-.54.82-.3 1.46-.66 1.91-1.06s.78-.75.99-1.04c.1-.12.22-.18.38-.18.04 0 .09.01.16.04.18.07.27.21.27.42v1.58c.52-.13 1.04-.32 1.56-.57s1.04-.52 1.55-.81 1.03-.58 1.54-.88 1.02-.56 1.52-.81c.5-.24 1-.44 1.49-.6s.98-.24 1.46-.24c.39 0 .73.03 1.04.1s.58.15.82.24c.25.11.45.27.59.47.14.21.22.43.24.66.02.24-.02.47-.12.7s-.25.42-.47.56c-.24.17-.51.25-.8.25-.34 0-.64-.11-.91-.34-.22-.21-.48-.36-.78-.47s-.65-.16-1.05-.16c-.46 0-.98.11-1.55.33s-1.19.48-1.86.79c-.66.31-1.36.63-2.08.95-.72.33-1.45.6-2.2.82v6.18c0 .33.07.59.22.8.14.21.37.31.67.31.12 0 .23-.02.34-.05.1-.04.2-.08.28-.14.1-.06.19-.09.27-.09z"/><path d="m97.82 544.37c.72 0 1.39.12 1.99.36s1.12.57 1.56 1c.43.42.77.93 1.01 1.52s.36 1.24.36 1.96-.12 1.35-.36 1.94-.58 1.1-1.01 1.53-.95.76-1.56 1c-.6.24-1.27.35-1.99.35s-1.39-.12-1.99-.35c-.6-.24-1.12-.57-1.55-1s-.76-.94-1.01-1.53c-.24-.59-.36-1.24-.36-1.94s.12-1.37.36-1.96.58-1.1 1.01-1.52.95-.75 1.55-1c.6-.24 1.27-.36 1.99-.36zm-.67 1.07c-.54.08-.9.44-1.07 1.07s-.13 1.63.11 2.99c.23 1.26.51 2.15.83 2.69.33.54.72.81 1.2.81.12 0 .21 0 .27-.02.56-.1.92-.46 1.09-1.08s.13-1.62-.11-2.98c-.23-1.26-.51-2.15-.83-2.69-.33-.54-.73-.81-1.21-.81-.12 0-.21 0-.27.02z"/><path d="m115.64 544.39c.13 0 .25.05.34.14.1.1.14.21.14.34s-.05.25-.14.34l-.82.82-3.99 8.79c-.19.45-.43.88-.7 1.29s-.58.77-.93 1.08-.74.55-1.17.73-.91.27-1.44.27c-.41 0-.78-.12-1.11-.35-.33-.24-.54-.55-.63-.93-.05-.23-.05-.46 0-.68.04-.22.13-.43.25-.62.13-.19.29-.35.49-.49s.42-.24.66-.3c.06-.02.11-.04.15-.04h.52c.36 0 .68.05.95.14s.51.14.72.14c.17 0 .32-.05.44-.14s.25-.27.37-.53l.25-.54-3.53-7.81-.82-.82c-.1-.08-.14-.2-.14-.34 0-.13.05-.25.14-.34.1-.1.21-.14.34-.14h4.22c.14 0 .27.05.37.15s.15.23.15.37c0 .11-.03.21-.09.31l-.6.82 1.54 3.53c.04.07.09.11.16.11s.13-.04.16-.11l1.67-3.7-.58-.65c-.11-.11-.15-.24-.13-.4.02-.13.08-.24.17-.32s.2-.12.34-.12h2.25z"/><path d="m120.31 544.37c.72 0 1.39.12 1.99.36s1.12.57 1.56 1c.43.42.77.93 1.01 1.52s.36 1.24.36 1.96-.12 1.35-.36 1.94-.58 1.1-1.01 1.53-.95.76-1.56 1c-.6.24-1.27.35-1.99.35s-1.39-.12-1.99-.35c-.6-.24-1.12-.57-1.55-1s-.76-.94-1.01-1.53c-.24-.59-.36-1.24-.36-1.94s.12-1.37.36-1.96.58-1.1 1.01-1.52.95-.75 1.55-1c.6-.24 1.27-.36 1.99-.36zm-.67 1.07c-.54.08-.9.44-1.07 1.07s-.13 1.63.11 2.99c.23 1.26.51 2.15.83 2.69.33.54.72.81 1.2.81.12 0 .21 0 .27-.02.56-.1.92-.46 1.09-1.08s.13-1.62-.11-2.98c-.23-1.26-.51-2.15-.83-2.69-.33-.54-.73-.81-1.21-.81-.12 0-.21 0-.27.02z"/><path d="m131.6 552.87c-.28.31-.6.59-.98.82-.37.23-.8.34-1.29.34-.33 0-.68-.06-1.05-.17s-.72-.31-1.04-.59-.58-.66-.79-1.14-.31-1.09-.31-1.83v-4.26l-.69-.82c-.08-.11-.13-.22-.13-.33 0-.13.05-.25.15-.35s.22-.15.35-.15h2.85c.16 0 .29.05.39.15s.15.23.15.39v5c0 .54.01.99.05 1.35.03.36.09.64.17.86s.19.37.33.46c.13.09.3.14.49.14.25 0 .5-.1.72-.3.23-.2.43-.43.62-.7v-5.71l-.69-.82c-.07-.1-.11-.21-.11-.33 0-.13.05-.25.14-.35.1-.1.22-.15.36-.15h2.83c.16 0 .29.05.39.15s.15.23.15.39v6.78l.62.53c.12.12.19.25.2.4.01.13-.02.26-.1.37-.08.12-.18.2-.32.24l-2.59.78c-.1.02-.16.04-.2.04-.18 0-.34-.07-.48-.21s-.21-.3-.21-.48v-.51z"/><path d="m140.46 553.02c.08.11.13.22.13.33 0 .13-.05.25-.15.35s-.22.15-.35.15h-3.7c-.13 0-.25-.05-.35-.15s-.15-.22-.15-.35c0-.11.04-.22.13-.33l.69-.82v-5.49l-.62-.54c-.13-.11-.2-.25-.2-.44 0-.28.14-.46.42-.56l2.59-.78c.1-.02.17-.04.22-.04.14 0 .27.04.36.13.21.13.31.32.31.56v.85c.29-.42.63-.79 1.03-1.11.4-.31.87-.47 1.41-.47.37 0 .71.11 1 .32s.48.49.58.84c.05.21.05.42 0 .64-.04.22-.13.43-.25.61-.13.18-.29.33-.5.44-.21.12-.45.17-.72.17-.18 0-.35-.06-.51-.18s-.31-.25-.45-.39-.28-.27-.42-.39c-.13-.12-.27-.18-.42-.18-.11 0-.23.05-.35.15-.13.1-.26.28-.41.53v5.31l.69.82z"/></g><path d="m0 0h300v600h-300z" fill="none"/></svg>