<svg height="90" viewBox="0 0 728 90" width="728" xmlns="http://www.w3.org/2000/svg"><rect fill="#f1ffd7" height="38" rx="10" width="109" x="594" y="26"/><g fill="#00452b"><path d="m607.1 39.17h2.38v9.45h5.65v2.07h-8.04v-11.52z"/><path d="m623.83 48.18c-.06.5-.32 1.02-.78 1.54-.72.83-1.73 1.24-3.04 1.24-1.07 0-2.02-.35-2.84-1.05s-1.23-1.83-1.23-3.41c0-1.47.37-2.6 1.11-3.39s1.7-1.18 2.88-1.18c.7 0 1.33.13 1.9.4s1.03.69 1.39 1.26c.33.51.54 1.09.64 1.76.06.39.08.95.07 1.69h-5.77c.03.85.3 1.45.8 1.8.3.21.67.32 1.1.32.45 0 .82-.13 1.11-.39.16-.14.29-.34.41-.59zm-2.18-2.61c-.04-.59-.21-1.04-.53-1.34s-.71-.46-1.18-.46c-.51 0-.91.16-1.19.48s-.46.76-.53 1.31h3.43z"/><path d="m625.74 43.09c.58-.75 1.58-1.12 3-1.12.92 0 1.74.19 2.46.55s1.08 1.07 1.08 2.09v3.91c0 .27 0 .6.02.98.02.29.06.49.13.59s.18.19.32.26v.33h-2.4c-.07-.17-.11-.33-.14-.48s-.05-.32-.06-.52c-.3.33-.66.62-1.05.85-.48.28-1.01.41-1.61.41-.76 0-1.39-.22-1.89-.66s-.75-1.06-.75-1.87c0-1.05.4-1.8 1.2-2.27.44-.25 1.08-.44 1.94-.55l.75-.09c.41-.05.7-.12.88-.2.31-.13.47-.35.47-.63 0-.35-.12-.59-.36-.72s-.59-.2-1.06-.2c-.52 0-.89.13-1.11.39-.15.19-.26.45-.31.78h-2.13c.05-.74.25-1.36.62-1.84zm1.64 5.98c.21.17.46.26.76.26.47 0 .91-.14 1.31-.42s.61-.79.62-1.54v-.83c-.14.09-.28.16-.42.21s-.34.11-.58.15l-.5.09c-.46.08-.8.18-1 .3-.34.2-.51.52-.51.95 0 .38.11.65.32.82z"/><path d="m638.48 44.22c-.89 0-1.48.29-1.79.88-.17.33-.25.83-.25 1.52v4.07h-2.22v-8.52h2.11v1.48c.34-.57.64-.96.89-1.16.41-.35.95-.52 1.61-.52h.1s.09 0 .19.01v2.28c-.14-.02-.26-.03-.37-.03s-.2 0-.26 0z"/><path d="m644.38 43.81c-.75 0-1.26.32-1.54.96-.14.34-.22.77-.22 1.3v4.61h-2.2v-8.5h2.13v1.24c.28-.44.55-.75.81-.95.45-.34 1.03-.52 1.73-.52.87 0 1.59.23 2.14.69s.83 1.23.83 2.29v5.73h-2.26v-5.18c0-.45-.06-.79-.18-1.03-.22-.44-.63-.66-1.24-.66z"/><path d="m656.86 50.68h-2.22v-11.52h3.47l2.08 9.05 2.06-9.05h3.43v11.52h-2.22v-7.79c0-.22 0-.54 0-.94s0-.71 0-.93l-2.16 9.66h-2.31l-2.14-9.66v.93s0 .72 0 .94v7.79z"/><path d="m674.74 43.24c.71.9 1.07 1.97 1.07 3.2s-.36 2.32-1.07 3.21-1.79 1.33-3.24 1.33-2.53-.44-3.24-1.33-1.07-1.96-1.07-3.21.36-2.29 1.07-3.2 1.79-1.35 3.24-1.35 2.53.45 3.24 1.35zm-3.25.53c-.65 0-1.14.23-1.49.69s-.52 1.12-.52 1.97.17 1.51.52 1.98c.35.46.84.7 1.49.7s1.14-.23 1.49-.7.52-1.12.52-1.98-.17-1.51-.52-1.97-.84-.69-1.49-.69z"/><path d="m681.63 44.22c-.89 0-1.48.29-1.79.88-.17.33-.25.83-.25 1.52v4.07h-2.22v-8.52h2.11v1.48c.34-.57.64-.96.89-1.16.41-.35.95-.52 1.61-.52h.1s.09 0 .19.01v2.28c-.14-.02-.26-.03-.37-.03s-.2 0-.26 0z"/><path d="m690.78 48.18c-.06.5-.32 1.02-.78 1.54-.72.83-1.73 1.24-3.04 1.24-1.07 0-2.02-.35-2.84-1.05s-1.23-1.83-1.23-3.41c0-1.47.37-2.6 1.11-3.39s1.7-1.18 2.88-1.18c.7 0 1.33.13 1.9.4s1.03.69 1.39 1.26c.33.51.54 1.09.64 1.76.06.39.08.95.07 1.69h-5.77c.03.85.3 1.45.8 1.8.3.21.67.32 1.1.32.45 0 .82-.13 1.11-.39.16-.14.29-.34.41-.59zm-2.18-2.61c-.04-.59-.21-1.04-.53-1.34s-.71-.46-1.18-.46c-.51 0-.91.16-1.19.48s-.46.76-.53 1.31h3.43z"/></g><path d="m0 0h728v90h-728z" fill="none"/></svg>