<svg height="90" viewBox="0 0 728 90" width="728" xmlns="http://www.w3.org/2000/svg"><g fill="#fff"><path d="m252.04 64.73c-.43.83-1.05 1.83-1.86 3.02s-1.86 2.32-3.16 3.4-2.84 2.01-4.64 2.78-3.89 1.16-6.26 1.16c-1.73 0-3.65-.32-5.77-.97s-4.13-1.74-6.02-3.27-3.47-3.56-4.75-6.1-1.92-5.69-1.92-9.47.64-6.93 1.92-9.47 2.86-4.57 4.75-6.1 3.89-2.62 6.02-3.27c2.12-.65 4.05-.97 5.77-.97 1.51 0 3 .15 4.48.46 1.47.31 2.89.81 4.24 1.51s2.59 1.65 3.72 2.83c1.13 1.19 2.11 2.64 2.94 4.37.32.68.49 1.4.51 2.16s-.1 1.47-.35 2.13c-.25.67-.63 1.26-1.13 1.78s-1.12.93-1.83 1.21l-.05.05c-.68.29-1.37.43-2.05.43-1.15 0-2.22-.37-3.21-1.11s-1.65-1.72-1.97-2.94c-.68-2.52-1.74-4.43-3.16-5.72-1.42-1.3-3-1.94-4.72-1.94-1.33 0-2.39.4-3.18 1.21s-1.39 1.81-1.81 3c-.41 1.19-.67 2.44-.78 3.75s-.16 2.46-.16 3.43c0 1.98.29 3.96.86 5.94.58 1.98 1.39 3.76 2.46 5.34 1.06 1.58 2.36 2.86 3.89 3.83s3.27 1.46 5.21 1.46c1.19 0 2.28-.2 3.27-.59.99-.4 1.86-.88 2.62-1.46.76-.57 1.4-1.19 1.94-1.83.54-.65.97-1.22 1.3-1.73.36-.54.84-.81 1.46-.81.25 0 .49.05.7.16.43.22.72.55.86 1s.11.89-.11 1.32z"/><path d="m267.42 46.32c2.16 0 4.14.36 5.94 1.08s3.35 1.71 4.64 2.97c1.3 1.26 2.3 2.77 3.02 4.53s1.08 3.71 1.08 5.83-.36 4.01-1.08 5.77-1.73 3.28-3.02 4.56c-1.3 1.28-2.84 2.27-4.64 2.97s-3.78 1.05-5.94 1.05-4.14-.35-5.94-1.05-3.34-1.69-4.61-2.97c-1.28-1.28-2.28-2.8-3-4.56s-1.08-3.69-1.08-5.77.36-4.07 1.08-5.83 1.72-3.27 3-4.53 2.81-2.25 4.61-2.97 3.78-1.08 5.94-1.08zm-2 3.18c-1.62.25-2.68 1.31-3.18 3.18s-.4 4.84.32 8.9c.68 3.74 1.51 6.41 2.48 8.01s2.16 2.4 3.56 2.4c.36 0 .63-.02.81-.05 1.65-.29 2.73-1.36 3.24-3.21.5-1.85.4-4.81-.32-8.88-.68-3.74-1.51-6.41-2.48-8.01s-2.18-2.4-3.62-2.4c-.36 0-.63.02-.81.05z"/><path d="m282.64 73.04c0-.4.13-.72.38-.97l2.05-2.43v-16.35l-1.83-1.62c-.4-.32-.59-.76-.59-1.3 0-.83.41-1.38 1.24-1.67l7.72-2.32c.29-.07.5-.11.65-.11.43 0 .79.13 1.08.38.61.4.92.95.92 1.67v1.08c.83-.83 1.8-1.54 2.91-2.13s2.39-.89 3.83-.89c.68 0 1.39.07 2.13.22.74.14 1.47.4 2.21.76s1.43.84 2.08 1.43 1.2 1.34 1.67 2.24c.43-.54.92-1.09 1.46-1.65s1.15-1.05 1.83-1.48 1.43-.79 2.24-1.08 1.68-.43 2.62-.43c1.01 0 2.07.17 3.18.51s2.15.93 3.1 1.75c.95.83 1.74 1.96 2.35 3.4s.92 3.26.92 5.45v12.14l2.05 2.43c.22.25.32.58.32.97s-.14.75-.43 1.05c-.29.31-.65.46-1.08.46h-10.96c-.43 0-.79-.15-1.08-.46s-.43-.66-.43-1.05.11-.72.32-.97l2.1-2.43v-11.06c0-3.2-.22-5.45-.65-6.75s-1.26-1.94-2.48-1.94c-.86 0-1.67.35-2.43 1.05s-1.44 1.48-2.05 2.35c.32 1.19.49 2.59.49 4.21v12.14l2.05 2.43c.25.25.38.58.38.97s-.15.75-.46 1.05c-.31.31-.66.46-1.05.46h-10.96c-.43 0-.8-.15-1.11-.46s-.46-.66-.46-1.05c0-.32.13-.65.38-.97l2.05-2.43v-11.06c0-3.2-.22-5.45-.65-6.75s-1.24-1.94-2.43-1.94c-.76 0-1.48.27-2.16.81s-1.3 1.17-1.83 1.89v17.05l2.05 2.43c.22.25.32.58.32.97s-.14.75-.43 1.05c-.29.31-.65.46-1.08.46h-10.96c-.4 0-.75-.15-1.05-.46-.31-.31-.46-.66-.46-1.05z"/><path d="m341.84 49.29v20.35l2.05 2.43c.22.25.32.58.32.97s-.14.75-.43 1.05c-.29.31-.65.46-1.08.46h-10.96c-.43 0-.79-.15-1.08-.46s-.43-.66-.43-1.05.11-.72.32-.97l2.1-2.43v-20.35h-.97c-.4-.04-.74-.2-1.03-.49s-.43-.63-.43-1.03.14-.75.43-1.05c.29-.31.65-.44 1.08-.4h.92c0-1.73.22-3.26.67-4.59s1.08-2.46 1.89-3.4 1.76-1.65 2.86-2.13c1.1-.49 2.28-.73 3.53-.73 1.08 0 2.02.23 2.83.7s1.52 1.01 2.13 1.62c.29.32.49.67.62 1.05s.17.76.13 1.16-.15.77-.35 1.13-.48.67-.84.92c-.47.32-.99.49-1.57.49-.61 0-1.16-.17-1.65-.51s-.84-.82-1.05-1.43c-.22-.68-.52-1.29-.92-1.81s-.95-.78-1.67-.78c-.83 0-1.43.24-1.81.73s-.57 1.03-.57 1.65c0 .97.22 1.82.67 2.54s.96 1.32 1.54 1.81 1.11.85 1.62 1.11c.5.25.83.41.97.49l3.56.05c.4 0 .74.14 1.03.43s.43.63.43 1.03c0 .43-.14.79-.43 1.08s-.63.43-1.03.43l-3.45-.05z"/><path d="m360.94 46.32c2.16 0 4.14.36 5.94 1.08s3.35 1.71 4.64 2.97c1.3 1.26 2.3 2.77 3.02 4.53s1.08 3.71 1.08 5.83-.36 4.01-1.08 5.77-1.73 3.28-3.02 4.56c-1.3 1.28-2.84 2.27-4.64 2.97s-3.78 1.05-5.94 1.05-4.14-.35-5.94-1.05-3.34-1.69-4.61-2.97c-1.28-1.28-2.28-2.8-3-4.56s-1.08-3.69-1.08-5.77.36-4.07 1.08-5.83 1.72-3.27 3-4.53 2.81-2.25 4.61-2.97 3.78-1.08 5.94-1.08zm-2 3.18c-1.62.25-2.68 1.31-3.18 3.18s-.4 4.84.32 8.9c.68 3.74 1.51 6.41 2.48 8.01s2.16 2.4 3.56 2.4c.36 0 .63-.02.81-.05 1.65-.29 2.73-1.36 3.24-3.21.5-1.85.4-4.81-.32-8.88-.68-3.74-1.51-6.41-2.48-8.01s-2.18-2.4-3.62-2.4c-.36 0-.63.02-.81.05z"/><path d="m389.81 72.07c.25.32.38.65.38.97 0 .4-.15.75-.46 1.05-.31.31-.66.46-1.05.46h-11.01c-.4 0-.75-.15-1.05-.46-.31-.31-.46-.66-.46-1.05 0-.32.13-.65.38-.97l2.05-2.43v-16.35l-1.83-1.62c-.4-.32-.59-.76-.59-1.3 0-.83.41-1.38 1.24-1.67l7.72-2.32c.29-.07.5-.11.65-.11.43 0 .79.13 1.08.38.61.4.92.95.92 1.67v2.54c.86-1.26 1.89-2.36 3.08-3.29 1.19-.94 2.59-1.4 4.21-1.4 1.11 0 2.1.32 2.97.94.86.63 1.44 1.47 1.73 2.51.14.61.15 1.25.03 1.92-.13.67-.38 1.27-.76 1.81s-.87.98-1.48 1.32-1.33.51-2.16.51c-.54 0-1.04-.18-1.51-.54s-.92-.75-1.35-1.16-.85-.8-1.24-1.16c-.4-.36-.81-.54-1.24-.54-.32 0-.67.15-1.05.46s-.78.84-1.21 1.59v15.81l2.05 2.43z"/><path d="m417.07 47.83c0 .43-.14.79-.43 1.08s-.63.43-1.03.43l-4.1-.05v17.22c0 .97.22 1.76.65 2.37s1.1.92 2 .92c.36 0 .69-.05 1-.16s.58-.25.84-.43c.29-.18.56-.27.81-.27.43 0 .76.14.97.43l.05.05c.25.29.38.61.38.97s-.14.67-.43.92c-.36.36-.82.76-1.38 1.19s-1.21.84-1.97 1.21c-.76.38-1.61.7-2.56.97s-1.99.4-3.1.4c-.76 0-1.52-.14-2.29-.43s-1.47-.71-2.08-1.27-1.11-1.26-1.48-2.1c-.38-.84-.57-1.83-.57-2.94v-19.05h-1.3c-.47-.04-.87-.22-1.21-.54s-.51-.74-.51-1.24c0-.36.11-.68.32-.97.22-.29.49-.5.81-.65 2.45-.9 4.34-1.95 5.69-3.16s2.33-2.24 2.94-3.1c.29-.36.67-.54 1.13-.54.4 0 .71.13.94.38s.35.58.35.97v5.88l4.1.05c.4 0 .74.14 1.03.43s.43.63.43 1.03z"/><path d="m445.67 40.66c.11-.18.11-.37 0-.57s-.25-.3-.43-.3h-3.4c-2.02 0-3.9.48-5.64 1.43-1.75.95-3.18 2.28-4.29 3.97l-1.24 1.83c-.22.4-.58.59-1.08.59-.4 0-.72-.13-.97-.38s-.38-.58-.38-.97v-9.17c0-.43.15-.81.46-1.13s.69-.49 1.16-.49h23.8c.94 0 1.73.32 2.37.97.65.65.97 1.44.97 2.37 0 .61-.18 1.22-.54 1.83l-18.29 28.76c-.11.18-.11.36 0 .54s.25.27.43.27h4.75c2.05 0 3.95-.47 5.69-1.4 1.74-.94 3.17-2.27 4.29-3.99l1.19-1.78c.32-.43.7-.65 1.13-.65.4 0 .72.13.97.4s.38.59.38.94v9.17c0 .47-.16.86-.49 1.16-.32.31-.7.46-1.13.46h-25.2c-.94 0-1.73-.32-2.37-.97-.65-.65-.97-1.44-.97-2.37 0-.57.18-1.17.54-1.78l18.29-28.76z"/><path d="m472.17 46.32c2.16 0 4.14.36 5.94 1.08s3.35 1.71 4.64 2.97c1.3 1.26 2.3 2.77 3.02 4.53s1.08 3.71 1.08 5.83-.36 4.01-1.08 5.77-1.73 3.28-3.02 4.56c-1.3 1.28-2.84 2.27-4.64 2.97s-3.78 1.05-5.94 1.05-4.14-.35-5.94-1.05-3.34-1.69-4.61-2.97c-1.28-1.28-2.28-2.8-3-4.56s-1.08-3.69-1.08-5.77.36-4.07 1.08-5.83 1.72-3.27 3-4.53 2.81-2.25 4.61-2.97 3.78-1.08 5.94-1.08zm-2 3.18c-1.62.25-2.68 1.31-3.18 3.18s-.4 4.84.32 8.9c.68 3.74 1.51 6.41 2.48 8.01s2.16 2.4 3.56 2.4c.36 0 .63-.02.81-.05 1.65-.29 2.73-1.36 3.24-3.21.5-1.85.4-4.81-.32-8.88-.68-3.74-1.51-6.41-2.48-8.01s-2.18-2.4-3.62-2.4c-.36 0-.63.02-.81.05z"/><path d="m505.19 74.55c-.43 0-.79-.15-1.08-.46s-.43-.66-.43-1.05.11-.72.32-.97l2.05-2.43v-11.06c0-3.2-.22-5.45-.65-6.75s-1.24-1.94-2.43-1.94c-.72 0-1.42.27-2.1.81s-1.31 1.17-1.89 1.89v17.05l2.05 2.43c.25.32.38.65.38.97 0 .4-.15.75-.46 1.05-.31.31-.66.46-1.05.46h-11.01c-.4 0-.75-.15-1.05-.46-.31-.31-.46-.66-.46-1.05 0-.32.13-.65.38-.97l2.05-2.43v-16.35l-1.83-1.62c-.4-.32-.59-.76-.59-1.3 0-.83.41-1.38 1.24-1.67l7.72-2.32c.29-.07.5-.11.65-.11.43 0 .79.13 1.08.38.61.4.92.95.92 1.67v1.08c.83-.83 1.81-1.54 2.94-2.13s2.4-.89 3.8-.89c1.01 0 2.07.17 3.18.51s2.14.93 3.08 1.75c.94.83 1.71 1.96 2.32 3.4s.92 3.26.92 5.45v12.14l2.05 2.43c.25.25.38.58.38.97s-.15.75-.46 1.05c-.31.31-.66.46-1.05.46h-10.96z"/><path d="m545.18 66.88c-.32.65-.82 1.44-1.48 2.37-.67.94-1.51 1.83-2.54 2.7-1.03.86-2.28 1.6-3.75 2.21-1.48.61-3.18.92-5.13.92-2.16 0-4.11-.35-5.86-1.05s-3.22-1.69-4.43-2.97-2.14-2.8-2.81-4.56-1-3.69-1-5.77.36-4.07 1.08-5.83 1.72-3.27 3-4.53 2.81-2.25 4.61-2.97 3.78-1.08 5.94-1.08c2.55 0 4.9.77 7.04 2.32s3.77 4.01 4.88 7.39c.14.4.12.79-.08 1.19s-.49.67-.89.81l-16.03 5.94c.79 1.44 1.84 2.64 3.16 3.62 1.31.97 2.96 1.46 4.94 1.46.86 0 1.65-.14 2.37-.4.72-.27 1.38-.59 1.97-.97s1.11-.78 1.54-1.21.79-.81 1.08-1.13.65-.49 1.08-.49c.22 0 .43.05.65.16.36.18.6.45.73.81s.1.72-.08 1.08zm-15.16-17.05c-.36 0-.74.05-1.13.16-.65.22-1.2.7-1.65 1.46s-.77 1.66-.97 2.7-.27 2.18-.22 3.4.26 2.45.62 3.67l10.25-3.83c-1.04-2.66-2.17-4.59-3.37-5.77-1.21-1.19-2.38-1.78-3.53-1.78z"/><path d="m243.91 19.62c-.22 0-.39-.1-.51-.31-.12-.22-.3-.53-.55-.91-.25-.39-.57-.76-.98-1.13-.4-.37-.87-.69-1.4-.96s-1.14-.41-1.82-.41c-.74 0-1.33.17-1.79.5-.45.33-.68.79-.68 1.37s.22 1.08.66 1.48.99.78 1.64 1.12c.66.34 1.37.69 2.13 1.04s1.47.77 2.13 1.26 1.21 1.07 1.64 1.75c.44.68.66 1.52.66 2.53s-.21 1.94-.62 2.67c-.41.74-.94 1.33-1.59 1.79-.65.45-1.39.78-2.21.99s-1.64.31-2.47.31c-1.34 0-2.47-.15-3.39-.44s-1.63-.57-2.11-.85c-.55-.31-.82-.76-.82-1.36v-3.57c0-.15.06-.29.18-.41s.27-.18.44-.18c.24 0 .42.12.54.36.12.27.32.66.59 1.16s.61.99 1.02 1.46c.4.48.87.9 1.41 1.25s1.13.53 1.79.53c.84 0 1.49-.19 1.94-.58s.68-.98.68-1.79c0-.68-.22-1.25-.66-1.7s-.98-.84-1.63-1.2c-.65-.35-1.36-.7-2.13-1.04s-1.48-.75-2.13-1.23-1.19-1.06-1.63-1.75c-.44-.68-.66-1.55-.66-2.6s.24-1.84.73-2.48 1.08-1.14 1.77-1.5 1.43-.61 2.21-.75 1.45-.21 2.02-.21c1.27 0 2.35.12 3.24.36s1.58.48 2.08.72c.27.12.49.31.66.57.16.26.24.53.24.82v2.72c0 .17-.06.31-.17.42s-.25.17-.42.17h-.03z"/><path d="m250.13 18.98c.21 0 .38.06.51.18.29.19.44.45.44.8v10.15l.98 1.16c.1.12.15.27.15.46s-.07.36-.21.5c-.14.15-.31.22-.51.22h-5.22c-.19 0-.36-.07-.5-.22-.15-.15-.22-.31-.22-.5s.06-.34.18-.46l.98-1.16v-7.79l-.87-.77c-.19-.15-.28-.36-.28-.62 0-.39.2-.66.59-.8l3.67-1.11c.14-.03.24-.05.31-.05zm-4.01-2.52c-.07-.33-.07-.65-.01-.96.06-.32.18-.61.36-.87.18-.27.41-.5.68-.69.27-.2.59-.34.95-.42.21-.05.41-.08.62-.08.58 0 1.11.17 1.57.51s.76.79.9 1.34c.14.65.02 1.26-.36 1.82-.38.57-.93.93-1.64 1.11-.21.05-.42.08-.64.08-.58 0-1.1-.17-1.55-.5s-.74-.77-.86-1.32z"/><path d="m257.96 20.01c.39-.26.86-.48 1.41-.68s1.18-.3 1.9-.3 1.35.12 1.94.37 1.1.62 1.53 1.11.76 1.1 1 1.82c.24.73.36 1.57.36 2.53 0 1.25-.18 2.35-.54 3.3s-.87 1.74-1.52 2.38c-.65.63-1.43 1.11-2.33 1.43s-1.9.48-2.99.48h-.77v3.7l1 1.16c.1.14.15.29.15.46 0 .19-.07.36-.21.5-.14.15-.31.22-.51.22h-5.22c-.21 0-.38-.07-.51-.22-.14-.15-.21-.31-.21-.5 0-.17.05-.33.15-.46l.98-1.16v-13.83l-.85-.77c-.19-.15-.28-.36-.28-.62 0-.39.2-.66.59-.8l3.65-1.11c.14-.03.24-.05.31-.05.26 0 .48.09.67.28s.28.42.28.69v.05zm0 10.97c.05.02.13.03.23.03.65 0 1.2-.11 1.64-.32.45-.21.81-.54 1.09-.99s.49-1.02.62-1.72.19-1.55.19-2.54c0-1.37-.2-2.42-.59-3.14s-.95-1.08-1.67-1.08c-.31 0-.59.05-.84.15s-.48.24-.68.41v9.2z"/><path d="m274.8 18.98c.21 0 .38.06.51.18.29.19.44.45.44.8v10.15l.98 1.16c.1.12.15.27.15.46s-.07.36-.21.5c-.14.15-.31.22-.51.22h-5.22c-.19 0-.36-.07-.5-.22-.15-.15-.22-.31-.22-.5s.06-.34.18-.46l.98-1.16v-7.79l-.87-.77c-.19-.15-.28-.36-.28-.62 0-.39.2-.66.59-.8l3.67-1.11c.14-.03.24-.05.31-.05zm-4.01-2.52c-.07-.33-.07-.65-.01-.96.06-.32.18-.61.36-.87.18-.27.41-.5.68-.69.27-.2.59-.34.95-.42.21-.05.41-.08.62-.08.58 0 1.11.17 1.57.51s.76.79.9 1.34c.14.65.02 1.26-.36 1.82-.38.57-.93.93-1.64 1.11-.21.05-.42.08-.64.08-.58 0-1.1-.17-1.55-.5s-.74-.77-.86-1.32z"/><path d="m285.87 32.44c-.21 0-.38-.07-.51-.22-.14-.15-.21-.31-.21-.5s.05-.34.15-.46l.98-1.16v-5.27c0-1.52-.1-2.6-.31-3.21-.21-.62-.59-.93-1.16-.93-.34 0-.68.13-1 .39-.33.26-.63.56-.9.9v8.12l.98 1.16c.12.15.18.31.18.46 0 .19-.07.36-.22.5-.15.15-.31.22-.5.22h-5.24c-.19 0-.36-.07-.5-.22-.15-.15-.22-.31-.22-.5 0-.15.06-.31.18-.46l.98-1.16v-7.79l-.87-.77c-.19-.15-.28-.36-.28-.62 0-.39.2-.66.59-.8l3.67-1.11c.14-.03.24-.05.31-.05.21 0 .38.06.51.18.29.19.44.45.44.8v.51c.39-.39.86-.73 1.4-1.02s1.14-.42 1.81-.42c.48 0 .98.08 1.52.24.53.16 1.02.44 1.46.84.45.39.81.93 1.11 1.62.29.69.44 1.55.44 2.6v5.78l.98 1.16c.12.12.18.27.18.46s-.07.36-.22.5-.31.22-.5.22h-5.22z"/><path d="m300.13 29.77c.17 0 .33.07.46.21v.03c.14.14.2.29.19.46 0 .17-.08.32-.22.44-.17.17-.39.36-.66.57s-.58.4-.94.58-.76.33-1.21.46-.93.19-1.46.19c-.38 0-.75-.07-1.11-.21s-.69-.34-.98-.6c-.29-.27-.53-.6-.71-1s-.27-.87-.27-1.4v-9.07h-.62c-.24-.02-.44-.1-.59-.26-.15-.15-.23-.35-.23-.59 0-.38.18-.63.54-.77 1.16-.43 2.07-.93 2.71-1.5s1.11-1.07 1.4-1.48c.14-.17.32-.26.54-.26.05 0 .13.02.23.05.26.1.39.3.39.59v2.24c.74-.19 1.47-.46 2.21-.81s1.47-.73 2.2-1.14 1.46-.83 2.18-1.25c.73-.42 1.45-.8 2.16-1.14s1.41-.63 2.11-.85c.69-.22 1.38-.33 2.07-.33.55 0 1.04.05 1.48.14s.83.21 1.17.35c.36.15.64.38.84.67s.31.6.33.94c.03.33-.03.66-.17.99s-.36.59-.67.8c-.34.24-.72.36-1.13.36-.48 0-.91-.16-1.28-.49-.31-.29-.68-.51-1.11-.67-.43-.15-.93-.23-1.49-.23-.65 0-1.38.15-2.2.46-.81.31-1.69.68-2.63 1.12s-1.92.89-2.94 1.35-2.06.85-3.12 1.16v8.76c0 .46.1.84.31 1.13s.52.44.95.44c.17 0 .33-.03.48-.08s.28-.12.4-.21c.14-.09.27-.13.39-.13z"/><path d="m307.51 19c1.03 0 1.97.17 2.83.51s1.59.81 2.21 1.41 1.1 1.32 1.44 2.16.51 1.76.51 2.78-.17 1.91-.51 2.75-.82 1.56-1.44 2.17-1.35 1.08-2.21 1.41-1.8.5-2.83.5-1.97-.17-2.83-.5-1.59-.81-2.2-1.41c-.61-.61-1.08-1.33-1.43-2.17-.34-.84-.51-1.76-.51-2.75s.17-1.94.51-2.78.82-1.56 1.43-2.16 1.34-1.07 2.2-1.41 1.8-.51 2.83-.51zm-.95 1.52c-.77.12-1.28.63-1.52 1.52s-.19 2.3.15 4.24c.33 1.78.72 3.05 1.18 3.82.46.76 1.03 1.14 1.7 1.14.17 0 .3 0 .39-.03.79-.14 1.3-.65 1.54-1.53s.19-2.29-.15-4.23c-.33-1.78-.72-3.05-1.18-3.82-.46-.76-1.04-1.14-1.72-1.14-.17 0-.3 0-.39.03z"/><path d="m332.77 19.03c.19 0 .35.07.49.21s.21.3.21.49-.07.35-.21.49l-1.16 1.16-5.65 12.46c-.27.63-.6 1.24-.99 1.82s-.83 1.09-1.32 1.53c-.5.44-1.05.78-1.66 1.04s-1.29.39-2.04.39c-.58 0-1.11-.17-1.57-.5s-.76-.78-.9-1.32c-.07-.33-.07-.65-.01-.96.06-.32.18-.61.36-.87.18-.27.41-.5.69-.69.28-.2.6-.34.94-.42.09-.03.16-.05.22-.05h.73c.51 0 .96.06 1.35.19s.72.19 1.02.19c.24 0 .45-.06.63-.19s.36-.38.53-.76l.36-.77-5.01-11.08-1.16-1.16c-.14-.12-.21-.28-.21-.49 0-.19.07-.35.21-.49s.3-.21.49-.21h5.99c.21 0 .38.07.53.22s.22.32.22.53c0 .15-.04.3-.13.44l-.85 1.16 2.18 5.01c.05.1.13.15.23.15s.18-.05.23-.15l2.36-5.24-.82-.93c-.15-.15-.21-.34-.18-.57.03-.19.12-.34.24-.45.13-.11.29-.17.48-.17h3.19z"/><path d="m339.4 19c1.03 0 1.97.17 2.83.51s1.59.81 2.21 1.41 1.1 1.32 1.44 2.16.51 1.76.51 2.78-.17 1.91-.51 2.75-.82 1.56-1.44 2.17-1.35 1.08-2.21 1.41-1.8.5-2.83.5-1.97-.17-2.83-.5-1.59-.81-2.2-1.41c-.61-.61-1.08-1.33-1.43-2.17-.34-.84-.51-1.76-.51-2.75s.17-1.94.51-2.78.82-1.56 1.43-2.16 1.34-1.07 2.2-1.41 1.8-.51 2.83-.51zm-.95 1.52c-.77.12-1.28.63-1.52 1.52s-.19 2.3.15 4.24c.33 1.78.72 3.05 1.18 3.82.46.76 1.03 1.14 1.7 1.14.17 0 .3 0 .39-.03.79-.14 1.3-.65 1.54-1.53s.19-2.29-.15-4.23c-.33-1.78-.72-3.05-1.18-3.82-.46-.76-1.04-1.14-1.72-1.14-.17 0-.3 0-.39.03z"/><path d="m355.41 31.06c-.39.45-.86.83-1.39 1.16s-1.14.49-1.82.49c-.46 0-.96-.08-1.49-.24s-1.02-.44-1.48-.84c-.45-.39-.83-.93-1.12-1.62-.29-.68-.44-1.55-.44-2.6v-6.04l-.98-1.16c-.12-.15-.18-.31-.18-.46 0-.19.07-.36.22-.5.15-.15.31-.22.5-.22h4.03c.22 0 .41.07.55.22.15.15.22.33.22.55v7.09c0 .77.02 1.41.06 1.91.04.51.12.91.24 1.22s.27.53.46.66.42.19.69.19c.36 0 .7-.14 1.03-.42s.62-.61.87-.99v-8.1l-.98-1.16c-.1-.14-.15-.29-.15-.46 0-.19.07-.36.21-.5.14-.15.31-.22.51-.22h4.01c.22 0 .41.07.55.22.15.15.22.33.22.55v9.61l.87.75c.17.17.27.36.28.57.02.19-.03.36-.14.53-.11.16-.26.28-.45.35l-3.67 1.11c-.14.03-.23.05-.28.05-.26 0-.48-.1-.68-.3s-.3-.42-.3-.68v-.72z"/><path d="m367.98 31.26c.12.15.18.31.18.46 0 .19-.07.36-.22.5-.15.15-.31.22-.5.22h-5.24c-.19 0-.36-.07-.5-.22-.15-.15-.22-.31-.22-.5 0-.15.06-.31.18-.46l.98-1.16v-7.79l-.87-.77c-.19-.15-.28-.36-.28-.62 0-.39.2-.66.59-.8l3.67-1.11c.14-.03.24-.05.31-.05.21 0 .38.06.51.18.29.19.44.45.44.8v1.21c.41-.6.9-1.12 1.46-1.57.57-.45 1.23-.67 2-.67.53 0 1 .15 1.41.45s.69.7.82 1.19c.07.29.07.6.01.91-.06.32-.18.6-.36.86s-.42.47-.71.63-.63.24-1.03.24c-.26 0-.5-.09-.72-.26s-.44-.36-.64-.55c-.21-.2-.4-.38-.59-.55s-.39-.26-.59-.26c-.15 0-.32.07-.5.22s-.37.4-.58.76v7.53l.98 1.16z"/></g><path d="m0 0h728v90h-728z" fill="none"/></svg>