<svg height="250" viewBox="0 0 300 250" width="300" xmlns="http://www.w3.org/2000/svg"><g fill="#fff"><path d="m29.62 232.62c-.19.36-.45.79-.8 1.3s-.8 1-1.36 1.47-1.23.87-2 1.2c-.78.33-1.68.5-2.7.5-.75 0-1.58-.14-2.49-.42-.92-.28-1.78-.75-2.6-1.41s-1.5-1.54-2.05-2.63-.83-2.46-.83-4.09.28-2.99.83-4.09c.55-1.09 1.23-1.97 2.05-2.63s1.68-1.13 2.6-1.41 1.75-.42 2.49-.42c.65 0 1.3.07 1.93.2.64.13 1.25.35 1.83.65s1.12.71 1.61 1.22.91 1.14 1.27 1.89c.14.3.21.61.22.93 0 .33-.04.63-.15.92s-.27.54-.49.77-.48.4-.79.52l-.02.02c-.3.12-.59.19-.89.19-.5 0-.96-.16-1.39-.48s-.71-.74-.85-1.27c-.3-1.09-.75-1.91-1.36-2.47s-1.29-.84-2.04-.84c-.57 0-1.03.17-1.37.52s-.6.78-.78 1.29-.29 1.05-.34 1.62-.07 1.06-.07 1.48c0 .85.12 1.71.37 2.56s.6 1.62 1.06 2.31c.46.68 1.02 1.23 1.68 1.65s1.41.63 2.25.63c.51 0 .98-.09 1.41-.26s.8-.38 1.13-.63.61-.51.84-.79.42-.53.56-.75c.16-.23.36-.35.63-.35.11 0 .21.02.3.07.19.09.31.24.37.43s.05.38-.05.57z"/><path d="m36.26 224.68c.93 0 1.79.16 2.56.47.78.31 1.44.74 2 1.28s.99 1.2 1.3 1.96.47 1.6.47 2.52-.16 1.73-.47 2.49-.75 1.42-1.3 1.97c-.56.55-1.23.98-2 1.28-.78.3-1.63.45-2.56.45s-1.79-.15-2.56-.45c-.78-.3-1.44-.73-1.99-1.28s-.98-1.21-1.29-1.97-.47-1.59-.47-2.49.16-1.75.47-2.52c.31-.76.74-1.41 1.29-1.96.55-.54 1.21-.97 1.99-1.28s1.63-.47 2.56-.47zm-.86 1.37c-.7.11-1.16.57-1.37 1.37-.22.81-.17 2.09.14 3.84.29 1.62.65 2.77 1.07 3.46s.93 1.04 1.54 1.04c.16 0 .27 0 .35-.02.71-.12 1.18-.59 1.4-1.39s.17-2.08-.14-3.83c-.3-1.61-.65-2.77-1.07-3.46s-.94-1.04-1.56-1.04c-.16 0-.27 0-.35.02z"/><path d="m42.83 236.2c0-.17.05-.31.16-.42l.89-1.05v-7.06l-.79-.7c-.17-.14-.26-.33-.26-.56 0-.36.18-.6.54-.72l3.33-1c.12-.03.22-.05.28-.05.19 0 .34.05.47.16.26.17.4.41.4.72v.47c.36-.36.78-.66 1.26-.92s1.03-.38 1.65-.38c.29 0 .6.03.92.09s.64.17.95.33c.32.16.62.36.9.62s.52.58.72.97c.19-.23.4-.47.63-.71s.5-.45.79-.64.62-.34.97-.47c.35-.12.73-.19 1.13-.19.43 0 .89.07 1.37.22s.93.4 1.34.76.75.85 1.01 1.47.4 1.41.4 2.35v5.24l.89 1.05c.09.11.14.25.14.42s-.06.32-.19.45c-.12.13-.28.2-.47.2h-4.73c-.19 0-.34-.07-.47-.2-.12-.13-.19-.28-.19-.45s.05-.31.14-.42l.91-1.05v-4.77c0-1.38-.09-2.35-.28-2.91s-.54-.84-1.07-.84c-.37 0-.72.15-1.05.45s-.62.64-.89 1.01c.14.51.21 1.12.21 1.82v5.24l.89 1.05c.11.11.16.25.16.42s-.07.32-.2.45-.28.2-.45.2h-4.73c-.19 0-.35-.07-.48-.2s-.2-.28-.2-.45c0-.14.05-.28.16-.42l.89-1.05v-4.77c0-1.38-.09-2.35-.28-2.91s-.54-.84-1.05-.84c-.33 0-.64.12-.93.35-.3.23-.56.5-.79.82v7.36l.89 1.05c.09.11.14.25.14.42s-.06.32-.19.45c-.12.13-.28.2-.47.2h-4.73c-.17 0-.32-.07-.45-.2s-.2-.28-.2-.45z"/><path d="m68.38 225.96v8.78l.89 1.05c.09.11.14.25.14.42s-.06.32-.19.45c-.12.13-.28.2-.47.2h-4.73c-.19 0-.34-.07-.47-.2-.12-.13-.19-.28-.19-.45s.05-.31.14-.42l.91-1.05v-8.78h-.42c-.17-.02-.32-.09-.44-.21s-.19-.27-.19-.44.06-.32.19-.45c.12-.13.28-.19.47-.17h.4c0-.75.1-1.41.29-1.98s.47-1.06.82-1.47c.35-.4.76-.71 1.23-.92s.98-.31 1.53-.31c.47 0 .87.1 1.22.3s.66.43.92.7c.12.14.21.29.27.45.05.16.07.33.06.5-.02.17-.07.33-.15.49-.09.16-.21.29-.36.4-.2.14-.43.21-.68.21-.26 0-.5-.07-.71-.22s-.36-.35-.45-.62c-.09-.29-.23-.55-.4-.78-.17-.22-.41-.34-.72-.34-.36 0-.62.1-.78.31s-.24.45-.24.71c0 .42.1.78.29 1.09s.42.57.66.78c.25.21.48.37.7.48l.42.21 1.54.02c.17 0 .32.06.44.19.12.12.19.27.19.44 0 .19-.06.34-.19.47-.12.12-.27.19-.44.19l-1.49-.02z"/><path d="m76.63 224.68c.93 0 1.79.16 2.56.47.78.31 1.44.74 2 1.28s.99 1.2 1.3 1.96.47 1.6.47 2.52-.16 1.73-.47 2.49-.75 1.42-1.3 1.97c-.56.55-1.23.98-2 1.28-.78.3-1.63.45-2.56.45s-1.79-.15-2.56-.45c-.78-.3-1.44-.73-1.99-1.28s-.98-1.21-1.29-1.97-.47-1.59-.47-2.49.16-1.75.47-2.52c.31-.76.74-1.41 1.29-1.96.55-.54 1.21-.97 1.99-1.28s1.63-.47 2.56-.47zm-.86 1.37c-.7.11-1.16.57-1.37 1.37-.22.81-.17 2.09.14 3.84.29 1.62.65 2.77 1.07 3.46s.93 1.04 1.54 1.04c.16 0 .27 0 .35-.02.71-.12 1.18-.59 1.4-1.39s.17-2.08-.14-3.83c-.3-1.61-.65-2.77-1.07-3.46s-.94-1.04-1.56-1.04c-.16 0-.27 0-.35.02z"/><path d="m89.09 235.79c.11.14.16.28.16.42 0 .17-.07.32-.2.45s-.28.2-.45.2h-4.75c-.17 0-.32-.07-.45-.2s-.2-.28-.2-.45c0-.14.05-.28.16-.42l.89-1.05v-7.06l-.79-.7c-.17-.14-.26-.33-.26-.56 0-.36.18-.6.54-.72l3.33-1c.12-.03.22-.05.28-.05.19 0 .34.05.47.16.26.17.4.41.4.72v1.09c.37-.54.82-1.02 1.33-1.42s1.12-.61 1.82-.61c.48 0 .91.14 1.28.41s.62.63.75 1.08c.06.26.07.54.01.83-.05.29-.16.55-.33.78-.16.23-.38.42-.64.57s-.57.22-.93.22c-.23 0-.45-.08-.65-.23s-.4-.32-.58-.5c-.19-.18-.37-.35-.54-.5s-.35-.23-.54-.23c-.14 0-.29.07-.45.2s-.34.36-.52.69v6.82l.89 1.05z"/><path d="m100.85 225.33c0 .19-.06.34-.19.47-.12.12-.27.19-.44.19l-1.77-.02v7.43c0 .42.09.76.28 1.02s.47.4.86.4c.15 0 .3-.02.43-.07s.25-.11.36-.19c.12-.08.24-.12.35-.12.19 0 .33.06.42.19l.02.02c.11.12.16.26.16.42s-.06.29-.19.4c-.16.16-.35.33-.59.51-.24.19-.52.36-.85.52s-.7.3-1.11.42-.86.17-1.34.17c-.33 0-.66-.06-.99-.19-.33-.12-.63-.31-.9-.55-.26-.24-.48-.54-.64-.91-.16-.36-.24-.79-.24-1.27v-8.22h-.56c-.2-.02-.38-.09-.52-.23-.15-.14-.22-.32-.22-.54 0-.16.05-.29.14-.42.09-.12.21-.22.35-.28 1.06-.39 1.88-.84 2.46-1.36s1.01-.97 1.27-1.34c.12-.15.29-.23.49-.23.17 0 .31.05.41.16s.15.25.15.42v2.54l1.77.02c.17 0 .32.06.44.19.12.12.19.27.19.44z"/><path d="m113.2 222.23c.05-.08.05-.16 0-.24-.05-.09-.11-.13-.19-.13h-1.47c-.87 0-1.68.21-2.43.62s-1.37.98-1.85 1.71l-.54.79c-.09.17-.25.26-.47.26-.17 0-.31-.05-.42-.16s-.16-.25-.16-.42v-3.96c0-.19.07-.35.2-.49s.3-.21.5-.21h10.27c.4 0 .75.14 1.02.42.28.28.42.62.42 1.02 0 .26-.08.53-.23.79l-7.9 12.41c-.05.08-.05.16 0 .23.05.08.11.12.19.12h2.05c.89 0 1.7-.2 2.46-.61.75-.4 1.37-.98 1.85-1.72l.51-.77c.14-.19.3-.28.49-.28.17 0 .31.06.42.17.11.12.16.25.16.41v3.96c0 .2-.07.37-.21.5s-.3.2-.49.2h-10.88c-.4 0-.75-.14-1.02-.42-.28-.28-.42-.62-.42-1.02 0-.25.08-.5.23-.77l7.9-12.41z"/><path d="m124.63 224.68c.93 0 1.79.16 2.56.47.78.31 1.44.74 2 1.28s.99 1.2 1.3 1.96.47 1.6.47 2.52-.16 1.73-.47 2.49-.75 1.42-1.3 1.97c-.56.55-1.23.98-2 1.28-.78.3-1.63.45-2.56.45s-1.79-.15-2.56-.45c-.78-.3-1.44-.73-1.99-1.28s-.98-1.21-1.29-1.97-.47-1.59-.47-2.49.16-1.75.47-2.52c.31-.76.74-1.41 1.29-1.96.55-.54 1.21-.97 1.99-1.28s1.63-.47 2.56-.47zm-.86 1.37c-.7.11-1.16.57-1.37 1.37-.22.81-.17 2.09.14 3.84.29 1.62.65 2.77 1.07 3.46s.93 1.04 1.54 1.04c.15 0 .27 0 .35-.02.71-.12 1.18-.59 1.4-1.39s.17-2.08-.14-3.83c-.3-1.61-.65-2.77-1.07-3.46s-.94-1.04-1.56-1.04c-.16 0-.27 0-.35.02z"/><path d="m138.89 236.86c-.19 0-.34-.07-.47-.2-.12-.13-.19-.28-.19-.45s.05-.31.14-.42l.89-1.05v-4.77c0-1.38-.09-2.35-.28-2.91s-.54-.84-1.05-.84c-.31 0-.61.12-.91.35s-.57.5-.82.82v7.36l.89 1.05c.11.14.16.28.16.42 0 .17-.07.32-.2.45s-.28.2-.45.2h-4.75c-.17 0-.32-.07-.45-.2s-.2-.28-.2-.45c0-.14.05-.28.16-.42l.89-1.05v-7.06l-.79-.7c-.17-.14-.26-.33-.26-.56 0-.36.18-.6.54-.72l3.33-1c.12-.03.22-.05.28-.05.19 0 .34.05.47.16.26.17.4.41.4.72v.47c.36-.36.78-.66 1.27-.92s1.04-.38 1.64-.38c.43 0 .89.07 1.37.22s.92.4 1.33.76c.4.36.74.85 1 1.47s.4 1.41.4 2.35v5.24l.89 1.05c.11.11.16.25.16.42s-.07.32-.2.45-.28.2-.45.2h-4.73z"/><path d="m156.15 233.55c-.14.28-.35.62-.64 1.02s-.65.79-1.09 1.16-.98.69-1.62.95-1.37.4-2.21.4c-.93 0-1.77-.15-2.53-.45-.75-.3-1.39-.73-1.91-1.28s-.92-1.21-1.21-1.97-.43-1.59-.43-2.49.16-1.75.47-2.52c.31-.76.74-1.41 1.29-1.96.55-.54 1.21-.97 1.99-1.28s1.63-.47 2.56-.47c1.1 0 2.12.33 3.04 1s1.63 1.73 2.11 3.19c.06.17.05.34-.03.51-.09.17-.21.29-.38.35l-6.92 2.56c.34.62.8 1.14 1.36 1.56.57.42 1.28.63 2.13.63.37 0 .71-.06 1.02-.17.31-.12.59-.26.85-.42s.48-.34.66-.52c.19-.19.34-.35.47-.49.12-.14.28-.21.47-.21.09 0 .19.02.28.07.15.08.26.19.31.35s.04.31-.03.47zm-6.55-7.36c-.16 0-.32.02-.49.07-.28.09-.52.3-.71.63s-.33.71-.42 1.16-.12.94-.09 1.47c.02.53.11 1.06.27 1.58l4.43-1.65c-.45-1.15-.94-1.98-1.46-2.49s-1.03-.77-1.53-.77z"/><path d="m26.11 213.15c-.1 0-.17-.04-.22-.13-.05-.1-.13-.23-.24-.39-.11-.17-.25-.33-.42-.49s-.38-.3-.6-.42c-.23-.12-.49-.18-.79-.18-.32 0-.58.07-.77.22-.2.14-.29.34-.29.59s.09.46.28.64c.19.17.43.33.71.48s.59.3.92.45.64.33.92.54.52.46.71.75.28.66.28 1.09-.09.84-.27 1.15c-.18.32-.41.57-.69.77s-.6.34-.95.43-.71.13-1.06.13c-.58 0-1.06-.06-1.46-.19s-.7-.25-.91-.37c-.24-.13-.35-.33-.35-.59v-1.54c0-.07.03-.13.08-.18s.11-.08.19-.08c.1 0 .18.05.23.16.05.12.14.28.26.5.12.21.26.43.44.63.17.21.38.39.61.54s.49.23.77.23c.36 0 .64-.08.84-.25s.29-.42.29-.77c0-.3-.09-.54-.28-.73s-.42-.36-.7-.52c-.28-.15-.59-.3-.92-.45s-.64-.33-.92-.53c-.28-.21-.52-.46-.7-.75-.19-.3-.28-.67-.28-1.12s.11-.79.32-1.07.47-.49.77-.65.62-.26.95-.32c.34-.06.63-.09.87-.09.55 0 1.01.05 1.4.16.38.1.68.21.9.31.12.05.21.13.28.24s.11.23.11.35v1.18c0 .07-.02.14-.07.18s-.11.07-.18.07h-.01z"/><path d="m28.8 212.87c.09 0 .16.03.22.08.13.08.19.2.19.34v4.38l.42.5c.04.05.07.12.07.2s-.03.15-.09.22c-.06.06-.13.09-.22.09h-2.25c-.08 0-.15-.03-.22-.09-.06-.06-.09-.13-.09-.22s.03-.15.08-.2l.42-.5v-3.36l-.38-.33c-.08-.07-.12-.16-.12-.27 0-.17.08-.28.26-.34l1.59-.48c.06-.01.1-.02.13-.02zm-1.73-1.09c-.03-.14-.03-.28 0-.42s.08-.26.16-.38c.08-.11.18-.21.29-.3.12-.08.26-.15.41-.18.09-.02.18-.03.27-.03.25 0 .48.07.68.22s.33.34.39.58c.06.28 0 .54-.16.79-.16.24-.4.4-.71.48-.09.02-.18.03-.28.03-.25 0-.48-.07-.67-.22-.2-.14-.32-.33-.37-.57z"/><path d="m32.18 213.32c.17-.11.37-.21.61-.29s.51-.13.82-.13.58.05.84.16.48.27.66.48.33.47.43.79c.1.31.16.68.16 1.09 0 .54-.08 1.01-.23 1.43-.16.41-.37.75-.65 1.03-.28.27-.62.48-1 .62-.39.14-.82.21-1.29.21h-.33v1.6l.43.5c.04.06.07.13.07.2 0 .08-.03.15-.09.22-.06.06-.13.09-.22.09h-2.25c-.09 0-.16-.03-.22-.09s-.09-.14-.09-.22c0-.07.02-.14.07-.2l.42-.5v-5.97l-.37-.33c-.08-.07-.12-.16-.12-.27 0-.17.08-.28.26-.34l1.58-.48c.06-.01.1-.02.13-.02.11 0 .21.04.29.12s.12.18.12.3v.02zm0 4.74s.06.01.1.01c.28 0 .52-.05.71-.14s.35-.23.47-.43c.12-.19.21-.44.27-.74s.08-.67.08-1.1c0-.59-.09-1.04-.26-1.35s-.41-.47-.72-.47c-.13 0-.25.02-.36.07-.11.04-.21.1-.29.18z"/><path d="m39.45 212.87c.09 0 .16.03.22.08.13.08.19.2.19.34v4.38l.42.5c.04.05.07.12.07.2s-.03.15-.09.22c-.06.06-.13.09-.22.09h-2.25c-.08 0-.15-.03-.22-.09-.06-.06-.09-.13-.09-.22s.03-.15.08-.2l.42-.5v-3.36l-.38-.33c-.08-.07-.12-.16-.12-.27 0-.17.08-.28.26-.34l1.59-.48c.06-.01.1-.02.13-.02zm-1.73-1.09c-.03-.14-.03-.28 0-.42s.08-.26.16-.38c.08-.11.18-.21.29-.3.12-.08.26-.15.41-.18.09-.02.18-.03.27-.03.25 0 .48.07.68.22s.33.34.39.58c.06.28 0 .54-.16.79-.16.24-.4.4-.71.48-.09.02-.18.03-.28.03-.25 0-.48-.07-.67-.22-.2-.14-.32-.33-.37-.57z"/><path d="m44.23 218.68c-.09 0-.16-.03-.22-.09s-.09-.13-.09-.22.02-.15.07-.2l.42-.5v-2.27c0-.66-.04-1.12-.13-1.39s-.26-.4-.5-.4c-.15 0-.29.06-.43.17s-.27.24-.39.39v3.5l.42.5c.05.07.08.13.08.2 0 .08-.03.15-.09.22-.06.06-.14.09-.22.09h-2.26c-.08 0-.15-.03-.22-.09-.06-.06-.09-.13-.09-.22 0-.07.03-.13.08-.2l.42-.5v-3.36l-.38-.33c-.08-.07-.12-.16-.12-.27 0-.17.08-.28.26-.34l1.59-.48c.06-.01.1-.02.13-.02.09 0 .16.03.22.08.13.08.19.2.19.34v.22c.17-.17.37-.32.6-.44s.49-.18.78-.18c.21 0 .43.04.65.11.23.07.44.19.63.36s.35.4.48.7.19.67.19 1.12v2.5l.42.5c.05.05.08.12.08.2s-.03.15-.09.22-.14.09-.22.09h-2.25z"/><path d="m50.38 217.53c.07 0 .14.03.2.09.06.07.09.14.08.21 0 .07-.04.14-.09.19-.07.07-.17.16-.28.24-.11.09-.25.17-.4.25-.16.08-.33.14-.52.2s-.4.08-.63.08c-.16 0-.32-.03-.48-.09s-.3-.15-.42-.26c-.13-.11-.23-.26-.31-.43s-.12-.38-.12-.6v-3.92h-.27c-.1 0-.19-.04-.26-.11s-.1-.15-.1-.26c0-.16.08-.27.23-.33.5-.18.89-.4 1.17-.65s.48-.46.6-.64c.06-.07.14-.11.23-.11.02 0 .06 0 .1.02.11.04.17.13.17.26v.96c.32-.08.64-.2.95-.35.32-.15.63-.32.95-.49.31-.18.63-.36.94-.54s.62-.35.93-.49c.31-.15.61-.27.91-.37s.6-.14.89-.14c.24 0 .45.02.64.06s.36.09.5.15c.16.07.28.16.36.29s.13.26.14.4-.01.29-.07.43-.16.26-.29.34c-.15.1-.31.16-.49.16-.21 0-.39-.07-.55-.21-.13-.13-.29-.22-.48-.29-.18-.07-.4-.1-.64-.1-.28 0-.6.07-.95.2s-.73.29-1.14.48-.83.38-1.27.58-.89.37-1.35.5v3.78c0 .2.04.36.13.49s.23.19.41.19c.07 0 .14-.01.21-.03.06-.02.12-.05.17-.09.06-.04.11-.06.17-.06z"/><path d="m53.56 212.88c.44 0 .85.07 1.22.22s.69.35.95.61c.27.26.47.57.62.93s.22.76.22 1.2-.07.82-.22 1.19c-.15.36-.35.67-.62.94-.27.26-.58.47-.95.61s-.78.22-1.22.22-.85-.07-1.22-.22c-.37-.14-.69-.35-.95-.61s-.47-.57-.62-.94c-.15-.36-.22-.76-.22-1.19s.07-.84.22-1.2.35-.67.62-.93c.26-.26.58-.46.95-.61s.78-.22 1.22-.22zm-.41.65c-.33.05-.55.27-.65.65s-.08.99.07 1.83c.14.77.31 1.32.51 1.65s.44.49.73.49c.07 0 .13 0 .17-.01.34-.06.56-.28.67-.66.1-.38.08-.99-.07-1.82-.14-.77-.31-1.32-.51-1.65s-.45-.49-.74-.49c-.07 0-.13 0-.17.01z"/><path d="m64.47 212.89c.08 0 .15.03.21.09s.09.13.09.21-.03.15-.09.21l-.5.5-2.44 5.38c-.12.27-.26.54-.43.79s-.36.47-.57.66-.45.34-.72.45c-.26.11-.56.17-.88.17-.25 0-.48-.07-.68-.22-.2-.14-.33-.33-.39-.57-.03-.14-.03-.28 0-.42s.08-.26.16-.38c.08-.11.18-.21.3-.3s.26-.15.4-.18c.04-.01.07-.02.09-.02h.32c.22 0 .42.03.58.08.17.06.31.08.44.08.1 0 .19-.03.27-.08s.15-.16.23-.33l.16-.33-2.16-4.78-.5-.5c-.06-.05-.09-.12-.09-.21 0-.08.03-.15.09-.21s.13-.09.21-.09h2.58c.09 0 .16.03.23.09.06.06.09.14.09.23 0 .07-.02.13-.06.19l-.37.5.94 2.16s.06.07.1.07.08-.02.1-.07l1.02-2.26-.35-.4c-.07-.07-.09-.15-.08-.24.01-.08.05-.15.11-.19.06-.05.12-.07.21-.07h1.38z"/><path d="m67.33 212.88c.44 0 .85.07 1.22.22s.69.35.95.61c.27.26.47.57.62.93s.22.76.22 1.2-.07.82-.22 1.19c-.15.36-.35.67-.62.94-.27.26-.58.47-.95.61s-.78.22-1.22.22-.85-.07-1.22-.22c-.37-.14-.69-.35-.95-.61s-.47-.57-.62-.94c-.15-.36-.22-.76-.22-1.19s.07-.84.22-1.2.35-.67.62-.93c.26-.26.58-.46.95-.61s.78-.22 1.22-.22zm-.41.65c-.33.05-.55.27-.65.65s-.08.99.07 1.83c.14.77.31 1.32.51 1.65s.44.49.73.49c.07 0 .13 0 .17-.01.34-.06.56-.28.67-.66.1-.38.08-.99-.07-1.82-.14-.77-.31-1.32-.51-1.65s-.45-.49-.74-.49c-.07 0-.13 0-.17.01z"/><path d="m74.24 218.09c-.17.19-.37.36-.6.5s-.49.21-.79.21c-.2 0-.41-.04-.64-.11s-.44-.19-.64-.36-.36-.4-.48-.7c-.13-.3-.19-.67-.19-1.12v-2.61l-.42-.5c-.05-.07-.08-.13-.08-.2 0-.08.03-.15.09-.22.06-.06.13-.09.22-.09h1.74c.1 0 .18.03.24.09s.09.14.09.24v3.06c0 .33 0 .61.03.83.02.22.05.39.11.53.05.13.12.23.2.28.08.06.18.08.3.08.16 0 .3-.06.44-.18s.27-.26.38-.43v-3.49l-.42-.5c-.04-.06-.07-.13-.07-.2 0-.08.03-.15.09-.22.06-.06.13-.09.22-.09h1.73c.1 0 .18.03.24.09s.09.14.09.24v4.15l.38.32c.07.07.11.16.12.24 0 .08-.01.16-.06.23s-.11.12-.19.15l-1.59.48c-.06.01-.1.02-.12.02-.11 0-.21-.04-.29-.13-.09-.08-.13-.18-.13-.29v-.31z"/><path d="m79.66 218.17c.05.07.08.13.08.2 0 .08-.03.15-.09.22-.06.06-.14.09-.22.09h-2.26c-.08 0-.15-.03-.22-.09-.06-.06-.09-.13-.09-.22 0-.07.03-.13.08-.2l.42-.5v-3.36l-.38-.33c-.08-.07-.12-.16-.12-.27 0-.17.08-.28.26-.34l1.59-.48c.06-.01.1-.02.13-.02.09 0 .16.03.22.08.13.08.19.2.19.34v.52c.18-.26.39-.48.63-.68.24-.19.53-.29.87-.29.23 0 .43.06.61.19s.3.3.35.52c.03.13.03.26 0 .39-.03.14-.08.26-.16.37s-.18.2-.31.27-.27.11-.44.11c-.11 0-.21-.04-.31-.11s-.19-.15-.28-.24c-.09-.08-.17-.16-.26-.24-.08-.07-.17-.11-.26-.11-.07 0-.14.03-.22.09s-.16.17-.25.33v3.25l.42.5z"/></g><path d="m0 0h300v250h-300z" fill="none"/></svg>