<svg height="50" viewBox="0 0 320 50" width="320" xmlns="http://www.w3.org/2000/svg"><g fill="#fff"><path d="m155.44 34.55c-.19.36-.46.8-.81 1.32s-.81 1.01-1.38 1.49c-.57.47-1.24.88-2.03 1.21-.79.34-1.7.51-2.73.51-.75 0-1.6-.14-2.52-.42-.93-.28-1.8-.76-2.63-1.43s-1.52-1.56-2.07-2.66c-.56-1.11-.84-2.49-.84-4.14s.28-3.03.84-4.14 1.25-2 2.07-2.66c.83-.67 1.7-1.14 2.63-1.43.93-.28 1.77-.42 2.52-.42.66 0 1.31.07 1.96.2.64.13 1.26.35 1.85.66s1.13.72 1.63 1.24.92 1.16 1.28 1.91c.14.3.22.61.22.94s-.04.64-.15.93-.28.55-.5.78-.49.4-.8.53l-.02.02c-.3.13-.6.19-.9.19-.5 0-.97-.16-1.4-.48s-.72-.75-.86-1.28c-.3-1.1-.76-1.93-1.38-2.5s-1.31-.85-2.06-.85c-.58 0-1.05.18-1.39.53-.35.35-.61.79-.79 1.31s-.29 1.06-.34 1.64c-.05.57-.07 1.07-.07 1.5 0 .86.13 1.73.38 2.59s.61 1.64 1.07 2.33 1.03 1.25 1.7 1.67 1.43.64 2.28.64c.52 0 .99-.09 1.43-.26.43-.17.81-.38 1.14-.64.33-.25.61-.52.85-.8s.42-.53.57-.75c.16-.24.37-.35.64-.35.11 0 .21.02.31.07.19.09.31.24.38.44.06.2.05.39-.05.58z"/><path d="m162.16 26.51c.94 0 1.81.16 2.59.47.79.31 1.46.75 2.03 1.3s1.01 1.21 1.32 1.98.47 1.62.47 2.55-.16 1.75-.47 2.52-.75 1.43-1.32 1.99-1.24.99-2.03 1.3-1.65.46-2.59.46-1.81-.15-2.59-.46c-.79-.31-1.46-.74-2.02-1.3s-.99-1.22-1.31-1.99c-.31-.77-.47-1.61-.47-2.52s.16-1.78.47-2.55.75-1.43 1.31-1.98 1.23-.98 2.02-1.3c.79-.31 1.65-.47 2.59-.47zm-.87 1.39c-.71.11-1.17.57-1.39 1.39s-.17 2.11.14 3.89c.3 1.63.66 2.8 1.08 3.5s.94 1.05 1.56 1.05c.16 0 .27 0 .35-.02.72-.13 1.19-.59 1.41-1.4s.17-2.1-.14-3.88c-.3-1.63-.66-2.8-1.08-3.5s-.95-1.05-1.58-1.05c-.16 0-.28 0-.35.02z"/><path d="m168.81 38.19c0-.17.05-.31.17-.42l.9-1.06v-7.14l-.8-.71c-.17-.14-.26-.33-.26-.57 0-.36.18-.6.54-.73l3.37-1.01c.13-.03.22-.05.28-.05.19 0 .35.06.47.17.27.17.4.42.4.73v.47c.36-.36.79-.67 1.27-.93.49-.26 1.05-.39 1.67-.39.3 0 .61.03.93.09s.64.17.97.33c.32.16.62.37.91.62s.53.59.73.98c.19-.24.4-.48.64-.72s.5-.46.8-.65.62-.35.98-.47c.35-.13.73-.19 1.14-.19.44 0 .9.07 1.39.22s.94.4 1.36.77c.42.36.76.86 1.03 1.49s.4 1.42.4 2.38v5.3l.9 1.06c.09.11.14.25.14.42s-.06.33-.19.46-.28.2-.47.2h-4.79c-.19 0-.35-.07-.47-.2-.13-.13-.19-.29-.19-.46s.05-.31.14-.42l.92-1.06v-4.83c0-1.4-.09-2.38-.28-2.95s-.55-.85-1.08-.85c-.38 0-.73.15-1.06.46s-.63.65-.9 1.03c.14.52.21 1.13.21 1.84v5.3l.9 1.06c.11.11.17.25.17.42s-.07.33-.2.46-.29.2-.46.2h-4.79c-.19 0-.35-.07-.48-.2s-.2-.29-.2-.46c0-.14.05-.28.17-.42l.9-1.06v-4.83c0-1.4-.09-2.38-.28-2.95s-.54-.85-1.06-.85c-.33 0-.64.12-.94.35-.3.24-.57.51-.8.83v7.45l.9 1.06c.09.11.14.25.14.42s-.06.33-.19.46-.28.2-.47.2h-4.79c-.17 0-.33-.07-.46-.2s-.2-.29-.2-.46z"/><path d="m194.67 27.81v8.89l.9 1.06c.09.11.14.25.14.42s-.06.33-.19.46-.28.2-.47.2h-4.79c-.19 0-.35-.07-.47-.2-.13-.13-.19-.29-.19-.46s.05-.31.14-.42l.92-1.06v-8.89h-.42c-.17-.02-.32-.09-.45-.21-.13-.13-.19-.27-.19-.45s.06-.33.19-.46.28-.19.47-.18h.4c0-.75.1-1.42.29-2 .2-.58.47-1.08.83-1.49.35-.41.77-.72 1.25-.93s.99-.32 1.54-.32c.47 0 .88.1 1.24.31.35.2.66.44.93.71.13.14.22.29.27.46s.07.33.06.51c-.02.17-.07.34-.15.5-.09.16-.21.29-.37.4-.2.14-.43.21-.68.21-.27 0-.51-.07-.72-.22s-.37-.36-.46-.62c-.09-.3-.23-.56-.4-.79s-.42-.34-.73-.34c-.36 0-.62.11-.79.32s-.25.45-.25.72c0 .42.1.79.29 1.11.2.31.42.58.67.79s.49.37.71.48.36.18.42.21l1.56.02c.17 0 .32.06.45.19s.19.28.19.45c0 .19-.06.35-.19.47-.13.13-.28.19-.45.19l-1.51-.02z"/><path d="m203.02 26.51c.94 0 1.81.16 2.59.47.79.31 1.46.75 2.03 1.3s1.01 1.21 1.32 1.98.47 1.62.47 2.55-.16 1.75-.47 2.52-.75 1.43-1.32 1.99-1.24.99-2.03 1.3-1.65.46-2.59.46-1.81-.15-2.59-.46c-.79-.31-1.46-.74-2.02-1.3s-.99-1.22-1.31-1.99c-.31-.77-.47-1.61-.47-2.52s.16-1.78.47-2.55.75-1.43 1.31-1.98 1.23-.98 2.02-1.3c.79-.31 1.65-.47 2.59-.47zm-.87 1.39c-.71.11-1.17.57-1.39 1.39s-.17 2.11.14 3.89c.3 1.63.66 2.8 1.08 3.5s.94 1.05 1.56 1.05c.16 0 .27 0 .35-.02.72-.13 1.19-.59 1.41-1.4s.17-2.1-.14-3.88c-.3-1.63-.66-2.8-1.08-3.5s-.95-1.05-1.58-1.05c-.16 0-.28 0-.35.02z"/><path d="m215.63 37.76c.11.14.17.28.17.42 0 .17-.07.33-.2.46s-.29.2-.46.2h-4.81c-.17 0-.33-.07-.46-.2s-.2-.29-.2-.46c0-.14.05-.28.17-.42l.9-1.06v-7.14l-.8-.71c-.17-.14-.26-.33-.26-.57 0-.36.18-.6.54-.73l3.37-1.01c.13-.03.22-.05.28-.05.19 0 .35.06.47.17.27.17.4.42.4.73v1.11c.38-.55.83-1.03 1.34-1.44.52-.41 1.13-.61 1.84-.61.49 0 .92.14 1.3.41.38.28.63.64.75 1.1.06.27.07.55.01.84s-.17.55-.33.79-.38.43-.65.58-.58.22-.94.22c-.24 0-.46-.08-.66-.24s-.4-.33-.59-.51-.37-.35-.54-.51-.35-.24-.54-.24c-.14 0-.29.07-.46.2s-.34.37-.53.7v6.91l.9 1.06z"/><path d="m227.54 27.18c0 .19-.06.35-.19.47-.13.13-.28.19-.45.19l-1.79-.02v7.52c0 .42.09.77.28 1.04s.48.4.87.4c.16 0 .3-.02.44-.07.13-.05.26-.11.37-.19.13-.08.24-.12.35-.12.19 0 .33.06.42.19l.02.02c.11.13.16.27.16.42s-.06.29-.19.4c-.16.16-.36.33-.6.52s-.53.37-.86.53c-.33.17-.7.31-1.12.42-.42.12-.87.18-1.36.18-.33 0-.66-.06-1-.19s-.64-.31-.91-.55-.48-.55-.65-.92-.25-.8-.25-1.28v-8.32h-.57c-.2-.02-.38-.09-.53-.24-.15-.14-.22-.32-.22-.54 0-.16.05-.3.14-.42.09-.13.21-.22.35-.28 1.07-.39 1.9-.85 2.49-1.38s1.02-.98 1.28-1.36c.13-.16.29-.24.5-.24.17 0 .31.06.41.17s.15.25.15.42v2.57l1.79.02c.17 0 .32.06.45.19s.19.28.19.45z"/><path d="m240.03 24.04c.05-.08.05-.16 0-.25s-.11-.13-.19-.13h-1.49c-.88 0-1.7.21-2.46.62-.76.42-1.39.99-1.87 1.73l-.54.8c-.09.17-.25.26-.47.26-.17 0-.31-.05-.42-.17-.11-.11-.17-.25-.17-.42v-4.01c0-.19.07-.35.2-.5.13-.14.3-.21.51-.21h10.4c.41 0 .75.14 1.04.42.28.28.42.63.42 1.04 0 .27-.08.53-.24.8l-7.99 12.57c-.05.08-.05.16 0 .24s.11.12.19.12h2.07c.9 0 1.72-.2 2.49-.61.76-.41 1.39-.99 1.87-1.74l.52-.78c.14-.19.31-.28.5-.28.17 0 .31.06.42.18s.16.26.16.41v4.01c0 .2-.07.37-.21.51-.14.13-.31.2-.5.2h-11.01c-.41 0-.75-.14-1.04-.42-.28-.28-.42-.63-.42-1.04 0-.25.08-.51.24-.78z"/><path d="m251.61 26.51c.94 0 1.81.16 2.59.47.79.31 1.46.75 2.03 1.3s1.01 1.21 1.32 1.98.47 1.62.47 2.55-.16 1.75-.47 2.52-.75 1.43-1.32 1.99-1.24.99-2.03 1.3-1.65.46-2.59.46-1.81-.15-2.59-.46c-.79-.31-1.46-.74-2.02-1.3s-.99-1.22-1.31-1.99c-.31-.77-.47-1.61-.47-2.52s.16-1.78.47-2.55.75-1.43 1.31-1.98 1.23-.98 2.02-1.3c.79-.31 1.65-.47 2.59-.47zm-.87 1.39c-.71.11-1.17.57-1.39 1.39s-.17 2.11.14 3.89c.3 1.63.66 2.8 1.08 3.5s.94 1.05 1.56 1.05c.16 0 .27 0 .35-.02.72-.13 1.19-.59 1.41-1.4s.17-2.1-.14-3.88c-.3-1.63-.66-2.8-1.08-3.5s-.95-1.05-1.58-1.05c-.16 0-.28 0-.35.02z"/><path d="m266.04 38.85c-.19 0-.35-.07-.47-.2-.13-.13-.19-.29-.19-.46s.05-.31.14-.42l.9-1.06v-4.83c0-1.4-.09-2.38-.28-2.95s-.54-.85-1.06-.85c-.31 0-.62.12-.92.35-.3.24-.57.51-.83.83v7.45l.9 1.06c.11.14.17.28.17.42 0 .17-.07.33-.2.46s-.29.2-.46.2h-4.81c-.17 0-.33-.07-.46-.2s-.2-.29-.2-.46c0-.14.05-.28.17-.42l.9-1.06v-7.14l-.8-.71c-.17-.14-.26-.33-.26-.57 0-.36.18-.6.54-.73l3.37-1.01c.13-.03.22-.05.28-.05.19 0 .35.06.47.17.27.17.4.42.4.73v.47c.36-.36.79-.67 1.28-.93s1.05-.39 1.66-.39c.44 0 .9.07 1.39.22s.94.4 1.34.77c.41.36.75.86 1.01 1.49.27.63.4 1.42.4 2.38v5.3l.9 1.06c.11.11.17.25.17.42s-.07.33-.2.46-.29.2-.46.2z"/><path d="m283.51 35.5c-.14.28-.36.63-.65 1.04s-.66.8-1.11 1.18-.99.7-1.64.97c-.64.27-1.39.4-2.24.4-.94 0-1.8-.15-2.56-.46s-1.41-.74-1.93-1.3c-.53-.56-.94-1.22-1.23-1.99s-.44-1.61-.44-2.52.16-1.78.47-2.55.75-1.43 1.31-1.98 1.23-.98 2.02-1.3c.79-.31 1.65-.47 2.59-.47 1.12 0 2.14.34 3.08 1.01.93.68 1.65 1.75 2.13 3.23.06.17.05.35-.04.52s-.22.29-.39.35l-7 2.59c.35.63.81 1.16 1.38 1.58s1.29.64 2.16.64c.38 0 .72-.06 1.04-.18.31-.12.6-.26.86-.42s.48-.34.67-.53.35-.35.47-.5c.13-.14.28-.21.47-.21.09 0 .19.02.28.07.16.08.26.2.32.35.05.16.04.31-.04.47zm-6.62-7.45c-.16 0-.32.02-.5.07-.28.09-.52.31-.72.64s-.34.72-.42 1.18c-.09.46-.12.95-.09 1.49.02.53.11 1.07.27 1.6l4.48-1.67c-.46-1.16-.95-2-1.47-2.52-.53-.52-1.04-.78-1.54-.78z"/><path d="m151.89 14.85c-.1 0-.17-.04-.22-.13-.05-.1-.13-.23-.24-.4s-.25-.33-.43-.49-.38-.3-.61-.42-.5-.18-.8-.18c-.32 0-.58.07-.78.22s-.3.35-.3.6.1.47.29.65.43.34.72.49.6.3.93.45.64.34.93.55.53.47.72.76c.19.3.29.66.29 1.11s-.09.85-.27 1.17-.41.58-.7.78c-.28.2-.61.34-.97.43s-.72.13-1.08.13c-.58 0-1.08-.06-1.48-.19s-.71-.25-.92-.37c-.24-.13-.36-.33-.36-.6v-1.56c0-.07.03-.13.08-.18s.12-.08.19-.08c.1 0 .18.05.24.16.05.12.14.29.26.51s.27.43.44.64c.18.21.38.39.62.54s.5.23.78.23c.37 0 .65-.08.85-.25s.3-.43.3-.78c0-.3-.1-.55-.29-.74s-.43-.37-.71-.52-.6-.3-.93-.45c-.34-.15-.65-.33-.93-.54s-.52-.46-.71-.76-.29-.68-.29-1.13.11-.8.32-1.08.47-.5.77-.66.62-.27.97-.33c.34-.06.63-.09.88-.09.55 0 1.03.05 1.41.16.39.1.69.21.91.31.12.05.22.13.29.25.07.11.11.23.11.36v1.19c0 .07-.02.14-.07.19s-.11.07-.19.07h-.01z"/><path d="m154.61 14.57c.09 0 .16.03.22.08.13.08.19.2.19.35v4.43l.43.51c.04.05.07.12.07.2s-.03.16-.09.22-.13.1-.22.1h-2.28c-.08 0-.16-.03-.22-.1-.06-.06-.1-.14-.1-.22s.03-.15.08-.2l.43-.51v-3.4l-.38-.34c-.08-.07-.12-.16-.12-.27 0-.17.09-.29.26-.35l1.61-.48c.06-.01.1-.02.13-.02zm-1.75-1.1c-.03-.14-.03-.28 0-.42s.08-.27.16-.38c.08-.12.18-.22.3-.3.12-.09.26-.15.42-.19.09-.02.18-.03.27-.03.25 0 .48.07.68.22s.33.34.39.58c.06.28 0 .55-.16.8s-.4.41-.72.48c-.09.02-.18.03-.28.03-.25 0-.48-.07-.68-.22s-.32-.34-.38-.58z"/><path d="m158.03 15.02c.17-.11.38-.21.62-.3s.52-.13.83-.13.59.05.85.16.48.27.67.48.33.48.44.8c.1.32.16.69.16 1.11 0 .55-.08 1.03-.24 1.44-.16.42-.38.76-.66 1.04s-.62.48-1.02.62c-.39.14-.83.21-1.31.21h-.34v1.62l.44.51c.04.06.07.13.07.2 0 .08-.03.16-.09.22s-.13.1-.22.1h-2.28c-.09 0-.16-.03-.22-.1-.06-.06-.09-.14-.09-.22 0-.07.02-.14.07-.2l.43-.51v-6.04l-.37-.34c-.08-.07-.12-.16-.12-.27 0-.17.09-.29.26-.35l1.59-.48c.06-.01.1-.02.13-.02.11 0 .21.04.29.12s.12.18.12.3v.02zm0 4.79s.06.01.1.01c.28 0 .52-.05.72-.14.19-.09.35-.24.48-.43.12-.19.21-.45.27-.75.06-.31.08-.68.08-1.11 0-.6-.09-1.06-.26-1.37s-.42-.47-.73-.47c-.13 0-.26.02-.36.07-.11.04-.21.1-.3.18v4.02z"/><path d="m165.38 14.57c.09 0 .16.03.22.08.13.08.19.2.19.35v4.43l.43.51c.04.05.07.12.07.2s-.03.16-.09.22-.13.1-.22.1h-2.28c-.08 0-.16-.03-.22-.1-.06-.06-.1-.14-.1-.22s.03-.15.08-.2l.43-.51v-3.4l-.38-.34c-.08-.07-.12-.16-.12-.27 0-.17.09-.29.26-.35l1.61-.48c.06-.01.1-.02.13-.02zm-1.75-1.1c-.03-.14-.03-.28 0-.42s.08-.27.16-.38c.08-.12.18-.22.3-.3.12-.09.26-.15.42-.19.09-.02.18-.03.27-.03.25 0 .48.07.68.22s.33.34.39.58c.06.28 0 .55-.16.8s-.4.41-.72.48c-.09.02-.18.03-.28.03-.25 0-.48-.07-.68-.22s-.32-.34-.38-.58z"/><path d="m170.22 20.45c-.09 0-.16-.03-.22-.1-.06-.06-.09-.14-.09-.22s.02-.15.07-.2l.43-.51v-2.3c0-.67-.04-1.13-.13-1.4s-.26-.4-.51-.4c-.15 0-.3.06-.44.17s-.27.24-.39.39v3.55l.43.51c.05.07.08.13.08.2 0 .08-.03.16-.1.22-.06.06-.14.1-.22.1h-2.29c-.08 0-.16-.03-.22-.1-.06-.06-.1-.14-.1-.22 0-.07.03-.13.08-.2l.43-.51v-3.4l-.38-.34c-.08-.07-.12-.16-.12-.27 0-.17.09-.29.26-.35l1.61-.48c.06-.01.1-.02.13-.02.09 0 .16.03.22.08.13.08.19.2.19.35v.22c.17-.17.38-.32.61-.44s.5-.19.79-.19c.21 0 .43.04.66.11s.45.19.64.36.36.41.48.71c.13.3.19.68.19 1.13v2.53l.43.51c.05.05.08.12.08.2s-.03.16-.1.22-.14.1-.22.1h-2.28z"/><path d="m176.45 19.28c.07 0 .14.03.2.09.06.07.09.14.08.21 0 .07-.04.14-.1.19-.07.07-.17.16-.29.25s-.25.17-.41.25-.33.15-.53.2c-.19.06-.41.08-.64.08-.16 0-.33-.03-.48-.09-.16-.06-.3-.15-.43-.26-.13-.12-.23-.26-.31-.44s-.12-.38-.12-.61v-3.96h-.27c-.1 0-.19-.04-.26-.11s-.1-.15-.1-.26c0-.16.08-.28.24-.34.51-.19.9-.41 1.18-.66s.48-.47.61-.65c.06-.07.14-.11.24-.11.02 0 .06 0 .1.02.11.04.17.13.17.26v.98c.32-.08.64-.2.97-.35.32-.15.64-.32.96-.5s.64-.36.95-.54c.32-.18.63-.35.94-.5s.62-.27.92-.37.6-.15.9-.15c.24 0 .45.02.65.06.19.04.36.09.51.15.16.07.28.16.36.29.09.13.13.26.15.41.01.15-.01.29-.07.43s-.16.26-.29.35c-.15.1-.31.16-.49.16-.21 0-.4-.07-.56-.21-.13-.13-.3-.22-.48-.29-.19-.07-.4-.1-.65-.1-.28 0-.6.07-.96.2s-.74.3-1.15.49-.84.39-1.29.59-.9.37-1.36.51v3.83c0 .2.04.37.13.49.09.13.23.19.42.19.07 0 .14-.01.21-.03.06-.02.12-.05.17-.09.06-.04.12-.06.17-.06z"/><path d="m179.68 14.58c.45 0 .86.07 1.23.22s.7.36.97.62.48.58.63.94c.15.37.22.77.22 1.21s-.07.83-.22 1.2-.36.68-.63.95-.59.47-.97.62c-.37.15-.79.22-1.23.22s-.86-.07-1.23-.22-.69-.35-.96-.62-.47-.58-.62-.95-.22-.77-.22-1.2.07-.85.22-1.21c.15-.37.36-.68.62-.94.27-.26.59-.47.96-.62s.79-.22 1.23-.22zm-.42.66c-.34.05-.56.27-.66.66s-.08 1.01.07 1.85c.14.78.31 1.33.52 1.67.2.33.45.5.74.5.07 0 .13 0 .17-.01.34-.06.57-.28.67-.67s.08-1-.07-1.85c-.14-.78-.31-1.33-.52-1.67-.2-.33-.45-.5-.75-.5-.07 0-.13 0-.17.01z"/><path d="m190.71 14.59c.08 0 .15.03.21.09s.09.13.09.21-.03.15-.09.21l-.51.51-2.47 5.45c-.12.28-.26.54-.43.8-.17.25-.36.48-.58.67s-.46.34-.72.45c-.27.11-.56.17-.89.17-.25 0-.48-.07-.68-.22s-.33-.34-.39-.58c-.03-.14-.03-.28 0-.42s.08-.27.16-.38c.08-.12.18-.22.3-.3.12-.09.26-.15.41-.19.04-.02.07-.02.1-.02h.32c.22 0 .42.03.59.08.17.06.32.08.44.08.1 0 .2-.03.28-.08s.16-.17.23-.33l.16-.34-2.19-4.84-.51-.51c-.06-.05-.09-.12-.09-.21 0-.08.03-.15.09-.21s.13-.09.21-.09h2.62c.09 0 .17.03.23.1.06.06.1.14.1.23 0 .07-.02.13-.06.19l-.37.51.95 2.19s.06.07.1.07.08-.02.1-.07l1.03-2.29-.36-.4c-.07-.07-.09-.15-.08-.25.01-.08.05-.15.11-.2s.13-.07.21-.07h1.39z"/><path d="m193.61 14.58c.45 0 .86.07 1.23.22s.7.36.97.62.48.58.63.94c.15.37.22.77.22 1.21s-.07.83-.22 1.2-.36.68-.63.95-.59.47-.97.62c-.37.15-.79.22-1.23.22s-.86-.07-1.23-.22-.69-.35-.96-.62-.47-.58-.62-.95-.22-.77-.22-1.2.07-.85.22-1.21c.15-.37.36-.68.62-.94.27-.26.59-.47.96-.62s.79-.22 1.23-.22zm-.42.66c-.34.05-.56.27-.66.66s-.08 1.01.07 1.85c.14.78.31 1.33.52 1.67.2.33.45.5.74.5.07 0 .13 0 .17-.01.34-.06.57-.28.67-.67s.08-1-.07-1.85c-.14-.78-.31-1.33-.52-1.67-.2-.33-.45-.5-.75-.5-.07 0-.13 0-.17.01z"/><path d="m200.6 19.85c-.17.19-.37.36-.61.51-.23.14-.5.21-.8.21-.2 0-.42-.04-.65-.11s-.45-.19-.65-.36-.36-.41-.49-.71-.19-.68-.19-1.13v-2.64l-.43-.51c-.05-.07-.08-.13-.08-.2 0-.08.03-.16.1-.22.06-.06.14-.1.22-.1h1.76c.1 0 .18.03.24.1.06.06.1.14.1.24v3.1c0 .34 0 .62.03.84.02.22.05.4.11.53.05.13.12.23.2.29s.18.08.3.08c.16 0 .31-.06.45-.19.14-.12.27-.27.38-.43v-3.54l-.43-.51c-.04-.06-.07-.13-.07-.2 0-.08.03-.16.09-.22s.13-.1.22-.1h1.75c.1 0 .18.03.24.1.06.06.1.14.1.24v4.2l.38.33c.07.07.12.16.12.25 0 .08-.01.16-.06.23s-.11.12-.2.15l-1.61.48c-.06.01-.1.02-.12.02-.11 0-.21-.04-.3-.13s-.13-.19-.13-.3v-.31z"/><path d="m206.09 19.93c.05.07.08.13.08.2 0 .08-.03.16-.1.22-.06.06-.14.1-.22.1h-2.29c-.08 0-.16-.03-.22-.1-.06-.06-.1-.14-.1-.22 0-.07.03-.13.08-.2l.43-.51v-3.4l-.38-.34c-.08-.07-.12-.16-.12-.27 0-.17.09-.29.26-.35l1.61-.48c.06-.01.1-.02.13-.02.09 0 .16.03.22.08.13.08.19.2.19.35v.53c.18-.26.39-.49.64-.68s.54-.29.88-.29c.23 0 .44.07.62.2s.3.31.36.52c.03.13.03.26 0 .4s-.08.26-.16.38c-.08.11-.18.2-.31.27s-.28.11-.45.11c-.11 0-.22-.04-.31-.11-.1-.07-.19-.16-.28-.24-.09-.09-.18-.17-.26-.24s-.17-.11-.26-.11c-.07 0-.14.03-.22.1-.08.06-.16.17-.25.33v3.29l.43.51z"/></g><path d="m0 0h320v50h-320z" fill="none"/></svg>