<?xml version="1.0" encoding="UTF-8"?>
<svg id="b" data-name="Layer 2" xmlns="http://www.w3.org/2000/svg" width="300" height="250" viewBox="0 0 300 250">
  <g id="c" data-name="CTA">
    <g id="d" data-name="Rectangle 1">
      <rect x="16" y="147" width="95" height="33" rx="10" ry="10" fill="#f1ffd7"/>
    </g>
    <g id="e" data-name="Learn More">
      <g>
        <path d="m27.42,158.43h2.08v8.2h4.93v1.8h-7v-10Z" fill="#00452b"/>
        <path d="m42,166.26c-.05.44-.28.88-.68,1.34-.63.72-1.51,1.08-2.65,1.08-.94,0-1.76-.3-2.48-.91-.72-.61-1.07-1.59-1.07-2.96,0-1.28.32-2.26.97-2.94s1.48-1.02,2.51-1.02c.61,0,1.16.12,1.65.35s.9.59,1.21,1.09c.29.44.47.95.56,1.53.05.34.07.83.06,1.47h-5.03c.03.74.26,1.26.7,1.56.27.19.58.28.96.28.4,0,.72-.11.96-.34.13-.12.25-.29.36-.51h1.96Zm-1.9-2.27c-.03-.51-.19-.9-.46-1.16-.28-.26-.62-.4-1.03-.4-.45,0-.79.14-1.04.42-.25.28-.4.66-.46,1.14h2.99Z" fill="#00452b"/>
        <path d="m43.66,161.84c.51-.65,1.38-.98,2.62-.98.81,0,1.52.16,2.15.48.62.32.94.93.94,1.82v3.39c0,.23,0,.52.01.85.01.25.05.42.11.52s.16.17.28.22v.29h-2.09c-.06-.15-.1-.29-.12-.42-.02-.13-.04-.28-.05-.45-.27.29-.57.54-.92.74-.41.24-.88.36-1.4.36-.67,0-1.22-.19-1.65-.57s-.65-.92-.65-1.62c0-.91.35-1.57,1.05-1.97.38-.22.94-.38,1.69-.48l.65-.08c.36-.04.61-.1.76-.17.27-.12.41-.3.41-.55,0-.3-.1-.51-.31-.63-.21-.12-.52-.17-.92-.17-.45,0-.78.11-.96.34-.14.17-.23.39-.27.68h-1.86c.04-.65.22-1.18.54-1.59Zm1.43,5.2c.18.15.4.22.66.22.41,0,.79-.12,1.14-.37s.53-.69.54-1.34v-.72c-.12.08-.24.14-.37.19-.12.05-.29.09-.51.13l-.43.08c-.4.07-.69.16-.87.26-.3.18-.45.45-.45.82,0,.33.09.57.28.71Z" fill="#00452b"/>
        <path d="m54.77,162.82c-.77,0-1.29.25-1.56.76-.15.28-.22.72-.22,1.32v3.54h-1.94v-7.4h1.84v1.29c.3-.49.56-.83.78-1.01.36-.3.83-.45,1.4-.45.04,0,.07,0,.09,0,.02,0,.08,0,.17.01v1.98c-.12-.01-.23-.02-.32-.03-.09,0-.17,0-.23,0Z" fill="#00452b"/>
        <path d="m59.91,162.47c-.65,0-1.1.28-1.34.83-.13.29-.19.67-.19,1.13v4h-1.92v-7.38h1.86v1.08c.25-.38.48-.65.7-.82.4-.3.9-.45,1.5-.45.76,0,1.38.2,1.87.6.48.4.73,1.06.73,1.99v4.98h-1.97v-4.5c0-.39-.05-.69-.16-.9-.19-.38-.55-.57-1.08-.57Z" fill="#00452b"/>
        <path d="m70.79,168.43h-1.94v-10h3.02l1.81,7.86,1.79-7.86h2.99v10h-1.94v-6.76c0-.19,0-.47,0-.82,0-.35,0-.62,0-.81l-1.88,8.39h-2.02l-1.87-8.39c0,.19,0,.46,0,.81,0,.35,0,.62,0,.82v6.76Z" fill="#00452b"/>
        <path d="m86.37,161.97c.62.78.93,1.71.93,2.78s-.31,2.01-.93,2.78c-.62.77-1.56,1.16-2.83,1.16s-2.21-.39-2.83-1.16c-.62-.77-.93-1.7-.93-2.78s.31-1.99.93-2.78,1.56-1.17,2.83-1.17,2.21.39,2.83,1.17Zm-2.83.46c-.56,0-1,.2-1.3.6s-.46.97-.46,1.71.15,1.31.46,1.72c.3.4.74.6,1.3.6s.99-.2,1.3-.6c.3-.4.45-.97.45-1.72s-.15-1.31-.45-1.71-.73-.6-1.3-.6Z" fill="#00452b"/>
        <path d="m92.38,162.82c-.77,0-1.29.25-1.56.76-.15.28-.22.72-.22,1.32v3.54h-1.94v-7.4h1.84v1.29c.3-.49.56-.83.78-1.01.36-.3.83-.45,1.4-.45.04,0,.07,0,.09,0,.02,0,.08,0,.17.01v1.98c-.12-.01-.23-.02-.32-.03-.09,0-.17,0-.23,0Z" fill="#00452b"/>
        <path d="m100.35,166.26c-.05.44-.28.88-.68,1.34-.63.72-1.51,1.08-2.65,1.08-.94,0-1.76-.3-2.48-.91-.72-.61-1.07-1.59-1.07-2.96,0-1.28.32-2.26.97-2.94s1.48-1.02,2.51-1.02c.61,0,1.16.12,1.65.35s.9.59,1.21,1.09c.29.44.47.95.56,1.53.05.34.07.83.06,1.47h-5.03c.03.74.26,1.26.7,1.56.27.19.58.28.96.28.4,0,.72-.11.96-.34.13-.12.25-.29.36-.51h1.96Zm-1.9-2.27c-.03-.51-.19-.9-.46-1.16-.28-.26-.62-.4-1.03-.4-.45,0-.79.14-1.04.42-.25.28-.4.66-.46,1.14h2.99Z" fill="#00452b"/>
      </g>
    </g>
  </g>
  <g id="f" data-name="Rect">
    <rect width="300" height="250" fill="none"/>
  </g>
</svg>