<?xml version="1.0" encoding="UTF-8"?>
<svg id="b" data-name="Layer 2" xmlns="http://www.w3.org/2000/svg" width="300" height="250" viewBox="0 0 300 250">
  <g id="c" data-name="The calendar alerts can’t reach you  here.">
    <g>
      <path d="m27.51,40.56h-5.51c-.41,0-.76-.35-.76-.76,0-.19.08-.35.19-.49l1.03-1.21v-14.93h-.65c-.94,0-1.81.49-2.32,1.27l-1.54,2.35c-.13.19-.35.3-.57.3-.38,0-.67-.3-.67-.67v-4.59c0-.43.38-.81.81-.81h14.47c.46,0,.81.38.81.81v4.59c0,.38-.3.67-.67.67-.22,0-.43-.11-.57-.3l-1.54-2.35c-.51-.78-1.38-1.27-2.32-1.27h-.65v14.93l1.03,1.21c.11.13.19.3.19.49,0,.4-.35.76-.76.76Z" fill="#fefefe"/>
      <path d="m48.36,38.11l1.05,1.21c.11.13.16.3.16.49,0,.4-.32.76-.76.76h-5.48c-.43,0-.76-.35-.76-.76,0-.19.05-.35.16-.49l1.03-1.21v-5.53c0-3.21-.32-4.35-1.54-4.35-.73,0-1.43.62-2,1.35v8.53l1.03,1.21c.11.13.19.3.19.49,0,.4-.35.76-.76.76h-5.51c-.4,0-.76-.35-.76-.76,0-.19.08-.35.19-.49l1.03-1.21v-13.47l-.92-.81c-.19-.16-.3-.4-.3-.65,0-.38.27-.73.62-.84l3.86-1.16c.11-.03.22-.05.32-.05.19,0,.38.05.54.19.3.19.46.49.46.84v5.83c.84-.81,1.97-1.51,3.37-1.51,2,0,4.75,1.16,4.75,5.56v6.07Z" fill="#fefefe"/>
      <path d="m55.7,35.27c.78,1.43,2.08,2.54,4.05,2.54,1.73,0,2.92-1.19,3.48-1.86.13-.16.32-.24.54-.24.11,0,.22.03.32.08.35.16.51.59.32.94-.67,1.32-2.54,4.1-6.45,4.1-4.32,0-7.05-2.97-7.05-7.18s3-7.21,7.32-7.21c2.54,0,4.86,1.48,5.97,4.86.13.4-.08.86-.49,1l-8.02,2.97Zm-.54-1.38l5.13-1.92c-1.03-2.65-2.29-3.78-3.46-3.78-.19,0-.38.03-.57.08-1.32.46-1.81,3.19-1.11,5.61Z" fill="#fefefe"/>
      <path d="m86.37,36.73c-.65,1.32-2.54,4.1-6.42,4.1-4.35,0-7.07-2.97-7.07-7.18s3-7.21,7.34-7.21c2.32,0,4.32.7,5.64,2.56.89,1.24.32,3.02-1.13,3.54-.27.11-.54.16-.84.16-.92,0-1.81-.57-2.16-1.51-.94-2.4-1.81-3.05-2.78-3.05-3.08,0-2.75,9.66,2.75,9.66,1.73,0,2.92-1.19,3.48-1.86.13-.16.32-.24.54-.24.11,0,.24.03.35.08.35.16.49.59.3.94Z" fill="#fefefe"/>
      <path d="m101.09,38.11l1.03,1.21c.14.13.19.3.19.49,0,.4-.35.76-.76.76h-3.08c-.94,0-1.75-.67-1.92-1.57-1.05.92-2.54,1.84-4.32,1.84-2.46,0-4.4-1.21-4.4-3.59,0-3.73,6.13-4.94,8.67-5.26v-.86c0-2.51-1.11-3.46-2.27-3.46-1.24,0-1.73,1.13-1.92,2.43-.11.84-.84,1.48-1.7,1.48-1.43,0-2.27-1.62-1.4-2.75,1.16-1.59,3.35-2.38,5.48-2.38,3.7,0,6.4,1.27,6.4,5.4v6.26Zm-6.86.62c.78,0,1.62-.57,2.27-1.19v-4.4c-1.7.27-3.81,1.24-3.81,3.64,0,1.3.49,1.94,1.54,1.94Z" fill="#fefefe"/>
      <path d="m103.95,23.83c-.19-.16-.3-.4-.3-.65,0-.38.27-.73.62-.84l3.86-1.16c.11-.03.22-.05.32-.05.19,0,.38.05.54.19.3.19.46.49.46.84v15.95l1.03,1.21c.11.13.19.3.19.49,0,.4-.35.76-.76.76h-5.51c-.4,0-.76-.35-.76-.76,0-.19.08-.35.19-.49l1.03-1.21v-13.47l-.92-.81Z" fill="#fefefe"/>
      <path d="m116.8,35.27c.78,1.43,2.08,2.54,4.05,2.54,1.73,0,2.92-1.19,3.48-1.86.13-.16.32-.24.54-.24.11,0,.22.03.32.08.35.16.51.59.32.94-.67,1.32-2.54,4.1-6.45,4.1-4.32,0-7.05-2.97-7.05-7.18s3-7.21,7.32-7.21c2.54,0,4.86,1.48,5.97,4.86.13.4-.08.86-.49,1l-8.02,2.97Zm-.54-1.38l5.13-1.92c-1.03-2.65-2.29-3.78-3.46-3.78-.19,0-.38.03-.57.08-1.32.46-1.81,3.19-1.11,5.61Z" fill="#fefefe"/>
      <path d="m141.34,40.56h-5.48c-.43,0-.76-.35-.76-.76,0-.19.05-.35.16-.49l1.03-1.21v-5.53c0-3.21-.35-4.35-1.54-4.35-.73,0-1.43.62-2,1.35v8.53l1.03,1.21c.11.13.19.3.19.49,0,.4-.35.76-.76.76h-5.51c-.4,0-.76-.35-.76-.76,0-.19.08-.35.19-.49l1.03-1.21v-8.18l-.92-.81c-.19-.16-.3-.4-.3-.65,0-.38.24-.7.62-.84l3.86-1.16c.11-.03.22-.05.32-.05.19,0,.38.05.54.19.3.19.46.51.46.84v.54c.84-.81,1.97-1.51,3.37-1.51,2,0,4.75,1.16,4.75,5.56v6.07l1.03,1.21c.14.13.19.3.19.49,0,.4-.35.76-.76.76Z" fill="#fefefe"/>
      <path d="m154.87,40.56c-.67,0-1.24-.32-1.59-.84-.57.4-1.78,1.11-3.46,1.11-3.13,0-6.1-2.11-6.1-7.18s3.29-7.18,5.8-7.18c1.75,0,2.86.54,3.4.89v-2.73l-.92-.81c-.19-.16-.3-.4-.3-.65,0-.38.27-.73.62-.84l3.86-1.16c.11-.03.22-.05.32-.05.19,0,.38.05.54.19.3.19.46.49.46.84v15.95l1.03,1.21c.11.13.19.3.19.49,0,.4-.35.76-.76.76h-3.1Zm-3.97-1.48c1.29,0,2.02-.92,2.02-.92v-9.04s-.59-.89-1.86-.89-2.75,1.65-2.75,5.43.94,5.43,2.59,5.43Z" fill="#fefefe"/>
      <path d="m173.34,38.11l1.03,1.21c.13.13.19.3.19.49,0,.4-.35.76-.76.76h-3.08c-.95,0-1.75-.67-1.92-1.57-1.05.92-2.54,1.84-4.32,1.84-2.46,0-4.4-1.21-4.4-3.59,0-3.73,6.13-4.94,8.67-5.26v-.86c0-2.51-1.11-3.46-2.27-3.46-1.24,0-1.73,1.13-1.92,2.43-.11.84-.84,1.48-1.7,1.48-1.43,0-2.27-1.62-1.4-2.75,1.16-1.59,3.35-2.38,5.48-2.38,3.7,0,6.4,1.27,6.4,5.4v6.26Zm-6.86.62c.78,0,1.62-.57,2.27-1.19v-4.4c-1.7.27-3.81,1.24-3.81,3.64,0,1.3.49,1.94,1.54,1.94Z" fill="#fefefe"/>
      <path d="m185.52,30.87c-1.11,0-1.81-1.7-2.67-1.7-.32,0-.7.27-1.13,1.03v7.91l1.03,1.21c.11.13.19.3.19.49,0,.4-.35.76-.76.76h-5.51c-.4,0-.76-.35-.76-.76,0-.19.08-.35.19-.49l1.03-1.21v-8.18l-.92-.81c-.19-.16-.3-.4-.3-.65,0-.38.24-.7.62-.84l3.86-1.16c.11-.03.22-.05.32-.05.19,0,.38.05.54.19.3.19.46.51.46.84v1.27c.86-1.27,2.02-2.35,3.64-2.35,1.11,0,2.08.7,2.35,1.73.27,1.24-.54,2.78-2.19,2.78Z" fill="#fefefe"/>
      <path d="m208.84,38.11l1.03,1.21c.13.13.19.3.19.49,0,.4-.35.76-.76.76h-3.08c-.95,0-1.75-.67-1.92-1.57-1.05.92-2.54,1.84-4.32,1.84-2.46,0-4.4-1.21-4.4-3.59,0-3.73,6.13-4.94,8.67-5.26v-.86c0-2.51-1.11-3.46-2.27-3.46-1.24,0-1.73,1.13-1.92,2.43-.11.84-.84,1.48-1.7,1.48-1.43,0-2.27-1.62-1.4-2.75,1.16-1.59,3.35-2.38,5.48-2.38,3.7,0,6.4,1.27,6.4,5.4v6.26Zm-6.86.62c.78,0,1.62-.57,2.27-1.19v-4.4c-1.7.27-3.81,1.24-3.81,3.64,0,1.3.49,1.94,1.54,1.94Z" fill="#fefefe"/>
      <path d="m211.71,23.83c-.19-.16-.3-.4-.3-.65,0-.38.27-.73.62-.84l3.86-1.16c.11-.03.22-.05.32-.05.19,0,.38.05.54.19.3.19.46.49.46.84v15.95l1.03,1.21c.11.13.19.3.19.49,0,.4-.35.76-.76.76h-5.51c-.4,0-.76-.35-.76-.76,0-.19.08-.35.19-.49l1.03-1.21v-13.47l-.92-.81Z" fill="#fefefe"/>
      <path d="m224.56,35.27c.78,1.43,2.08,2.54,4.05,2.54,1.73,0,2.92-1.19,3.48-1.86.14-.16.32-.24.54-.24.11,0,.22.03.32.08.35.16.51.59.32.94-.67,1.32-2.54,4.1-6.45,4.1-4.32,0-7.04-2.97-7.04-7.18s3-7.21,7.32-7.21c2.54,0,4.86,1.48,5.96,4.86.14.4-.08.86-.49,1l-8.02,2.97Zm-.54-1.38l5.13-1.92c-1.03-2.65-2.29-3.78-3.46-3.78-.19,0-.38.03-.57.08-1.32.46-1.81,3.19-1.11,5.61Z" fill="#fefefe"/>
      <path d="m244.32,30.87c-1.11,0-1.81-1.7-2.67-1.7-.32,0-.7.27-1.13,1.03v7.91l1.03,1.21c.11.13.19.3.19.49,0,.4-.35.76-.76.76h-5.51c-.4,0-.76-.35-.76-.76,0-.19.08-.35.19-.49l1.03-1.21v-8.18l-.92-.81c-.19-.16-.3-.4-.3-.65,0-.38.24-.7.62-.84l3.86-1.16c.11-.03.22-.05.32-.05.19,0,.38.05.54.19.3.19.46.51.46.84v1.27c.86-1.27,2.02-2.35,3.64-2.35,1.11,0,2.08.7,2.35,1.73.27,1.24-.54,2.78-2.19,2.78Z" fill="#fefefe"/>
      <path d="m256.64,38c.24.27.24.7-.03.94-.73.7-2.27,1.89-4.51,1.89-1.54,0-3.21-1.13-3.21-3.37v-9.53h-.65c-.46-.03-.86-.4-.86-.89,0-.35.24-.67.57-.81,2.46-.89,3.7-2.27,4.32-3.13.13-.16.35-.27.57-.27.38,0,.65.3.65.67v2.94l2.05.03c.4,0,.73.32.73.73,0,.43-.32.76-.73.76l-2.05-.03v8.61c0,.97.43,1.65,1.32,1.65.35,0,.67-.13.92-.3.13-.08.27-.14.41-.14.19,0,.38.08.49.22l.03.03Z" fill="#fefefe"/>
      <path d="m268.3,30.74c-.24,0-.46-.13-.57-.32-.46-.81-1.78-2.81-3.43-2.81-.73,0-1.43.35-1.43,1.48,0,3.27,6.56,2.19,6.56,7.31,0,2.81-3.08,4.37-6.4,4.37-2.19,0-3.67-.49-4.37-.81-.3-.11-.49-.41-.49-.73v-2.62c0-.41.35-.76.76-.76.32,0,.59.22.7.51.38,1,1.38,3.19,3.32,3.19,1.16,0,1.81-.92,1.81-1.94,0-3.21-6.59-1.97-6.59-7.18,0-2.75,2.65-4.02,5.64-4.02,2.05,0,3.75.51,4.59.81.32.11.54.43.54.76v2.11c0,.35-.3.65-.65.65Z" fill="#fefefe"/>
      <path d="m30.21,69.13c-.65,1.32-2.54,4.1-6.42,4.1-4.35,0-7.07-2.97-7.07-7.18s3-7.21,7.34-7.21c2.32,0,4.32.7,5.64,2.56.89,1.24.32,3.02-1.13,3.54-.27.11-.54.16-.84.16-.92,0-1.81-.57-2.16-1.51-.94-2.4-1.81-3.05-2.78-3.05-3.08,0-2.75,9.66,2.75,9.66,1.73,0,2.92-1.19,3.48-1.86.13-.16.32-.24.54-.24.11,0,.24.03.35.08.35.16.49.59.3.94Z" fill="#fefefe"/>
      <path d="m44.93,70.51l1.03,1.21c.14.13.19.3.19.49,0,.4-.35.76-.76.76h-3.08c-.94,0-1.75-.67-1.92-1.57-1.05.92-2.54,1.84-4.32,1.84-2.46,0-4.4-1.21-4.4-3.59,0-3.73,6.13-4.94,8.67-5.26v-.86c0-2.51-1.11-3.46-2.27-3.46-1.24,0-1.73,1.13-1.92,2.43-.11.84-.84,1.48-1.7,1.48-1.43,0-2.27-1.62-1.4-2.75,1.16-1.59,3.35-2.38,5.48-2.38,3.7,0,6.4,1.27,6.4,5.4v6.26Zm-6.86.62c.78,0,1.62-.57,2.27-1.19v-4.4c-1.7.27-3.81,1.24-3.81,3.64,0,1.3.49,1.94,1.54,1.94Z" fill="#fefefe"/>
      <path d="m61.88,72.96h-5.48c-.43,0-.76-.35-.76-.76,0-.19.05-.35.16-.49l1.03-1.21v-5.53c0-3.21-.35-4.35-1.54-4.35-.73,0-1.43.62-2,1.35v8.53l1.03,1.21c.11.13.19.3.19.49,0,.4-.35.76-.76.76h-5.51c-.4,0-.76-.35-.76-.76,0-.19.08-.35.19-.49l1.03-1.21v-8.18l-.92-.81c-.19-.16-.3-.4-.3-.65,0-.38.24-.7.62-.84l3.86-1.16c.11-.03.22-.05.32-.05.19,0,.38.05.54.19.3.19.46.51.46.84v.54c.84-.81,1.97-1.51,3.37-1.51,2,0,4.75,1.16,4.75,5.56v6.07l1.03,1.21c.14.13.19.3.19.49,0,.4-.35.76-.76.76Z" fill="#fefefe"/>
      <path d="m64.53,54.8c.03-1.35,1.13-2.43,2.46-2.46,1.4,0,2.54,1.11,2.54,2.51v.05c-.03,2.86-1.89,4.94-2.94,5.88-.16.16-.38.22-.57.22-.24,0-.49-.08-.65-.3-.32-.35-.3-.89.05-1.21.19-.19.4-.38.62-.62.54-.57.4-1.48-.27-1.89-.76-.43-1.24-1.24-1.24-2.19Z" fill="#fefefe"/>
      <path d="m80.68,70.4c.24.27.24.7-.03.94-.73.7-2.27,1.89-4.51,1.89-1.54,0-3.21-1.13-3.21-3.37v-9.53h-.65c-.46-.03-.86-.4-.86-.89,0-.35.24-.67.57-.81,2.46-.89,3.7-2.27,4.32-3.13.14-.16.35-.27.57-.27.38,0,.65.3.65.67v2.94l2.05.03c.41,0,.73.32.73.73,0,.43-.32.76-.73.76l-2.05-.03v8.61c0,.97.43,1.65,1.32,1.65.35,0,.67-.13.92-.3.14-.08.27-.14.41-.14.19,0,.38.08.49.22l.03.03Z" fill="#fefefe"/>
      <path d="m98.85,63.27c-1.11,0-1.81-1.7-2.67-1.7-.32,0-.7.27-1.13,1.03v7.91l1.03,1.21c.11.13.19.3.19.49,0,.4-.35.76-.76.76h-5.51c-.4,0-.76-.35-.76-.76,0-.19.08-.35.19-.49l1.03-1.21v-8.18l-.92-.81c-.19-.16-.3-.4-.3-.65,0-.38.24-.7.62-.84l3.86-1.16c.11-.03.22-.05.32-.05.19,0,.38.05.54.19.3.19.46.51.46.84v1.27c.86-1.27,2.02-2.35,3.64-2.35,1.11,0,2.08.7,2.35,1.73.27,1.24-.54,2.78-2.19,2.78Z" fill="#fefefe"/>
      <path d="m106.41,67.67c.78,1.43,2.08,2.54,4.05,2.54,1.73,0,2.92-1.19,3.48-1.86.13-.16.32-.24.54-.24.11,0,.22.03.32.08.35.16.51.59.32.94-.67,1.32-2.54,4.1-6.45,4.1-4.32,0-7.05-2.97-7.05-7.18s3-7.21,7.32-7.21c2.54,0,4.86,1.48,5.97,4.86.13.4-.08.86-.49,1l-8.02,2.97Zm-.54-1.38l5.13-1.92c-1.03-2.65-2.29-3.78-3.46-3.78-.19,0-.38.03-.57.08-1.32.46-1.81,3.19-1.11,5.61Z" fill="#fefefe"/>
      <path d="m130.09,70.51l1.03,1.21c.14.13.19.3.19.49,0,.4-.35.76-.76.76h-3.08c-.94,0-1.75-.67-1.92-1.57-1.05.92-2.54,1.84-4.32,1.84-2.46,0-4.4-1.21-4.4-3.59,0-3.73,6.13-4.94,8.67-5.26v-.86c0-2.51-1.11-3.46-2.27-3.46-1.24,0-1.73,1.13-1.92,2.43-.11.84-.84,1.48-1.7,1.48-1.43,0-2.27-1.62-1.4-2.75,1.16-1.59,3.35-2.38,5.48-2.38,3.7,0,6.4,1.27,6.4,5.4v6.26Zm-6.86.62c.78,0,1.62-.57,2.27-1.19v-4.4c-1.7.27-3.81,1.24-3.81,3.64,0,1.3.49,1.94,1.54,1.94Z" fill="#fefefe"/>
      <path d="m146.15,69.13c-.65,1.32-2.54,4.1-6.42,4.1-4.35,0-7.07-2.97-7.07-7.18s3-7.21,7.34-7.21c2.32,0,4.32.7,5.64,2.56.89,1.24.32,3.02-1.13,3.54-.27.11-.54.16-.84.16-.92,0-1.81-.57-2.16-1.51-.94-2.4-1.81-3.05-2.78-3.05-3.08,0-2.75,9.66,2.75,9.66,1.73,0,2.92-1.19,3.48-1.86.13-.16.32-.24.54-.24.11,0,.24.03.35.08.35.16.49.59.3.94Z" fill="#fefefe"/>
      <path d="m161.54,70.51l1.05,1.21c.11.13.16.3.16.49,0,.4-.32.76-.76.76h-5.48c-.43,0-.76-.35-.76-.76,0-.19.05-.35.16-.49l1.03-1.21v-5.53c0-3.21-.32-4.35-1.54-4.35-.73,0-1.43.62-2,1.35v8.53l1.03,1.21c.11.13.19.3.19.49,0,.4-.35.76-.76.76h-5.51c-.4,0-.76-.35-.76-.76,0-.19.08-.35.19-.49l1.03-1.21v-13.47l-.92-.81c-.19-.16-.3-.4-.3-.65,0-.38.27-.73.62-.84l3.86-1.16c.11-.03.22-.05.32-.05.19,0,.38.05.54.19.3.19.46.49.46.84v5.83c.84-.81,1.97-1.51,3.37-1.51,2,0,4.75,1.16,4.75,5.56v6.07Z" fill="#fefefe"/>
      <path d="m179.36,74.42c-1.19,2.67-3.19,5.02-6.32,5.02-1.21,0-2.32-.78-2.59-1.92-.32-1.38.62-2.75,2.08-3.1.19-.05.3-.05.46-.05h.54c1.08,0,1.86.41,2.48.41.49,0,.86-.22,1.21-1l.38-.81-5.26-11.63-1.21-1.21c-.16-.14-.22-.32-.22-.51,0-.41.32-.73.73-.73h6.29c.43,0,.78.35.78.78,0,.16-.05.32-.13.46l-.89,1.21,2.29,5.26c.05.11.14.16.24.16.08,0,.19-.05.24-.16l2.48-5.51-.86-.97c-.16-.16-.22-.38-.19-.59.05-.38.38-.65.76-.65h3.35c.41,0,.73.32.73.73,0,.19-.08.38-.22.51l-1.21,1.21-5.94,13.09Z" fill="#fefefe"/>
      <path d="m194.05,58.85c4.35,0,7.34,3,7.34,7.21s-3,7.18-7.34,7.18-7.32-2.97-7.32-7.18,3-7.21,7.32-7.21Zm-2.43,7.64c.67,3.73,1.62,5.21,3.02,5.21.13,0,.27,0,.41-.03,1.65-.3,2.16-1.97,1.46-6.05-.67-3.73-1.62-5.21-3.05-5.21-.13,0-.27,0-.41.03-1.62.27-2.16,1.97-1.43,6.05Z" fill="#fefefe"/>
      <path d="m215.73,58.87c.46,0,.81.35.81.81v10.1l.92.78c.16.16.27.35.3.59.03.4-.22.78-.62.92l-3.86,1.16c-.11.03-.22.05-.3.05-.54,0-1.03-.49-1.03-1.03v-.76c-.81.92-1.94,1.73-3.37,1.73-1.97,0-4.75-1.16-4.75-5.56v-6.34l-1.03-1.21c-.11-.14-.19-.3-.19-.49,0-.4.35-.76.76-.76h4.24c.46,0,.81.35.81.81v7.45c0,3.21.35,4.18,1.54,4.18.76,0,1.46-.7,2-1.48v-8.5l-1.03-1.21c-.11-.14-.16-.3-.16-.49,0-.4.32-.76.76-.76h4.21Z" fill="#fefefe"/>
      <path d="m30.64,102.91l1.05,1.21c.11.13.16.3.16.49,0,.4-.32.76-.76.76h-5.48c-.43,0-.76-.35-.76-.76,0-.19.05-.35.16-.49l1.03-1.21v-5.53c0-3.21-.32-4.35-1.54-4.35-.73,0-1.43.62-2,1.35v8.53l1.03,1.21c.11.13.19.3.19.49,0,.4-.35.76-.76.76h-5.51c-.4,0-.76-.35-.76-.76,0-.19.08-.35.19-.49l1.03-1.21v-13.47l-.92-.81c-.19-.16-.3-.4-.3-.65,0-.38.27-.73.62-.84l3.86-1.16c.11-.03.22-.05.32-.05.19,0,.38.05.54.19.3.19.46.49.46.84v5.83c.84-.81,1.97-1.51,3.37-1.51,2,0,4.75,1.16,4.75,5.56v6.07Z" fill="#fefefe"/>
      <path d="m37.99,100.07c.78,1.43,2.08,2.54,4.05,2.54,1.73,0,2.92-1.19,3.48-1.86.13-.16.32-.24.54-.24.11,0,.22.03.32.08.35.16.51.59.32.94-.67,1.32-2.54,4.1-6.45,4.1-4.32,0-7.05-2.97-7.05-7.18s3-7.21,7.32-7.21c2.54,0,4.86,1.48,5.97,4.86.13.4-.08.86-.49,1l-8.02,2.97Zm-.54-1.38l5.13-1.92c-1.03-2.65-2.29-3.78-3.46-3.78-.19,0-.38.03-.57.08-1.32.46-1.81,3.19-1.11,5.61Z" fill="#fefefe"/>
      <path d="m57.75,95.67c-1.11,0-1.81-1.7-2.67-1.7-.32,0-.7.27-1.13,1.03v7.91l1.03,1.21c.11.13.19.3.19.49,0,.4-.35.76-.76.76h-5.51c-.4,0-.76-.35-.76-.76,0-.19.08-.35.19-.49l1.03-1.21v-8.18l-.92-.81c-.19-.16-.3-.4-.3-.65,0-.38.24-.7.62-.84l3.86-1.16c.11-.03.22-.05.32-.05.19,0,.38.05.54.19.3.19.46.51.46.84v1.27c.86-1.27,2.02-2.35,3.64-2.35,1.11,0,2.08.7,2.35,1.73.27,1.24-.54,2.78-2.19,2.78Z" fill="#fefefe"/>
      <path d="m65.31,100.07c.78,1.43,2.08,2.54,4.05,2.54,1.73,0,2.92-1.19,3.48-1.86.13-.16.32-.24.54-.24.11,0,.22.03.32.08.35.16.51.59.32.94-.67,1.32-2.54,4.1-6.45,4.1-4.32,0-7.05-2.97-7.05-7.18s3-7.21,7.32-7.21c2.54,0,4.86,1.48,5.97,4.86.13.4-.08.86-.49,1l-8.02,2.97Zm-.54-1.38l5.13-1.92c-1.03-2.65-2.29-3.78-3.46-3.78-.19,0-.38.03-.57.08-1.32.46-1.81,3.19-1.11,5.61Z" fill="#fefefe"/>
      <path d="m78.49,100.64c1.38,0,2.48,1.13,2.48,2.51s-1.11,2.48-2.48,2.48-2.48-1.11-2.48-2.48,1.11-2.51,2.48-2.51Z" fill="#fefefe"/>
    </g>
  </g>
  <g id="d" data-name="Rect">
    <rect width="300" height="250" fill="none"/>
  </g>
</svg>