<?xml version="1.0" encoding="UTF-8"?>
<svg id="b" data-name="Layer 2" xmlns="http://www.w3.org/2000/svg" width="300" height="250" viewBox="0 0 300 250">
  <g id="c" data-name="Sip into (new)">
    <g>
      <path d="m30.52,232.3c-.18.35-.45.78-.79,1.28s-.79.99-1.34,1.44c-.55.46-1.21.85-1.97,1.18-.76.33-1.65.49-2.66.49-.73,0-1.55-.14-2.45-.41-.9-.28-1.75-.74-2.56-1.39-.8-.65-1.47-1.51-2.02-2.59-.54-1.08-.81-2.42-.81-4.02s.27-2.94.81-4.02c.54-1.08,1.21-1.94,2.02-2.59.8-.65,1.65-1.11,2.56-1.39.9-.27,1.72-.41,2.45-.41.64,0,1.28.07,1.9.19.63.13,1.23.34,1.8.64.57.3,1.1.7,1.58,1.2.48.5.9,1.12,1.25,1.86.14.29.21.6.22.92,0,.32-.04.62-.15.91-.11.28-.27.53-.48.76-.21.22-.47.39-.78.52l-.02.02c-.29.12-.58.18-.87.18-.49,0-.94-.16-1.36-.47-.42-.31-.7-.73-.84-1.25-.29-1.07-.74-1.88-1.34-2.43-.6-.55-1.27-.83-2.01-.83-.57,0-1.02.17-1.35.52-.34.34-.59.77-.77,1.27-.18.5-.29,1.04-.33,1.59-.05.56-.07,1.04-.07,1.46,0,.84.12,1.68.37,2.52.24.84.59,1.6,1.04,2.27.45.67,1,1.21,1.65,1.63.65.41,1.39.62,2.21.62.5,0,.97-.08,1.39-.25.42-.17.79-.37,1.11-.62.32-.24.6-.5.83-.78.23-.28.41-.52.55-.73.15-.23.36-.34.62-.34.11,0,.21.02.3.07.18.09.31.23.37.42.06.19.05.38-.05.56Z" fill="#fff"/>
      <path d="m37.05,224.49c.92,0,1.76.15,2.52.46.76.31,1.42.73,1.97,1.26.55.53.98,1.18,1.28,1.93.31.75.46,1.57.46,2.48s-.15,1.7-.46,2.45c-.31.75-.73,1.39-1.28,1.94-.55.54-1.21.96-1.97,1.26-.76.3-1.6.45-2.52.45s-1.76-.15-2.52-.45c-.76-.3-1.42-.72-1.96-1.26-.54-.54-.97-1.19-1.27-1.94-.31-.75-.46-1.57-.46-2.45s.15-1.73.46-2.48c.31-.75.73-1.39,1.27-1.93.54-.53,1.2-.95,1.96-1.26.76-.31,1.6-.46,2.52-.46Zm-.85,1.35c-.69.11-1.14.56-1.35,1.35-.21.79-.17,2.06.14,3.78.29,1.59.64,2.72,1.05,3.4.41.68.92,1.02,1.51,1.02.15,0,.27,0,.34-.02.7-.12,1.16-.58,1.38-1.36.21-.79.17-2.04-.14-3.77-.29-1.59-.64-2.72-1.05-3.4-.41-.68-.92-1.02-1.54-1.02-.15,0-.27,0-.34.02Z" fill="#fff"/>
      <path d="m43.52,235.83c0-.17.05-.31.16-.41l.87-1.03v-6.94l-.78-.69c-.17-.14-.25-.32-.25-.55,0-.35.18-.59.53-.71l3.28-.99c.12-.03.21-.05.28-.05.18,0,.34.05.46.16.26.17.39.4.39.71v.46c.35-.35.76-.65,1.24-.91.47-.25,1.02-.38,1.63-.38.29,0,.59.03.91.09.31.06.63.17.94.32.31.15.61.36.88.61s.51.57.71.95c.18-.23.39-.46.62-.7.23-.24.49-.45.78-.63.29-.18.61-.34.95-.46.34-.12.71-.18,1.11-.18.43,0,.88.07,1.35.22.47.15.91.39,1.32.74.4.35.74.83,1,1.44.26.61.39,1.38.39,2.31v5.16l.87,1.03c.09.11.14.24.14.41s-.06.32-.18.45c-.12.13-.28.19-.46.19h-4.65c-.18,0-.34-.06-.46-.19-.12-.13-.18-.28-.18-.45s.05-.31.14-.41l.89-1.03v-4.7c0-1.36-.09-2.31-.28-2.86-.18-.55-.53-.82-1.05-.82-.37,0-.71.15-1.03.45-.32.3-.61.63-.87,1,.14.5.21,1.1.21,1.79v5.16l.87,1.03c.11.11.16.24.16.41s-.07.32-.19.45c-.13.13-.28.19-.45.19h-4.65c-.18,0-.34-.06-.47-.19-.13-.13-.19-.28-.19-.45,0-.14.05-.28.16-.41l.87-1.03v-4.7c0-1.36-.09-2.31-.28-2.86s-.53-.82-1.03-.82c-.32,0-.63.11-.92.34-.29.23-.55.5-.78.8v7.24l.87,1.03c.09.11.14.24.14.41s-.06.32-.18.45c-.12.13-.28.19-.46.19h-4.65c-.17,0-.32-.06-.45-.19-.13-.13-.19-.28-.19-.45Z" fill="#fff"/>
      <path d="m68.66,225.75v8.64l.87,1.03c.09.11.14.24.14.41s-.06.32-.18.45c-.12.13-.28.19-.46.19h-4.65c-.18,0-.34-.06-.46-.19-.12-.13-.18-.28-.18-.45s.05-.31.14-.41l.89-1.03v-8.64h-.41c-.17-.02-.31-.08-.44-.21-.12-.12-.18-.27-.18-.44s.06-.32.18-.45c.12-.13.28-.19.46-.17h.39c0-.73.1-1.38.29-1.95.19-.57.46-1.05.8-1.44.34-.4.75-.7,1.21-.91.47-.21.97-.31,1.5-.31.46,0,.86.1,1.2.3.34.2.65.43.91.69.12.14.21.29.26.45.05.16.07.32.06.49-.02.17-.07.33-.15.48-.08.15-.2.28-.36.39-.2.14-.42.21-.66.21-.26,0-.49-.07-.7-.22-.21-.14-.36-.35-.45-.61-.09-.29-.22-.55-.39-.77-.17-.22-.4-.33-.71-.33-.35,0-.61.1-.77.31s-.24.44-.24.7c0,.41.1.77.29,1.08.19.31.41.56.65.77.24.21.47.36.69.47.21.11.35.18.41.21l1.51.02c.17,0,.31.06.44.18.12.12.18.27.18.44,0,.18-.06.34-.18.46-.12.12-.27.18-.44.18l-1.47-.02Z" fill="#fff"/>
      <path d="m76.77,224.49c.92,0,1.76.15,2.52.46.76.31,1.42.73,1.97,1.26.55.53.98,1.18,1.28,1.93.31.75.46,1.57.46,2.48s-.15,1.7-.46,2.45c-.31.75-.73,1.39-1.28,1.94-.55.54-1.21.96-1.97,1.26-.76.3-1.6.45-2.52.45s-1.76-.15-2.52-.45c-.76-.3-1.42-.72-1.96-1.26-.54-.54-.97-1.19-1.27-1.94-.31-.75-.46-1.57-.46-2.45s.15-1.73.46-2.48c.31-.75.73-1.39,1.27-1.93.54-.53,1.2-.95,1.96-1.26.76-.31,1.6-.46,2.52-.46Zm-.85,1.35c-.69.11-1.14.56-1.35,1.35-.21.79-.17,2.06.14,3.78.29,1.59.64,2.72,1.05,3.4.41.68.92,1.02,1.51,1.02.15,0,.27,0,.34-.02.7-.12,1.16-.58,1.38-1.36.21-.79.17-2.04-.14-3.77-.29-1.59-.64-2.72-1.05-3.4-.41-.68-.92-1.02-1.54-1.02-.15,0-.27,0-.34.02Z" fill="#fff"/>
      <path d="m89.03,235.42c.11.14.16.28.16.41,0,.17-.07.32-.19.45-.13.13-.28.19-.45.19h-4.68c-.17,0-.32-.06-.45-.19-.13-.13-.19-.28-.19-.45,0-.14.05-.28.16-.41l.87-1.03v-6.94l-.78-.69c-.17-.14-.25-.32-.25-.55,0-.35.18-.59.53-.71l3.28-.99c.12-.03.21-.05.28-.05.18,0,.34.05.46.16.26.17.39.4.39.71v1.08c.37-.53.8-1,1.31-1.4.5-.4,1.1-.6,1.79-.6.47,0,.89.13,1.26.4.37.27.61.62.73,1.07.06.26.06.53.01.81-.05.28-.16.54-.32.77-.16.23-.37.42-.63.56-.26.15-.57.22-.92.22-.23,0-.44-.08-.64-.23-.2-.15-.39-.32-.57-.49-.18-.18-.36-.34-.53-.49-.17-.15-.34-.23-.53-.23-.14,0-.29.07-.45.19-.16.13-.33.36-.52.68v6.71l.87,1.03Z" fill="#fff"/>
      <path d="m100.6,225.13c0,.18-.06.34-.18.46-.12.12-.27.18-.44.18l-1.74-.02v7.31c0,.41.09.75.28,1.01.18.26.47.39.85.39.15,0,.29-.02.42-.07.13-.05.25-.11.36-.18.12-.08.24-.11.34-.11.18,0,.32.06.41.18l.02.02c.11.12.16.26.16.41s-.06.28-.18.39c-.15.15-.35.32-.58.5-.24.18-.52.36-.84.52-.32.16-.68.3-1.09.41-.41.11-.84.17-1.32.17-.32,0-.65-.06-.97-.18-.33-.12-.62-.3-.88-.54-.26-.24-.47-.53-.63-.89-.16-.36-.24-.78-.24-1.25v-8.09h-.55c-.2-.02-.37-.09-.52-.23-.15-.14-.22-.31-.22-.53,0-.15.05-.29.14-.41.09-.12.21-.21.34-.28,1.04-.38,1.84-.83,2.42-1.34.57-.51.99-.95,1.25-1.32.12-.15.28-.23.48-.23.17,0,.3.05.4.16.1.11.15.24.15.41v2.5l1.74.02c.17,0,.31.06.44.18.12.12.18.27.18.44Z" fill="#fff"/>
      <path d="m112.75,222.08c.05-.08.05-.16,0-.24-.05-.08-.11-.13-.18-.13h-1.44c-.86,0-1.65.2-2.39.61-.74.4-1.35.97-1.82,1.68l-.53.78c-.09.17-.24.25-.46.25-.17,0-.31-.05-.41-.16-.11-.11-.16-.24-.16-.41v-3.9c0-.18.06-.34.19-.48.13-.14.29-.21.49-.21h10.11c.4,0,.73.14,1.01.41.27.28.41.61.41,1.01,0,.26-.08.52-.23.78l-7.77,12.21c-.05.08-.05.15,0,.23.05.08.11.11.18.11h2.02c.87,0,1.68-.2,2.42-.6.74-.4,1.35-.96,1.82-1.7l.5-.76c.14-.18.3-.27.48-.27.17,0,.31.06.41.17.11.11.16.25.16.4v3.9c0,.2-.07.36-.21.49-.14.13-.3.19-.48.19h-10.7c-.4,0-.73-.14-1.01-.41-.28-.27-.41-.61-.41-1.01,0-.24.08-.5.23-.76l7.77-12.21Z" fill="#fff"/>
      <path d="m124,224.49c.92,0,1.76.15,2.52.46.76.31,1.42.73,1.97,1.26.55.53.98,1.18,1.28,1.93.31.75.46,1.57.46,2.48s-.15,1.7-.46,2.45c-.31.75-.73,1.39-1.28,1.94-.55.54-1.21.96-1.97,1.26-.76.3-1.6.45-2.52.45s-1.76-.15-2.52-.45c-.76-.3-1.42-.72-1.96-1.26-.54-.54-.97-1.19-1.27-1.94-.31-.75-.46-1.57-.46-2.45s.15-1.73.46-2.48c.31-.75.73-1.39,1.27-1.93.54-.53,1.2-.95,1.96-1.26.76-.31,1.6-.46,2.52-.46Zm-.85,1.35c-.69.11-1.14.56-1.35,1.35-.21.79-.17,2.06.14,3.78.29,1.59.64,2.72,1.05,3.4.41.68.92,1.02,1.51,1.02.15,0,.27,0,.34-.02.7-.12,1.16-.58,1.38-1.36.21-.79.17-2.04-.14-3.77-.29-1.59-.64-2.72-1.05-3.4-.41-.68-.92-1.02-1.54-1.02-.15,0-.27,0-.34.02Z" fill="#fff"/>
      <path d="m138.03,236.47c-.18,0-.34-.06-.46-.19-.12-.13-.18-.28-.18-.45s.05-.31.14-.41l.87-1.03v-4.7c0-1.36-.09-2.31-.28-2.86s-.53-.82-1.03-.82c-.31,0-.6.11-.89.34-.29.23-.56.5-.8.8v7.24l.87,1.03c.11.14.16.28.16.41,0,.17-.07.32-.19.45-.13.13-.28.19-.45.19h-4.68c-.17,0-.32-.06-.45-.19-.13-.13-.19-.28-.19-.45,0-.14.05-.28.16-.41l.87-1.03v-6.94l-.78-.69c-.17-.14-.25-.32-.25-.55,0-.35.18-.59.53-.71l3.28-.99c.12-.03.21-.05.27-.05.18,0,.34.05.46.16.26.17.39.4.39.71v.46c.35-.35.77-.65,1.25-.91s1.02-.38,1.62-.38c.43,0,.88.07,1.35.22.47.15.91.39,1.31.74.4.35.73.83.99,1.44.26.61.39,1.38.39,2.31v5.16l.87,1.03c.11.11.16.24.16.41s-.07.32-.19.45c-.13.13-.28.19-.45.19h-4.65Z" fill="#fff"/>
      <path d="m155.01,233.22c-.14.27-.35.61-.63,1.01-.28.4-.64.78-1.08,1.15-.44.37-.97.68-1.59.94-.63.26-1.35.39-2.18.39-.92,0-1.75-.15-2.49-.45-.74-.3-1.37-.72-1.88-1.26-.51-.54-.91-1.19-1.19-1.94-.28-.75-.42-1.57-.42-2.45s.15-1.73.46-2.48c.31-.75.73-1.39,1.27-1.93.54-.53,1.2-.95,1.96-1.26.76-.31,1.6-.46,2.52-.46,1.08,0,2.08.33,2.99.99.91.66,1.6,1.7,2.07,3.14.06.17.05.34-.03.5-.08.17-.21.28-.38.34l-6.81,2.52c.34.61.78,1.12,1.34,1.54.56.41,1.26.62,2.1.62.37,0,.7-.06,1.01-.17.31-.11.58-.25.84-.41s.47-.33.65-.52c.18-.18.34-.34.46-.48.12-.14.28-.21.46-.21.09,0,.18.02.28.07.15.08.26.19.31.34.05.15.04.31-.03.46Zm-6.44-7.24c-.15,0-.31.02-.48.07-.27.09-.51.3-.7.62-.19.32-.33.7-.41,1.15-.08.44-.11.92-.09,1.44.02.52.11,1.04.26,1.56l4.35-1.63c-.44-1.13-.92-1.95-1.43-2.45-.51-.5-1.01-.76-1.5-.76Z" fill="#fff"/>
    </g>
    <g>
      <path d="m27.07,213.15c-.09,0-.17-.04-.22-.13-.05-.09-.13-.22-.23-.39-.11-.16-.24-.32-.41-.48-.17-.16-.37-.29-.59-.41-.23-.12-.48-.17-.77-.17-.31,0-.57.07-.76.21-.19.14-.29.34-.29.58s.09.46.28.63c.19.17.42.33.7.47.28.15.58.29.91.44.32.15.63.33.91.53.28.21.51.45.7.74.19.29.28.65.28,1.07s-.09.82-.26,1.13c-.17.31-.4.57-.68.76-.28.19-.59.33-.94.42s-.7.13-1.05.13c-.57,0-1.05-.06-1.44-.19s-.69-.24-.89-.36c-.23-.13-.35-.32-.35-.58v-1.52c0-.07.03-.12.08-.17.05-.05.11-.08.19-.08.1,0,.18.05.23.15.05.12.13.28.25.49.12.21.26.42.43.62.17.2.37.38.6.53.23.15.48.22.76.22.36,0,.63-.08.82-.25.19-.16.29-.42.29-.76,0-.29-.09-.53-.28-.72-.19-.19-.42-.36-.69-.51-.28-.15-.58-.3-.91-.44-.33-.15-.63-.32-.91-.52-.28-.2-.51-.45-.69-.74-.19-.29-.28-.66-.28-1.1s.1-.78.31-1.05.46-.49.75-.64c.29-.15.61-.26.94-.32.33-.06.62-.09.86-.09.54,0,1,.05,1.38.15.38.1.67.2.88.31.12.05.21.13.28.24.07.11.1.23.1.35v1.16c0,.07-.02.13-.07.18s-.11.07-.18.07h-.01Z" fill="#fff"/>
      <path d="m29.71,212.87c.09,0,.16.03.22.08.12.08.19.19.19.34v4.31l.41.49c.04.05.07.12.07.2s-.03.15-.09.21c-.06.06-.13.09-.22.09h-2.22c-.08,0-.15-.03-.21-.09-.06-.06-.09-.13-.09-.21s.03-.15.08-.2l.41-.49v-3.31l-.37-.33c-.08-.07-.12-.15-.12-.26,0-.17.08-.28.25-.34l1.56-.47c.06-.01.1-.02.13-.02Zm-1.7-1.07c-.03-.14-.03-.27,0-.41.03-.13.08-.26.15-.37.08-.11.17-.21.29-.29.12-.08.25-.14.4-.18.09-.02.17-.03.26-.03.25,0,.47.07.67.22.2.15.32.33.38.57.06.28,0,.53-.15.77-.16.24-.39.4-.7.47-.09.02-.18.03-.27.03-.25,0-.47-.07-.66-.21-.19-.14-.31-.33-.37-.56Z" fill="#fff"/>
      <path d="m33.04,213.31c.17-.11.37-.21.6-.29.23-.08.5-.13.81-.13s.57.05.82.16c.25.11.47.26.65.47.18.21.32.47.43.77.1.31.15.67.15,1.07,0,.53-.08,1-.23,1.4-.15.4-.37.74-.64,1.01-.28.27-.61.47-.99.61-.38.13-.81.2-1.27.2h-.33v1.57l.43.49c.04.06.07.12.07.2,0,.08-.03.15-.09.21-.06.06-.13.09-.22.09h-2.22c-.09,0-.16-.03-.22-.09-.06-.06-.09-.13-.09-.21,0-.07.02-.14.07-.2l.41-.49v-5.87l-.36-.33c-.08-.07-.12-.15-.12-.26,0-.17.08-.28.25-.34l1.55-.47c.06-.01.1-.02.13-.02.11,0,.2.04.28.12.08.08.12.18.12.29v.02Zm0,4.66s.05.01.1.01c.28,0,.51-.05.7-.14.19-.09.34-.23.46-.42.12-.19.21-.43.26-.73.05-.3.08-.66.08-1.08,0-.58-.08-1.03-.25-1.33-.17-.31-.4-.46-.71-.46-.13,0-.25.02-.35.07-.11.04-.2.1-.29.17v3.91Z" fill="#fff"/>
      <path d="m40.19,212.87c.09,0,.16.03.22.08.12.08.19.19.19.34v4.31l.41.49c.04.05.07.12.07.2s-.03.15-.09.21c-.06.06-.13.09-.22.09h-2.22c-.08,0-.15-.03-.21-.09-.06-.06-.09-.13-.09-.21s.03-.15.08-.2l.41-.49v-3.31l-.37-.33c-.08-.07-.12-.15-.12-.26,0-.17.08-.28.25-.34l1.56-.47c.06-.01.1-.02.13-.02Zm-1.7-1.07c-.03-.14-.03-.27,0-.41.03-.13.08-.26.15-.37.08-.11.17-.21.29-.29.12-.08.25-.14.4-.18.09-.02.17-.03.26-.03.25,0,.47.07.67.22.2.15.32.33.38.57.06.28,0,.53-.15.77-.16.24-.39.4-.7.47-.09.02-.18.03-.27.03-.25,0-.47-.07-.66-.21-.19-.14-.31-.33-.37-.56Z" fill="#fff"/>
      <path d="m44.89,218.59c-.09,0-.16-.03-.22-.09-.06-.06-.09-.13-.09-.21s.02-.15.07-.2l.41-.49v-2.24c0-.65-.04-1.1-.13-1.36-.09-.26-.25-.39-.49-.39-.15,0-.29.05-.43.16-.14.11-.27.24-.38.38v3.45l.41.49c.05.07.08.13.08.2,0,.08-.03.15-.09.21-.06.06-.13.09-.21.09h-2.23c-.08,0-.15-.03-.21-.09-.06-.06-.09-.13-.09-.21,0-.07.03-.13.08-.2l.41-.49v-3.31l-.37-.33c-.08-.07-.12-.15-.12-.26,0-.17.08-.28.25-.34l1.56-.47c.06-.01.1-.02.13-.02.09,0,.16.03.22.08.12.08.19.19.19.34v.22c.17-.17.37-.31.59-.43s.49-.18.77-.18c.2,0,.42.03.64.1.23.07.43.19.62.35.19.17.35.4.47.69.12.29.19.66.19,1.1v2.46l.41.49c.05.05.08.12.08.2s-.03.15-.09.21-.13.09-.21.09h-2.22Z" fill="#fff"/>
      <path d="m50.95,217.46c.07,0,.14.03.2.09h0c.06.07.09.13.08.21,0,.07-.03.13-.09.19-.07.07-.17.15-.28.24-.11.09-.25.17-.4.25-.15.08-.32.14-.51.2-.19.05-.4.08-.62.08-.16,0-.32-.03-.47-.09-.15-.06-.29-.14-.41-.26-.12-.11-.22-.25-.3-.43-.08-.17-.11-.37-.11-.59v-3.85h-.26c-.1,0-.19-.04-.25-.11-.07-.07-.1-.15-.1-.25,0-.16.08-.27.23-.33.49-.18.88-.39,1.15-.64.27-.24.47-.45.59-.63.06-.07.13-.11.23-.11.02,0,.05,0,.1.02.11.04.16.13.16.25v.95c.31-.08.63-.19.94-.34.31-.15.62-.31.93-.49.31-.17.62-.35.93-.53.31-.18.61-.34.92-.49.3-.15.6-.27.89-.36.29-.09.59-.14.88-.14.23,0,.44.02.63.06.19.04.35.09.5.15.15.07.27.16.35.28.08.12.13.26.14.4.01.14-.01.28-.07.42-.06.14-.15.25-.28.34-.15.1-.31.15-.48.15-.2,0-.39-.07-.55-.21-.13-.12-.29-.22-.47-.28-.18-.07-.39-.1-.63-.1-.28,0-.59.07-.93.2-.35.13-.72.29-1.12.47-.4.19-.82.38-1.25.57-.43.2-.87.36-1.33.49v3.72c0,.2.04.36.13.48.09.12.22.19.4.19.07,0,.14-.01.2-.03.06-.02.12-.05.17-.09.06-.04.11-.05.16-.05Z" fill="#fff"/>
      <path d="m54.08,212.88c.44,0,.84.07,1.2.22.36.15.68.35.94.6.26.25.47.56.61.92.15.36.22.75.22,1.18s-.07.81-.22,1.17c-.15.36-.35.66-.61.92-.26.26-.57.46-.94.6-.36.14-.76.21-1.2.21s-.84-.07-1.2-.21c-.36-.14-.67-.34-.93-.6-.26-.26-.46-.57-.61-.92-.15-.36-.22-.75-.22-1.17s.07-.82.22-1.18c.15-.36.35-.66.61-.92.26-.25.57-.45.93-.6.36-.15.76-.22,1.2-.22Zm-.4.64c-.33.05-.54.27-.64.64-.1.38-.08.98.07,1.8.14.76.31,1.3.5,1.62.2.32.44.49.72.49.07,0,.13,0,.16-.01.33-.06.55-.27.65-.65.1-.37.08-.97-.07-1.8-.14-.76-.31-1.3-.5-1.62-.2-.32-.44-.49-.73-.49-.07,0-.13,0-.16.01Z" fill="#fff"/>
      <path d="m64.81,212.9c.08,0,.15.03.21.09.06.06.09.13.09.21s-.03.15-.09.21l-.49.49-2.4,5.29c-.12.27-.26.53-.42.77-.16.25-.35.46-.56.65-.21.19-.45.33-.7.44-.26.11-.55.16-.87.16-.25,0-.47-.07-.67-.21-.2-.14-.32-.33-.38-.56-.03-.14-.03-.27,0-.41.03-.13.08-.26.15-.37.08-.11.17-.21.29-.29.12-.08.25-.14.4-.18.04-.01.07-.02.09-.02h.31c.22,0,.41.03.57.08.16.05.31.08.43.08.1,0,.19-.03.27-.08s.15-.16.22-.32l.15-.33-2.13-4.7-.49-.49c-.06-.05-.09-.12-.09-.21,0-.08.03-.15.09-.21.06-.06.13-.09.21-.09h2.54c.09,0,.16.03.22.09.06.06.09.14.09.22,0,.07-.02.13-.05.19l-.36.49.93,2.13s.05.07.1.07.08-.02.1-.07l1-2.23-.35-.39c-.07-.07-.09-.15-.08-.24.01-.08.05-.14.1-.19.05-.05.12-.07.2-.07h1.35Z" fill="#fff"/>
      <path d="m67.62,212.88c.44,0,.84.07,1.2.22.36.15.68.35.94.6.26.25.47.56.61.92.15.36.22.75.22,1.18s-.07.81-.22,1.17c-.15.36-.35.66-.61.92-.26.26-.57.46-.94.6-.36.14-.76.21-1.2.21s-.84-.07-1.2-.21c-.36-.14-.67-.34-.93-.6-.26-.26-.46-.57-.61-.92-.15-.36-.22-.75-.22-1.17s.07-.82.22-1.18c.15-.36.35-.66.61-.92.26-.25.57-.45.93-.6.36-.15.76-.22,1.2-.22Zm-.4.64c-.33.05-.54.27-.64.64-.1.38-.08.98.07,1.8.14.76.31,1.3.5,1.62.2.32.44.49.72.49.07,0,.13,0,.16-.01.33-.06.55-.27.65-.65.1-.37.08-.97-.07-1.8-.14-.76-.31-1.3-.5-1.62-.2-.32-.44-.49-.73-.49-.07,0-.13,0-.16.01Z" fill="#fff"/>
      <path d="m74.42,218c-.17.19-.36.35-.59.49-.23.14-.48.21-.77.21-.2,0-.41-.03-.63-.1-.23-.07-.43-.19-.63-.35-.19-.17-.35-.4-.47-.69-.12-.29-.19-.66-.19-1.1v-2.56l-.41-.49c-.05-.07-.08-.13-.08-.2,0-.08.03-.15.09-.21.06-.06.13-.09.21-.09h1.71c.09,0,.17.03.23.09.06.06.09.14.09.23v3.01c0,.33,0,.6.03.81.02.21.05.39.1.52.05.13.12.22.2.28.08.05.18.08.29.08.15,0,.3-.06.44-.18.14-.12.26-.26.37-.42v-3.44l-.41-.49c-.04-.06-.07-.12-.07-.2,0-.08.03-.15.09-.21.06-.06.13-.09.22-.09h1.7c.09,0,.17.03.23.09.06.06.09.14.09.23v4.08l.37.32c.07.07.11.15.12.24,0,.08-.01.15-.06.22-.05.07-.11.12-.19.15l-1.56.47c-.06.01-.1.02-.12.02-.11,0-.21-.04-.29-.13-.08-.08-.13-.18-.13-.29v-.31Z" fill="#fff"/>
      <path d="m79.76,218.09c.05.07.08.13.08.2,0,.08-.03.15-.09.21-.06.06-.13.09-.21.09h-2.23c-.08,0-.15-.03-.21-.09-.06-.06-.09-.13-.09-.21,0-.07.03-.13.08-.2l.41-.49v-3.31l-.37-.33c-.08-.07-.12-.15-.12-.26,0-.17.08-.28.25-.34l1.56-.47c.06-.01.1-.02.13-.02.09,0,.16.03.22.08.12.08.19.19.19.34v.51c.17-.25.38-.48.62-.67.24-.19.52-.28.85-.28.23,0,.43.06.6.19.17.13.29.3.35.51.03.12.03.25,0,.39-.03.13-.08.26-.15.37-.08.11-.18.2-.3.27-.12.07-.27.1-.44.1-.11,0-.21-.04-.31-.11-.09-.07-.19-.15-.27-.23-.09-.08-.17-.16-.25-.23-.08-.07-.16-.11-.25-.11-.07,0-.14.03-.21.09-.08.06-.16.17-.25.32v3.2l.41.49Z" fill="#fff"/>
    </g>
  </g>
  <g id="d" data-name="Rect">
    <rect width="300" height="250" fill="none"/>
  </g>
</svg>