<svg height="90" viewBox="0 0 728 90" width="728" xmlns="http://www.w3.org/2000/svg"><g fill="#fff"><path d="m252.93 64.58c-.43.82-1.05 1.82-1.85 3s-1.85 2.3-3.14 3.38c-1.29 1.07-2.82 1.99-4.61 2.76s-3.86 1.15-6.22 1.15c-1.72 0-3.63-.32-5.73-.96-2.11-.64-4.1-1.72-5.98-3.24s-3.45-3.54-4.72-6.06-1.9-5.65-1.9-9.41.63-6.89 1.9-9.41 2.84-4.54 4.72-6.06 3.87-2.6 5.98-3.24 4.02-.96 5.73-.96c1.5 0 2.98.15 4.45.46 1.46.3 2.87.8 4.21 1.5s2.57 1.63 3.7 2.81 2.1 2.63 2.92 4.34c.32.68.49 1.39.51 2.14s-.1 1.46-.35 2.12-.63 1.25-1.13 1.77-1.11.92-1.82 1.21l-.05.05c-.68.29-1.36.43-2.04.43-1.14 0-2.21-.37-3.19-1.1s-1.63-1.71-1.96-2.92c-.68-2.5-1.72-4.39-3.14-5.68-1.41-1.29-2.97-1.93-4.69-1.93-1.32 0-2.38.4-3.16 1.21-.79.8-1.39 1.8-1.8 2.97-.41 1.18-.67 2.42-.78 3.72s-.16 2.44-.16 3.4c0 1.97.29 3.93.86 5.9s1.38 3.73 2.44 5.31c1.05 1.57 2.34 2.84 3.86 3.81 1.52.96 3.24 1.45 5.17 1.45 1.18 0 2.26-.2 3.24-.59s1.85-.88 2.6-1.45 1.39-1.18 1.93-1.82.96-1.21 1.29-1.72c.36-.54.84-.8 1.45-.8.25 0 .48.05.7.16.43.21.71.55.86.99.14.45.11.88-.11 1.31z"/><path d="m268.2 46.31c2.14 0 4.11.36 5.9 1.07 1.79.72 3.32 1.7 4.61 2.95s2.29 2.75 3 4.5 1.07 3.68 1.07 5.79-.36 3.98-1.07 5.73c-.72 1.75-1.72 3.26-3 4.53-1.29 1.27-2.82 2.25-4.61 2.95s-3.75 1.05-5.9 1.05-4.11-.35-5.9-1.05-3.31-1.68-4.58-2.95-2.26-2.78-2.97-4.53c-.72-1.75-1.07-3.66-1.07-5.73s.36-4.04 1.07-5.79 1.71-3.25 2.97-4.5c1.27-1.25 2.8-2.23 4.58-2.95 1.79-.71 3.75-1.07 5.9-1.07zm-1.98 3.16c-1.61.25-2.66 1.3-3.16 3.16s-.39 4.81.32 8.84c.68 3.72 1.5 6.37 2.47 7.96.96 1.59 2.14 2.39 3.54 2.39.36 0 .62-.02.8-.05 1.64-.29 2.71-1.35 3.22-3.19.5-1.84.39-4.78-.32-8.82-.68-3.72-1.5-6.37-2.47-7.96-.96-1.59-2.16-2.38-3.59-2.38-.36 0-.63.02-.8.05z"/><path d="m283.31 72.84c0-.39.12-.71.38-.96l2.04-2.41v-16.24l-1.82-1.61c-.39-.32-.59-.75-.59-1.29 0-.82.41-1.37 1.23-1.66l7.66-2.3c.29-.07.5-.11.64-.11.43 0 .79.13 1.07.38.61.39.91.95.91 1.66v1.07c.82-.82 1.79-1.53 2.89-2.12 1.11-.59 2.38-.88 3.81-.88.68 0 1.38.07 2.12.21.73.14 1.46.39 2.2.75.73.36 1.42.83 2.06 1.42s1.2 1.33 1.66 2.22c.43-.54.91-1.08 1.45-1.63s1.14-1.04 1.82-1.47 1.42-.79 2.22-1.07c.8-.29 1.67-.43 2.6-.43 1 0 2.05.17 3.16.51s2.13.92 3.08 1.74 1.72 1.95 2.33 3.38.91 3.23.91 5.41v12.06l2.04 2.41c.21.25.32.57.32.96s-.14.74-.43 1.05c-.29.3-.64.46-1.07.46h-10.88c-.43 0-.79-.15-1.07-.46-.29-.3-.43-.65-.43-1.05s.11-.71.32-.96l2.09-2.41v-10.99c0-3.18-.21-5.41-.64-6.7s-1.25-1.93-2.47-1.93c-.86 0-1.66.35-2.41 1.04-.75.7-1.43 1.47-2.04 2.33.32 1.18.48 2.57.48 4.18v12.06l2.04 2.41c.25.25.38.57.38.96s-.15.74-.46 1.05c-.3.3-.65.46-1.05.46h-10.88c-.43 0-.8-.15-1.1-.46-.3-.3-.46-.65-.46-1.05 0-.32.12-.64.38-.96l2.04-2.41v-10.99c0-3.18-.21-5.41-.64-6.7s-1.23-1.93-2.41-1.93c-.75 0-1.47.27-2.14.8-.68.54-1.29 1.16-1.82 1.88v16.94l2.04 2.41c.21.25.32.57.32.96s-.14.74-.43 1.05c-.29.3-.64.46-1.07.46h-10.88c-.39 0-.74-.15-1.05-.46-.3-.3-.46-.65-.46-1.05z"/><path d="m342.11 49.26v20.21l2.04 2.41c.21.25.32.57.32.96s-.14.74-.43 1.05c-.29.3-.64.46-1.07.46h-10.88c-.43 0-.79-.15-1.07-.46-.29-.3-.43-.65-.43-1.05s.11-.71.32-.96l2.09-2.41v-20.21h-.96c-.39-.04-.73-.2-1.02-.48-.29-.29-.43-.62-.43-1.02s.14-.74.43-1.04.64-.44 1.07-.4h.91c0-1.72.22-3.23.67-4.56.45-1.32 1.07-2.45 1.88-3.38.8-.93 1.75-1.63 2.84-2.12 1.09-.48 2.26-.72 3.51-.72 1.07 0 2.01.23 2.81.7.8.46 1.51 1 2.12 1.61.29.32.49.67.62 1.04.12.38.17.76.13 1.15s-.15.77-.35 1.13-.47.66-.83.91c-.46.32-.98.48-1.55.48-.61 0-1.15-.17-1.63-.51s-.83-.81-1.05-1.42c-.21-.68-.52-1.28-.91-1.8s-.95-.78-1.66-.78c-.82 0-1.42.24-1.8.72s-.56 1.03-.56 1.63c0 .96.22 1.8.67 2.52s.96 1.31 1.53 1.8c.57.48 1.11.85 1.61 1.1s.82.41.96.48l3.54.05c.39 0 .73.14 1.02.43s.43.63.43 1.02c0 .43-.14.79-.43 1.07-.29.29-.63.43-1.02.43l-3.43-.05z"/><path d="m361.08 46.31c2.14 0 4.11.36 5.9 1.07 1.79.72 3.32 1.7 4.61 2.95s2.29 2.75 3 4.5 1.07 3.68 1.07 5.79-.36 3.98-1.07 5.73c-.72 1.75-1.72 3.26-3 4.53-1.29 1.27-2.82 2.25-4.61 2.95s-3.75 1.05-5.9 1.05-4.11-.35-5.9-1.05-3.31-1.68-4.58-2.95-2.26-2.78-2.97-4.53c-.72-1.75-1.07-3.66-1.07-5.73s.36-4.04 1.07-5.79 1.71-3.25 2.97-4.5c1.27-1.25 2.8-2.23 4.58-2.95 1.79-.71 3.75-1.07 5.9-1.07zm-1.98 3.16c-1.61.25-2.66 1.3-3.16 3.16s-.39 4.81.32 8.84c.68 3.72 1.5 6.37 2.47 7.96.96 1.59 2.14 2.39 3.54 2.39.36 0 .62-.02.8-.05 1.64-.29 2.71-1.35 3.22-3.19.5-1.84.39-4.78-.32-8.82-.68-3.72-1.5-6.37-2.47-7.96-.96-1.59-2.16-2.38-3.59-2.38-.36 0-.63.02-.8.05z"/><path d="m389.76 71.87c.25.32.38.64.38.96 0 .39-.15.74-.46 1.05-.3.3-.65.46-1.05.46h-10.93c-.39 0-.74-.15-1.05-.46-.3-.3-.46-.65-.46-1.05 0-.32.12-.64.38-.96l2.04-2.41v-16.24l-1.82-1.61c-.39-.32-.59-.75-.59-1.29 0-.82.41-1.37 1.23-1.66l7.66-2.3c.29-.07.5-.11.64-.11.43 0 .79.13 1.07.38.61.39.91.95.91 1.66v2.52c.86-1.25 1.88-2.34 3.05-3.27 1.18-.93 2.57-1.39 4.18-1.39 1.11 0 2.09.31 2.95.94s1.43 1.46 1.72 2.49c.14.61.15 1.24.03 1.9-.13.66-.38 1.26-.75 1.8s-.87.97-1.47 1.31c-.61.34-1.32.51-2.14.51-.54 0-1.04-.18-1.5-.54s-.91-.74-1.34-1.15-.84-.79-1.23-1.15-.8-.54-1.23-.54c-.32 0-.67.15-1.05.46-.38.3-.78.83-1.21 1.58v15.7z"/><path d="m416.82 47.81c0 .43-.14.79-.43 1.07-.29.29-.63.43-1.02.43l-4.07-.05v17.1c0 .96.21 1.75.64 2.36s1.09.91 1.98.91c.36 0 .69-.05.99-.16s.58-.25.83-.43c.29-.18.55-.27.8-.27.43 0 .75.14.96.43l.05.05c.25.29.37.61.37.96s-.14.66-.43.91c-.36.36-.81.75-1.37 1.18-.55.43-1.21.83-1.96 1.21s-1.6.7-2.55.96c-.95.27-1.97.4-3.08.4-.75 0-1.51-.14-2.28-.43s-1.46-.71-2.06-1.26c-.61-.55-1.1-1.25-1.47-2.09-.38-.84-.56-1.81-.56-2.92v-18.92h-1.29c-.46-.04-.87-.21-1.21-.54-.34-.32-.51-.73-.51-1.23 0-.36.11-.68.32-.96.21-.29.48-.5.8-.64 2.43-.89 4.31-1.94 5.65-3.14s2.31-2.22 2.92-3.08c.29-.36.66-.54 1.13-.54.39 0 .71.13.94.38s.35.57.35.96v5.84l4.07.05c.39 0 .73.14 1.02.43s.43.63.43 1.02z"/><path d="m445.23 40.68c.11-.18.11-.37 0-.56-.11-.2-.25-.29-.43-.29h-3.38c-2 0-3.87.47-5.6 1.42s-3.15 2.26-4.26 3.94l-1.23 1.82c-.21.39-.57.59-1.07.59-.39 0-.72-.12-.96-.38-.25-.25-.38-.57-.38-.96v-9.11c0-.43.15-.8.46-1.13.3-.32.69-.48 1.15-.48h23.64c.93 0 1.71.32 2.36.96.64.64.96 1.43.96 2.36 0 .61-.18 1.22-.54 1.82l-18.17 28.57c-.11.18-.11.36 0 .54s.25.27.43.27h4.72c2.04 0 3.92-.46 5.65-1.39s3.15-2.25 4.26-3.97l1.18-1.77c.32-.43.7-.64 1.13-.64.39 0 .71.13.96.4s.37.58.37.94v9.11c0 .46-.16.85-.48 1.15s-.7.46-1.13.46h-25.03c-.93 0-1.72-.32-2.36-.96s-.96-1.43-.96-2.36c0-.57.18-1.16.54-1.77l18.17-28.57z"/><path d="m471.54 46.31c2.14 0 4.11.36 5.9 1.07 1.79.72 3.32 1.7 4.61 2.95s2.29 2.75 3 4.5 1.07 3.68 1.07 5.79-.36 3.98-1.07 5.73c-.72 1.75-1.72 3.26-3 4.53-1.29 1.27-2.82 2.25-4.61 2.95s-3.75 1.05-5.9 1.05-4.11-.35-5.9-1.05-3.31-1.68-4.58-2.95-2.26-2.78-2.97-4.53c-.72-1.75-1.07-3.66-1.07-5.73s.36-4.04 1.07-5.79 1.71-3.25 2.97-4.5c1.27-1.25 2.8-2.23 4.58-2.95 1.79-.71 3.75-1.07 5.9-1.07zm-1.98 3.16c-1.61.25-2.66 1.3-3.16 3.16s-.39 4.81.32 8.84c.68 3.72 1.5 6.37 2.47 7.96.96 1.59 2.14 2.39 3.54 2.39.36 0 .62-.02.8-.05 1.64-.29 2.71-1.35 3.22-3.19.5-1.84.39-4.78-.32-8.82-.68-3.72-1.5-6.37-2.47-7.96-.96-1.59-2.16-2.38-3.59-2.38-.36 0-.63.02-.8.05z"/><path d="m504.34 74.34c-.43 0-.79-.15-1.07-.46-.29-.3-.43-.65-.43-1.05s.11-.71.32-.96l2.04-2.41v-10.99c0-3.18-.21-5.41-.64-6.7s-1.23-1.93-2.41-1.93c-.72 0-1.41.27-2.09.8-.68.54-1.3 1.16-1.88 1.88v16.94l2.04 2.41c.25.32.38.64.38.96 0 .39-.15.74-.46 1.05-.3.3-.65.46-1.04.46h-10.93c-.39 0-.74-.15-1.05-.46-.3-.3-.46-.65-.46-1.05 0-.32.12-.64.38-.96l2.04-2.41v-16.24l-1.82-1.61c-.39-.32-.59-.75-.59-1.29 0-.82.41-1.37 1.23-1.66l7.66-2.3c.29-.07.5-.11.64-.11.43 0 .79.13 1.07.38.61.39.91.95.91 1.66v1.07c.82-.82 1.8-1.53 2.92-2.12s2.38-.88 3.78-.88c1 0 2.05.17 3.16.51s2.13.92 3.05 1.74c.93.82 1.7 1.95 2.3 3.38.61 1.43.91 3.23.91 5.41v12.06l2.04 2.41c.25.25.38.57.38.96s-.15.74-.46 1.05c-.3.3-.65.46-1.05.46h-10.88z"/><path d="m544.06 66.73c-.32.64-.81 1.43-1.47 2.36s-1.5 1.82-2.52 2.68-2.26 1.59-3.72 2.2c-1.47.61-3.16.91-5.09.91-2.14 0-4.08-.35-5.82-1.05-1.73-.7-3.2-1.68-4.39-2.95-1.2-1.27-2.13-2.78-2.79-4.53s-.99-3.66-.99-5.73.36-4.04 1.07-5.79 1.71-3.25 2.97-4.5c1.27-1.25 2.8-2.23 4.58-2.95 1.79-.71 3.75-1.07 5.9-1.07 2.54 0 4.87.77 6.99 2.3 2.13 1.54 3.74 3.98 4.85 7.34.14.39.12.79-.08 1.18s-.49.66-.88.8l-15.92 5.9c.79 1.43 1.83 2.63 3.14 3.59 1.3.96 2.94 1.45 4.9 1.45.86 0 1.64-.13 2.36-.4.71-.27 1.37-.59 1.96-.96s1.1-.78 1.53-1.21.79-.8 1.07-1.13c.29-.32.64-.48 1.07-.48.21 0 .43.05.64.16.36.18.6.45.72.8.12.36.1.72-.08 1.07zm-15.06-16.94c-.36 0-.73.05-1.13.16-.64.21-1.19.7-1.63 1.45-.45.75-.77 1.64-.96 2.68-.2 1.04-.27 2.16-.21 3.38.05 1.22.26 2.43.62 3.64l10.18-3.81c-1.04-2.64-2.15-4.56-3.35-5.73-1.2-1.18-2.37-1.77-3.51-1.77z"/><path d="m244.85 19.79c-.22 0-.39-.1-.51-.31-.12-.22-.3-.52-.55-.91-.25-.38-.57-.76-.97-1.12-.4-.37-.86-.68-1.39-.96-.53-.27-1.13-.41-1.81-.41-.73 0-1.32.17-1.77.5s-.68.79-.68 1.37.22 1.07.65 1.47.98.77 1.63 1.11 1.36.69 2.12 1.03c.76.35 1.46.77 2.12 1.25.65.48 1.2 1.06 1.63 1.74.43.67.65 1.51.65 2.51s-.2 1.92-.61 2.65-.94 1.32-1.58 1.77c-.65.45-1.38.78-2.19.98s-1.63.31-2.45.31c-1.33 0-2.45-.14-3.37-.43s-1.62-.57-2.09-.84c-.54-.31-.82-.76-.82-1.35v-3.55c0-.15.06-.29.18-.41s.26-.18.43-.18c.24 0 .42.12.54.36.12.27.31.66.59 1.15.27.49.61.98 1.01 1.45.4.48.87.89 1.4 1.24.54.35 1.13.52 1.77.52.83 0 1.48-.19 1.93-.57s.68-.97.68-1.77c0-.68-.22-1.24-.65-1.68s-.97-.84-1.62-1.19-1.35-.69-2.12-1.03-1.47-.75-2.12-1.23-1.19-1.05-1.62-1.74c-.43-.68-.65-1.54-.65-2.58s.24-1.82.73-2.46 1.07-1.14 1.76-1.49c.69-.36 1.42-.6 2.19-.74s1.44-.2 2-.2c1.26 0 2.33.12 3.22.36.88.24 1.57.48 2.07.71.27.12.49.31.65.56.16.26.24.53.24.82v2.71c0 .17-.06.31-.17.42s-.25.17-.42.17h-.03z"/><path d="m251.03 19.15c.2 0 .37.06.51.18.29.19.43.45.43.79v10.08l.97 1.15c.1.12.15.27.15.46s-.07.35-.2.5c-.14.14-.31.22-.51.22h-5.18c-.19 0-.35-.07-.5-.22-.14-.14-.22-.31-.22-.5s.06-.34.18-.46l.97-1.15v-7.73l-.87-.77c-.19-.15-.28-.36-.28-.61 0-.39.2-.65.59-.79l3.65-1.1c.14-.03.24-.05.31-.05zm-3.98-2.5c-.07-.32-.07-.64-.01-.96.06-.31.18-.6.36-.87.18-.26.4-.49.68-.69.27-.2.59-.34.94-.42.2-.05.41-.08.61-.08.58 0 1.1.17 1.56.51s.76.78.89 1.33c.14.65.02 1.25-.36 1.81-.37.56-.92.93-1.63 1.1-.2.05-.42.08-.64.08-.58 0-1.09-.17-1.54-.5s-.74-.77-.85-1.31z"/><path d="m258.81 20.17c.39-.26.86-.48 1.4-.68s1.17-.29 1.89-.29 1.34.12 1.93.37 1.09.61 1.52 1.1c.43.48.76 1.09 1 1.81s.36 1.56.36 2.51c0 1.24-.18 2.34-.54 3.28s-.86 1.73-1.51 2.36-1.42 1.1-2.31 1.42-1.88.47-2.97.47h-.77v3.68l1 1.15c.1.14.15.29.15.46 0 .19-.07.35-.2.5-.14.14-.31.22-.51.22h-5.18c-.2 0-.37-.07-.51-.22-.14-.14-.2-.31-.2-.5 0-.17.05-.32.15-.46l.97-1.15v-13.73l-.84-.77c-.19-.15-.28-.36-.28-.61 0-.39.2-.65.59-.79l3.62-1.1c.14-.03.24-.05.31-.05.26 0 .48.09.66.28.19.19.28.42.28.69v.05zm0 10.9c.05.02.13.03.23.03.65 0 1.19-.11 1.63-.32s.8-.54 1.08-.98.48-1.01.61-1.71.19-1.54.19-2.53c0-1.36-.2-2.4-.59-3.11s-.94-1.07-1.66-1.07c-.31 0-.58.05-.83.15s-.47.24-.68.41v9.14z"/><path d="m275.53 19.15c.2 0 .37.06.51.18.29.19.43.45.43.79v10.08l.97 1.15c.1.12.15.27.15.46s-.07.35-.2.5c-.14.14-.31.22-.51.22h-5.18c-.19 0-.35-.07-.5-.22-.14-.14-.22-.31-.22-.5s.06-.34.18-.46l.97-1.15v-7.73l-.87-.77c-.19-.15-.28-.36-.28-.61 0-.39.2-.65.59-.79l3.65-1.1c.14-.03.24-.05.31-.05zm-3.98-2.5c-.07-.32-.07-.64-.01-.96.06-.31.18-.6.36-.87.18-.26.4-.49.68-.69.27-.2.59-.34.94-.42.2-.05.41-.08.61-.08.58 0 1.1.17 1.56.51s.76.78.89 1.33c.14.65.02 1.25-.36 1.81-.37.56-.92.93-1.63 1.1-.2.05-.42.08-.64.08-.58 0-1.09-.17-1.54-.5s-.74-.77-.85-1.31z"/><path d="m286.53 32.52c-.2 0-.37-.07-.51-.22-.14-.14-.2-.31-.2-.5s.05-.34.15-.46l.97-1.15v-5.23c0-1.51-.1-2.58-.31-3.19-.2-.61-.59-.92-1.15-.92-.34 0-.67.13-1 .38-.32.26-.62.55-.89.89v8.06l.97 1.15c.12.15.18.31.18.46 0 .19-.07.35-.22.5-.14.14-.31.22-.5.22h-5.21c-.19 0-.35-.07-.5-.22-.14-.14-.22-.31-.22-.5 0-.15.06-.31.18-.46l.97-1.15v-7.73l-.87-.77c-.19-.15-.28-.36-.28-.61 0-.39.2-.65.59-.79l3.65-1.1c.14-.03.24-.05.31-.05.2 0 .37.06.51.18.29.19.43.45.43.79v.51c.39-.39.85-.73 1.39-1.01s1.14-.42 1.8-.42c.48 0 .98.08 1.51.24s1.01.44 1.45.83.81.93 1.1 1.61.43 1.54.43 2.58v5.74l.97 1.15c.12.12.18.27.18.46s-.07.35-.22.5-.31.22-.5.22h-5.18z"/><path d="m300.69 29.87c.17 0 .32.07.46.2v.03c.14.14.2.29.19.46 0 .17-.08.31-.22.43-.17.17-.39.36-.65.56s-.57.4-.93.57c-.36.18-.76.33-1.2.46s-.93.19-1.45.19c-.37 0-.74-.07-1.1-.2-.36-.14-.68-.34-.97-.6s-.52-.6-.7-1-.27-.86-.27-1.39v-9.01h-.61c-.24-.02-.43-.1-.59-.26-.15-.15-.23-.35-.23-.59 0-.37.18-.63.54-.77 1.16-.43 2.05-.92 2.69-1.49s1.1-1.06 1.39-1.47c.14-.17.31-.26.54-.26.05 0 .13.02.23.05.26.1.38.3.38.59v2.22c.73-.19 1.46-.45 2.19-.8s1.46-.73 2.18-1.14 1.45-.82 2.17-1.24 1.44-.8 2.14-1.14c.71-.34 1.4-.62 2.09-.84s1.37-.33 2.05-.33c.54 0 1.03.05 1.47.14.43.09.82.21 1.16.34.36.15.63.37.83.66s.31.6.33.93c.03.33-.03.66-.17.98s-.36.59-.66.79c-.34.24-.71.36-1.12.36-.48 0-.9-.16-1.28-.48-.31-.29-.67-.51-1.1-.66s-.92-.23-1.48-.23c-.65 0-1.37.15-2.18.46s-1.68.68-2.62 1.11-1.91.88-2.92 1.34-2.05.84-3.1 1.15v8.7c0 .46.1.83.31 1.12.2.29.52.43.94.43.17 0 .33-.03.47-.08s.28-.12.4-.2c.14-.08.26-.13.38-.13z"/><path d="m308.02 19.17c1.02 0 1.96.17 2.81.51s1.58.81 2.19 1.4c.61.6 1.09 1.31 1.43 2.14s.51 1.75.51 2.76-.17 1.9-.51 2.73-.82 1.55-1.43 2.16c-.61.6-1.34 1.07-2.19 1.4s-1.79.5-2.81.5-1.96-.17-2.81-.5-1.58-.8-2.18-1.4-1.08-1.32-1.42-2.16c-.34-.83-.51-1.74-.51-2.73s.17-1.92.51-2.76c.34-.83.81-1.55 1.42-2.14.6-.6 1.33-1.06 2.18-1.4s1.79-.51 2.81-.51zm-.94 1.51c-.77.12-1.27.62-1.51 1.51-.24.88-.19 2.29.15 4.21.32 1.77.71 3.03 1.17 3.79s1.02 1.14 1.68 1.14c.17 0 .3 0 .38-.03.78-.14 1.29-.64 1.53-1.52s.19-2.28-.15-4.2c-.32-1.77-.71-3.03-1.17-3.79s-1.03-1.14-1.71-1.14c-.17 0-.3 0-.38.03z"/><path d="m333.11 19.2c.19 0 .35.07.48.2.14.14.2.3.2.48s-.07.35-.2.48l-1.15 1.15-5.61 12.38c-.27.63-.6 1.23-.98 1.81s-.82 1.08-1.31 1.52c-.49.43-1.04.78-1.65 1.03-.6.26-1.28.38-2.03.38-.58 0-1.1-.17-1.56-.5s-.76-.77-.89-1.31c-.07-.32-.07-.64-.01-.96.06-.31.18-.6.36-.87.18-.26.41-.49.69-.69s.59-.34.93-.42c.08-.03.16-.05.22-.05h.73c.51 0 .96.06 1.34.19s.72.19 1.01.19c.24 0 .45-.06.63-.19s.35-.38.52-.75l.36-.77-4.98-11-1.15-1.15c-.14-.12-.2-.28-.2-.48 0-.19.07-.35.2-.48.14-.14.3-.2.48-.2h5.95c.2 0 .38.07.52.22.14.14.22.32.22.52 0 .15-.04.3-.13.43l-.84 1.15 2.17 4.98c.05.1.13.15.23.15s.18-.05.23-.15l2.35-5.21-.82-.92c-.15-.15-.21-.34-.18-.56.03-.19.11-.34.24-.45s.28-.17.47-.17h3.16z"/><path d="m339.69 19.17c1.02 0 1.96.17 2.81.51s1.58.81 2.19 1.4c.61.6 1.09 1.31 1.43 2.14s.51 1.75.51 2.76-.17 1.9-.51 2.73-.82 1.55-1.43 2.16c-.61.6-1.34 1.07-2.19 1.4s-1.79.5-2.81.5-1.96-.17-2.81-.5-1.58-.8-2.18-1.4-1.08-1.32-1.42-2.16c-.34-.83-.51-1.74-.51-2.73s.17-1.92.51-2.76c.34-.83.81-1.55 1.42-2.14.6-.6 1.33-1.06 2.18-1.4s1.79-.51 2.81-.51zm-.94 1.51c-.77.12-1.27.62-1.51 1.51-.24.88-.19 2.29.15 4.21.32 1.77.71 3.03 1.17 3.79s1.02 1.14 1.68 1.14c.17 0 .3 0 .38-.03.78-.14 1.29-.64 1.53-1.52s.19-2.28-.15-4.2c-.32-1.77-.71-3.03-1.17-3.79s-1.03-1.14-1.71-1.14c-.17 0-.3 0-.38.03z"/><path d="m355.59 31.14c-.39.44-.85.83-1.38 1.15s-1.13.49-1.81.49c-.46 0-.95-.08-1.48-.24s-1.02-.44-1.47-.83-.82-.93-1.11-1.61-.43-1.54-.43-2.58v-6l-.97-1.15c-.12-.15-.18-.31-.18-.46 0-.19.07-.35.22-.5.14-.14.31-.22.5-.22h4.01c.22 0 .4.07.55.22.14.14.22.33.22.55v7.04c0 .77.02 1.4.06 1.9s.12.91.24 1.21c.12.31.27.52.46.65s.42.19.69.19c.36 0 .7-.14 1.02-.42s.61-.61.87-.98v-8.04l-.97-1.15c-.1-.14-.15-.29-.15-.46 0-.19.07-.35.2-.5.14-.14.31-.22.51-.22h3.98c.22 0 .4.07.55.22.14.14.22.33.22.55v9.55l.87.74c.17.17.26.36.28.56.02.19-.03.36-.14.52s-.26.28-.45.34l-3.65 1.1c-.14.03-.23.05-.28.05-.26 0-.48-.1-.68-.29-.2-.2-.29-.42-.29-.68v-.71z"/><path d="m368.07 31.35c.12.15.18.31.18.46 0 .19-.07.35-.22.5-.14.14-.31.22-.5.22h-5.21c-.19 0-.35-.07-.5-.22-.14-.14-.22-.31-.22-.5 0-.15.06-.31.18-.46l.97-1.15v-7.73l-.87-.77c-.19-.15-.28-.36-.28-.61 0-.39.2-.65.59-.79l3.65-1.1c.14-.03.24-.05.31-.05.2 0 .37.06.51.18.29.19.43.45.43.79v1.2c.41-.6.89-1.11 1.45-1.56.56-.44 1.23-.66 1.99-.66.53 0 1 .15 1.4.45.41.3.68.69.82 1.19.07.29.07.59.01.91s-.18.6-.36.86-.41.46-.7.63c-.29.16-.63.24-1.02.24-.26 0-.49-.08-.71-.26-.22-.17-.43-.35-.64-.55-.2-.2-.4-.38-.59-.55s-.38-.26-.59-.26c-.15 0-.32.07-.5.22-.18.14-.37.4-.57.75v7.48l.97 1.15z"/></g><path d="m0 0h728v90h-728z" fill="none"/></svg>