<svg height="600" viewBox="0 0 300 600" width="300" xmlns="http://www.w3.org/2000/svg"><g fill="#fefefe"><path d="m72.93 30.58c.48 0 .86.38.86.86v.03c0 .22-.06.42-.22.58l-2.21 2.3-8.32 19.29c-.19.45-.64.74-1.12.74s-.93-.29-1.12-.74l-5.86-13.63-5.86 13.63c-.19.45-.64.74-1.12.74s-.93-.29-1.12-.74l-8.29-19.29-2.21-2.27c-.16-.19-.26-.38-.26-.61 0-.48.38-.9.86-.9h8.8c.48 0 .86.38.86.86 0 .26-.1.48-.26.64l-1.73 1.66 4.77 11.68 3.9-9.25-.8-1.82-2.21-2.27c-.16-.19-.26-.38-.26-.61 0-.48.38-.9.86-.9h8.83c.48 0 .86.38.86.86 0 .26-.1.48-.29.64l-1.73 1.66 4.77 11.68 4.93-11.71-1.7-1.63c-.16-.16-.26-.38-.26-.64 0-.48.38-.86.86-.86h5.73z"/><path d="m77.54 47.47c.93 1.7 2.46 3.01 4.8 3.01 2.05 0 3.46-1.41 4.13-2.21.16-.19.38-.29.64-.29.13 0 .26.03.38.1.42.19.61.7.38 1.12-.8 1.57-3.01 4.86-7.65 4.86-5.12 0-8.35-3.52-8.35-8.51s3.55-8.54 8.67-8.54c3.01 0 5.76 1.76 7.07 5.76.16.48-.1 1.02-.58 1.18l-9.5 3.52zm-.64-1.63 6.08-2.27c-1.22-3.14-2.72-4.48-4.1-4.48-.22 0-.45.03-.67.1-1.57.54-2.14 3.78-1.31 6.66z"/><path d="m114.4 50.83 1.25 1.44c.13.16.19.35.19.58 0 .48-.38.9-.9.9h-6.5c-.51 0-.9-.42-.9-.9 0-.22.06-.42.19-.58l1.22-1.44v-6.56c0-3.81-.38-5.15-1.82-5.15-.86 0-1.7.74-2.37 1.6v10.11l1.22 1.44c.13.16.22.35.22.58 0 .48-.42.9-.9.9h-6.53c-.48 0-.9-.42-.9-.9 0-.22.1-.42.22-.58l1.22-1.44v-15.97l-1.09-.96c-.22-.19-.35-.48-.35-.77 0-.45.32-.86.74-.99l4.58-1.38c.13-.03.26-.06.38-.06.22 0 .45.06.64.22.35.22.54.58.54.99v6.91c.99-.96 2.34-1.79 4-1.79 2.37 0 5.63 1.38 5.63 6.59v7.2z"/><path d="m133.16 50.83 1.22 1.44c.16.16.22.35.22.58 0 .48-.42.9-.9.9h-3.65c-1.12 0-2.08-.8-2.27-1.86-1.25 1.09-3.01 2.18-5.12 2.18-2.91 0-5.22-1.44-5.22-4.26 0-4.42 7.26-5.86 10.27-6.24v-1.02c0-2.98-1.31-4.1-2.69-4.1-1.47 0-2.05 1.34-2.27 2.88-.13.99-.99 1.76-2.02 1.76-1.7 0-2.69-1.92-1.66-3.26 1.38-1.89 3.97-2.82 6.5-2.82 4.38 0 7.58 1.5 7.58 6.4v7.42zm-8.13.74c.93 0 1.92-.67 2.69-1.41v-5.22c-2.02.32-4.51 1.47-4.51 4.32 0 1.54.58 2.3 1.82 2.3z"/><path d="m153.03 37.9c0 .22-.1.45-.26.61l-1.44 1.44-3.78 11.74c-.51 1.6-2.02 2.69-3.68 2.69h-.13c-1.7 0-3.17-1.09-3.68-2.69l-3.78-11.74-1.44-1.44c-.19-.16-.26-.38-.26-.61 0-.48.38-.86.86-.86h6.82c.51 0 .93.42.93.93 0 .19-.06.38-.16.54l-1.06 1.44 3.01 10.02c.03.13.16.22.29.22s.29-.1.32-.22l3.26-10.3-1.02-1.15c-.19-.19-.26-.45-.22-.7.06-.45.45-.77.9-.77h3.65c.48 0 .86.38.86.86z"/><path d="m158.69 47.47c.93 1.7 2.46 3.01 4.8 3.01 2.05 0 3.46-1.41 4.13-2.21.16-.19.38-.29.64-.29.13 0 .26.03.38.1.42.19.61.7.38 1.12-.8 1.57-3.01 4.86-7.65 4.86-5.12 0-8.35-3.52-8.35-8.51s3.55-8.54 8.67-8.54c3.01 0 5.76 1.76 7.07 5.76.16.48-.1 1.02-.58 1.18l-9.5 3.52zm-.64-1.63 6.08-2.27c-1.22-3.14-2.72-4.48-4.1-4.48-.22 0-.45.03-.67.1-1.57.54-2.14 3.78-1.31 6.66z"/><path d="m45.41 75.41c5.15 0 8.7 3.55 8.7 8.54s-3.55 8.51-8.7 8.51-8.67-3.52-8.67-8.51 3.55-8.54 8.67-8.54zm-2.88 9.06c.8 4.42 1.92 6.18 3.58 6.18.16 0 .32 0 .48-.03 1.95-.35 2.56-2.34 1.73-7.17-.8-4.42-1.92-6.18-3.62-6.18-.16 0-.32 0-.48.03-1.92.32-2.56 2.34-1.7 7.17z"/><path d="m72.77 92.14h-6.5c-.51 0-.9-.42-.9-.9 0-.22.06-.42.19-.58l1.22-1.44v-6.56c0-3.81-.42-5.15-1.82-5.15-.86 0-1.7.74-2.37 1.6v10.11l1.22 1.44c.13.16.22.35.22.58 0 .48-.42.9-.9.9h-6.53c-.48 0-.9-.42-.9-.9 0-.22.1-.42.22-.58l1.22-1.44v-9.7l-1.09-.96c-.22-.19-.35-.48-.35-.77 0-.45.29-.83.74-.99l4.58-1.38c.13-.03.26-.06.38-.06.22 0 .45.06.64.22.35.22.54.61.54.99v.64c.99-.96 2.34-1.79 4-1.79 2.37 0 5.63 1.38 5.63 6.59v7.2l1.22 1.44c.16.16.22.35.22.58 0 .48-.42.9-.9.9z"/><path d="m80.93 85.87c.93 1.7 2.46 3.01 4.8 3.01 2.05 0 3.46-1.41 4.13-2.21.16-.19.38-.29.64-.29.13 0 .26.03.38.1.42.19.61.7.38 1.12-.8 1.57-3.01 4.86-7.65 4.86-5.12 0-8.35-3.52-8.35-8.51s3.55-8.54 8.67-8.54c3.01 0 5.76 1.76 7.07 5.76.16.48-.1 1.02-.58 1.18l-9.5 3.52zm-.64-1.63 6.08-2.27c-1.22-3.14-2.72-4.48-4.1-4.48-.22 0-.45.03-.67.1-1.57.54-2.14 3.78-1.31 6.66z"/><path d="m112.68 80.65c-1.31 0-2.14-2.02-3.17-2.02-.38 0-.83.32-1.34 1.22v9.38l1.22 1.44c.13.16.22.35.22.58 0 .48-.42.9-.9.9h-6.53c-.48 0-.9-.42-.9-.9 0-.22.1-.42.22-.58l1.22-1.44v-9.7l-1.09-.96c-.22-.19-.35-.48-.35-.77 0-.45.29-.83.74-.99l4.58-1.38c.13-.03.26-.06.38-.06.22 0 .45.06.64.22.35.22.54.61.54.99v1.5c1.02-1.5 2.4-2.78 4.32-2.78 1.31 0 2.46.83 2.78 2.05.32 1.47-.64 3.3-2.59 3.3z"/><path d="m131.84 75.44c.54 0 .96.42.96.96v11.97l1.09.93c.19.19.32.42.35.7.03.48-.26.93-.74 1.09l-4.58 1.38c-.13.03-.26.06-.35.06-.64 0-1.22-.58-1.22-1.22v-.9c-.96 1.09-2.3 2.05-4 2.05-2.34 0-5.63-1.38-5.63-6.59v-7.52l-1.22-1.44c-.13-.16-.22-.35-.22-.58 0-.48.42-.9.9-.9h5.02c.54 0 .96.42.96.96v8.83c0 3.81.42 4.96 1.82 4.96.9 0 1.73-.83 2.37-1.76v-10.08l-1.22-1.44c-.13-.16-.19-.35-.19-.58 0-.48.38-.9.9-.9h4.99z"/><path d="m136.55 72.3c-.22-.19-.35-.48-.35-.77 0-.45.32-.86.74-.99l4.58-1.38c.13-.03.26-.06.38-.06.22 0 .45.06.64.22.35.22.54.58.54.99v18.91l1.22 1.44c.13.16.22.35.22.58 0 .48-.42.9-.9.9h-6.53c-.48 0-.9-.42-.9-.9 0-.22.1-.42.22-.58l1.22-1.44v-15.97l-1.09-.96z"/><path d="m151.78 85.87c.93 1.7 2.46 3.01 4.8 3.01 2.05 0 3.46-1.41 4.13-2.21.16-.19.38-.29.64-.29.13 0 .26.03.38.1.42.19.61.7.38 1.12-.8 1.57-3.01 4.86-7.65 4.86-5.12 0-8.35-3.52-8.35-8.51s3.55-8.54 8.67-8.54c3.01 0 5.76 1.76 7.07 5.76.16.48-.1 1.02-.58 1.18l-9.5 3.52zm-.64-1.63 6.08-2.27c-1.22-3.14-2.72-4.48-4.1-4.48-.22 0-.45.03-.67.1-1.57.54-2.14 3.78-1.31 6.66z"/><path d="m180.42 91.25c0 .48-.38.9-.9.9h-6.5c-.48 0-.9-.42-.9-.9 0-.22.06-.42.22-.58l1.22-1.44v-9.7l-1.09-.96c-.22-.19-.35-.48-.35-.77 0-.45.29-.83.74-.99l4.58-1.38c.13-.03.26-.06.38-.06.22 0 .45.06.64.22.35.22.54.61.54.99v12.64l1.22 1.44c.13.16.19.35.19.58zm-5.12-22.69c.26-.06.51-.1.77-.1 1.44 0 2.75.93 3.07 2.3.35 1.6-.74 3.23-2.5 3.65-.26.06-.54.1-.8.1-1.44 0-2.72-.93-3.01-2.27-.38-1.63.7-3.26 2.46-3.68z"/><path d="m199.4 92.14h-6.5c-.51 0-.9-.42-.9-.9 0-.22.06-.42.19-.58l1.22-1.44v-6.56c0-3.81-.42-5.15-1.82-5.15-.86 0-1.7.74-2.37 1.6v10.11l1.22 1.44c.13.16.22.35.22.58 0 .48-.42.9-.9.9h-6.53c-.48 0-.9-.42-.9-.9 0-.22.1-.42.22-.58l1.22-1.44v-9.7l-1.09-.96c-.22-.19-.35-.48-.35-.77 0-.45.29-.83.74-.99l4.58-1.38c.13-.03.26-.06.38-.06.22 0 .45.06.64.22.35.22.54.61.54.99v.64c.99-.96 2.33-1.79 4-1.79 2.37 0 5.63 1.38 5.63 6.59v7.2l1.22 1.44c.16.16.22.35.22.58 0 .48-.42.9-.9.9z"/><path d="m221.19 89.1c.29.32.29.83-.03 1.12-.86.83-2.69 2.24-5.34 2.24-1.82 0-3.81-1.34-3.81-4v-11.29h-.77c-.54-.03-1.02-.48-1.02-1.06 0-.42.29-.8.67-.96 2.91-1.06 4.38-2.69 5.12-3.71.16-.19.42-.32.67-.32.45 0 .77.35.77.8v3.49l2.43.03c.48 0 .86.38.86.86 0 .51-.38.9-.86.9l-2.43-.03v10.21c0 1.15.51 1.95 1.57 1.95.42 0 .8-.16 1.09-.35.16-.1.32-.16.48-.16.22 0 .45.1.58.26l.03.03z"/><path d="m239.2 89.23 1.25 1.44c.13.16.19.35.19.58 0 .48-.38.9-.9.9h-6.5c-.51 0-.9-.42-.9-.9 0-.22.06-.42.19-.58l1.22-1.44v-6.56c0-3.81-.38-5.15-1.82-5.15-.86 0-1.7.74-2.37 1.6v10.11l1.22 1.44c.13.16.22.35.22.58 0 .48-.42.9-.9.9h-6.53c-.48 0-.9-.42-.9-.9 0-.22.1-.42.22-.58l1.22-1.44v-15.97l-1.09-.96c-.22-.19-.35-.48-.35-.77 0-.45.32-.86.74-.99l4.58-1.38c.13-.03.26-.06.38-.06.22 0 .45.06.64.22.35.22.54.58.54.99v6.91c.99-.96 2.33-1.79 4-1.79 2.37 0 5.63 1.38 5.63 6.59v7.2z"/><path d="m247.91 85.87c.93 1.7 2.46 3.01 4.8 3.01 2.05 0 3.46-1.41 4.13-2.21.16-.19.38-.29.64-.29.13 0 .26.03.38.1.42.19.61.7.38 1.12-.8 1.57-3.01 4.86-7.65 4.86-5.12 0-8.35-3.52-8.35-8.51s3.55-8.54 8.67-8.54c3.01 0 5.76 1.76 7.07 5.76.16.48-.1 1.02-.58 1.18l-9.5 3.52zm-.64-1.63 6.08-2.27c-1.22-3.14-2.72-4.48-4.1-4.48-.22 0-.45.03-.67.1-1.57.54-2.14 3.78-1.31 6.66z"/><path d="m46.15 110.48c-3.2 0-3.52 4.42-3.52 6.75 0 4.74 2.78 9.82 7.36 9.82 2.85 0 4.64-2.14 5.41-3.33.19-.29.51-.48.86-.48.13 0 .29.03.42.1.51.26.7.86.45 1.38-.99 1.95-3.78 6.14-9.44 6.14-4.06 0-10.94-2.75-10.94-11.74s6.88-11.74 10.94-11.74c3.58 0 7.17 1.31 9.12 5.44.8 1.66.03 3.65-1.66 4.32l-.03.03c-.38.16-.8.26-1.22.26-1.38 0-2.69-.96-3.07-2.4-.8-2.98-2.62-4.54-4.67-4.54z"/><path d="m67.52 113.81c5.15 0 8.7 3.55 8.7 8.54s-3.55 8.51-8.7 8.51-8.67-3.52-8.67-8.51 3.55-8.54 8.67-8.54zm-2.88 9.06c.8 4.42 1.92 6.18 3.58 6.18.16 0 .32 0 .48-.03 1.95-.35 2.56-2.34 1.73-7.17-.8-4.42-1.92-6.18-3.62-6.18-.16 0-.32 0-.48.03-1.92.32-2.56 2.34-1.7 7.17z"/><path d="m83.14 113.84c.13-.03.26-.06.38-.06.22 0 .45.06.64.22.35.22.54.61.54.99v.64c.96-.96 2.3-1.79 4-1.79 1.6 0 3.68.64 4.8 2.75.99-1.28 2.62-2.75 4.83-2.75 2.37 0 5.66 1.38 5.66 6.59v7.2l1.22 1.44c.13.16.19.35.19.58 0 .48-.38.9-.9.9h-6.5c-.51 0-.9-.42-.9-.9 0-.22.06-.42.19-.58l1.25-1.44v-6.56c0-3.81-.42-5.15-1.86-5.15-1.02 0-1.95.99-2.66 2.02.19.7.29 1.54.29 2.5v7.2l1.22 1.44c.16.16.22.35.22.58 0 .48-.42.9-.9.9h-6.5c-.51 0-.93-.42-.93-.9 0-.22.1-.42.22-.58l1.22-1.44v-6.56c0-3.81-.42-5.15-1.82-5.15-.9 0-1.73.74-2.37 1.6v10.11l1.22 1.44c.13.16.19.35.19.58 0 .48-.38.9-.9.9h-6.5c-.48 0-.9-.42-.9-.9 0-.22.06-.42.22-.58l1.22-1.44v-9.7l-1.09-.96c-.22-.19-.35-.48-.35-.77 0-.45.29-.83.74-.99l4.58-1.38z"/><path d="m114.21 127.63 1.22 1.44c.13.16.19.35.19.58 0 .48-.38.9-.9.9h-6.5c-.51 0-.9-.42-.9-.9 0-.22.06-.42.19-.58l1.25-1.44v-12.06h-.58c-.48-.03-.86-.42-.86-.9s.38-.9.9-.86h.54c0-4.06 2.3-6.43 5.31-6.43 1.28 0 2.24.67 2.94 1.38.7.74.58 1.95-.26 2.53-.29.19-.61.29-.93.29-.7 0-1.34-.42-1.6-1.15-.26-.8-.7-1.54-1.54-1.54-.99 0-1.41.7-1.41 1.41 0 2.3 2.53 3.39 2.85 3.52l2.11.03c.48 0 .86.38.86.86 0 .51-.38.9-.86.9l-2.05-.03v12.06z"/><path d="m126.82 113.81c5.15 0 8.7 3.55 8.7 8.54s-3.55 8.51-8.7 8.51-8.67-3.52-8.67-8.51 3.55-8.54 8.67-8.54zm-2.88 9.06c.8 4.42 1.92 6.18 3.58 6.18.16 0 .32 0 .48-.03 1.95-.35 2.56-2.34 1.73-7.17-.8-4.42-1.92-6.18-3.62-6.18-.16 0-.32 0-.48.03-1.92.32-2.56 2.34-1.7 7.17z"/><path d="m148.52 119.05c-1.31 0-2.14-2.02-3.17-2.02-.38 0-.83.32-1.34 1.22v9.38l1.22 1.44c.13.16.22.35.22.58 0 .48-.42.9-.9.9h-6.53c-.48 0-.9-.42-.9-.9 0-.22.1-.42.22-.58l1.22-1.44v-9.7l-1.09-.96c-.22-.19-.35-.48-.35-.77 0-.45.29-.83.74-.99l4.58-1.38c.13-.03.26-.06.38-.06.22 0 .45.06.64.22.35.22.54.61.54.99v1.5c1.02-1.5 2.4-2.78 4.32-2.78 1.31 0 2.46.83 2.78 2.05.32 1.47-.64 3.3-2.59 3.3z"/><path d="m163.11 127.5c.29.32.29.83-.03 1.12-.86.83-2.69 2.24-5.34 2.24-1.82 0-3.81-1.34-3.81-4v-11.29h-.77c-.54-.03-1.02-.48-1.02-1.06 0-.42.29-.8.67-.96 2.91-1.06 4.38-2.69 5.12-3.71.16-.19.42-.32.67-.32.45 0 .77.35.77.8v3.49l2.43.03c.48 0 .86.38.86.86 0 .51-.38.9-.86.9l-2.43-.03v10.21c0 1.15.51 1.95 1.57 1.95.42 0 .8-.16 1.09-.35.16-.1.32-.16.48-.16.22 0 .45.1.58.26l.03.03z"/><path d="m182.15 109.94c-2.37 0-4.58 1.22-5.89 3.2l-.74 1.09c-.13.22-.38.35-.64.35-.45 0-.8-.35-.8-.8v-5.44c0-.51.42-.96.96-.96h14.11c1.09 0 1.98.9 1.98 1.98 0 .38-.13.77-.32 1.09l-10.85 17.05c-.13.19.03.48.26.48h2.82c2.4 0 4.61-1.18 5.92-3.2l.7-1.06c.16-.22.42-.38.67-.38.45 0 .8.38.8.8v5.44c0 .54-.45.96-.96.96h-14.94c-1.09 0-1.98-.9-1.98-1.98 0-.38.13-.74.32-1.06l10.85-17.05c.13-.22-.03-.51-.26-.51h-2.02z"/><path d="m201.41 113.81c5.15 0 8.7 3.55 8.7 8.54s-3.55 8.51-8.7 8.51-8.67-3.52-8.67-8.51 3.55-8.54 8.67-8.54zm-2.88 9.06c.8 4.42 1.92 6.18 3.58 6.18.16 0 .32 0 .48-.03 1.95-.35 2.56-2.34 1.73-7.17-.8-4.42-1.92-6.18-3.62-6.18-.16 0-.32 0-.48.03-1.92.32-2.56 2.34-1.7 7.17z"/><path d="m228.77 130.54h-6.5c-.51 0-.9-.42-.9-.9 0-.22.06-.42.19-.58l1.22-1.44v-6.56c0-3.81-.42-5.15-1.82-5.15-.86 0-1.7.74-2.37 1.6v10.11l1.22 1.44c.13.16.22.35.22.58 0 .48-.42.9-.9.9h-6.53c-.48 0-.9-.42-.9-.9 0-.22.1-.42.22-.58l1.22-1.44v-9.7l-1.09-.96c-.22-.19-.35-.48-.35-.77 0-.45.29-.83.74-.99l4.58-1.38c.13-.03.26-.06.38-.06.22 0 .45.06.64.22.35.22.54.61.54.99v.64c.99-.96 2.33-1.79 4-1.79 2.37 0 5.63 1.38 5.63 6.59v7.2l1.22 1.44c.16.16.22.35.22.58 0 .48-.42.9-.9.9z"/><path d="m236.93 124.27c.93 1.7 2.46 3.01 4.8 3.01 2.05 0 3.46-1.41 4.13-2.21.16-.19.38-.29.64-.29.13 0 .26.03.38.1.42.19.61.7.38 1.12-.8 1.57-3.01 4.86-7.65 4.86-5.12 0-8.35-3.52-8.35-8.51s3.55-8.54 8.67-8.54c3.01 0 5.76 1.76 7.07 5.76.16.48-.1 1.02-.58 1.18l-9.5 3.52zm-.64-1.63 6.08-2.27c-1.22-3.14-2.72-4.48-4.1-4.48-.22 0-.45.03-.67.1-1.57.54-2.14 3.78-1.31 6.66z"/><path d="m252.55 124.94c1.63 0 2.94 1.34 2.94 2.98s-1.31 2.94-2.94 2.94-2.94-1.31-2.94-2.94 1.31-2.98 2.94-2.98z"/><path d="m55.81 148.72v17.47c0 1.7-1.38 3.07-3.07 3.07-1.09 0-2.08-.58-2.62-1.5l-9.06-15.2v13.47l1.22 1.44c.13.16.22.35.22.58 0 .48-.42.9-.9.9h-3.97c-.48 0-.9-.42-.9-.9 0-.22.1-.42.22-.58l1.22-1.44v-17.31l-1.22-1.47c-.13-.16-.22-.35-.22-.58 0-.48.42-.9.9-.9h6.02c.7 0 1.31.38 1.66.96l7.62 12.96v-10.98l-1.25-1.47c-.13-.16-.19-.35-.19-.58 0-.48.38-.9.9-.9h3.94c.51 0 .9.42.9.9 0 .22-.06.42-.19.58l-1.22 1.47z"/><path d="m67.17 152.21c5.15 0 8.7 3.55 8.7 8.54s-3.55 8.51-8.7 8.51-8.67-3.52-8.67-8.51 3.55-8.54 8.67-8.54zm-2.88 9.06c.8 4.42 1.92 6.18 3.58 6.18.16 0 .32 0 .48-.03 1.95-.35 2.56-2.34 1.73-7.17-.8-4.42-1.92-6.18-3.62-6.18-.16 0-.32 0-.48.03-1.92.32-2.56 2.34-1.7 7.17z"/><path d="m101.51 158.13c0 3.36-3.33 5.92-7.84 5.92-1.12 0-2.18-.16-3.1-.45-.19.29-.35.67-.35 1.06-.03.8.13 1.12 2.98 1.12h2.69c2.59 0 5.31 1.79 5.31 4.8s-2.91 5.22-7.68 5.22c-3.23 0-6.69-1.12-6.69-3.39 0-1.31.99-2.08 1.95-2.53-1.89-.64-2.43-2.05-2.43-3.07 0-2.05 1.79-3.36 2.62-3.84-1.95-1.09-3.17-2.82-3.17-4.83 0-3.33 3.36-5.92 7.87-5.92 1.25 0 2.43.22 3.46.58.61-.93 2.27-2.59 3.49-2.59.74 0 1.41.58 1.41 1.41 0 .74-.58 1.34-1.31 1.41-.61.03-1.34.16-2.02.51 1.76 1.06 2.82 2.72 2.82 4.61zm-4.48 13.82c0-1.02-.83-1.76-2.21-1.76h-3.36c-1.76.9-1.25 3.81 2.3 3.81 2.05 0 3.26-.7 3.26-2.05zm-3.36-17.98c-1.12 0-2.43.86-2.43 4.16s1.31 4.16 2.43 4.16 2.4-.86 2.4-4.16-1.28-4.16-2.4-4.16z"/><path d="m115.01 157.46c-1.31 0-2.14-2.02-3.17-2.02-.38 0-.83.32-1.34 1.22v9.38l1.22 1.44c.13.16.22.35.22.58 0 .48-.42.9-.9.9h-6.53c-.48 0-.9-.42-.9-.9 0-.22.1-.42.22-.58l1.22-1.44v-9.7l-1.09-.96c-.22-.19-.35-.48-.35-.77 0-.45.29-.83.74-.99l4.58-1.38c.13-.03.26-.06.38-.06.22 0 .45.06.64.22.35.22.54.61.54.99v1.5c1.02-1.5 2.4-2.78 4.32-2.78 1.31 0 2.46.83 2.78 2.05.32 1.47-.64 3.3-2.59 3.3z"/><path d="m126.98 152.21c5.15 0 8.7 3.55 8.7 8.54s-3.55 8.51-8.7 8.51-8.67-3.52-8.67-8.51 3.55-8.54 8.67-8.54zm-2.88 9.06c.8 4.42 1.92 6.18 3.58 6.18.16 0 .32 0 .48-.03 1.95-.35 2.56-2.34 1.73-7.17-.8-4.42-1.92-6.18-3.62-6.18-.16 0-.32 0-.48.03-1.92.32-2.56 2.34-1.7 7.17z"/><path d="m152.68 152.24c.54 0 .96.42.96.96v11.97l1.09.93c.19.19.32.42.35.7.03.48-.26.93-.74 1.09l-4.58 1.38c-.13.03-.26.06-.35.06-.64 0-1.22-.58-1.22-1.22v-.9c-.96 1.09-2.3 2.05-4 2.05-2.34 0-5.63-1.38-5.63-6.59v-7.52l-1.22-1.44c-.13-.16-.22-.35-.22-.58 0-.48.42-.9.9-.9h5.02c.54 0 .96.42.96.96v8.83c0 3.81.42 4.96 1.82 4.96.9 0 1.73-.83 2.37-1.76v-10.08l-1.22-1.44c-.13-.16-.19-.35-.19-.58 0-.48.38-.9.9-.9h4.99z"/><path d="m163.88 173.55 1.25 1.44c.13.16.19.35.19.58 0 .48-.38.9-.9.9h-6.5c-.51 0-.9-.42-.9-.9 0-.22.06-.42.19-.58l1.22-1.44v-17.21l-1.06-.96c-.22-.19-.35-.48-.35-.77 0-.45.29-.83.74-.99l4.54-1.38c.13-.03.26-.06.38-.06.64 0 1.18.54 1.18 1.22v.06c.99-.64 2.34-1.22 4.13-1.22 3.52 0 6.02 2.5 6.02 7.26 0 6.27-3.74 9.44-9.18 9.44h-.96v4.61zm0-17.89v11.46c.1.03.19.03.29.03 3.23 0 4.42-2.02 4.42-6.94 0-3.39-1.02-5.25-2.82-5.25-.77 0-1.38.29-1.89.7z"/><path d="m199.94 164.4c-.77 1.57-3.01 4.86-7.62 4.86-5.15 0-8.38-3.52-8.38-8.51s3.55-8.54 8.7-8.54c2.75 0 5.12.83 6.69 3.04 1.06 1.47.38 3.58-1.34 4.19-.32.13-.64.19-.99.19-1.09 0-2.14-.67-2.56-1.79-1.12-2.85-2.14-3.62-3.3-3.62-3.65 0-3.26 11.46 3.26 11.46 2.05 0 3.46-1.41 4.13-2.21.16-.19.38-.29.64-.29.13 0 .29.03.42.1.42.19.58.7.35 1.12z"/><path d="m218.18 166.03 1.25 1.44c.13.16.19.35.19.58 0 .48-.38.9-.9.9h-6.5c-.51 0-.9-.42-.9-.9 0-.22.06-.42.19-.58l1.22-1.44v-6.56c0-3.81-.38-5.15-1.82-5.15-.86 0-1.7.74-2.37 1.6v10.11l1.22 1.44c.13.16.22.35.22.58 0 .48-.42.9-.9.9h-6.53c-.48 0-.9-.42-.9-.9 0-.22.1-.42.22-.58l1.22-1.44v-15.97l-1.09-.96c-.22-.19-.35-.48-.35-.77 0-.45.32-.86.74-.99l4.58-1.38c.13-.03.26-.06.38-.06.22 0 .45.06.64.22.35.22.54.58.54.99v6.91c.99-.96 2.33-1.79 4-1.79 2.37 0 5.63 1.38 5.63 6.59v7.2z"/><path d="m236.93 166.03 1.22 1.44c.16.16.22.35.22.58 0 .48-.42.9-.9.9h-3.65c-1.12 0-2.08-.8-2.27-1.86-1.25 1.09-3.01 2.18-5.12 2.18-2.91 0-5.22-1.44-5.22-4.26 0-4.42 7.26-5.86 10.27-6.24v-1.02c0-2.98-1.31-4.1-2.69-4.1-1.47 0-2.05 1.34-2.27 2.88-.13.99-.99 1.76-2.02 1.76-1.7 0-2.69-1.92-1.66-3.26 1.38-1.89 3.97-2.82 6.5-2.82 4.38 0 7.58 1.5 7.58 6.4v7.42zm-8.13.74c.93 0 1.92-.67 2.69-1.41v-5.22c-2.02.32-4.51 1.47-4.51 4.32 0 1.54.58 2.3 1.82 2.3z"/><path d="m250.63 165.9c.29.32.29.83-.03 1.12-.86.83-2.69 2.24-5.34 2.24-1.82 0-3.81-1.34-3.81-4v-11.29h-.77c-.54-.03-1.02-.48-1.02-1.06 0-.42.29-.8.67-.96 2.91-1.06 4.38-2.69 5.12-3.71.16-.19.42-.32.67-.32.45 0 .77.35.77.8v3.49l2.43.03c.48 0 .86.38.86.86 0 .51-.38.9-.86.9l-2.43-.03v10.21c0 1.15.51 1.95 1.57 1.95.42 0 .8-.16 1.09-.35.16-.1.32-.16.48-.16.22 0 .45.1.58.26l.03.03z"/><path d="m264.45 157.29c-.29 0-.54-.16-.67-.38-.54-.96-2.11-3.33-4.06-3.33-.86 0-1.7.42-1.7 1.76 0 3.87 7.78 2.59 7.78 8.67 0 3.33-3.65 5.18-7.58 5.18-2.59 0-4.35-.58-5.18-.96-.35-.13-.58-.48-.58-.86v-3.1c0-.48.42-.9.9-.9.38 0 .7.26.83.61.45 1.18 1.63 3.78 3.94 3.78 1.38 0 2.14-1.09 2.14-2.3 0-3.81-7.81-2.34-7.81-8.51 0-3.26 3.14-4.77 6.69-4.77 2.43 0 4.45.61 5.44.96.38.13.64.51.64.9v2.5c0 .42-.35.77-.77.77z"/><path d="m270.66 163.34c1.63 0 2.94 1.34 2.94 2.98s-1.31 2.94-2.94 2.94-2.94-1.31-2.94-2.94 1.31-2.98 2.94-2.98z"/></g><path d="m0 0h300v600h-300z" fill="none"/></svg>