<svg height="600" viewBox="0 0 300 600" width="300" xmlns="http://www.w3.org/2000/svg"><g fill="#fff"><path d="m59.53 576.48c-.3.58-.74 1.28-1.3 2.11s-1.3 1.62-2.21 2.38c-.91.75-1.99 1.4-3.24 1.94-1.26.54-2.72.81-4.37.81-1.21 0-2.55-.23-4.04-.68-1.48-.45-2.88-1.21-4.2-2.28s-2.43-2.49-3.32-4.26-1.34-3.98-1.34-6.62.45-4.85 1.34-6.62 2-3.19 3.32-4.26 2.72-1.83 4.2-2.28 2.83-.68 4.04-.68c1.06 0 2.1.11 3.13.32s2.02.57 2.96 1.06 1.81 1.15 2.6 1.98 1.48 1.85 2.06 3.05c.23.48.35.98.36 1.51s-.07 1.02-.25 1.49-.44.88-.79 1.24-.78.65-1.28.85l-.04.04c-.48.2-.96.3-1.43.3-.8 0-1.55-.26-2.24-.77s-1.15-1.2-1.38-2.06c-.48-1.76-1.21-3.09-2.21-4-.99-.91-2.09-1.36-3.3-1.36-.93 0-1.67.28-2.23.85-.55.57-.97 1.26-1.26 2.09s-.47 1.7-.55 2.62-.11 1.72-.11 2.39c0 1.38.2 2.77.6 4.15s.97 2.63 1.72 3.73c.74 1.11 1.65 2 2.72 2.68s2.28 1.02 3.64 1.02c.83 0 1.59-.14 2.28-.41.69-.28 1.3-.62 1.83-1.02s.98-.83 1.36-1.28.68-.85.91-1.21c.25-.38.59-.57 1.02-.57.18 0 .34.04.49.11.3.15.5.38.6.7.1.31.08.62-.08.92z"/><path d="m70.28 563.62c1.51 0 2.89.25 4.15.75s2.34 1.19 3.24 2.07c.91.88 1.61 1.94 2.11 3.17s.75 2.59.75 4.07-.25 2.8-.75 4.04c-.5 1.23-1.21 2.29-2.11 3.19-.91.89-1.99 1.58-3.24 2.07-1.26.49-2.64.74-4.15.74s-2.89-.25-4.15-.74-2.33-1.18-3.22-2.07-1.59-1.95-2.09-3.19c-.5-1.23-.75-2.58-.75-4.04s.25-2.84.75-4.07 1.2-2.29 2.09-3.17 1.97-1.57 3.22-2.07c1.26-.5 2.64-.75 4.15-.75zm-1.4 2.23c-1.13.18-1.87.92-2.23 2.23-.35 1.31-.28 3.38.23 6.22.48 2.61 1.06 4.48 1.73 5.6.68 1.12 1.51 1.68 2.49 1.68.25 0 .44-.01.57-.04 1.16-.2 1.91-.95 2.26-2.24s.28-3.36-.23-6.2c-.48-2.61-1.06-4.48-1.73-5.6-.68-1.12-1.52-1.68-2.53-1.68-.25 0-.44.01-.57.04z"/><path d="m80.91 582.29c0-.28.09-.5.26-.68l1.43-1.7v-11.43l-1.28-1.13c-.28-.23-.41-.53-.41-.91 0-.58.29-.97.87-1.17l5.39-1.62c.2-.05.35-.08.45-.08.3 0 .55.09.75.26.43.28.64.67.64 1.17v.75c.58-.58 1.26-1.07 2.04-1.49.78-.41 1.67-.62 2.68-.62.48 0 .97.05 1.49.15.51.1 1.03.28 1.55.53s1 .58 1.45 1 .84.94 1.17 1.57c.3-.38.64-.76 1.02-1.15s.8-.74 1.28-1.04 1-.55 1.57-.75 1.18-.3 1.83-.3c.7 0 1.45.12 2.23.36s1.5.65 2.17 1.23 1.21 1.37 1.64 2.38.64 2.28.64 3.81v8.49l1.43 1.7c.15.18.23.4.23.68s-.1.52-.3.74c-.2.21-.45.32-.75.32h-7.66c-.3 0-.55-.11-.75-.32s-.3-.46-.3-.74.08-.5.23-.68l1.47-1.7v-7.73c0-2.24-.15-3.81-.45-4.71-.3-.91-.88-1.36-1.73-1.36-.6 0-1.17.25-1.7.74s-1.01 1.04-1.43 1.64c.23.83.34 1.81.34 2.94v8.49l1.43 1.7c.18.18.26.4.26.68s-.11.52-.32.74c-.21.21-.46.32-.74.32h-7.66c-.3 0-.56-.11-.77-.32s-.32-.46-.32-.74c0-.23.09-.45.26-.68l1.43-1.7v-7.73c0-2.24-.15-3.81-.45-4.71s-.87-1.36-1.7-1.36c-.53 0-1.03.19-1.51.57s-.91.82-1.28 1.32v11.92l1.43 1.7c.15.18.23.4.23.68s-.1.52-.3.74c-.2.21-.45.32-.75.32h-7.66c-.28 0-.52-.11-.74-.32-.21-.21-.32-.46-.32-.74z"/><path d="m122.28 565.7v14.22l1.43 1.7c.15.18.23.4.23.68s-.1.52-.3.74c-.2.21-.45.32-.75.32h-7.66c-.3 0-.55-.11-.75-.32s-.3-.46-.3-.74.08-.5.23-.68l1.47-1.7v-14.22h-.68c-.28-.02-.52-.14-.72-.34s-.3-.44-.3-.72.1-.52.3-.74c.2-.21.45-.31.75-.28h.64c0-1.21.16-2.28.47-3.21s.75-1.72 1.32-2.38c.57-.65 1.23-1.15 2-1.49s1.59-.51 2.47-.51c.75 0 1.41.16 1.98.49s1.06.7 1.49 1.13c.2.23.35.47.43.74.09.26.12.53.09.81s-.11.54-.25.79-.33.47-.58.64c-.33.23-.69.34-1.09.34-.43 0-.81-.12-1.15-.36s-.58-.57-.74-1c-.15-.48-.36-.9-.64-1.26s-.67-.55-1.17-.55c-.58 0-1 .17-1.26.51s-.4.72-.4 1.15c0 .68.16 1.27.47 1.77s.67.92 1.07 1.26.78.6 1.13.77c.35.18.58.29.68.34l2.49.04c.28 0 .52.1.72.3s.3.44.3.72c0 .3-.1.55-.3.75s-.44.3-.72.3l-2.41-.04z"/><path d="m135.63 563.62c1.51 0 2.89.25 4.15.75s2.34 1.19 3.24 2.07c.91.88 1.61 1.94 2.11 3.17s.75 2.59.75 4.07-.25 2.8-.75 4.04c-.5 1.23-1.21 2.29-2.11 3.19-.91.89-1.99 1.58-3.24 2.07-1.26.49-2.64.74-4.15.74s-2.89-.25-4.15-.74-2.33-1.18-3.22-2.07-1.59-1.95-2.09-3.19c-.5-1.23-.75-2.58-.75-4.04s.25-2.84.75-4.07 1.2-2.29 2.09-3.17 1.97-1.57 3.22-2.07c1.26-.5 2.64-.75 4.15-.75zm-1.4 2.23c-1.13.18-1.87.92-2.23 2.23-.35 1.31-.28 3.38.23 6.22.48 2.61 1.06 4.48 1.73 5.6.68 1.12 1.51 1.68 2.49 1.68.25 0 .44-.01.57-.04 1.16-.2 1.91-.95 2.26-2.24s.28-3.36-.23-6.2c-.48-2.61-1.06-4.48-1.73-5.6-.68-1.12-1.52-1.68-2.53-1.68-.25 0-.44.01-.57.04z"/><path d="m155.81 581.61c.18.23.26.45.26.68 0 .28-.11.52-.32.74-.21.21-.46.32-.74.32h-7.69c-.28 0-.52-.11-.74-.32-.21-.21-.32-.46-.32-.74 0-.23.09-.45.26-.68l1.43-1.7v-11.43l-1.28-1.13c-.28-.23-.41-.53-.41-.91 0-.58.29-.97.87-1.17l5.39-1.62c.2-.05.35-.08.45-.08.3 0 .55.09.75.26.43.28.64.67.64 1.17v1.77c.6-.88 1.32-1.65 2.15-2.3s1.81-.98 2.94-.98c.78 0 1.47.22 2.07.66s1.01 1.02 1.21 1.75c.1.43.11.87.02 1.34s-.26.89-.53 1.26c-.26.38-.61.69-1.04.92-.43.24-.93.36-1.51.36-.38 0-.73-.13-1.06-.38s-.64-.52-.94-.81-.59-.56-.87-.81-.57-.38-.87-.38c-.23 0-.47.11-.74.32-.26.21-.55.58-.85 1.11v11.05l1.43 1.7z"/><path d="m174.85 564.68c0 .3-.1.55-.3.75s-.44.3-.72.3l-2.87-.04v12.03c0 .68.15 1.23.45 1.66s.77.64 1.4.64c.25 0 .48-.04.7-.11.21-.08.41-.18.58-.3.2-.13.39-.19.57-.19.3 0 .53.1.68.3l.04.04c.18.2.26.43.26.68s-.1.47-.3.64c-.25.25-.57.53-.96.83s-.85.58-1.38.85c-.53.26-1.13.49-1.79.68-.67.19-1.39.28-2.17.28-.53 0-1.06-.1-1.6-.3s-1.02-.5-1.45-.89-.77-.88-1.04-1.47c-.26-.59-.4-1.28-.4-2.06v-13.31h-.91c-.33-.02-.61-.15-.85-.38s-.36-.51-.36-.87c0-.25.08-.48.23-.68s.34-.35.57-.45c1.71-.63 3.04-1.36 3.98-2.21.94-.84 1.63-1.57 2.06-2.17.2-.25.46-.38.79-.38.28 0 .5.09.66.26.16.18.25.4.25.68v4.11l2.87.04c.28 0 .52.1.72.3s.3.44.3.72z"/><path d="m194.84 559.66c.08-.13.08-.26 0-.4s-.18-.21-.3-.21h-2.38c-1.41 0-2.72.33-3.94 1s-2.22 1.59-3 2.77l-.87 1.28c-.15.28-.4.41-.75.41-.28 0-.5-.09-.68-.26-.18-.18-.26-.4-.26-.68v-6.41c0-.3.11-.57.32-.79.21-.23.48-.34.81-.34h16.63c.65 0 1.21.23 1.66.68s.68 1.01.68 1.66c0 .43-.13.86-.38 1.28l-12.78 20.1c-.08.13-.08.25 0 .38s.18.19.3.19h3.32c1.43 0 2.76-.33 3.98-.98s2.22-1.58 3-2.79l.83-1.24c.23-.3.49-.45.79-.45.28 0 .5.09.68.28s.26.41.26.66v6.41c0 .33-.11.6-.34.81s-.49.32-.79.32h-17.61c-.65 0-1.21-.23-1.66-.68s-.68-1.01-.68-1.66c0-.4.13-.82.38-1.24z"/><path d="m213.36 563.62c1.51 0 2.89.25 4.15.75s2.34 1.19 3.24 2.07c.91.88 1.61 1.94 2.11 3.17s.75 2.59.75 4.07-.25 2.8-.75 4.04c-.5 1.23-1.21 2.29-2.11 3.19-.91.89-1.99 1.58-3.24 2.07-1.26.49-2.64.74-4.15.74s-2.89-.25-4.15-.74-2.33-1.18-3.22-2.07-1.59-1.95-2.09-3.19c-.5-1.23-.75-2.58-.75-4.04s.25-2.84.75-4.07 1.2-2.29 2.09-3.17 1.97-1.57 3.22-2.07c1.26-.5 2.64-.75 4.15-.75zm-1.4 2.23c-1.13.18-1.87.92-2.23 2.23-.35 1.31-.28 3.38.23 6.22.48 2.61 1.06 4.48 1.73 5.6.68 1.12 1.51 1.68 2.49 1.68.25 0 .44-.01.57-.04 1.16-.2 1.91-.95 2.26-2.24s.28-3.36-.23-6.2c-.48-2.61-1.06-4.48-1.73-5.6-.68-1.12-1.52-1.68-2.53-1.68-.25 0-.44.01-.57.04z"/><path d="m236.44 583.35c-.3 0-.55-.11-.75-.32s-.3-.46-.3-.74.08-.5.23-.68l1.43-1.7v-7.73c0-2.24-.15-3.81-.45-4.71s-.87-1.36-1.7-1.36c-.5 0-.99.19-1.47.57s-.92.82-1.32 1.32v11.92l1.43 1.7c.18.23.26.45.26.68 0 .28-.11.52-.32.74-.21.21-.46.32-.74.32h-7.69c-.28 0-.52-.11-.74-.32-.21-.21-.32-.46-.32-.74 0-.23.09-.45.26-.68l1.43-1.7v-11.43l-1.28-1.13c-.28-.23-.41-.53-.41-.91 0-.58.29-.97.87-1.17l5.39-1.62c.2-.05.35-.08.45-.08.3 0 .55.09.75.26.43.28.64.67.64 1.17v.75c.58-.58 1.26-1.07 2.06-1.49s1.68-.62 2.66-.62c.7 0 1.45.12 2.23.36s1.5.65 2.15 1.23 1.19 1.37 1.62 2.38.64 2.28.64 3.81v8.49l1.43 1.7c.18.18.26.4.26.68s-.11.52-.32.74c-.21.21-.46.32-.74.32h-7.66z"/><path d="m264.38 577.99c-.23.45-.57 1.01-1.04 1.66s-1.06 1.28-1.77 1.89c-.72.6-1.59 1.12-2.62 1.55s-2.23.64-3.58.64c-1.51 0-2.87-.25-4.09-.74s-2.25-1.18-3.09-2.07-1.5-1.95-1.96-3.19c-.47-1.23-.7-2.58-.7-4.04s.25-2.84.75-4.07 1.2-2.29 2.09-3.17 1.97-1.57 3.22-2.07c1.26-.5 2.64-.75 4.15-.75 1.78 0 3.43.54 4.92 1.62 1.5 1.08 2.63 2.8 3.41 5.17.1.28.08.55-.06.83s-.35.47-.62.57l-11.2 4.15c.55 1.01 1.29 1.85 2.21 2.53s2.07 1.02 3.45 1.02c.6 0 1.16-.09 1.66-.28s.96-.41 1.38-.68.77-.55 1.07-.85.55-.57.75-.79c.2-.23.45-.34.75-.34.15 0 .3.04.45.11.25.13.42.31.51.57.09.25.07.5-.06.75zm-10.6-11.92c-.25 0-.52.04-.79.11-.45.15-.84.49-1.15 1.02s-.54 1.16-.68 1.89-.19 1.52-.15 2.38.18 1.71.43 2.56l7.17-2.68c-.73-1.86-1.51-3.21-2.36-4.04-.84-.83-1.67-1.24-2.47-1.24z"/><path d="m53.85 544.96c-.16 0-.28-.07-.36-.22-.08-.16-.21-.37-.39-.64-.17-.27-.4-.53-.68-.79s-.61-.48-.98-.67-.8-.29-1.28-.29c-.51 0-.93.12-1.25.35s-.48.55-.48.96.15.75.46 1.03.69.54 1.15.78.96.48 1.49.73 1.03.54 1.49.88.84.75 1.15 1.22.46 1.06.46 1.77-.14 1.35-.43 1.87c-.29.51-.66.93-1.11 1.25-.46.32-.97.55-1.54.69s-1.15.22-1.72.22c-.93 0-1.72-.1-2.37-.31s-1.14-.4-1.47-.59c-.38-.22-.57-.53-.57-.95v-2.5c0-.11.04-.2.13-.29.08-.08.19-.13.31-.13.17 0 .29.08.38.25.08.19.22.46.41.81s.43.69.71 1.02c.28.34.61.63.99.87.38.25.79.37 1.25.37.59 0 1.04-.13 1.36-.4s.48-.69.48-1.25c0-.48-.15-.87-.46-1.19-.31-.31-.69-.59-1.14-.84-.46-.25-.95-.49-1.49-.73s-1.04-.53-1.49-.86c-.46-.34-.84-.74-1.14-1.22-.31-.48-.46-1.08-.46-1.81s.17-1.28.51-1.73.75-.8 1.24-1.05c.48-.25 1-.42 1.54-.52s1.01-.14 1.41-.14c.89 0 1.64.08 2.26.25s1.11.34 1.45.5c.19.08.34.22.46.4.11.18.17.37.17.57v1.9c0 .12-.04.22-.12.3s-.18.12-.3.12h-.02z"/><path d="m58.19 544.51c.14 0 .26.04.36.13.2.13.31.32.31.56v7.09l.68.81c.07.08.11.19.11.32s-.05.25-.14.35c-.1.1-.22.15-.36.15h-3.65c-.13 0-.25-.05-.35-.15s-.15-.22-.15-.35.04-.24.13-.32l.68-.81v-5.44l-.61-.54c-.13-.11-.2-.25-.2-.43 0-.28.14-.46.41-.56l2.57-.77c.1-.02.17-.04.22-.04zm-2.8-1.76c-.05-.23-.05-.45 0-.67.04-.22.13-.42.25-.61.13-.19.28-.35.48-.48.19-.14.41-.24.66-.3.14-.04.29-.05.43-.05.41 0 .77.12 1.1.36.32.24.53.55.63.93.1.46.01.88-.25 1.28s-.65.65-1.15.77c-.14.04-.29.05-.45.05-.41 0-.77-.12-1.09-.35s-.52-.54-.6-.92z"/><path d="m63.67 545.23c.28-.18.6-.34.99-.48.38-.14.83-.21 1.33-.21s.94.09 1.36.26c.41.17.77.43 1.07.77s.53.77.7 1.27c.17.51.25 1.1.25 1.77 0 .87-.13 1.64-.38 2.31-.25.66-.6 1.22-1.06 1.66s-1 .78-1.63 1-1.33.33-2.09.33h-.54v2.59l.7.81c.07.1.11.2.11.32 0 .13-.05.25-.14.35-.1.1-.22.15-.36.15h-3.65c-.14 0-.26-.05-.36-.15s-.14-.22-.14-.35c0-.12.04-.23.11-.32l.68-.81v-9.66l-.59-.54c-.13-.11-.2-.25-.2-.43 0-.28.14-.46.41-.56l2.55-.77c.1-.02.17-.04.22-.04.18 0 .34.07.47.2s.2.29.2.48v.04zm0 7.67s.09.02.16.02c.45 0 .84-.07 1.15-.22s.57-.38.76-.69c.2-.31.34-.71.43-1.2s.13-1.08.13-1.78c0-.96-.14-1.69-.41-2.19-.28-.5-.66-.75-1.17-.75-.22 0-.41.04-.58.11s-.33.17-.48.29v6.43z"/><path d="m75.43 544.51c.14 0 .26.04.36.13.2.13.31.32.31.56v7.09l.68.81c.07.08.11.19.11.32s-.05.25-.14.35c-.1.1-.22.15-.36.15h-3.65c-.13 0-.25-.05-.35-.15s-.15-.22-.15-.35.04-.24.13-.32l.68-.81v-5.44l-.61-.54c-.13-.11-.2-.25-.2-.43 0-.28.14-.46.41-.56l2.57-.77c.1-.02.17-.04.22-.04zm-2.8-1.76c-.05-.23-.05-.45 0-.67.04-.22.13-.42.25-.61.13-.19.28-.35.48-.48.19-.14.41-.24.66-.3.14-.04.29-.05.43-.05.41 0 .77.12 1.1.36.32.24.53.55.63.93.1.46.01.88-.25 1.28s-.65.65-1.15.77c-.14.04-.29.05-.45.05-.41 0-.77-.12-1.09-.35s-.52-.54-.6-.92z"/><path d="m83.17 553.92c-.14 0-.26-.05-.36-.15s-.14-.22-.14-.35.04-.24.11-.32l.68-.81v-3.68c0-1.07-.07-1.81-.22-2.24-.14-.43-.41-.65-.81-.65-.24 0-.47.09-.7.27s-.44.39-.63.63v5.67l.68.81c.08.11.13.22.13.32 0 .13-.05.25-.15.35s-.22.15-.35.15h-3.66c-.13 0-.25-.05-.35-.15s-.15-.22-.15-.35c0-.11.04-.22.13-.32l.68-.81v-5.44l-.61-.54c-.13-.11-.2-.25-.2-.43 0-.28.14-.46.41-.56l2.57-.77c.1-.02.17-.04.22-.04.14 0 .26.04.36.13.2.13.31.32.31.56v.36c.28-.28.6-.51.98-.71s.8-.3 1.27-.3c.33 0 .69.06 1.06.17s.71.31 1.02.58c.31.28.57.65.77 1.13s.31 1.08.31 1.81v4.04l.68.81c.08.08.13.19.13.32s-.05.25-.15.35-.22.15-.35.15h-3.65z"/><path d="m93.14 552.06c.12 0 .23.05.32.14v.02c.1.1.14.2.13.32 0 .12-.06.22-.15.31-.12.12-.27.25-.46.4-.19.14-.4.28-.66.4-.25.13-.53.23-.84.32s-.65.13-1.02.13c-.26 0-.52-.05-.77-.14-.25-.1-.48-.24-.68-.42-.2-.19-.37-.42-.49-.7-.13-.28-.19-.61-.19-.98v-6.34h-.43c-.17-.01-.31-.07-.41-.18-.11-.11-.16-.25-.16-.41 0-.26.13-.44.38-.54.81-.3 1.45-.65 1.89-1.05.45-.4.78-.75.98-1.03.1-.12.22-.18.38-.18.04 0 .09.01.16.04.18.07.27.21.27.41v1.56c.51-.13 1.03-.32 1.54-.57s1.03-.51 1.54-.8 1.02-.58 1.53-.87 1.01-.56 1.51-.8.99-.44 1.47-.59c.48-.16.97-.23 1.45-.23.38 0 .73.03 1.03.1.31.07.58.15.82.24.25.11.45.26.58.47.14.2.22.42.23.66.02.23-.02.46-.12.69s-.25.41-.47.56c-.24.17-.5.25-.79.25-.34 0-.63-.11-.9-.34-.22-.2-.47-.36-.77-.47s-.65-.16-1.04-.16c-.46 0-.97.11-1.54.32-.57.22-1.18.48-1.84.78-.66.31-1.34.62-2.06.94-.71.32-1.44.59-2.18.81v6.12c0 .32.07.59.22.79.14.2.37.31.66.31.12 0 .23-.02.33-.05.1-.04.19-.08.28-.14.1-.06.19-.09.27-.09z"/><path d="m98.29 544.53c.72 0 1.38.12 1.98.36s1.11.57 1.54.99.77.92 1.01 1.51.36 1.23.36 1.94-.12 1.34-.36 1.92c-.24.59-.57 1.09-1.01 1.52-.43.43-.95.75-1.54.99-.6.23-1.26.35-1.98.35s-1.38-.12-1.98-.35-1.11-.56-1.54-.99c-.43-.42-.76-.93-1-1.52s-.36-1.23-.36-1.92.12-1.35.36-1.94.57-1.09 1-1.51c.42-.42.94-.75 1.54-.99s1.26-.36 1.98-.36zm-.66 1.06c-.54.08-.89.44-1.06 1.06s-.13 1.61.11 2.96c.23 1.25.5 2.13.83 2.67.32.53.72.8 1.19.8.12 0 .21 0 .27-.02.55-.1.91-.45 1.08-1.07s.13-1.6-.11-2.95c-.23-1.25-.5-2.13-.83-2.67-.32-.53-.72-.8-1.2-.8-.12 0-.21 0-.27.02z"/><path d="m115.95 544.55c.13 0 .25.05.34.14.1.1.14.21.14.34s-.05.25-.14.34l-.81.81-3.95 8.71c-.19.44-.42.87-.69 1.27-.27.41-.58.76-.92 1.07-.35.31-.73.55-1.16.73s-.9.27-1.43.27c-.41 0-.77-.12-1.1-.35-.32-.23-.53-.54-.63-.92-.05-.23-.05-.45 0-.67.04-.22.13-.43.25-.61.13-.19.29-.35.48-.48.2-.14.42-.24.66-.3.06-.02.11-.04.15-.04h.51c.36 0 .67.04.94.13s.51.13.71.13c.17 0 .31-.04.44-.13s.25-.27.37-.53l.25-.54-3.5-7.74-.81-.81c-.1-.08-.14-.2-.14-.34 0-.13.05-.25.14-.34.1-.1.21-.14.34-.14h4.18c.14 0 .27.05.37.15s.15.22.15.37c0 .11-.03.21-.09.31l-.59.81 1.53 3.5c.04.07.09.11.16.11s.13-.04.16-.11l1.65-3.66-.57-.65c-.11-.11-.15-.24-.13-.4.02-.13.08-.24.17-.31.09-.08.2-.12.33-.12h2.23z"/><path d="m120.58 544.53c.72 0 1.38.12 1.98.36s1.11.57 1.54.99.77.92 1.01 1.51.36 1.23.36 1.94-.12 1.34-.36 1.92c-.24.59-.57 1.09-1.01 1.52-.43.43-.95.75-1.54.99-.6.23-1.26.35-1.98.35s-1.38-.12-1.98-.35-1.11-.56-1.54-.99c-.43-.42-.76-.93-1-1.52s-.36-1.23-.36-1.92.12-1.35.36-1.94.57-1.09 1-1.51c.42-.42.94-.75 1.54-.99s1.26-.36 1.98-.36zm-.66 1.06c-.54.08-.89.44-1.06 1.06s-.13 1.61.11 2.96c.23 1.25.5 2.13.83 2.67.32.53.72.8 1.19.8.12 0 .21 0 .27-.02.55-.1.91-.45 1.08-1.07s.13-1.6-.11-2.95c-.23-1.25-.5-2.13-.83-2.67-.32-.53-.72-.8-1.2-.8-.12 0-.21 0-.27.02z"/><path d="m131.77 552.95c-.28.31-.6.58-.97.81s-.8.34-1.28.34c-.32 0-.67-.06-1.04-.17s-.72-.31-1.03-.58c-.32-.28-.58-.65-.78-1.13s-.31-1.08-.31-1.81v-4.22l-.68-.81c-.08-.11-.13-.22-.13-.32 0-.13.05-.25.15-.35s.22-.15.35-.15h2.82c.16 0 .28.05.39.15.1.1.15.23.15.39v4.96c0 .54.01.98.04 1.34.03.35.09.64.17.85.08.22.19.37.32.46s.29.13.48.13c.25 0 .49-.1.72-.3s.43-.43.61-.69v-5.66l-.68-.81c-.07-.1-.11-.2-.11-.32 0-.13.05-.25.14-.35.1-.1.22-.15.36-.15h2.8c.16 0 .28.05.39.15.1.1.15.23.15.39v6.72l.61.52c.12.12.19.25.2.4.01.13-.02.25-.1.37-.08.11-.18.19-.31.24l-2.57.77c-.1.02-.16.04-.2.04-.18 0-.34-.07-.48-.21s-.21-.3-.21-.48v-.5z"/><path d="m140.55 553.1c.08.11.13.22.13.32 0 .13-.05.25-.15.35s-.22.15-.35.15h-3.66c-.13 0-.25-.05-.35-.15s-.15-.22-.15-.35c0-.11.04-.22.13-.32l.68-.81v-5.44l-.61-.54c-.13-.11-.2-.25-.2-.43 0-.28.14-.46.41-.56l2.57-.77c.1-.02.17-.04.22-.04.14 0 .26.04.36.13.2.13.31.32.31.56v.84c.29-.42.63-.78 1.02-1.1.4-.31.86-.47 1.4-.47.37 0 .7.1.99.31s.48.49.57.83c.05.2.05.42 0 .64-.04.22-.13.42-.25.6-.13.18-.29.33-.49.44s-.44.17-.72.17c-.18 0-.35-.06-.5-.18-.16-.12-.31-.25-.45-.39s-.28-.27-.41-.39-.27-.18-.41-.18c-.11 0-.22.05-.35.15s-.26.28-.4.53v5.26l.68.81z"/></g><path d="m0 0h300v600h-300z" fill="none"/></svg>