<svg height="600" viewBox="0 0 160 600" width="160" xmlns="http://www.w3.org/2000/svg"><rect fill="#f1ffd7" height="33" rx="10" width="95" x="33" y="272"/><g fill="#00452b"><path d="m44.42 283.43h2.08v8.2h4.93v1.8h-7v-10z"/><path d="m59 291.26c-.05.44-.28.88-.68 1.34-.63.72-1.51 1.08-2.65 1.08-.94 0-1.76-.3-2.48-.91s-1.07-1.59-1.07-2.96c0-1.28.32-2.26.97-2.94s1.48-1.02 2.51-1.02c.61 0 1.16.12 1.65.35s.9.6 1.21 1.09c.29.44.47.95.56 1.53.05.34.07.83.06 1.47h-5.03c.03.74.26 1.26.7 1.56.27.19.58.28.96.28.4 0 .72-.11.96-.34.13-.12.25-.29.36-.51h1.96zm-1.9-2.27c-.03-.51-.19-.9-.46-1.16-.28-.26-.62-.4-1.03-.4-.45 0-.79.14-1.04.42s-.4.66-.46 1.14z"/><path d="m60.66 286.84c.51-.65 1.38-.98 2.62-.98.81 0 1.52.16 2.15.48.62.32.94.93.94 1.82v3.39c0 .24 0 .52.01.85.01.25.05.43.11.52s.16.17.28.22v.29h-2.09c-.06-.15-.1-.29-.12-.42s-.04-.28-.05-.45c-.27.29-.57.54-.92.74-.41.24-.88.36-1.4.36-.67 0-1.22-.19-1.65-.57s-.65-.92-.65-1.62c0-.91.35-1.57 1.05-1.97.38-.22.94-.38 1.69-.47l.65-.08c.36-.05.61-.1.76-.17.27-.12.41-.3.41-.55 0-.3-.1-.51-.31-.63s-.52-.17-.92-.17c-.45 0-.78.11-.96.34-.14.17-.23.39-.27.68h-1.86c.04-.65.22-1.18.54-1.59zm1.43 5.2c.18.15.4.22.66.22.41 0 .79-.12 1.14-.37s.53-.69.54-1.34v-.72c-.12.08-.24.14-.37.19-.12.05-.29.09-.51.13l-.43.08c-.4.07-.69.16-.87.26-.3.18-.45.45-.45.82 0 .33.09.57.28.71z"/><path d="m71.77 287.82c-.77 0-1.29.25-1.56.76-.15.29-.22.72-.22 1.32v3.53h-1.94v-7.4h1.84v1.29c.3-.49.56-.83.78-1.01.36-.3.83-.45 1.4-.45h.09c.02 0 .08 0 .17.01v1.98c-.12-.01-.23-.02-.32-.03s-.17 0-.23 0z"/><path d="m76.91 287.47c-.65 0-1.1.28-1.34.83-.13.29-.19.67-.19 1.13v4h-1.92v-7.38h1.86v1.08c.25-.38.48-.65.7-.82.4-.3.9-.45 1.5-.45.76 0 1.38.2 1.87.6.48.4.73 1.06.73 1.99v4.98h-1.97v-4.5c0-.39-.05-.69-.16-.9-.19-.38-.55-.57-1.08-.57z"/><path d="m87.79 293.43h-1.94v-10h3.02l1.81 7.86 1.79-7.86h2.99v10h-1.94v-6.76c0-.19 0-.47 0-.82s0-.62 0-.81l-1.88 8.39h-2.02l-1.87-8.39v.81.82 6.76z"/><path d="m103.37 286.98c.62.78.93 1.71.93 2.77s-.31 2.01-.93 2.79c-.62.77-1.56 1.16-2.83 1.16s-2.21-.39-2.83-1.16-.93-1.7-.93-2.79.31-1.99.93-2.77 1.56-1.17 2.83-1.17 2.21.39 2.83 1.17zm-2.83.46c-.56 0-1 .2-1.3.6s-.46.97-.46 1.71.15 1.31.46 1.72c.3.4.74.6 1.3.6s.99-.2 1.3-.6c.3-.4.45-.98.45-1.72s-.15-1.31-.45-1.71-.73-.6-1.3-.6z"/><path d="m109.38 287.82c-.77 0-1.29.25-1.56.76-.15.29-.22.72-.22 1.32v3.53h-1.94v-7.4h1.83v1.29c.3-.49.56-.83.78-1.01.36-.3.83-.45 1.4-.45h.09c.03 0 .08 0 .17.01v1.98c-.12-.01-.23-.02-.32-.03s-.17 0-.23 0z"/><path d="m117.35 291.26c-.05.44-.28.88-.68 1.34-.63.72-1.51 1.08-2.64 1.08-.94 0-1.76-.3-2.48-.91-.71-.61-1.07-1.59-1.07-2.96 0-1.28.32-2.26.97-2.94s1.48-1.02 2.51-1.02c.61 0 1.16.12 1.65.35s.89.6 1.21 1.09c.29.44.47.95.56 1.53.05.34.07.83.06 1.47h-5.03c.03.74.26 1.26.69 1.56.27.19.58.28.96.28.4 0 .72-.11.96-.34.14-.12.25-.29.36-.51h1.96zm-1.9-2.27c-.03-.51-.19-.9-.46-1.16-.28-.26-.62-.4-1.03-.4-.45 0-.79.14-1.04.42s-.4.66-.46 1.14z"/></g><path d="m0 0h160v600h-160z" fill="none"/></svg>