<svg height="600" viewBox="0 0 160 600" width="160" xmlns="http://www.w3.org/2000/svg"><g fill="#fefefe"><path d="m67.93 56.66h-5.5c-.4 0-.75-.35-.75-.75 0-.19.08-.35.19-.49l1.02-1.21v-14.91h-.65c-.94 0-1.81.49-2.32 1.27l-1.54 2.35c-.13.19-.35.3-.57.3-.38 0-.67-.3-.67-.67v-4.58c0-.43.38-.81.81-.81h14.45c.46 0 .81.38.81.81v4.58c0 .38-.3.67-.67.67-.22 0-.43-.11-.57-.3l-1.54-2.35c-.51-.78-1.38-1.27-2.32-1.27h-.65v14.91l1.02 1.21c.11.13.19.3.19.49 0 .4-.35.75-.75.75z"/><path d="m88.74 54.2 1.05 1.21c.11.13.16.3.16.49 0 .4-.32.75-.75.75h-5.47c-.43 0-.75-.35-.75-.75 0-.19.05-.35.16-.49l1.03-1.21v-5.53c0-3.21-.32-4.34-1.54-4.34-.73 0-1.43.62-2 1.35v8.52l1.02 1.21c.11.13.19.3.19.49 0 .4-.35.75-.75.75h-5.5c-.4 0-.75-.35-.75-.75 0-.19.08-.35.19-.49l1.02-1.21v-13.45l-.92-.81c-.19-.16-.3-.4-.3-.65 0-.38.27-.73.62-.84l3.86-1.16c.11-.03.22-.05.32-.05.19 0 .38.05.54.19.3.19.46.49.46.84v5.82c.84-.81 1.97-1.51 3.37-1.51 2 0 4.75 1.16 4.75 5.55v6.07z"/><path d="m96.07 51.37c.78 1.43 2.08 2.53 4.04 2.53 1.73 0 2.91-1.19 3.48-1.86.13-.16.32-.24.54-.24.11 0 .22.03.32.08.35.16.51.59.32.94-.67 1.32-2.53 4.1-6.44 4.1-4.31 0-7.04-2.97-7.04-7.17s2.99-7.2 7.31-7.2c2.54 0 4.85 1.48 5.96 4.85.13.4-.08.86-.49 1l-8.01 2.97zm-.54-1.38 5.12-1.91c-1.02-2.64-2.29-3.77-3.45-3.77-.19 0-.38.03-.57.08-1.32.46-1.81 3.18-1.11 5.61z"/><path d="m37.39 85.18c-.65 1.32-2.53 4.1-6.42 4.1-4.34 0-7.06-2.97-7.06-7.17s2.99-7.2 7.33-7.2c2.32 0 4.31.7 5.64 2.56.89 1.24.32 3.02-1.13 3.53-.27.11-.54.16-.84.16-.92 0-1.81-.57-2.16-1.51-.94-2.4-1.81-3.05-2.78-3.05-3.07 0-2.75 9.65 2.75 9.65 1.73 0 2.91-1.19 3.48-1.86.13-.16.32-.24.54-.24.11 0 .24.03.35.08.35.16.48.59.3.94z"/><path d="m52.09 86.55 1.02 1.21c.13.13.19.3.19.49 0 .4-.35.75-.75.75h-3.07c-.94 0-1.75-.67-1.91-1.56-1.05.92-2.53 1.83-4.31 1.83-2.45 0-4.39-1.21-4.39-3.59 0-3.72 6.12-4.93 8.65-5.26v-.86c0-2.51-1.11-3.45-2.27-3.45-1.24 0-1.73 1.13-1.91 2.43-.11.84-.84 1.48-1.7 1.48-1.43 0-2.26-1.62-1.4-2.75 1.16-1.59 3.34-2.37 5.47-2.37 3.69 0 6.39 1.27 6.39 5.39v6.26zm-6.85.62c.78 0 1.62-.57 2.27-1.19v-4.39c-1.7.27-3.8 1.24-3.8 3.64 0 1.29.49 1.94 1.54 1.94z"/><path d="m54.94 72.29c-.19-.16-.3-.4-.3-.65 0-.38.27-.73.62-.84l3.86-1.16c.11-.03.22-.05.32-.05.19 0 .38.05.54.19.3.19.46.49.46.84v15.93l1.02 1.21c.11.13.19.3.19.49 0 .4-.35.75-.75.75h-5.5c-.4 0-.75-.35-.75-.75 0-.19.08-.35.19-.49l1.02-1.21v-13.45z"/><path d="m67.78 83.72c.78 1.43 2.08 2.53 4.04 2.53 1.73 0 2.91-1.19 3.48-1.86.13-.16.32-.24.54-.24.11 0 .22.03.32.08.35.16.51.59.32.94-.67 1.32-2.53 4.1-6.44 4.1-4.31 0-7.04-2.97-7.04-7.17s2.99-7.2 7.31-7.2c2.53 0 4.85 1.48 5.96 4.85.13.4-.08.86-.49 1l-8.01 2.97zm-.54-1.38 5.12-1.91c-1.02-2.64-2.29-3.77-3.45-3.77-.19 0-.38.03-.57.08-1.32.46-1.81 3.18-1.11 5.61z"/><path d="m92.28 89.01h-5.47c-.43 0-.75-.35-.75-.75 0-.19.05-.35.16-.49l1.02-1.21v-5.53c0-3.21-.35-4.34-1.54-4.34-.73 0-1.43.62-2 1.35v8.52l1.02 1.21c.11.13.19.3.19.49 0 .4-.35.75-.75.75h-5.5c-.4 0-.75-.35-.75-.75 0-.19.08-.35.19-.49l1.02-1.21v-8.17l-.92-.81c-.19-.16-.3-.4-.3-.65 0-.38.24-.7.62-.84l3.85-1.16c.11-.03.22-.05.32-.05.19 0 .38.05.54.19.3.19.46.51.46.84v.54c.84-.81 1.97-1.51 3.37-1.51 2 0 4.75 1.16 4.75 5.55v6.07l1.02 1.21c.13.13.19.3.19.49 0 .4-.35.75-.75.75z"/><path d="m105.79 89.01c-.67 0-1.24-.32-1.59-.84-.57.4-1.78 1.11-3.45 1.11-3.13 0-6.09-2.1-6.09-7.17s3.29-7.17 5.8-7.17c1.75 0 2.86.54 3.4.89v-2.72l-.92-.81c-.19-.16-.3-.4-.3-.65 0-.38.27-.73.62-.84l3.86-1.16c.11-.03.22-.05.32-.05.19 0 .38.05.54.19.3.19.46.49.46.84v15.93l1.02 1.21c.11.13.19.3.19.49 0 .4-.35.75-.75.75h-3.1zm-3.96-1.48c1.29 0 2.02-.92 2.02-.92v-9.03s-.59-.89-1.86-.89-2.75 1.64-2.75 5.42.94 5.42 2.59 5.42z"/><path d="m124.23 86.55 1.03 1.21c.13.13.19.3.19.49 0 .4-.35.75-.75.75h-3.07c-.94 0-1.75-.67-1.91-1.56-1.05.92-2.53 1.83-4.31 1.83-2.45 0-4.4-1.21-4.4-3.59 0-3.72 6.12-4.93 8.66-5.26v-.86c0-2.51-1.11-3.45-2.26-3.45-1.24 0-1.73 1.13-1.92 2.43-.11.84-.83 1.48-1.7 1.48-1.43 0-2.26-1.62-1.4-2.75 1.16-1.59 3.34-2.37 5.47-2.37 3.69 0 6.39 1.27 6.39 5.39v6.26zm-6.85.62c.78 0 1.62-.57 2.26-1.19v-4.39c-1.7.27-3.8 1.24-3.8 3.64 0 1.29.49 1.94 1.54 1.94z"/><path d="m136.39 79.33c-1.11 0-1.81-1.7-2.67-1.7-.32 0-.7.27-1.13 1.02v7.9l1.02 1.21c.11.13.19.3.19.49 0 .4-.35.75-.75.75h-5.5c-.4 0-.75-.35-.75-.75 0-.19.08-.35.19-.49l1.02-1.21v-8.17l-.92-.81c-.19-.16-.3-.4-.3-.65 0-.38.24-.7.62-.84l3.86-1.16c.11-.03.22-.05.32-.05.19 0 .38.05.54.19.3.19.46.51.46.84v1.27c.86-1.27 2.02-2.35 3.64-2.35 1.11 0 2.08.7 2.35 1.73.27 1.24-.54 2.78-2.18 2.78z"/><path d="m57.51 118.91 1.02 1.21c.13.13.19.3.19.49 0 .4-.35.75-.75.75h-3.07c-.94 0-1.75-.67-1.91-1.56-1.05.92-2.53 1.83-4.31 1.83-2.45 0-4.39-1.21-4.39-3.59 0-3.72 6.12-4.93 8.65-5.26v-.86c0-2.51-1.11-3.45-2.27-3.45-1.24 0-1.73 1.13-1.91 2.43-.11.84-.84 1.48-1.7 1.48-1.43 0-2.26-1.62-1.4-2.75 1.16-1.59 3.34-2.37 5.47-2.37 3.69 0 6.39 1.27 6.39 5.39v6.26zm-6.85.62c.78 0 1.62-.57 2.27-1.19v-4.39c-1.7.27-3.8 1.24-3.8 3.64 0 1.29.49 1.94 1.54 1.94z"/><path d="m60.36 104.64c-.19-.16-.3-.4-.3-.65 0-.38.27-.73.62-.84l3.86-1.16c.11-.03.22-.05.32-.05.19 0 .38.05.54.19.3.19.46.49.46.84v15.93l1.02 1.21c.11.13.19.3.19.49 0 .4-.35.75-.75.75h-5.5c-.4 0-.75-.35-.75-.75 0-.19.08-.35.19-.49l1.02-1.21v-13.45z"/><path d="m73.2 116.08c.78 1.43 2.08 2.53 4.04 2.53 1.73 0 2.91-1.19 3.48-1.86.13-.16.32-.24.54-.24.11 0 .22.03.32.08.35.16.51.59.32.94-.67 1.32-2.53 4.1-6.44 4.1-4.31 0-7.04-2.97-7.04-7.17s2.99-7.2 7.31-7.2c2.53 0 4.85 1.48 5.96 4.85.13.4-.08.86-.49 1l-8.01 2.97zm-.54-1.38 5.12-1.91c-1.02-2.64-2.29-3.77-3.45-3.77-.19 0-.38.03-.57.08-1.32.46-1.81 3.18-1.11 5.61z"/><path d="m92.93 111.68c-1.11 0-1.81-1.7-2.67-1.7-.32 0-.7.27-1.13 1.02v7.9l1.02 1.21c.11.13.19.3.19.49 0 .4-.35.75-.75.75h-5.5c-.4 0-.75-.35-.75-.75 0-.19.08-.35.19-.49l1.02-1.21v-8.17l-.92-.81c-.19-.16-.3-.4-.3-.65 0-.38.24-.7.62-.84l3.86-1.16c.11-.03.22-.05.32-.05.19 0 .38.05.54.19.3.19.46.51.46.84v1.27c.86-1.27 2.02-2.35 3.64-2.35 1.11 0 2.08.7 2.35 1.73.27 1.24-.54 2.78-2.18 2.78z"/><path d="m105.22 118.8c.24.27.24.7-.03.94-.73.7-2.27 1.89-4.5 1.89-1.54 0-3.21-1.13-3.21-3.37v-9.52h-.65c-.46-.03-.86-.4-.86-.89 0-.35.24-.67.57-.81 2.45-.89 3.69-2.27 4.31-3.13.13-.16.35-.27.57-.27.38 0 .65.3.65.67v2.94l2.05.03c.4 0 .73.32.73.73 0 .43-.32.75-.73.75l-2.05-.03v8.6c0 .97.43 1.65 1.32 1.65.35 0 .67-.14.92-.3.13-.08.27-.13.4-.13.19 0 .38.08.49.22l.03.03z"/><path d="m116.87 111.55c-.24 0-.46-.13-.57-.32-.46-.81-1.78-2.8-3.42-2.8-.73 0-1.43.35-1.43 1.48 0 3.26 6.55 2.18 6.55 7.31 0 2.8-3.07 4.37-6.39 4.37-2.18 0-3.67-.49-4.37-.81-.3-.11-.49-.4-.49-.73v-2.62c0-.4.35-.75.75-.75.32 0 .59.22.7.51.38 1 1.38 3.18 3.32 3.18 1.16 0 1.81-.92 1.81-1.94 0-3.21-6.58-1.97-6.58-7.17 0-2.75 2.64-4.02 5.64-4.02 2.05 0 3.75.51 4.58.81.32.11.54.43.54.75v2.1c0 .35-.3.65-.65.65z"/><path d="m62.45 149.88c-.65 1.32-2.53 4.1-6.42 4.1-4.34 0-7.06-2.97-7.06-7.17s2.99-7.2 7.33-7.2c2.32 0 4.31.7 5.64 2.56.89 1.24.32 3.02-1.13 3.53-.27.11-.54.16-.84.16-.92 0-1.81-.57-2.16-1.51-.94-2.4-1.81-3.05-2.78-3.05-3.07 0-2.75 9.65 2.75 9.65 1.73 0 2.91-1.19 3.48-1.86.13-.16.32-.24.54-.24.11 0 .24.03.35.08.35.16.48.59.3.94z"/><path d="m77.15 151.26 1.02 1.21c.13.13.19.3.19.49 0 .4-.35.75-.75.75h-3.07c-.94 0-1.75-.67-1.91-1.56-1.05.92-2.53 1.83-4.31 1.83-2.45 0-4.39-1.21-4.39-3.59 0-3.72 6.12-4.93 8.65-5.26v-.86c0-2.51-1.11-3.45-2.27-3.45-1.24 0-1.73 1.13-1.91 2.43-.11.84-.84 1.48-1.7 1.48-1.43 0-2.26-1.62-1.4-2.75 1.16-1.59 3.34-2.37 5.47-2.37 3.69 0 6.39 1.27 6.39 5.39v6.26zm-6.85.62c.78 0 1.62-.57 2.27-1.19v-4.39c-1.7.27-3.8 1.24-3.8 3.64 0 1.29.49 1.94 1.54 1.94z"/><path d="m94.08 153.71h-5.47c-.43 0-.75-.35-.75-.75 0-.19.05-.35.16-.49l1.03-1.21v-5.53c0-3.21-.35-4.34-1.54-4.34-.73 0-1.43.62-2 1.35v8.52l1.02 1.21c.11.13.19.3.19.49 0 .4-.35.75-.75.75h-5.5c-.4 0-.75-.35-.75-.75 0-.19.08-.35.19-.49l1.02-1.21v-8.17l-.92-.81c-.19-.16-.3-.4-.3-.65 0-.38.24-.7.62-.84l3.86-1.16c.11-.03.22-.05.32-.05.19 0 .38.05.54.19.3.19.46.51.46.84v.54c.84-.81 1.97-1.51 3.37-1.51 2 0 4.75 1.16 4.75 5.55v6.07l1.02 1.21c.13.13.19.3.19.49 0 .4-.35.75-.75.75z"/><path d="m96.72 135.57c.03-1.35 1.13-2.43 2.45-2.45 1.4 0 2.53 1.11 2.53 2.51v.05c-.03 2.86-1.89 4.93-2.94 5.88-.16.16-.38.22-.57.22-.24 0-.49-.08-.65-.3-.32-.35-.3-.89.05-1.21.19-.19.41-.38.62-.62.54-.57.41-1.48-.27-1.89-.75-.43-1.24-1.24-1.24-2.18z"/><path d="m112.84 151.15c.24.27.24.7-.03.94-.73.7-2.26 1.89-4.5 1.89-1.54 0-3.21-1.13-3.21-3.37v-9.52h-.65c-.46-.03-.86-.4-.86-.89 0-.35.24-.67.57-.81 2.45-.89 3.69-2.27 4.31-3.13.13-.16.35-.27.57-.27.38 0 .65.3.65.67v2.94l2.05.03c.4 0 .73.32.73.73 0 .43-.32.76-.73.76l-2.05-.03v8.6c0 .97.43 1.65 1.32 1.65.35 0 .67-.14.92-.3.13-.08.27-.13.4-.13.19 0 .38.08.49.22l.03.03z"/><path d="m53.89 176.38c-1.11 0-1.81-1.7-2.67-1.7-.32 0-.7.27-1.13 1.02v7.9l1.02 1.21c.11.13.19.3.19.49 0 .4-.35.75-.75.75h-5.5c-.4 0-.75-.35-.75-.75 0-.19.08-.35.19-.49l1.02-1.21v-8.17l-.92-.81c-.19-.16-.3-.4-.3-.65 0-.38.24-.7.62-.84l3.86-1.16c.11-.03.22-.05.32-.05.19 0 .38.05.54.19.3.19.46.51.46.84v1.27c.86-1.27 2.02-2.35 3.64-2.35 1.11 0 2.08.7 2.35 1.73.27 1.24-.54 2.78-2.18 2.78z"/><path d="m61.44 180.78c.78 1.43 2.08 2.53 4.04 2.53 1.73 0 2.91-1.19 3.48-1.86.13-.16.32-.24.54-.24.11 0 .22.03.32.08.35.16.51.59.32.94-.67 1.32-2.53 4.1-6.44 4.1-4.31 0-7.04-2.97-7.04-7.17s2.99-7.2 7.31-7.2c2.53 0 4.85 1.48 5.96 4.85.13.4-.08.86-.49 1l-8.01 2.97zm-.54-1.38 5.12-1.91c-1.02-2.64-2.29-3.77-3.45-3.77-.19 0-.38.03-.57.08-1.32.46-1.81 3.18-1.11 5.61z"/><path d="m85.09 183.61 1.02 1.21c.13.13.19.3.19.49 0 .4-.35.75-.75.75h-3.07c-.94 0-1.75-.67-1.91-1.56-1.05.92-2.53 1.83-4.31 1.83-2.45 0-4.39-1.21-4.39-3.59 0-3.72 6.12-4.93 8.65-5.26v-.86c0-2.51-1.1-3.45-2.26-3.45-1.24 0-1.73 1.13-1.91 2.43-.11.84-.84 1.48-1.7 1.48-1.43 0-2.26-1.62-1.4-2.75 1.16-1.59 3.34-2.37 5.47-2.37 3.69 0 6.39 1.27 6.39 5.39v6.26zm-6.85.62c.78 0 1.62-.57 2.26-1.19v-4.39c-1.7.27-3.8 1.24-3.8 3.64 0 1.29.49 1.94 1.54 1.94z"/><path d="m101.13 182.24c-.65 1.32-2.53 4.1-6.42 4.1-4.34 0-7.06-2.97-7.06-7.17s2.99-7.2 7.33-7.2c2.32 0 4.31.7 5.63 2.56.89 1.24.32 3.02-1.13 3.53-.27.11-.54.16-.84.16-.92 0-1.81-.57-2.16-1.51-.94-2.4-1.81-3.05-2.78-3.05-3.07 0-2.75 9.65 2.75 9.65 1.73 0 2.91-1.19 3.48-1.86.13-.16.32-.24.54-.24.11 0 .24.03.35.08.35.16.49.59.3.94z"/><path d="m116.49 183.61 1.05 1.21c.11.13.16.3.16.49 0 .4-.32.75-.75.75h-5.47c-.43 0-.75-.35-.75-.75 0-.19.05-.35.16-.49l1.02-1.21v-5.53c0-3.21-.32-4.34-1.54-4.34-.73 0-1.43.62-2 1.35v8.52l1.02 1.21c.11.13.19.3.19.49 0 .4-.35.75-.75.75h-5.5c-.4 0-.75-.35-.75-.75 0-.19.08-.35.19-.49l1.02-1.21v-13.45l-.92-.81c-.19-.16-.3-.4-.3-.65 0-.38.27-.73.62-.84l3.86-1.16c.11-.03.22-.05.32-.05.19 0 .38.05.54.19.3.19.46.49.46.84v5.82c.84-.81 1.97-1.51 3.37-1.51 2 0 4.75 1.16 4.75 5.55z"/><path d="m29.53 219.87c-1.19 2.67-3.18 5.01-6.31 5.01-1.21 0-2.32-.78-2.59-1.91-.32-1.38.62-2.75 2.08-3.1.19-.05.3-.05.46-.05h.54c1.08 0 1.86.4 2.48.4.49 0 .86-.22 1.21-1l.38-.81-5.26-11.62-1.21-1.21c-.16-.13-.22-.32-.22-.51 0-.4.32-.73.73-.73h6.28c.43 0 .78.35.78.78 0 .16-.05.32-.13.46l-.89 1.21 2.29 5.26c.05.11.13.16.24.16.08 0 .19-.05.24-.16l2.48-5.5-.86-.97c-.16-.16-.22-.38-.19-.59.05-.38.38-.65.75-.65h3.34c.4 0 .73.32.73.73 0 .19-.08.38-.22.51l-1.21 1.21-5.93 13.08z"/><path d="m44.2 204.31c4.34 0 7.33 2.99 7.33 7.2s-2.99 7.17-7.33 7.17-7.31-2.97-7.31-7.17 2.99-7.2 7.31-7.2zm-2.43 7.63c.67 3.72 1.62 5.2 3.02 5.2.13 0 .27 0 .4-.03 1.64-.3 2.16-1.97 1.46-6.04-.67-3.72-1.62-5.2-3.05-5.2-.13 0-.27 0-.4.03-1.62.27-2.16 1.97-1.43 6.04z"/><path d="m65.85 204.34c.46 0 .81.35.81.81v10.08l.92.78c.16.16.27.35.3.59.03.4-.22.78-.62.92l-3.86 1.16c-.11.03-.22.05-.3.05-.54 0-1.02-.49-1.02-1.02v-.75c-.81.92-1.94 1.73-3.37 1.73-1.97 0-4.75-1.16-4.75-5.55v-6.34l-1.02-1.21c-.11-.13-.19-.3-.19-.49 0-.4.35-.75.75-.75h4.23c.46 0 .81.35.81.81v7.44c0 3.21.35 4.18 1.54 4.18.75 0 1.46-.7 2-1.48v-8.49l-1.02-1.21c-.11-.13-.16-.3-.16-.49 0-.4.32-.75.75-.75h4.21z"/><path d="m90.17 215.96 1.05 1.21c.11.13.16.3.16.49 0 .4-.32.75-.75.75h-5.47c-.43 0-.75-.35-.75-.75 0-.19.05-.35.16-.49l1.02-1.21v-5.53c0-3.21-.32-4.34-1.54-4.34-.73 0-1.43.62-2 1.35v8.52l1.02 1.21c.11.13.19.3.19.49 0 .4-.35.75-.75.75h-5.5c-.4 0-.75-.35-.75-.75 0-.19.08-.35.19-.49l1.02-1.21v-13.45l-.92-.81c-.19-.16-.3-.4-.3-.65 0-.38.27-.73.62-.84l3.85-1.16c.11-.03.22-.05.32-.05.19 0 .38.05.54.19.3.19.46.49.46.84v5.82c.84-.81 1.97-1.51 3.37-1.51 2 0 4.75 1.16 4.75 5.55v6.07z"/><path d="m97.5 213.13c.78 1.43 2.08 2.53 4.04 2.53 1.73 0 2.91-1.19 3.48-1.86.13-.16.32-.24.54-.24.11 0 .22.03.32.08.35.16.51.59.32.94-.67 1.32-2.53 4.1-6.44 4.1-4.31 0-7.04-2.97-7.04-7.17s2.99-7.2 7.31-7.2c2.54 0 4.85 1.48 5.96 4.85.13.4-.08.86-.49 1l-8.01 2.97zm-.54-1.38 5.12-1.91c-1.02-2.64-2.29-3.77-3.45-3.77-.19 0-.38.03-.57.08-1.32.46-1.81 3.18-1.11 5.61z"/><path d="m117.24 208.74c-1.11 0-1.81-1.7-2.67-1.7-.32 0-.7.27-1.13 1.02v7.9l1.02 1.21c.11.13.19.3.19.49 0 .4-.35.75-.75.75h-5.5c-.4 0-.75-.35-.75-.75 0-.19.08-.35.19-.49l1.02-1.21v-8.17l-.92-.81c-.19-.16-.3-.4-.3-.65 0-.38.24-.7.62-.84l3.86-1.16c.11-.03.22-.05.32-.05.19 0 .38.05.54.19.3.19.46.51.46.84v1.27c.86-1.27 2.02-2.35 3.64-2.35 1.11 0 2.08.7 2.35 1.73.27 1.24-.54 2.78-2.18 2.78z"/><path d="m124.78 213.13c.78 1.43 2.08 2.53 4.04 2.53 1.73 0 2.91-1.19 3.48-1.86.13-.16.32-.24.54-.24.11 0 .22.03.32.08.35.16.51.59.32.94-.67 1.32-2.53 4.1-6.44 4.1-4.31 0-7.04-2.97-7.04-7.17s2.99-7.2 7.31-7.2c2.54 0 4.85 1.48 5.96 4.85.13.4-.08.86-.49 1l-8.01 2.97zm-.54-1.38 5.12-1.91c-1.02-2.64-2.29-3.77-3.45-3.77-.19 0-.38.03-.57.08-1.32.46-1.81 3.18-1.11 5.61z"/><path d="m137.94 213.7c1.38 0 2.48 1.13 2.48 2.51s-1.1 2.48-2.48 2.48-2.48-1.11-2.48-2.48 1.11-2.51 2.48-2.51z"/></g><path d="m0 0h160v600h-160z" fill="none"/></svg>