<svg height="600" viewBox="0 0 160 600" width="160" xmlns="http://www.w3.org/2000/svg"><g fill="#fff"><path d="m24.74 574.35c-.18.35-.45.78-.79 1.29s-.79.99-1.35 1.45c-.55.46-1.21.86-1.98 1.19s-1.66.5-2.67.5c-.74 0-1.56-.14-2.46-.41-.91-.28-1.76-.74-2.57-1.39s-1.48-1.52-2.03-2.6-.82-2.43-.82-4.04.27-2.96.82-4.04c.54-1.08 1.22-1.95 2.03-2.6s1.66-1.12 2.57-1.39c.91-.28 1.73-.41 2.46-.41.64 0 1.28.07 1.91.2s1.23.35 1.81.64c.58.3 1.11.7 1.59 1.21s.9 1.13 1.26 1.87c.14.29.21.6.22.92 0 .32-.04.63-.15.91s-.27.54-.48.76c-.22.22-.48.4-.78.52l-.02.02c-.29.12-.58.18-.88.18-.49 0-.95-.16-1.37-.47s-.7-.73-.84-1.26c-.29-1.07-.74-1.89-1.35-2.44s-1.28-.83-2.02-.83c-.57 0-1.02.17-1.36.52s-.6.77-.77 1.28c-.18.51-.29 1.04-.33 1.6-.05.56-.07 1.05-.07 1.46 0 .84.12 1.69.37 2.53s.59 1.6 1.05 2.28c.45.68 1.01 1.22 1.66 1.64.65.41 1.39.62 2.22.62.51 0 .97-.08 1.39-.25s.79-.38 1.12-.62c.32-.25.6-.51.83-.78.23-.28.41-.52.55-.74.15-.23.36-.35.62-.35.11 0 .21.02.3.07.18.09.31.23.37.43.06.19.05.38-.05.56z"/><path d="m31.3 566.49c.92 0 1.77.15 2.53.46.77.31 1.43.73 1.98 1.27s.98 1.18 1.29 1.94c.31.75.46 1.58.46 2.49s-.15 1.71-.46 2.46-.74 1.4-1.29 1.95-1.21.97-1.98 1.27-1.61.45-2.53.45-1.77-.15-2.53-.45c-.77-.3-1.42-.72-1.97-1.27-.55-.54-.97-1.19-1.28-1.95-.31-.75-.46-1.57-.46-2.46s.15-1.74.46-2.49.73-1.4 1.28-1.94c.54-.54 1.2-.96 1.97-1.27s1.61-.46 2.53-.46zm-.85 1.36c-.69.11-1.14.56-1.36 1.36s-.17 2.07.14 3.8c.29 1.6.64 2.74 1.06 3.42.41.68.92 1.03 1.52 1.03.15 0 .27 0 .35-.02.71-.12 1.17-.58 1.38-1.37s.17-2.05-.14-3.79c-.29-1.6-.64-2.74-1.06-3.42-.41-.68-.93-1.03-1.54-1.03-.15 0-.27 0-.35.02z"/><path d="m37.8 577.89c0-.17.05-.31.16-.41l.88-1.04v-6.98l-.78-.69c-.17-.14-.25-.32-.25-.55 0-.35.18-.59.53-.71l3.29-.99c.12-.03.21-.05.28-.05.18 0 .34.05.46.16.26.17.39.41.39.71v.46c.35-.35.77-.66 1.24-.91.48-.25 1.02-.38 1.64-.38.29 0 .59.03.91.09.31.06.63.17.94.32s.61.36.89.61.51.57.71.96c.18-.23.39-.46.62-.7s.49-.45.78-.63.61-.34.96-.46.72-.18 1.12-.18c.43 0 .88.07 1.36.22s.92.4 1.32.75c.41.35.74.84 1 1.45s.39 1.39.39 2.33v5.18l.88 1.04c.09.11.14.25.14.41s-.06.32-.18.45-.28.2-.46.2h-4.68c-.18 0-.34-.07-.46-.2s-.18-.28-.18-.45.05-.31.14-.41l.9-1.04v-4.72c0-1.37-.09-2.33-.28-2.88-.18-.55-.54-.83-1.06-.83-.37 0-.71.15-1.04.45-.32.3-.61.63-.88 1 .14.51.21 1.11.21 1.8v5.18l.88 1.04c.11.11.16.25.16.41s-.07.32-.2.45-.28.2-.45.2h-4.68c-.18 0-.34-.07-.47-.2s-.2-.28-.2-.45c0-.14.05-.28.16-.41l.88-1.04v-4.72c0-1.37-.09-2.33-.28-2.88s-.53-.83-1.04-.83c-.32 0-.63.12-.92.35s-.55.5-.78.81v7.28l.88 1.04c.09.11.14.25.14.41s-.06.32-.18.45-.28.2-.46.2h-4.68c-.17 0-.32-.07-.45-.2s-.2-.28-.2-.45z"/><path d="m63.07 567.76v8.68l.88 1.04c.09.11.14.25.14.41s-.06.32-.18.45-.28.2-.46.2h-4.68c-.18 0-.34-.07-.46-.2s-.18-.28-.18-.45.05-.31.14-.41l.9-1.04v-8.68h-.41c-.17-.02-.31-.08-.44-.21-.12-.12-.18-.27-.18-.44s.06-.32.18-.45.28-.19.46-.17h.39c0-.74.1-1.39.29-1.96s.46-1.05.81-1.45.75-.7 1.22-.91.97-.31 1.51-.31c.46 0 .86.1 1.21.3s.65.43.91.69c.12.14.21.29.26.45s.07.33.06.5c-.02.17-.07.33-.15.48s-.2.28-.36.39c-.2.14-.42.21-.67.21-.26 0-.5-.07-.7-.22-.21-.15-.36-.35-.45-.61-.09-.29-.22-.55-.39-.77s-.41-.33-.71-.33c-.35 0-.61.1-.77.31s-.24.44-.24.7c0 .41.1.78.29 1.08.19.31.41.56.66.77s.48.36.69.47.35.18.41.21l1.52.02c.17 0 .31.06.44.18.12.12.18.27.18.44 0 .18-.06.34-.18.46s-.27.18-.44.18l-1.47-.02z"/><path d="m71.22 566.49c.92 0 1.77.15 2.53.46.77.31 1.43.73 1.98 1.27s.98 1.18 1.29 1.94c.31.75.46 1.58.46 2.49s-.15 1.71-.46 2.46-.74 1.4-1.29 1.95-1.21.97-1.98 1.27-1.61.45-2.53.45-1.77-.15-2.53-.45c-.77-.3-1.42-.72-1.97-1.27-.55-.54-.97-1.19-1.28-1.95-.31-.75-.46-1.57-.46-2.46s.15-1.74.46-2.49.73-1.4 1.28-1.94c.54-.54 1.2-.96 1.97-1.27s1.61-.46 2.53-.46zm-.85 1.36c-.69.11-1.14.56-1.36 1.36s-.17 2.07.14 3.8c.29 1.6.64 2.74 1.06 3.42.41.68.92 1.03 1.52 1.03.15 0 .27 0 .35-.02.71-.12 1.17-.58 1.38-1.37s.17-2.05-.14-3.79c-.29-1.6-.64-2.74-1.06-3.42-.41-.68-.93-1.03-1.54-1.03-.15 0-.27 0-.35.02z"/><path d="m83.55 577.48c.11.14.16.28.16.41 0 .17-.07.32-.2.45s-.28.2-.45.2h-4.7c-.17 0-.32-.07-.45-.2s-.2-.28-.2-.45c0-.14.05-.28.16-.41l.88-1.04v-6.98l-.78-.69c-.17-.14-.25-.32-.25-.55 0-.35.18-.59.53-.71l3.29-.99c.12-.03.21-.05.28-.05.18 0 .34.05.46.16.26.17.39.41.39.71v1.08c.37-.54.81-1.01 1.31-1.41.51-.4 1.11-.6 1.8-.6.48 0 .9.13 1.27.4s.61.63.74 1.07c.06.26.07.53.01.82-.05.28-.16.54-.32.77s-.37.42-.63.56c-.26.15-.57.22-.92.22-.23 0-.45-.08-.64-.23-.2-.15-.39-.32-.58-.5-.18-.18-.36-.34-.53-.5-.17-.15-.35-.23-.53-.23-.14 0-.29.07-.45.2s-.33.36-.52.68v6.75l.88 1.04z"/><path d="m95.18 567.14c0 .18-.06.34-.18.46s-.27.18-.44.18l-1.75-.02v7.35c0 .41.09.75.28 1.01.18.26.47.39.85.39.15 0 .3-.02.43-.07s.25-.11.36-.18c.12-.08.24-.12.35-.12.18 0 .32.06.41.18l.02.02c.11.12.16.26.16.41s-.06.28-.18.39c-.15.15-.35.32-.59.51-.24.18-.52.36-.84.52s-.69.3-1.09.41c-.41.12-.85.17-1.32.17-.32 0-.65-.06-.98-.18s-.63-.3-.89-.54-.47-.54-.63-.9-.24-.78-.24-1.26v-8.13h-.55c-.2-.02-.37-.09-.52-.23s-.22-.31-.22-.53c0-.15.05-.29.14-.41s.21-.21.35-.28c1.04-.38 1.85-.83 2.43-1.35.58-.51.99-.96 1.26-1.32.12-.15.28-.23.48-.23.17 0 .3.05.4.16s.15.25.15.41v2.51l1.75.02c.17 0 .31.06.44.18.12.12.18.27.18.44z"/><path d="m107.39 564.07c.05-.08.05-.16 0-.24s-.11-.13-.18-.13h-1.45c-.86 0-1.66.2-2.41.61s-1.36.97-1.83 1.69l-.53.78c-.09.17-.25.25-.46.25-.17 0-.31-.05-.41-.16-.11-.11-.16-.25-.16-.41v-3.92c0-.18.07-.35.2-.48.13-.14.3-.21.5-.21h10.16c.4 0 .74.14 1.01.41.28.28.41.61.41 1.01 0 .26-.08.52-.23.78l-7.81 12.28c-.05.08-.05.15 0 .23s.11.12.18.12h2.03c.88 0 1.69-.2 2.43-.6s1.36-.97 1.83-1.7l.51-.76c.14-.18.3-.28.48-.28.17 0 .31.06.41.17.11.12.16.25.16.4v3.92c0 .2-.07.37-.21.5s-.3.2-.48.2h-10.76c-.4 0-.74-.14-1.01-.41-.28-.28-.41-.61-.41-1.01 0-.25.08-.5.23-.76l7.81-12.28z"/><path d="m118.7 566.49c.92 0 1.77.15 2.53.46.77.31 1.43.73 1.98 1.27s.98 1.18 1.29 1.94c.31.75.46 1.58.46 2.49s-.15 1.71-.46 2.46-.74 1.4-1.29 1.95-1.21.97-1.98 1.27-1.61.45-2.53.45-1.77-.15-2.53-.45c-.77-.3-1.42-.72-1.97-1.27-.55-.54-.97-1.19-1.28-1.95-.31-.75-.46-1.57-.46-2.46s.15-1.74.46-2.49.73-1.4 1.28-1.94c.54-.54 1.2-.96 1.97-1.27s1.61-.46 2.53-.46zm-.85 1.36c-.69.11-1.14.56-1.36 1.36s-.17 2.07.14 3.8c.29 1.6.64 2.74 1.06 3.42.41.68.92 1.03 1.52 1.03.15 0 .27 0 .35-.02.71-.12 1.17-.58 1.38-1.37s.17-2.05-.14-3.79c-.29-1.6-.64-2.74-1.06-3.42-.41-.68-.93-1.03-1.54-1.03-.15 0-.27 0-.35.02z"/><path d="m132.8 578.54c-.18 0-.34-.07-.46-.2s-.18-.28-.18-.45.05-.31.14-.41l.88-1.04v-4.72c0-1.37-.09-2.33-.28-2.88s-.53-.83-1.04-.83c-.31 0-.61.12-.9.35s-.56.5-.81.81v7.28l.88 1.04c.11.14.16.28.16.41 0 .17-.07.32-.2.45s-.28.2-.45.2h-4.7c-.17 0-.32-.07-.45-.2s-.2-.28-.2-.45c0-.14.05-.28.16-.41l.88-1.04v-6.98l-.78-.69c-.17-.14-.25-.32-.25-.55 0-.35.18-.59.53-.71l3.29-.99c.12-.03.21-.05.28-.05.18 0 .34.05.46.16.26.17.39.41.39.71v.46c.35-.35.77-.66 1.26-.91s1.03-.38 1.62-.38c.43 0 .88.07 1.36.22s.91.4 1.31.75.73.84.99 1.45.39 1.39.39 2.33v5.18l.88 1.04c.11.11.16.25.16.41s-.07.32-.2.45-.28.2-.45.2h-4.68z"/><path d="m149.87 575.27c-.14.28-.35.61-.63 1.01s-.64.78-1.08 1.15-.97.68-1.6.94-1.36.39-2.19.39c-.92 0-1.75-.15-2.5-.45s-1.37-.72-1.89-1.27c-.51-.54-.91-1.19-1.2-1.95-.28-.75-.43-1.57-.43-2.46s.15-1.74.46-2.49.73-1.4 1.28-1.94c.54-.54 1.2-.96 1.97-1.27s1.61-.46 2.53-.46c1.09 0 2.09.33 3.01.99.91.66 1.61 1.71 2.08 3.16.06.17.05.34-.03.51s-.21.28-.38.35l-6.84 2.53c.34.61.79 1.13 1.35 1.54s1.26.62 2.11.62c.37 0 .71-.06 1.01-.17.31-.12.59-.25.84-.41s.47-.33.66-.52c.18-.18.34-.35.46-.48.12-.14.28-.21.46-.21.09 0 .18.02.28.07.15.08.26.19.31.35.05.15.04.31-.03.46zm-6.47-7.28c-.15 0-.31.02-.48.07-.28.09-.51.3-.7.62s-.33.71-.41 1.15c-.08.45-.12.93-.09 1.45.02.52.11 1.04.26 1.57l4.38-1.64c-.45-1.14-.93-1.96-1.44-2.46-.51-.51-1.02-.76-1.51-.76z"/><path d="m21.27 555.09c-.1 0-.17-.04-.22-.13s-.13-.22-.24-.39c-.11-.16-.25-.33-.42-.48-.17-.16-.37-.29-.6-.41s-.49-.18-.78-.18c-.31 0-.57.07-.76.21s-.29.34-.29.59.09.46.28.63.42.33.7.48.58.29.91.44.63.33.91.54.52.46.7.75c.19.29.28.65.28 1.08s-.09.83-.26 1.14c-.18.31-.4.57-.68.76s-.59.33-.94.42-.7.13-1.05.13c-.57 0-1.05-.06-1.45-.19s-.69-.24-.9-.36c-.23-.13-.35-.33-.35-.58v-1.52c0-.07.03-.12.08-.18.05-.05.11-.08.19-.08.1 0 .18.05.23.15.05.12.14.28.25.49.12.21.26.42.43.63.17.2.37.38.6.53s.48.22.76.22c.36 0 .63-.08.83-.25.19-.16.29-.42.29-.76 0-.29-.09-.53-.28-.72s-.42-.36-.7-.51-.58-.3-.91-.44c-.33-.15-.63-.32-.91-.53-.28-.2-.51-.45-.7-.75-.19-.29-.28-.66-.28-1.11s.1-.78.31-1.06.46-.49.76-.64.61-.26.94-.32.62-.09.86-.09c.54 0 1 .05 1.38.15s.68.2.89.31c.12.05.21.13.28.24s.1.23.1.35v1.16c0 .07-.02.13-.07.18s-.11.07-.18.07h-.01z"/><path d="m23.92 554.82c.09 0 .16.03.22.08.12.08.19.19.19.34v4.33l.42.49c.04.05.07.12.07.2s-.03.15-.09.21-.13.09-.22.09h-2.23c-.08 0-.15-.03-.21-.09s-.09-.13-.09-.21.03-.15.08-.2l.42-.49v-3.32l-.37-.33c-.08-.07-.12-.15-.12-.26 0-.17.08-.28.25-.34l1.57-.47c.06-.01.1-.02.13-.02zm-1.71-1.07c-.03-.14-.03-.28 0-.41.03-.14.08-.26.15-.37.08-.11.17-.21.29-.3.12-.08.25-.14.41-.18.09-.02.18-.03.26-.03.25 0 .47.07.67.22s.33.34.38.57c.06.28 0 .54-.15.78-.16.24-.39.4-.7.47-.09.02-.18.03-.27.03-.25 0-.47-.07-.66-.21s-.32-.33-.37-.56z"/><path d="m27.27 555.26c.17-.11.37-.21.6-.29s.5-.13.81-.13.58.05.83.16.47.26.65.47.33.47.43.78.15.67.15 1.08c0 .53-.08 1-.23 1.41s-.37.74-.65 1.01-.61.47-.99.61-.81.2-1.28.2h-.33v1.58l.43.49c.04.06.07.12.07.2s-.03.15-.09.21-.13.09-.22.09h-2.23c-.09 0-.16-.03-.22-.09s-.09-.13-.09-.21c0-.07.02-.14.07-.2l.42-.49v-5.9l-.36-.33c-.08-.07-.12-.15-.12-.26 0-.17.08-.28.25-.34l1.56-.47c.06-.01.1-.02.13-.02.11 0 .2.04.29.12.08.08.12.18.12.3zm0 4.68s.05.01.1.01c.28 0 .51-.05.7-.14s.35-.23.47-.42.21-.44.26-.73c.05-.3.08-.66.08-1.09 0-.58-.08-1.03-.25-1.34s-.41-.46-.71-.46c-.13 0-.25.02-.36.07-.11.04-.2.1-.29.18v3.93z"/><path d="m34.45 554.82c.09 0 .16.03.22.08.12.08.19.19.19.34v4.33l.42.49c.04.05.07.12.07.2s-.03.15-.09.21-.13.09-.22.09h-2.23c-.08 0-.15-.03-.21-.09s-.09-.13-.09-.21.03-.15.08-.2l.42-.49v-3.32l-.37-.33c-.08-.07-.12-.15-.12-.26 0-.17.08-.28.25-.34l1.57-.47c.06-.01.1-.02.13-.02zm-1.71-1.07c-.03-.14-.03-.28 0-.41.03-.14.08-.26.15-.37.08-.11.17-.21.29-.3.12-.08.25-.14.41-.18.09-.02.18-.03.26-.03.25 0 .47.07.67.22s.33.34.38.57c.06.28 0 .54-.15.78-.16.24-.39.4-.7.47-.09.02-.18.03-.27.03-.25 0-.47-.07-.66-.21s-.32-.33-.37-.56z"/><path d="m39.18 560.57c-.09 0-.16-.03-.22-.09s-.09-.13-.09-.21.02-.15.07-.2l.42-.49v-2.25c0-.65-.04-1.11-.13-1.37s-.25-.39-.49-.39c-.15 0-.29.05-.43.16s-.27.24-.38.38v3.47l.42.49c.05.07.08.13.08.2 0 .08-.03.15-.09.21s-.13.09-.21.09h-2.24c-.08 0-.15-.03-.21-.09s-.09-.13-.09-.21c0-.07.03-.13.08-.2l.42-.49v-3.32l-.37-.33c-.08-.07-.12-.15-.12-.26 0-.17.08-.28.25-.34l1.57-.47c.06-.01.1-.02.13-.02.09 0 .16.03.22.08.12.08.19.19.19.34v.22c.17-.17.37-.31.6-.43s.49-.18.77-.18c.2 0 .42.03.65.1s.44.19.63.36.35.4.47.69.19.66.19 1.11v2.47l.42.49c.05.05.08.12.08.2s-.03.15-.09.21-.13.09-.21.09h-2.23z"/><path d="m45.27 559.43c.07 0 .14.03.2.09.06.07.09.14.08.21 0 .07-.03.14-.09.19-.07.07-.17.15-.28.24s-.25.17-.4.25-.33.14-.52.2c-.19.05-.4.08-.63.08-.16 0-.32-.03-.47-.09s-.29-.14-.42-.26c-.12-.11-.22-.26-.3-.43s-.12-.37-.12-.6v-3.87h-.26c-.1 0-.19-.04-.25-.11-.07-.07-.1-.15-.1-.25 0-.16.08-.27.23-.33.5-.18.88-.4 1.16-.64.27-.24.47-.46.6-.63.06-.07.14-.11.23-.11.02 0 .05 0 .1.02.11.04.16.13.16.25v.95c.31-.08.63-.2.94-.35s.63-.31.94-.49.62-.35.93-.53.62-.34.92-.49.6-.27.9-.36c.3-.1.59-.14.88-.14.23 0 .44.02.63.06s.35.09.5.15c.15.07.27.16.36.29.08.12.13.26.14.4s-.01.28-.07.42-.15.25-.29.34c-.15.1-.31.15-.48.15-.2 0-.39-.07-.55-.21-.13-.12-.29-.22-.47-.29s-.39-.1-.64-.1c-.28 0-.59.07-.94.2s-.72.29-1.12.48-.82.38-1.26.58-.88.36-1.33.49v3.74c0 .2.04.36.13.48s.22.19.41.19c.07 0 .14-.01.2-.03s.12-.05.17-.09c.06-.04.11-.05.16-.05z"/><path d="m48.42 554.83c.44 0 .84.07 1.21.22s.68.35.94.6c.26.26.47.56.61.92.15.36.22.75.22 1.18s-.07.82-.22 1.17c-.15.36-.35.67-.61.93s-.58.46-.94.6c-.37.14-.77.21-1.21.21s-.84-.07-1.21-.21-.68-.34-.94-.6-.46-.57-.61-.93-.22-.75-.22-1.17.07-.83.22-1.18c.15-.36.35-.67.61-.92.26-.26.57-.46.94-.6.37-.15.77-.22 1.21-.22zm-.41.65c-.33.05-.54.27-.65.65-.1.38-.08.98.07 1.81.14.76.31 1.3.5 1.63.2.33.44.49.72.49.07 0 .13 0 .16-.01.34-.06.56-.28.66-.65.1-.38.08-.98-.07-1.8-.14-.76-.31-1.3-.5-1.63-.2-.33-.44-.49-.73-.49-.07 0-.13 0-.16.01z"/><path d="m59.2 554.84c.08 0 .15.03.21.09s.09.13.09.21-.03.15-.09.21l-.49.49-2.41 5.32c-.12.27-.26.53-.42.78s-.35.47-.56.65c-.21.19-.45.33-.71.44s-.55.16-.87.16c-.25 0-.47-.07-.67-.21s-.33-.33-.38-.56c-.03-.14-.03-.28 0-.41.03-.14.08-.26.15-.37.08-.11.18-.21.3-.3.12-.08.25-.14.4-.18.04-.01.07-.02.09-.02h.31c.22 0 .41.03.58.08.16.05.31.08.43.08.1 0 .19-.03.27-.08s.15-.16.22-.32l.15-.33-2.14-4.73-.49-.49c-.06-.05-.09-.12-.09-.21 0-.08.03-.15.09-.21s.13-.09.21-.09h2.56c.09 0 .16.03.22.09s.09.14.09.22c0 .07-.02.13-.05.19l-.36.49.93 2.14s.05.07.1.07.08-.02.1-.07l1.01-2.24-.35-.39c-.07-.07-.09-.15-.08-.24.01-.08.05-.14.1-.19s.12-.07.2-.07h1.36z"/><path d="m62.03 554.83c.44 0 .84.07 1.21.22s.68.35.94.6c.26.26.47.56.61.92.15.36.22.75.22 1.18s-.07.82-.22 1.17c-.15.36-.35.67-.61.93s-.58.46-.94.6c-.37.14-.77.21-1.21.21s-.84-.07-1.21-.21-.68-.34-.94-.6-.46-.57-.61-.93-.22-.75-.22-1.17.07-.83.22-1.18c.15-.36.35-.67.61-.92.26-.26.57-.46.94-.6.37-.15.77-.22 1.21-.22zm-.41.65c-.33.05-.54.27-.65.65-.1.38-.08.98.07 1.81.14.76.31 1.3.5 1.63.2.33.44.49.72.49.07 0 .13 0 .16-.01.34-.06.56-.28.66-.65.1-.38.08-.98-.07-1.8-.14-.76-.31-1.3-.5-1.63-.2-.33-.44-.49-.73-.49-.07 0-.13 0-.16.01z"/><path d="m68.86 559.97c-.17.19-.37.35-.59.49-.23.14-.49.21-.78.21-.2 0-.41-.03-.64-.1s-.44-.19-.63-.36-.35-.4-.48-.69c-.12-.29-.19-.66-.19-1.11v-2.58l-.42-.49c-.05-.07-.08-.13-.08-.2 0-.08.03-.15.09-.21s.13-.09.21-.09h1.72c.09 0 .17.03.24.09.06.06.09.14.09.24v3.03c0 .33 0 .6.03.82.02.22.05.39.1.52s.12.22.2.28c.08.05.18.08.3.08.15 0 .3-.06.44-.18s.26-.26.37-.42v-3.46l-.42-.49c-.04-.06-.07-.12-.07-.2s.03-.15.09-.21.13-.09.22-.09h1.71c.1 0 .17.03.24.09.06.06.09.14.09.24v4.1l.37.32c.07.07.11.15.12.24 0 .08-.01.16-.06.22-.05.07-.11.12-.19.15l-1.57.47c-.06.01-.1.02-.12.02-.11 0-.21-.04-.29-.13-.08-.08-.13-.18-.13-.29v-.31z"/><path d="m74.23 560.06c.05.07.08.13.08.2 0 .08-.03.15-.09.21s-.13.09-.21.09h-2.24c-.08 0-.15-.03-.21-.09s-.09-.13-.09-.21c0-.07.03-.13.08-.2l.42-.49v-3.32l-.37-.33c-.08-.07-.12-.15-.12-.26 0-.17.08-.28.25-.34l1.57-.47c.06-.01.1-.02.13-.02.09 0 .16.03.22.08.12.08.19.19.19.34v.52c.18-.26.38-.48.63-.67.24-.19.53-.29.86-.29.23 0 .43.06.6.19.18.13.29.3.35.51.03.12.03.25 0 .39s-.08.26-.15.37c-.08.11-.18.2-.3.27s-.27.1-.44.1c-.11 0-.21-.04-.31-.11s-.19-.15-.27-.24c-.09-.08-.17-.16-.25-.24-.08-.07-.16-.11-.25-.11-.07 0-.14.03-.21.09-.08.06-.16.17-.25.32v3.21l.42.49z"/></g><path d="m0 0h160v600h-160z" fill="none"/></svg>